<svg width="247" height="50" viewBox="0 0 247 50" fill="none" xmlns="http://www.w3.org/2000/svg">
<path fill-rule="evenodd" clip-rule="evenodd" d="M61.338 39.6418H62.923V38.8078H58.7624V39.6418H60.3474V44.8443H61.338V39.6418ZM95.7316 40.2772L95.7713 39.2844C95.1769 38.8872 94.5429 38.6489 93.8297 38.6489C92.9183 38.6489 92.1258 38.9667 91.5315 39.5624C90.9371 40.1581 90.6201 40.9524 90.6201 41.8261C90.6201 42.6998 90.9371 43.5338 91.5315 44.0898C92.1258 44.6855 92.9183 45.0032 93.8297 45.0032C94.5429 45.0032 95.1769 44.8046 95.692 44.4472V43.3352C95.0976 43.8515 94.4637 44.0898 93.7504 44.0898C92.5617 44.0898 91.6107 43.1763 91.6107 41.8261C91.6107 40.4758 92.5221 39.5227 93.8297 39.5227C94.5429 39.5624 95.1769 39.8006 95.7316 40.2772ZM144.509 41.8658L145.182 44.8443H146.094L144.628 38.5695L142.884 42.3821C142.805 42.5806 142.646 42.8586 142.528 43.2161C142.369 42.7792 142.25 42.5012 142.211 42.3821L140.428 38.5695L139.001 44.8443H139.912L140.546 41.8658C140.586 41.5878 140.665 41.3098 140.665 41.0318C140.745 41.3098 140.824 41.5481 140.943 41.7864L142.528 45.0826L144.113 41.8658C144.231 41.5878 144.35 41.3098 144.39 41.0318C144.469 41.4686 144.509 41.7466 144.509 41.8658ZM212.9 44.8443H213.93L210.998 38.5695L208.066 44.8443H209.096L209.809 43.2955H212.187L212.9 44.8443ZM210.205 42.4615L210.839 41.0715C210.919 40.9126 210.998 40.6744 211.077 40.3964C211.156 40.7141 211.236 40.9126 211.315 41.0715L211.949 42.4615H210.205ZM64.7853 41.8261L63.7551 41.6275C63.8739 41.1906 64.0721 40.8729 64.3494 40.6744C64.6268 40.4758 65.0627 40.3567 65.6174 40.3567C66.1325 40.3567 66.5287 40.4361 66.7665 40.5552C67.0042 40.6744 67.2024 40.8332 67.2816 41.0318C67.4005 41.2304 67.4401 41.5481 67.4401 42.0643V43.4146C67.4401 43.8118 67.4401 44.0898 67.4797 44.2486C67.5193 44.4075 67.5986 44.6458 67.6778 44.8443H66.5287C66.4891 44.7649 66.4495 44.6458 66.4099 44.4869C66.4099 44.4075 66.3702 44.3678 66.3702 44.3678C66.1721 44.5663 65.974 44.7252 65.7363 44.8046C65.4985 44.8841 65.2608 44.9635 65.023 44.9635C64.5872 44.9635 64.2305 44.8443 63.9532 44.6061C63.6758 44.3678 63.5569 44.0501 63.5569 43.6927C63.5569 43.4544 63.5966 43.2161 63.7154 43.0175C63.8343 42.8189 63.9928 42.6601 64.2306 42.5806C64.4287 42.4615 64.7457 42.3821 65.1419 42.3027C65.6966 42.1835 66.0533 42.1041 66.2514 42.0246V41.9055C66.2514 41.6672 66.2118 41.5084 66.0929 41.4289C65.974 41.3495 65.7759 41.2701 65.4589 41.2701C65.2608 41.2701 65.1023 41.3098 64.9834 41.3892C64.9438 41.4687 64.8645 41.5878 64.7853 41.8261ZM66.3306 42.7395C66.1721 42.7792 65.9344 42.8587 65.6174 42.8984C65.3004 42.9778 65.1023 43.0175 64.9834 43.0969C64.8249 43.2161 64.7457 43.3352 64.7457 43.4941C64.7457 43.6529 64.8249 43.8118 64.9438 43.9309C65.0627 44.0501 65.2212 44.0898 65.4193 44.0898C65.6174 44.0898 65.8155 44.0104 66.0136 43.8912C66.1721 43.7721 66.2514 43.6529 66.291 43.4941C66.3306 43.4147 66.3306 43.2161 66.3306 42.9381V42.7395ZM68.9062 39.8801V38.8078H70.0553V39.8801H68.9062ZM68.9062 44.8443V40.4361H70.0553V44.8443H68.9062ZM72.3931 44.8443L71.0063 40.4361H72.1157L72.9478 43.2955L73.7007 40.4361H74.8102L75.5234 43.2955L76.3555 40.4361H77.5046L76.0781 44.8443H74.9687L74.2158 42.0246L73.4629 44.8443H72.3931ZM79.3273 41.8261L78.2971 41.6275C78.4159 41.1906 78.6141 40.8729 78.8914 40.6744C79.1688 40.4758 79.6047 40.3567 80.1594 40.3567C80.6745 40.3567 81.0707 40.4361 81.3085 40.5552C81.5462 40.6744 81.7444 40.8332 81.8236 41.0318C81.9425 41.2304 81.9821 41.5481 81.9821 42.0643V43.4146C81.9821 43.8118 81.9821 44.0898 82.0217 44.2486C82.0614 44.4075 82.1406 44.6458 82.2198 44.8443H81.0708C81.0311 44.7649 80.9915 44.6458 80.9519 44.4869C80.9519 44.4075 80.9123 44.3678 80.9123 44.3678C80.7141 44.5663 80.516 44.7252 80.2783 44.8046C80.0405 44.8841 79.8028 44.9635 79.565 44.9635C79.1292 44.9635 78.7726 44.8443 78.4952 44.6061C78.2178 44.3678 78.099 44.0501 78.099 43.6927C78.099 43.4544 78.1386 43.2161 78.2574 43.0175C78.3763 42.8189 78.5348 42.6601 78.7726 42.5806C78.9707 42.4615 79.2877 42.3821 79.6839 42.3027C80.2386 42.1835 80.5953 42.1041 80.7934 42.0246V41.9055C80.7934 41.6672 80.7538 41.5084 80.6349 41.4289C80.516 41.3495 80.3179 41.2701 80.0009 41.2701C79.8028 41.2701 79.6443 41.3098 79.5254 41.3892C79.4858 41.4687 79.3669 41.5878 79.3273 41.8261ZM80.8726 42.7395C80.7141 42.7792 80.4764 42.8587 80.1594 42.8984C79.8424 42.9778 79.6443 43.0175 79.5254 43.0969C79.3669 43.2161 79.2877 43.3352 79.2877 43.4941C79.2877 43.6529 79.3669 43.8118 79.4858 43.9309C79.6047 44.0501 79.7632 44.0898 79.9613 44.0898C80.1594 44.0898 80.3575 44.0104 80.5556 43.8912C80.7141 43.7721 80.7934 43.6529 80.833 43.4941C80.8726 43.4147 80.8726 43.2161 80.8726 42.9381V42.7395ZM86.3011 44.8443V42.6203C86.3011 42.1438 86.2615 41.8261 86.2219 41.707C86.1822 41.5481 86.103 41.4687 85.9841 41.3892C85.8652 41.3098 85.7464 41.2701 85.5879 41.2701C85.3898 41.2701 85.1916 41.3098 85.0331 41.4289C84.8747 41.5481 84.7558 41.6672 84.7162 41.8658C84.6369 42.0643 84.6369 42.3821 84.6369 42.8586V44.8443H83.4878V40.4361H84.5577V41.0715C84.9539 40.5949 85.4294 40.317 86.0238 40.317C86.2615 40.317 86.4992 40.3566 86.737 40.4361C86.9351 40.5155 87.0936 40.6347 87.2125 40.7935C87.3313 40.9524 87.4106 41.1112 87.4502 41.2701C87.4898 41.4686 87.5295 41.7069 87.5295 42.0643V44.8443H86.3011ZM97.1977 44.8443V38.7681H98.3468V44.8443H97.1977ZM99.8525 39.8801V38.8078H101.002V39.8801H99.8525ZM99.8525 44.8443V40.4361H101.002V44.8443H99.8525ZM102.428 40.4758H103.498V41.0715C103.894 40.5949 104.33 40.3964 104.845 40.3964C105.123 40.3964 105.36 40.4361 105.558 40.5552C105.757 40.6744 105.915 40.8332 106.074 41.0715C106.272 40.8332 106.47 40.6744 106.707 40.5552C106.945 40.4361 107.183 40.3964 107.421 40.3964C107.738 40.3964 108.015 40.4758 108.253 40.5949C108.491 40.7141 108.649 40.9127 108.768 41.1907C108.847 41.3892 108.887 41.6672 108.887 42.1041V44.9238H107.738V42.4218C107.738 41.9849 107.698 41.7069 107.619 41.5878C107.5 41.4289 107.341 41.3495 107.143 41.3495C106.985 41.3495 106.826 41.3892 106.668 41.5084C106.509 41.6275 106.43 41.7467 106.351 41.9452C106.272 42.1438 106.272 42.4218 106.272 42.8586V44.9635H105.123V42.5409C105.123 42.1041 105.083 41.8261 105.043 41.707C105.004 41.5878 104.924 41.5084 104.845 41.4289C104.766 41.3495 104.647 41.3495 104.489 41.3495C104.29 41.3495 104.132 41.3892 104.013 41.5084C103.855 41.5878 103.775 41.7467 103.696 41.9452C103.617 42.1438 103.617 42.4218 103.617 42.8586V45.0032H102.428V40.4758ZM110.274 44.8443V38.7681H111.423V40.9524C111.779 40.5552 112.215 40.3567 112.691 40.3567C113.206 40.3567 113.681 40.5552 113.998 40.9524C114.355 41.3495 114.513 41.9055 114.513 42.6203C114.513 43.3749 114.355 43.9309 113.998 44.3678C113.642 44.7649 113.206 44.9635 112.691 44.9635C112.453 44.9635 112.176 44.8841 111.938 44.7649C111.7 44.6458 111.502 44.4472 111.304 44.2089V44.8443H110.274ZM111.383 42.5806C111.383 43.0175 111.462 43.3749 111.581 43.5735C111.779 43.8912 112.057 44.05 112.374 44.05C112.611 44.05 112.849 43.9309 113.047 43.7324C113.245 43.4941 113.325 43.1764 113.325 42.6998C113.325 42.1835 113.245 41.8261 113.047 41.6275C112.849 41.3892 112.651 41.3098 112.334 41.3098C112.057 41.3098 111.819 41.4289 111.621 41.6275C111.502 41.7864 111.383 42.1438 111.383 42.5806ZM115.781 39.8801V38.8078H116.93V39.8801H115.781ZM115.781 44.8443V40.4361H116.93V44.8443H115.781ZM121.249 44.8443V42.6203C121.249 42.1438 121.21 41.8261 121.17 41.707C121.131 41.5481 121.051 41.4687 120.932 41.3892C120.814 41.3098 120.695 41.2701 120.536 41.2701C120.338 41.2701 120.14 41.3098 119.982 41.4289C119.823 41.5481 119.704 41.6672 119.665 41.8658C119.585 42.0643 119.585 42.3821 119.585 42.8586V44.8443H118.436V40.4361H119.506V41.0715C119.902 40.5949 120.378 40.317 120.972 40.317C121.21 40.317 121.448 40.3566 121.685 40.4361C121.883 40.5155 122.042 40.6347 122.161 40.7935C122.28 40.9524 122.359 41.1112 122.399 41.2701C122.438 41.4686 122.478 41.7069 122.478 42.0643V44.8443H121.249ZM123.785 45.1224L125.093 45.2812C125.133 45.4401 125.172 45.5592 125.252 45.5989C125.37 45.6783 125.529 45.7181 125.767 45.7181C126.084 45.7181 126.282 45.6783 126.44 45.5989C126.559 45.5195 126.638 45.4401 126.678 45.3209C126.718 45.2415 126.718 45.0429 126.718 44.8046V44.1692C126.361 44.6458 125.925 44.8841 125.41 44.8841C124.816 44.8841 124.34 44.6458 124.023 44.1295C123.746 43.7324 123.627 43.2558 123.627 42.6601C123.627 41.9055 123.785 41.3495 124.142 40.9921C124.499 40.5949 124.935 40.3964 125.45 40.3964C126.004 40.3964 126.44 40.6347 126.797 41.1112V40.4758H127.867V44.4075C127.867 44.9238 127.827 45.3209 127.748 45.5592C127.669 45.7975 127.55 46.0358 127.391 46.1549C127.233 46.3138 127.035 46.4329 126.757 46.5123C126.519 46.5918 126.163 46.6315 125.767 46.6315C125.014 46.6315 124.499 46.5123 124.182 46.2343C123.865 45.996 123.706 45.6386 123.706 45.2415C123.785 45.2415 123.785 45.2018 123.785 45.1224ZM124.816 42.5806C124.816 43.0572 124.895 43.3749 125.093 43.6132C125.291 43.8118 125.489 43.9309 125.767 43.9309C126.044 43.9309 126.282 43.8118 126.48 43.6132C126.678 43.3749 126.757 43.0572 126.757 42.6203C126.757 42.1835 126.678 41.8261 126.48 41.6275C126.282 41.3892 126.044 41.3098 125.767 41.3098C125.489 41.3098 125.252 41.4289 125.093 41.6275C124.895 41.7864 124.816 42.1438 124.816 42.5806ZM136.584 44.1295L135.871 45.0429C135.514 44.884 135.197 44.6458 134.88 44.3678C134.642 44.6061 134.365 44.7649 134.088 44.8443C133.81 44.9635 133.493 45.0032 133.097 45.0032C132.344 45.0032 131.789 44.8046 131.393 44.3678C131.116 44.0501 130.957 43.6529 130.957 43.2161C130.957 42.8189 131.076 42.4615 131.314 42.1835C131.552 41.8658 131.908 41.5878 132.344 41.3892C132.146 41.1509 131.988 40.9126 131.869 40.6744C131.75 40.4361 131.71 40.2375 131.71 40.0389C131.71 39.6815 131.869 39.3638 132.146 39.0858C132.423 38.8475 132.859 38.6887 133.414 38.6887C133.929 38.6887 134.325 38.8078 134.642 39.0858C134.92 39.3638 135.078 39.6815 135.078 40.0786C135.078 40.3169 134.999 40.5552 134.88 40.7935C134.722 41.0318 134.444 41.2701 134.008 41.5481L134.841 42.6601C134.92 42.5012 135.039 42.2629 135.078 41.9849L136.148 42.2232C136.029 42.5806 135.95 42.8586 135.871 43.0572C135.791 43.216 135.712 43.3749 135.633 43.4941C135.752 43.6132 135.95 43.7324 136.148 43.8912C136.346 43.9707 136.505 44.0898 136.584 44.1295ZM133.414 40.8332L133.731 40.5949C133.969 40.3964 134.088 40.2375 134.088 40.0786C134.088 39.9198 134.048 39.8006 133.929 39.6815C133.81 39.5624 133.652 39.5227 133.493 39.5227C133.295 39.5227 133.176 39.5624 133.057 39.6418C132.939 39.7212 132.899 39.8404 132.899 39.9595C132.899 40.1184 132.978 40.2772 133.176 40.4758L133.414 40.8332ZM132.978 42.0643C132.701 42.1835 132.503 42.3821 132.384 42.5409C132.265 42.7395 132.186 42.9381 132.186 43.1367C132.186 43.3749 132.265 43.6132 132.423 43.7324C132.582 43.8912 132.82 43.9706 133.097 43.9706C133.295 43.9706 133.454 43.9309 133.612 43.8515C133.771 43.772 133.969 43.6529 134.167 43.4941L132.978 42.0643ZM146.847 42.6203C146.847 42.2232 146.926 41.8658 147.124 41.5084C147.322 41.151 147.599 40.8729 147.916 40.6744C148.273 40.4758 148.669 40.3964 149.066 40.3964C149.739 40.3964 150.254 40.5949 150.69 41.0318C151.126 41.4686 151.324 42.0246 151.324 42.6601C151.324 43.3352 151.126 43.8912 150.69 44.3281C150.254 44.7649 149.739 45.0032 149.066 45.0032C148.669 45.0032 148.273 44.9238 147.916 44.7252C147.56 44.5266 147.282 44.2884 147.084 43.9309C146.965 43.5338 146.847 43.0969 146.847 42.6203ZM148.075 42.6601C148.075 43.0969 148.194 43.4146 148.392 43.6529C148.59 43.8912 148.867 44.0103 149.145 44.0103C149.462 44.0103 149.7 43.8912 149.898 43.6529C150.096 43.4146 150.215 43.0969 150.215 42.6601C150.215 42.2232 150.096 41.9055 149.898 41.6672C149.7 41.4289 149.422 41.3098 149.145 41.3098C148.828 41.3098 148.59 41.4289 148.392 41.6672C148.154 41.9055 148.075 42.2232 148.075 42.6601ZM155.485 44.8443V44.1692C155.326 44.4075 155.128 44.6061 154.851 44.7252C154.573 44.8444 154.336 44.9238 154.019 44.9238C153.741 44.9238 153.464 44.8444 153.226 44.7252C152.988 44.6061 152.83 44.4075 152.711 44.1692C152.592 43.9309 152.552 43.6132 152.552 43.1764V40.3964H153.702V42.4218C153.702 43.0572 153.741 43.4146 153.781 43.5735C153.82 43.7324 153.9 43.8118 154.019 43.8912C154.137 43.9707 154.256 44.0103 154.454 44.0103C154.653 44.0103 154.811 43.9706 154.97 43.8515C155.128 43.7323 155.247 43.6132 155.286 43.4543C155.326 43.2955 155.366 42.8983 155.366 42.2629V40.3964H156.515V44.8046H155.485V44.8443ZM160.913 44.8443V42.6203C160.913 42.1438 160.873 41.8261 160.834 41.707C160.794 41.5481 160.715 41.4687 160.596 41.3892C160.477 41.3098 160.358 41.2701 160.2 41.2701C160.002 41.2701 159.804 41.3098 159.645 41.4289C159.487 41.5481 159.368 41.6672 159.328 41.8658C159.249 42.0643 159.249 42.3821 159.249 42.8586V44.8443H158.1V40.4361H159.17V41.0715C159.566 40.5949 160.041 40.317 160.636 40.317C160.873 40.317 161.111 40.3566 161.349 40.4361C161.547 40.5155 161.706 40.6347 161.824 40.7935C161.943 40.9524 162.023 41.1112 162.062 41.2701C162.102 41.4686 162.141 41.7069 162.141 42.0643V44.8443H160.913ZM165.549 40.4758V41.3892H164.757V43.1764C164.757 43.5338 164.757 43.7323 164.796 43.8118C164.796 43.8515 164.836 43.9309 164.915 43.9706C164.955 44.0104 165.034 44.0103 165.113 44.0103C165.232 44.0103 165.391 43.9707 165.589 43.8912L165.668 44.8046C165.391 44.9238 165.113 44.9635 164.757 44.9635C164.559 44.9635 164.36 44.9238 164.202 44.8443C164.043 44.7649 163.925 44.6855 163.845 44.5663C163.766 44.4472 163.726 44.2884 163.687 44.1295C163.647 44.0104 163.647 43.7324 163.647 43.2955V41.3892H163.053V40.4758H163.568V39.6021L164.717 38.927V40.4758H165.549ZM167.491 41.8261L166.46 41.6275C166.579 41.1906 166.777 40.8729 167.055 40.6744C167.332 40.4758 167.768 40.3567 168.323 40.3567C168.838 40.3567 169.234 40.4361 169.472 40.5552C169.71 40.6744 169.908 40.8332 169.987 41.0318C170.106 41.2304 170.145 41.5481 170.145 42.0643V43.4146C170.145 43.8118 170.146 44.0898 170.185 44.2486C170.225 44.4075 170.304 44.6458 170.383 44.8443H169.234C169.195 44.7649 169.155 44.6458 169.115 44.4869C169.115 44.4075 169.076 44.3678 169.076 44.3678C168.878 44.5663 168.679 44.7252 168.442 44.8046C168.204 44.8841 167.966 44.9635 167.728 44.9635C167.293 44.9635 166.936 44.8443 166.659 44.6061C166.381 44.3678 166.262 44.0501 166.262 43.6927C166.262 43.4544 166.302 43.2161 166.421 43.0175C166.54 42.8189 166.698 42.6601 166.936 42.5806C167.134 42.4615 167.451 42.3821 167.847 42.3027C168.402 42.1835 168.759 42.1041 168.957 42.0246V41.9055C168.957 41.6672 168.917 41.5084 168.798 41.4289C168.679 41.3495 168.481 41.2701 168.164 41.2701C167.966 41.2701 167.808 41.3098 167.689 41.3892C167.689 41.4687 167.57 41.5878 167.491 41.8261ZM169.076 42.7395C168.917 42.7792 168.679 42.8587 168.362 42.8984C168.045 42.9778 167.847 43.0175 167.728 43.0969C167.57 43.2161 167.491 43.3352 167.491 43.4941C167.491 43.6529 167.57 43.8118 167.689 43.9309C167.808 44.0501 167.966 44.0898 168.164 44.0898C168.362 44.0898 168.561 44.0104 168.759 43.8912C168.917 43.7721 168.996 43.6529 169.036 43.4941C169.076 43.4147 169.076 43.2161 169.076 42.9381V42.7395ZM171.651 39.8801V38.8078H172.8V39.8801H171.651ZM171.651 44.8443V40.4361H172.8V44.8443H171.651ZM177.159 44.8443V42.6203C177.159 42.1438 177.119 41.8261 177.08 41.707C177.04 41.5481 176.961 41.4687 176.842 41.3892C176.723 41.3098 176.604 41.2701 176.446 41.2701C176.248 41.2701 176.049 41.3098 175.891 41.4289C175.732 41.5481 175.614 41.6672 175.574 41.8658C175.495 42.0643 175.495 42.3821 175.495 42.8586V44.8443H174.346V40.4361H175.415V41.0715C175.812 40.5949 176.287 40.317 176.882 40.317C177.119 40.317 177.357 40.3566 177.595 40.4361C177.793 40.5155 177.951 40.6347 178.07 40.7935C178.189 40.9524 178.268 41.1112 178.308 41.2701C178.348 41.4686 178.387 41.7069 178.387 42.0643V44.8443H177.159ZM182.31 43.4543L183.459 43.6529C183.301 44.0898 183.063 44.4075 182.746 44.6061C182.429 44.8443 182.033 44.9238 181.557 44.9238C180.804 44.9238 180.25 44.6855 179.853 44.1692C179.576 43.7721 179.418 43.2558 179.418 42.6601C179.418 41.9452 179.616 41.3495 179.972 40.9524C180.368 40.5552 180.844 40.317 181.399 40.317C182.033 40.317 182.548 40.5155 182.944 40.9524C183.301 41.3892 183.499 42.0644 183.499 42.9381H180.606C180.606 43.2955 180.725 43.5338 180.884 43.7324C181.042 43.9309 181.28 44.0103 181.557 44.0103C181.755 44.0103 181.874 43.9706 182.033 43.8515C182.152 43.8515 182.231 43.6926 182.31 43.4543ZM182.389 42.3027C182.389 41.985 182.31 41.7069 182.112 41.5481C181.953 41.3892 181.755 41.2701 181.518 41.2701C181.28 41.2701 181.042 41.3495 180.884 41.5481C180.725 41.7467 180.646 41.985 180.646 42.3027H182.389ZM187.303 43.4543L188.452 43.6529C188.293 44.0898 188.056 44.4075 187.739 44.6061C187.422 44.8443 187.025 44.9238 186.55 44.9238C185.797 44.9238 185.242 44.6855 184.846 44.1692C184.569 43.7721 184.41 43.2558 184.41 42.6601C184.41 41.9452 184.608 41.3495 184.965 40.9524C185.361 40.5552 185.837 40.317 186.391 40.317C187.025 40.317 187.54 40.5155 187.937 40.9524C188.293 41.3892 188.491 42.0644 188.491 42.9381H185.638C185.638 43.2955 185.757 43.5338 185.916 43.7324C186.074 43.9309 186.312 44.0103 186.589 44.0103C186.788 44.0103 186.906 43.9706 187.065 43.8515C187.144 43.8515 187.223 43.6926 187.303 43.4543ZM187.382 42.3027C187.382 41.985 187.303 41.7069 187.105 41.5481C186.946 41.3892 186.748 41.2701 186.51 41.2701C186.272 41.2701 186.035 41.3495 185.876 41.5481C185.718 41.7467 185.638 41.985 185.638 42.3027H187.382ZM189.72 44.8443V40.4361H190.79V41.0715C190.988 40.7935 191.146 40.5949 191.305 40.4758C191.463 40.3964 191.622 40.3567 191.82 40.3567C192.097 40.3567 192.335 40.4361 192.573 40.5949L192.216 41.5878C192.018 41.4687 191.82 41.3892 191.661 41.3892C191.503 41.3892 191.344 41.429 191.265 41.5084C191.146 41.5878 191.067 41.7467 190.988 41.9849C190.908 42.2232 190.908 42.6998 190.908 43.4543V44.8443H189.72ZM193.365 39.8801V38.8078H194.514V39.8801H193.365ZM193.365 44.8443V40.4361H194.514V44.8443H193.365ZM198.873 44.8443V42.6203C198.873 42.1438 198.833 41.8261 198.794 41.707C198.754 41.5481 198.675 41.4687 198.556 41.3892C198.437 41.3098 198.318 41.2701 198.16 41.2701C197.962 41.2701 197.763 41.3098 197.605 41.4289C197.446 41.5481 197.328 41.6672 197.288 41.8658C197.209 42.0643 197.209 42.3821 197.209 42.8586V44.8443H196.06V40.4361H197.129V41.0715C197.526 40.5949 198.001 40.317 198.596 40.317C198.833 40.317 199.071 40.3566 199.309 40.4361C199.507 40.5155 199.665 40.6347 199.784 40.7935C199.903 40.9524 199.982 41.1112 200.022 41.2701C200.062 41.4686 200.101 41.7069 200.101 42.0643V44.8443H198.873ZM201.369 45.1224L202.677 45.2812C202.716 45.4401 202.756 45.5592 202.835 45.5989C202.954 45.6783 203.113 45.7181 203.35 45.7181C203.667 45.7181 203.866 45.6783 204.024 45.5989C204.143 45.5195 204.222 45.4401 204.262 45.3209C204.301 45.2415 204.301 45.0429 204.301 44.8046V44.1692C203.945 44.6458 203.509 44.8841 202.994 44.8841C202.399 44.8841 201.924 44.6458 201.607 44.1295C201.33 43.7324 201.211 43.2558 201.211 42.6601C201.211 41.9055 201.369 41.3495 201.726 40.9921C202.082 40.5949 202.518 40.3964 203.033 40.3964C203.588 40.3964 204.024 40.6347 204.381 41.1112V40.4758H205.45V44.4075C205.45 44.9238 205.411 45.3209 205.332 45.5592C205.252 45.7975 205.133 46.0358 204.975 46.1549C204.816 46.3138 204.618 46.4329 204.341 46.5123C204.103 46.5918 203.747 46.6315 203.35 46.6315C202.598 46.6315 202.082 46.5123 201.765 46.2343C201.448 45.996 201.29 45.6386 201.29 45.2415C201.369 45.2415 201.369 45.2018 201.369 45.1224ZM202.399 42.5806C202.399 43.0572 202.479 43.3749 202.677 43.6132C202.875 43.8118 203.073 43.9309 203.35 43.9309C203.628 43.9309 203.866 43.8118 204.064 43.6132C204.262 43.3749 204.341 43.0572 204.341 42.6203C204.341 42.1835 204.262 41.8261 204.064 41.6275C203.866 41.3892 203.628 41.3098 203.35 41.3098C203.073 41.3098 202.835 41.4289 202.677 41.6275C202.518 41.7864 202.399 42.1438 202.399 42.5806ZM214.762 44.8443V38.7681H215.911V44.8443H214.762ZM217.417 44.8443V38.7681H218.566V44.8443H217.417ZM220.072 39.8801V38.8078H221.221V39.8801H220.072ZM220.072 44.8443V40.4361H221.221V44.8443H220.072ZM223.559 41.8261L222.528 41.6275C222.647 41.1906 222.845 40.8729 223.123 40.6744C223.4 40.4758 223.836 40.3567 224.391 40.3567C224.906 40.3567 225.302 40.4361 225.54 40.5552C225.778 40.6744 225.976 40.8332 226.055 41.0318C226.174 41.2304 226.213 41.5481 226.213 42.0643V43.4146C226.213 43.8118 226.213 44.0898 226.253 44.2486C226.293 44.4472 226.372 44.6458 226.451 44.8443H225.302C225.262 44.7649 225.223 44.6458 225.183 44.4869C225.183 44.4075 225.144 44.3678 225.144 44.3678C224.946 44.5663 224.747 44.7252 224.51 44.8046C224.272 44.8841 224.034 44.9635 223.796 44.9635C223.361 44.9635 223.004 44.8443 222.727 44.6061C222.449 44.3678 222.33 44.0501 222.33 43.6927C222.33 43.4544 222.37 43.2161 222.489 43.0175C222.608 42.8189 222.766 42.6601 223.004 42.5806C223.202 42.4615 223.519 42.3821 223.915 42.3027C224.47 42.1835 224.827 42.1041 225.025 42.0246V41.9055C225.025 41.6672 224.985 41.5084 224.866 41.4289C224.747 41.3495 224.549 41.2701 224.232 41.2701C224.034 41.2701 223.876 41.3098 223.757 41.3892C223.757 41.4687 223.638 41.5878 223.559 41.8261ZM225.144 42.7395C224.985 42.7792 224.747 42.8587 224.43 42.8984C224.113 42.9778 223.915 43.0175 223.796 43.0969C223.638 43.2161 223.559 43.3352 223.559 43.4941C223.559 43.6529 223.638 43.8118 223.757 43.9309C223.876 44.0501 224.034 44.0898 224.232 44.0898C224.43 44.0898 224.629 44.0104 224.827 43.8912C224.985 43.7721 225.064 43.6529 225.104 43.4941C225.144 43.4147 225.144 43.2161 225.144 42.9381V42.7395ZM230.532 44.8443V42.6203C230.532 42.1438 230.493 41.8261 230.453 41.707C230.414 41.5481 230.334 41.4687 230.215 41.3892C230.097 41.3098 229.978 41.2701 229.819 41.2701C229.621 41.2701 229.423 41.3098 229.265 41.4289C229.106 41.5481 228.987 41.6672 228.948 41.8658C228.868 42.0643 228.868 42.3821 228.868 42.8586V44.8443H227.719V40.4361H228.789V41.0715C229.185 40.5949 229.661 40.317 230.255 40.317C230.493 40.317 230.731 40.3566 230.968 40.4361C231.166 40.5155 231.325 40.6347 231.444 40.7935C231.563 40.9524 231.642 41.1112 231.682 41.2701C231.721 41.4686 231.761 41.7069 231.761 42.0643V44.8443H230.532ZM236.991 41.7467L235.842 41.9452C235.802 41.7069 235.723 41.5481 235.565 41.4289C235.446 41.3098 235.248 41.2701 235.05 41.2701C234.772 41.2701 234.535 41.3892 234.376 41.5878C234.218 41.7864 234.099 42.1041 234.099 42.5806C234.099 43.0969 234.178 43.4544 234.376 43.6927C234.535 43.8912 234.772 44.0103 235.089 44.0103C235.327 44.0103 235.485 43.9309 235.644 43.8118C235.802 43.6926 235.882 43.4544 235.961 43.1764L237.11 43.3749C236.991 43.8912 236.753 44.2883 236.436 44.5663C236.119 44.8443 235.644 44.9635 235.089 44.9635C234.455 44.9635 233.94 44.7649 233.544 44.3678C233.148 43.9706 232.989 43.4147 232.989 42.6998C232.989 41.985 233.187 41.4289 233.544 40.9921C233.94 40.5949 234.455 40.3964 235.089 40.3964C235.604 40.3964 236.04 40.5155 236.357 40.7538C236.635 40.9524 236.872 41.3098 236.991 41.7467ZM240.716 43.4543L241.865 43.6529C241.706 44.0898 241.469 44.4075 241.152 44.6061C240.835 44.8443 240.438 44.9238 239.963 44.9238C239.21 44.9238 238.655 44.6855 238.259 44.1692C237.982 43.7721 237.823 43.2558 237.823 42.6601C237.823 41.9452 238.021 41.3495 238.378 40.9524C238.774 40.5552 239.25 40.317 239.805 40.317C240.438 40.317 240.954 40.5155 241.35 40.9524C241.706 41.3892 241.905 42.0644 241.905 42.9381H239.012C239.012 43.2955 239.131 43.5338 239.289 43.7324C239.448 43.9309 239.686 44.0103 239.963 44.0103C240.161 44.0103 240.28 43.9706 240.438 43.8515C240.557 43.8515 240.637 43.6926 240.716 43.4543ZM240.795 42.3027C240.795 41.985 240.716 41.7069 240.518 41.5481C240.359 41.3892 240.161 41.2701 239.923 41.2701C239.686 41.2701 239.448 41.3495 239.289 41.5481C239.131 41.7467 239.052 41.985 239.052 42.3027H240.795Z" fill="#003444"/>
<path fill-rule="evenodd" clip-rule="evenodd" d="M12.7986 3.18435C13.274 3.0255 13.7099 2.62836 14.1854 2.39007C14.0665 2.70778 13.6307 2.94603 13.9873 3.34317C14.2646 3.18431 14.542 3.06518 14.859 2.90632C14.8194 2.8269 14.7401 2.74749 14.7005 2.62835C14.9779 2.46949 15.2552 2.27091 15.5722 2.07234C15.4137 1.75463 15.5722 1.47664 15.9685 1.43692C16.0081 1.43692 16.0477 1.43693 16.127 1.39722V1.51633C16.444 1.47662 16.0081 1.9135 16.444 1.39722L16.3647 1.27806C16.4043 1.23835 16.4836 1.23836 16.5232 1.19865C17.0383 1.03979 17.5931 0.841195 18.1082 0.722053C18.2667 0.682339 18.3855 0.642654 18.544 0.60294C18.7025 1.19865 18.9799 1.19861 19.2573 1.1589C19.178 0.920613 19.0195 0.801481 18.7818 0.523483C19.0591 0.444055 19.3365 0.404341 19.6139 0.324913C19.6931 0.324913 19.7724 0.324913 19.8516 0.324913C20.1686 0.245485 20.446 0.166056 20.763 0.126342C20.763 0.126342 20.2875 0.523502 20.763 0.245504C20.8422 0.20579 20.9215 0.126352 20.9215 0.0866381C20.9611 0.0866381 21.0007 0.0866381 21.0403 0.0866381C21.397 0.0469241 21.7536 0.0866381 22.0706 0.0866381H22.3479C22.5064 0.722063 22.7838 0.682349 23.0612 0.682349C22.9819 0.444064 22.863 0.324922 22.5857 0.0866381C23.6952 0.0866381 24.8046 0.0866478 25.8745 0.0469338L25.9141 0.40437C26.2311 0.364656 25.7952 0.801491 26.2311 0.285208C26.1518 0.166066 26.1122 0.0866478 26.0726 0.0469338C26.3896 0.0469338 26.7066 0.0469435 27.0236 0.00722942C27.6576 -0.0324846 28.1727 0.0866381 28.6482 0.483778C28.767 0.563206 28.8067 0.722063 28.9255 0.880919C29.084 0.682349 29.2425 0.444084 29.401 0.2058C29.4406 0.2058 29.4803 0.245504 29.5199 0.245504C29.4803 0.40436 29.4803 0.523492 29.4406 0.682349C29.4803 0.722063 29.5199 0.722043 29.5595 0.761757C29.6784 0.602901 29.8369 0.404341 30.035 0.126342C30.3124 0.285199 30.669 0.444074 31.0256 0.642644C31.1048 0.682358 31.1841 0.722053 31.2237 0.722053C31.8973 0.404341 32.1747 1.1192 32.6898 1.27806C32.8879 1.35749 33.1257 1.31775 33.2842 1.35747C33.5615 1.4369 33.8389 1.55606 34.1163 1.6752C34.2748 2.03263 34.5125 2.03264 34.7502 2.03264C34.7502 1.99292 34.7106 1.95319 34.7106 1.91347H34.7502C34.9484 1.9929 35.1465 2.11203 35.3446 2.15175C35.622 2.23118 35.7805 2.3106 35.939 2.35032C36.3352 2.82689 36.1371 2.58864 36.256 2.58864C36.3748 2.70778 36.4541 2.86661 36.6126 3.10489C36.6126 2.90632 36.6126 2.78717 36.6126 2.54889C37.0484 2.82689 37.6032 2.78718 37.6428 3.30346C37.8013 3.34318 38.039 3.38292 38.039 3.38292C38.039 3.66092 38.039 3.8992 37.9598 4.1772C37.9202 4.33606 37.6032 4.45519 37.6428 4.61405C37.6824 5.01119 37.6428 5.40833 37.4843 5.80547C37.5239 5.80547 37.5636 5.84517 37.6032 5.84517C37.8409 5.60689 38.1183 5.36859 38.3164 5.0906C38.4749 4.77288 38.5145 4.41548 38.673 4.01834C38.99 4.13748 39.307 4.25659 39.5448 4.33602C39.3466 4.65373 39.0693 4.85232 39.1089 5.05089C39.1089 5.28918 39.3863 5.52746 39.5844 5.84517C39.7825 5.3686 40.258 5.13032 40.575 5.24946C40.8523 5.32889 41.0108 5.88488 40.8523 6.28202C41.4467 6.16288 41.4071 6.59975 41.3675 6.99689C41.4071 6.99689 41.4467 6.99689 41.4863 6.99689C41.5656 6.83803 41.6448 6.67918 41.8033 6.40118C42.3184 6.91746 42.8335 7.394 43.3487 7.91028C43.7845 8.38685 44.1808 8.86346 44.577 9.34003C45.0921 10.0152 45.6072 10.73 46.1223 11.4051C46.3205 11.6434 46.5582 11.8817 46.7167 12.1597C46.7959 12.3186 46.7563 12.5966 46.8356 12.7951C46.8752 12.954 46.9148 13.2717 46.9941 13.2717C47.5884 13.3114 47.4696 13.8277 47.5884 14.1851C47.9847 15.1383 48.4205 16.1311 48.7375 17.124C49.1338 18.3551 49.4111 19.5862 49.6489 20.8571C49.53 20.738 49.4111 20.6188 49.2526 20.4202C48.9753 21.0953 49.6885 21.6911 49.2526 22.3662C50.164 23.0413 50.0847 24.0342 50.0055 25.0668C50.0055 25.2653 50.0055 25.4242 50.0055 25.583C50.0055 25.7816 49.8866 25.9802 49.8074 26.139C49.847 26.3376 49.9659 26.5362 49.9659 26.7347C49.6489 28.5219 49.4507 30.3487 48.9753 32.0961C48.6186 33.4464 48.1828 34.7967 47.3111 35.9484C47.0733 36.2264 47.1129 36.703 46.9148 37.0604C46.5582 37.6958 46.1223 38.2915 45.6468 38.8475C45.5676 38.927 45.2902 38.8475 45.0921 38.8475C45.1714 38.9667 45.2506 39.0461 45.3299 39.1653C45.0921 39.4035 44.894 39.6418 44.6562 39.8801C44.4581 40.0787 44.0619 40.2375 44.4185 40.6744C44.4581 40.7141 44.3393 40.873 44.26 40.9921C43.626 41.6672 43.0317 42.3424 42.3581 42.9778C41.6448 43.6529 40.892 44.3678 40.0995 44.9238C39.1089 45.6386 38.039 46.3138 37.0088 46.9492C35.4635 47.8626 33.7993 48.498 32.0954 49.0143C31.5407 49.1732 30.9463 49.5703 30.4312 48.7363C30.352 49.054 30.3124 49.2129 30.2727 49.4512C29.3614 49.4512 28.4104 50.444 27.4991 49.332C27.4198 49.4115 27.3009 49.5703 27.1028 49.8086C27.0236 49.4909 26.9839 49.332 26.9443 49.1335C26.9839 49.1732 27.0236 49.2129 27.0632 49.2526C27.3406 49.0143 27.7764 48.8158 27.816 48.5378C27.816 48.498 27.816 48.4583 27.816 48.4186C34.1955 47.5846 40.0995 44.1295 43.9826 39.1256C43.943 39.2447 43.9034 39.3638 43.9034 39.4829C44.577 39.5624 44.4581 38.8872 44.7751 38.649C44.577 38.6092 44.4185 38.6489 44.3393 38.6887C44.577 38.3709 44.8147 38.0135 45.0525 37.6958V38.371C45.2902 38.1724 45.4884 38.0135 45.7657 37.815C45.4884 37.7355 45.3299 37.6958 45.0921 37.6561C47.3507 34.1613 48.6979 30.031 48.6583 25.5433C48.6187 19.9834 47.1526 15.6943 45.0921 12.398C43.7449 10.2534 42.7543 8.9826 42.3977 8.94289C40.6542 12.7157 37.8805 9.69742 36.6126 11.0477C35.2654 12.4774 35.8201 12.7554 34.1163 14.4234C32.4124 16.0914 29.8369 15.178 28.8463 17.0843C28.4104 19.7054 29.5595 19.6259 28.5689 21.8102C27.9745 23.1208 25.9141 23.8754 25.5575 25.4242C25.2405 26.9731 26.0726 29.8325 26.1122 30.6267C26.1518 31.421 26.5877 32.4138 26.667 33.089C26.7858 34.1613 25.9933 34.7967 25.0027 35.1541L24.6461 36.147C24.6065 36.2661 24.5273 36.425 24.4876 36.5838C24.5273 36.6236 24.6065 36.6235 24.6461 36.6235C24.8839 36.6633 25.2009 36.6633 25.2801 36.6235C25.2801 36.6235 25.2801 36.6235 25.3197 36.6235C25.3594 36.6235 25.399 36.6235 25.4386 36.6633C25.6367 36.7427 25.7556 36.8221 25.7952 36.7824C25.8348 36.7824 25.8745 36.7824 25.9537 36.5441C26.033 36.3059 26.033 36.3853 26.033 36.2661C26.033 36.1867 25.9933 36.147 25.9933 36.1072C25.9537 36.0675 25.9141 36.0278 25.9141 35.9087C25.9141 35.7895 25.9933 35.7896 26.033 35.7896C26.033 35.7896 26.0726 35.7896 26.1122 35.7499C26.1518 35.7101 26.1518 35.7101 26.1915 35.7101C26.2311 35.7101 26.2311 35.7101 26.2311 35.7101C26.2311 35.7101 26.2311 35.6704 26.2707 35.6307C26.3103 35.591 26.35 35.591 26.35 35.5513C26.3896 35.4719 26.3896 35.4321 26.3896 35.4321C26.3896 35.3924 26.3896 35.3924 26.4292 35.3924C26.4292 35.3924 26.4292 35.3924 26.4688 35.3924C26.5085 35.3924 26.7462 35.4718 26.7462 35.4718H26.7858C26.7858 35.4718 26.7858 35.4718 26.8254 35.4718V35.4321C26.8254 35.3924 26.8651 35.3924 26.8651 35.3924C26.8651 35.3924 26.9047 35.3924 26.9443 35.3924C26.9839 35.3924 26.9839 35.3924 26.9839 35.3924C26.9839 35.3924 26.9839 35.313 27.0236 35.2733C27.0632 35.1938 27.1028 35.1541 27.1028 35.1541H27.1424C27.1424 35.1541 27.2217 35.2733 27.3009 35.313C27.3802 35.3527 27.4594 35.3924 27.5783 35.3924C27.6576 35.4321 27.6972 35.5115 27.6972 35.5115V35.5513C27.6972 35.591 27.6972 35.591 27.6972 35.591C27.6972 35.591 27.7764 35.591 27.8557 35.7101C27.8953 35.8292 27.9349 36.1073 27.8953 36.2264C27.8953 36.3455 27.8953 36.5441 27.8953 36.6633C27.8953 36.7824 27.9349 36.8618 27.9349 36.9015C27.9349 36.9412 27.9745 36.981 27.9349 36.981C27.8953 37.0207 27.8557 36.981 27.6179 37.0604C27.3802 37.1398 27.2613 37.1796 27.1424 37.1796C27.0236 37.1796 26.8651 37.1398 26.7858 37.0604C26.7066 36.981 26.667 36.8618 26.667 36.8618C26.667 36.8618 26.5877 36.9412 26.5481 37.1001C26.5481 37.259 26.4688 37.9738 25.9933 38.649C25.5179 39.3241 24.8839 39.8007 24.8839 39.8007C24.8839 39.8007 25.2009 39.8007 25.3594 40.1184C25.5179 40.4361 25.4386 40.873 25.4386 40.9524C25.4386 41.0318 25.3594 41.3098 25.1216 41.3495C24.8839 41.3892 24.8046 41.1907 24.765 41.1113C24.765 41.0318 24.7254 40.8332 24.6858 40.595C24.6461 40.3567 24.6065 40.0389 24.6065 40.0389C24.6065 40.0389 24.5273 40.039 24.4876 40.1978C24.448 40.3567 24.4084 40.4758 23.9725 40.7141C23.5763 40.9524 23.2593 41.0715 22.9027 41.0715C22.7442 41.0715 22.5064 40.9921 22.3083 40.9127C22.1894 41.1113 22.0706 41.3495 22.0706 41.3495C22.0706 41.3495 21.7932 41.8658 21.5158 42.2232C21.2781 42.5806 20.8818 43.3352 20.763 43.4543C20.6837 43.5735 20.446 44.0898 20.3271 44.3281C20.2082 44.5664 20.0101 44.8841 20.0101 44.8841L19.9705 44.9238C19.9309 44.9238 19.9309 44.9238 19.9309 44.8841C19.9309 44.8841 19.9309 44.8444 20.0101 44.7252C20.0894 44.6061 20.2875 44.2486 20.4064 43.9309C20.5252 43.6529 20.8026 43.0969 21.2781 42.3424C21.5951 41.8658 21.9517 41.2304 22.1894 40.8332C21.9913 40.7538 21.8724 40.6744 21.8724 40.6744L21.3177 40.4758C21.3177 40.4758 21.2781 40.6744 21.1196 40.8729C21.0007 41.0715 20.8026 41.2304 20.6045 41.5878C20.4064 41.9452 20.3667 42.0247 20.3667 42.1041C20.3667 42.1438 20.0894 42.1041 19.9705 42.1041C19.8516 42.0644 19.7328 42.0246 19.5346 42.0644C19.3365 42.1438 18.861 42.6998 18.6233 42.6601C18.4252 43.0969 18.0685 43.5338 17.2761 44.2089C16.4043 44.9238 12.3627 45.0032 11.4117 44.3281C10.8966 43.9309 11.7683 44.7252 13.591 45.7181V45.7578L13.7495 45.7975C14.1458 46.0358 14.6213 46.2344 15.1364 46.4726L15.2552 48.0215C14.9779 47.8229 14.8194 47.664 14.6213 47.5846C14.4231 47.4655 14.1458 47.4655 14.0269 47.3463C13.8288 47.1478 13.6703 46.8698 13.5118 46.6315C13.5514 46.5918 13.591 46.5521 13.591 46.5521C13.4722 46.5521 13.3533 46.5124 13.1948 46.5124C13.2344 46.6712 13.2344 46.8301 13.274 47.0684C12.7193 46.7506 12.2042 46.4329 11.7287 46.1549C11.7683 45.9563 11.808 45.7975 11.8476 45.5989C11.3325 45.8769 10.9758 45.5989 10.6192 45.4003C9.27202 44.5266 8.12292 43.4146 7.01345 42.2629C6.33984 41.5878 5.70586 40.873 5.15112 40.1581L5.58698 39.9595C5.34924 39.6021 5.38886 39.5624 5.23037 39.2447C5.07187 39.7609 5.26999 39.5624 4.953 39.8404C4.47751 39.205 4.04165 38.5695 3.68503 37.8944C3.56616 37.7355 3.48691 37.537 3.36804 37.3384C3.40766 37.3384 3.44729 37.3384 3.52654 37.2987C3.88315 37.1398 3.72466 37.1796 3.76428 36.981L3.64541 36.6235L3.24917 36.6633L3.09067 36.703C3.01142 36.5044 2.9718 36.2661 3.01142 35.9881C3.05105 35.7896 3.01142 35.2733 2.49631 35.2336C2.37744 35.2336 2.29819 35.035 2.17932 34.9158C2.37744 34.7173 2.57556 34.479 2.89255 34.201C2.61518 34.2407 2.45669 34.2407 2.33782 34.2407C2.10007 34.0024 1.86233 33.7641 1.70383 33.5258C1.58496 33.367 1.26797 33.1684 1.70383 32.9699C1.74346 32.9699 1.66421 32.7316 1.66421 32.6124C1.58496 32.6124 1.46609 32.6521 1.34722 32.6521C1.18872 32.2947 1.06985 31.977 1.62458 31.7785C1.50571 31.4607 1.78308 30.9047 1.03022 30.9842C1.34722 30.4679 1.22834 30.1104 0.713232 29.8722C0.59436 29.8324 0.515112 29.6339 0.515112 29.5147C0.39624 28.9587 0.316992 28.4027 0.237744 27.7276C0.475488 28.0453 0.59436 28.2836 0.752856 28.5219C1.22834 28.363 1.06985 27.9659 0.9906 27.7276C0.871728 27.251 0.871728 26.6553 0 26.6553C0.475488 25.4242 0.911352 24.2725 1.38684 23.1208C1.03022 22.9222 0.832104 22.9619 0.316992 23.3988C0.079248 22.9619 0.356616 20.8174 0.832104 18.7919C0.9906 18.9111 1.18872 18.9508 1.42646 18.8714C1.54534 18.8317 1.66421 18.7523 1.74346 18.6728C1.9812 18.3551 1.86233 18.4743 1.78308 18.2757L1.50571 18.0374L1.18872 18.2757L0.871728 18.5537C1.06985 17.7991 1.30759 17.0445 1.54534 16.4488C1.66421 16.5679 1.78308 16.7268 1.90195 16.8459C1.90195 16.7665 1.90195 16.6871 1.90195 16.6077C2.02082 16.4885 2.21894 16.4091 2.29819 16.29C2.41706 16.1311 2.49631 15.8928 2.45669 15.6943C2.37744 15.3766 1.86233 15.0588 2.49631 14.7808C2.57556 14.7411 2.49631 14.4234 2.49631 14.2248C2.57556 14.2248 2.69443 14.1851 2.89255 14.1851C2.77368 14.066 2.69443 13.9865 2.53594 13.8674C3.1303 12.8745 3.76428 11.9214 4.39826 10.8888C4.51714 11.1271 4.31902 11.6037 4.83413 11.4845C5.03225 11.4448 5.15112 11.2463 5.30962 11.1272C5.19074 11.0874 5.07187 11.008 4.91338 10.9683C4.55676 10.9286 4.43789 10.5711 4.71526 10.2137C4.91338 9.97543 5.1115 9.69742 5.34924 9.45914C5.34924 9.57828 5.19074 9.69742 5.42849 9.49885C5.54736 9.41942 5.54736 9.33999 5.50774 9.30027C5.98322 8.70456 6.49834 8.06914 7.05307 7.51314C7.29082 7.27486 7.48894 7.0366 7.72668 6.79832C8.12292 6.95718 8.20217 6.95716 8.63803 7.0763C8.7569 6.75859 8.99465 6.1629 8.87578 5.76576C9.15314 5.52748 9.43051 5.32888 9.70788 5.0906C10.0645 5.48774 9.70788 5.28917 10.223 5.28917C10.3419 4.77288 10.4607 5.1303 10.1834 4.73316C10.6589 4.37573 11.1343 4.05802 11.6098 3.74031C11.6891 5.24944 12.3231 3.34321 12.7986 3.18435ZM24.2103 36.981C24.1706 37.1001 24.131 37.1795 24.0518 37.2987C24.2103 37.259 24.3688 37.2192 24.5273 37.0604C24.5669 37.0604 24.4876 37.1001 24.2103 36.981ZM23.814 37.815C23.6159 38.1724 23.4574 38.5298 23.3782 38.6887C23.497 38.7681 23.5367 38.7284 23.6555 38.649C23.7348 38.5695 23.7744 38.371 23.8933 38.2121C24.0121 38.0533 24.1706 37.8944 24.1706 37.8944C24.1706 37.8944 24.131 37.815 24.0121 37.8547C23.9725 37.815 23.9329 37.815 23.814 37.815ZM23.3385 38.6092C23.4178 38.4504 23.5763 38.1327 23.7744 37.7753C23.6159 37.7355 23.3782 37.6164 23.1404 37.4575C22.7838 37.2192 22.5857 36.981 22.3083 36.7427C22.0309 36.5044 22.0309 36.3853 21.8328 36.2661C21.714 36.1867 21.5951 36.1073 21.4366 36.0278C20.8818 36.3058 20.0894 36.8618 19.5743 37.9738C19.5743 38.0135 19.6931 38.2121 19.8516 38.4504C19.9309 38.4107 20.0101 38.4504 20.0894 38.4901C20.2082 38.5695 20.3667 38.7681 20.4856 38.8872C20.6045 39.0461 20.6441 39.1653 20.7234 39.1653C20.763 39.1653 20.8422 39.0858 20.9215 38.9667C20.9611 38.8475 21.2781 38.1327 21.4762 37.7753C21.6743 37.4178 21.8328 37.1001 22.1102 36.9413C22.3876 36.7824 22.6649 36.981 22.8234 37.2987C22.9819 37.6164 23.18 38.5298 23.18 38.5298C23.18 38.5298 23.2197 38.5695 23.3385 38.6092ZM23.9725 37.2987C24.0121 37.1795 24.0914 37.0604 24.131 36.9413C24.0518 36.9016 23.9329 36.8618 23.7744 36.7824C23.2989 36.4647 22.8234 36.0676 22.5064 35.7499C22.2291 35.7896 22.0309 35.8293 21.8724 35.869H21.8328C22.0309 35.9881 22.1498 36.1073 22.2291 36.147C22.3083 36.2264 22.8234 36.7427 23.0215 36.9015C23.2197 37.0604 23.497 37.259 23.814 37.2987C23.8933 37.2987 23.9329 37.2987 23.9725 37.2987ZM24.3291 36.5838C24.4876 36.1867 24.6858 35.6704 24.8442 35.2336C24.2103 35.4718 23.5367 35.591 22.9423 35.7101C23.0612 35.8292 23.1404 35.9087 23.2593 35.9881C23.7744 36.2661 24.0914 36.4647 24.3291 36.5838ZM20.129 39.2844C20.0101 39.4035 19.0988 40.0787 19.0591 40.1581C18.7818 40.9127 18.7422 41.4289 18.6629 41.8658C18.9006 41.7864 19.0988 41.6672 19.3761 41.2701C19.6931 40.7935 19.9309 40.1978 20.0497 40.0389C20.2082 39.8801 20.2082 39.8404 20.2082 39.8404C20.2082 39.8404 20.2479 39.6418 20.129 39.3241C20.1686 39.3241 20.1686 39.3241 20.129 39.2844ZM21.6347 39.2844C21.6743 39.4035 21.4762 39.4433 21.6347 39.5624C21.714 39.6021 21.9121 39.6815 21.9913 39.6815C22.0706 39.7212 22.1102 39.7212 22.1498 39.6815C22.1498 39.6418 22.1498 39.6418 22.1102 39.6021C22.0706 39.5624 22.0706 39.5227 22.0706 39.3241C22.0706 39.0858 22.0706 38.7284 22.0706 38.6092C22.0706 38.4901 21.9913 38.5695 21.9517 38.649C21.9121 38.7284 21.7932 38.8873 21.7536 38.9667C21.714 39.0461 21.6743 39.0064 21.6743 39.0858C21.5951 39.1255 21.6347 39.2049 21.6347 39.2844ZM26.5877 48.6569C26.3896 48.6569 26.1518 48.6966 25.9537 48.6966C25.9537 48.7363 25.9141 48.776 25.9141 48.8157L25.6367 48.7363C24.3291 48.776 23.0215 48.7363 21.714 48.5775L21.9121 49.0938C21.8724 49.1335 21.8328 49.1335 21.7932 49.1732C21.6743 48.8952 21.2781 48.8158 21.1988 48.5378C20.9215 48.498 20.6045 48.4583 20.3271 48.3789C20.3667 48.4186 20.3667 48.4583 20.4064 48.5378C20.5649 48.8952 20.763 49.2526 20.9611 49.61C21.3177 50.1263 21.714 50.1263 22.0309 49.5703C22.3876 49.9675 22.9027 50.1263 23.18 49.888C23.9725 49.332 24.8442 49.4115 25.716 49.4512C26.033 49.4512 26.3103 49.61 26.5877 49.6895C26.6273 49.6498 26.667 49.6497 26.7462 49.61C26.5085 49.2923 26.5085 48.9746 26.5877 48.6569ZM19.0988 48.0612C17.5931 47.6641 16.2062 47.1477 15.0175 46.6315C15.1364 46.7903 15.2156 46.9095 15.3345 46.9889C15.7307 47.3066 15.493 47.8229 15.6911 48.1803C15.7704 48.2995 15.8892 48.4186 16.0081 48.4584C16.0873 48.4981 16.2062 48.3392 16.2855 48.2598C16.4043 48.1406 16.4836 47.9817 16.6025 47.8229C16.7213 47.9023 16.8006 47.942 16.9194 48.0215C16.9987 47.8626 17.0779 47.7435 17.1572 47.5846C17.91 48.2995 17.9497 48.4186 17.5534 49.0938C18.0685 49.1732 18.544 49.2526 19.0195 49.2923C19.0195 49.2526 19.0195 49.2129 19.0591 49.1335C18.9403 49.0938 18.861 49.0541 18.861 49.0541C18.9006 48.6569 18.9799 48.2995 19.0988 48.0612ZM10.5004 29.2765H11.2532V28.8793H9.23239V29.2765H9.98525V31.7785H10.5004V29.2765ZM14.4628 29.5942L14.5024 29.1176C14.225 28.919 13.908 28.7999 13.5514 28.7999C13.1155 28.7999 12.7589 28.9587 12.4419 29.2367C12.1646 29.5147 12.0061 29.9119 12.0061 30.3487C12.0061 30.7856 12.1646 31.143 12.4419 31.4607C12.7193 31.7387 13.1155 31.8976 13.5514 31.8976C13.908 31.8976 14.1854 31.8182 14.4628 31.6196V31.1033C14.1854 31.3416 13.8684 31.4607 13.5118 31.4607C12.9174 31.4607 12.4816 31.0239 12.4816 30.3885C12.4816 29.753 12.9174 29.2765 13.5514 29.2765C13.908 29.2367 14.225 29.3559 14.4628 29.5942ZM18.1082 30.3487L18.4252 31.7785H18.861L18.1478 28.7601L17.3157 30.587C17.2761 30.7062 17.1968 30.8253 17.1572 30.9842C17.0779 30.7856 17.0383 30.6268 16.9987 30.587L16.127 28.7601L15.4534 31.7785H15.8892L16.2062 30.3487C16.2458 30.2296 16.2458 30.0707 16.2458 29.9516C16.2855 30.0707 16.3251 30.1899 16.4043 30.309L17.1572 31.8976L17.91 30.3487C17.9893 30.2296 18.0289 30.0707 18.0289 29.9516C18.0685 30.1501 18.0685 30.309 18.1082 30.3487ZM21.8328 31.7785H22.3479L20.9611 28.7601L19.5743 31.7785H20.0101L20.3667 31.0239H21.5158L21.8328 31.7785ZM20.5252 30.6267H21.3177L21.0403 29.9516C21.0007 29.8721 20.9611 29.753 20.9215 29.6339C20.8818 29.7927 20.8422 29.8721 20.8026 29.9516L20.5252 30.6267ZM14.859 12.3186V23.5179H11.0551V15.2971H9.19277V25.3845H20.446C21.1196 25.3845 21.5555 25.2653 21.7932 24.9873C21.9913 24.7093 22.1498 24.4313 22.2291 24.1136C22.3083 23.7959 22.3479 23.4385 22.3479 23.1208V15.3368H20.4856V22.7236C20.4856 23.0016 20.446 23.2002 20.3271 23.3591C20.2082 23.4782 19.9309 23.5576 19.4158 23.5576H16.761V12.3583H14.859V12.3186ZM22.3876 48.776C22.3876 48.8157 22.3479 48.8952 22.3479 48.9349C22.5857 49.0143 22.8234 49.0937 23.0612 49.1732C23.0612 49.2129 23.0612 49.2526 23.0612 49.2526C22.9027 49.2526 22.7442 49.2923 22.5064 49.332C22.5857 49.4512 22.6649 49.61 22.6649 49.61C22.9423 49.4909 23.2197 49.332 23.497 49.1732C23.497 49.0937 23.4574 49.054 23.4574 48.9746C23.1008 48.8952 22.7442 48.8157 22.3876 48.776ZM29.4406 48.6172C29.3614 48.6569 29.1236 48.6966 29.1236 48.7363C29.1236 48.9746 29.1633 49.2129 29.2029 49.4114C29.2029 49.4909 29.401 49.4909 29.5199 49.5306C29.5199 49.4115 29.5595 49.332 29.5199 49.2129C29.5199 49.054 29.4803 48.8952 29.4406 48.6172ZM45.0525 10.9683C44.8544 10.8889 44.6959 10.73 44.6562 10.7697C44.5374 10.8492 44.4185 11.0477 44.4581 11.1272C44.5374 11.2463 44.6959 11.286 44.8544 11.4051C44.894 11.286 44.9732 11.1669 45.0525 10.9683Z" fill="#003444"/>
<path fill-rule="evenodd" clip-rule="evenodd" d="M29.7972 36.6236V35.0747H30.0746V31.7785H42.7939V35.0747H43.0317V36.6236H29.7972ZM33.6408 33.2876H32.0162V35.0747H33.6408V33.2876ZM37.2862 35.0747V33.2876H35.4635V35.0747H37.2862ZM40.9712 35.0747V33.2876H39.1089V35.0747H40.9712ZM30.035 31.1033V23.1208H35.622V29.2368C35.622 29.4353 35.5823 29.7133 35.5427 30.0311C35.5031 30.3488 35.3446 30.5871 35.1069 30.7856C34.8691 30.9842 34.3936 31.0636 33.6011 31.0636H30.035V31.1033ZM33.7993 26.2979V24.63H31.8577V26.2979H33.7993ZM33.7993 27.8071H31.8577V29.5942H33.0068C33.3238 29.5942 33.5219 29.5545 33.6408 29.4751C33.7596 29.3956 33.7993 29.2368 33.7993 29.0779V27.8071ZM42.8335 23.0811V29.753C42.8335 30.031 42.7939 30.309 42.675 30.5473C42.5958 30.7856 42.4373 30.9842 42.1996 31.143C42.0014 31.3019 41.4071 31.3813 40.4561 31.3813H39.624V29.8325H40.3372C40.575 29.8325 40.7731 29.7928 40.8523 29.7133C40.9316 29.6339 40.9712 29.5148 40.9712 29.3956V29.1573H38.1183V29.8722C38.1183 30.031 38.1183 30.2296 38.0787 30.4679C38.039 30.7062 37.9598 30.9047 37.7617 31.1033C37.6032 31.3019 37.2466 31.421 36.7314 31.421H35.8597V29.9516H36.0182C36.2163 29.9516 36.3352 29.7928 36.3352 29.4353V23.0811H42.8335ZM38.1579 26.9333V27.6879H41.0108V26.9333H38.1579ZM38.2372 24.5505V25.4639H41.0108V24.5505H38.2372Z" fill="#003444"/>
<path fill-rule="evenodd" clip-rule="evenodd" d="M73.8592 5.64637V27.1714H79.0103C79.9613 27.1714 80.5557 27.0523 80.7538 26.814C80.9519 26.5757 81.0708 26.1785 81.0708 25.6623V11.3255H84.6766V26.3771C84.6766 26.9728 84.5973 27.5685 84.4784 28.204C84.3596 28.7997 84.0426 29.3557 83.6463 29.8322C83.2105 30.3088 82.3784 30.5471 81.0708 30.5471H59.3964V11.3255H62.9626V27.2111H70.293V5.64637H73.8592ZM91.2541 30.9442V28.1245H91.7692V22.1277H116.257V28.1245H116.693V30.9442H91.2541ZM98.6242 24.868H95.4939V28.1245H98.6242V24.868ZM105.598 28.1245V24.868H102.151V28.1245H105.598ZM112.73 28.1245V24.868H109.125V28.1245H112.73ZM91.6504 20.8171V6.24208H102.388V17.4414C102.388 17.8386 102.349 18.3152 102.23 18.9109C102.111 19.5066 101.834 19.9434 101.398 20.3009C100.962 20.6583 99.9714 20.8171 98.5053 20.8171H91.6504ZM98.9016 12.0403V9.02206H95.1769V12.0403H98.9016ZM98.9016 14.7806H95.1769V18.0371H97.3562C97.9506 18.0371 98.3468 17.9577 98.545 17.7989C98.7827 17.64 98.8619 17.4017 98.8619 17.084V14.7806H98.9016ZM103.934 6.16267H116.297V18.3549C116.297 18.9109 116.217 19.3874 116.019 19.8243C115.821 20.2611 115.544 20.6186 115.108 20.9363C114.712 21.254 113.602 21.3731 111.779 21.3731H110.155V18.5137H111.542C112.017 18.5137 112.374 18.4343 112.532 18.3152C112.691 18.196 112.77 17.9974 112.77 17.7194V17.2826H107.302V18.5931C107.302 18.9108 107.262 19.2683 107.223 19.6654C107.143 20.1023 106.945 20.4994 106.628 20.8569C106.311 21.2143 105.638 21.4128 104.647 21.4128H102.983V18.7123H103.3C103.736 18.7123 103.934 18.3946 103.934 17.7989V6.16267ZM107.341 13.2317V14.6217H112.81V13.2317H107.341ZM107.421 8.8632V10.5312H112.77V8.8632H107.421ZM133.018 8.8632C133.573 8.70434 133.969 8.50578 134.167 8.22778C134.365 7.94979 134.127 7.59236 133.414 7.23493C132.701 6.83779 131.908 6.5598 131.037 6.40095C130.165 6.20238 129.452 6.12293 128.897 6.08322C128.778 6.99664 128.58 8.06891 128.303 9.30004C128.025 10.5312 127.51 11.9212 126.757 13.3906C126.004 14.8997 125.172 16.1706 124.301 17.2428C123.429 18.3151 122.597 19.1889 121.883 19.9434C123.35 19.2683 124.895 18.3548 126.48 17.2428C128.065 16.1309 129.372 14.8998 130.442 13.5495C131.473 12.1992 132.146 11.1666 132.423 10.4518C132.661 9.65748 132.859 9.1412 133.018 8.8632ZM137.337 5.84494H134.841L135.514 7.15552H138.248C138.288 7.79095 138.446 8.70434 138.684 9.85605C138.922 11.0078 139.516 12.3581 140.388 13.9069C141.26 15.4558 142.29 16.6869 143.399 17.64C144.509 18.5931 145.539 19.2683 146.45 19.7051C146.728 19.8243 146.926 19.8243 147.045 19.7051C147.164 19.586 147.322 19.2683 147.52 18.752C147.679 18.2357 147.996 17.7194 148.471 17.2031C148.947 16.6869 149.501 16.2897 150.096 16.0117C149.462 15.8926 148.59 15.6543 147.481 15.2571C146.371 14.86 145.182 14.1452 143.835 13.1523C142.528 12.1595 141.537 11.1269 140.903 10.0546C140.269 9.02205 139.833 8.10866 139.635 7.35409C140.071 7.19524 140.467 7.03637 140.784 6.79809C141.101 6.5598 141.141 6.28181 140.943 6.00381C140.705 5.6861 140.348 5.4478 139.833 5.24923C139.318 5.05066 138.882 4.89182 138.486 4.77268L137.337 5.84494ZM136.188 17.7194L130.957 27.2508H141.854C141.775 27.0125 141.656 26.6551 141.497 26.258C141.339 25.8608 141.062 25.3843 140.626 24.868C140.229 24.312 139.794 23.8751 139.358 23.478C138.922 23.0808 138.526 22.7631 138.209 22.4851C138.961 22.5646 139.833 22.7234 140.745 22.9617C141.695 23.2 142.607 23.6368 143.439 24.1928C144.311 24.7488 144.905 25.3048 145.301 25.7814C145.698 26.2976 145.975 26.6948 146.133 27.0125C146.371 27.6083 146.371 28.3231 146.213 29.0379C146.054 29.7925 145.579 30.2691 144.865 30.5073C144.152 30.7456 143.558 30.6265 143.082 30.1499C142.607 29.6733 142.329 29.1174 142.25 28.4819L126.361 30.6265C126.123 30.8648 125.886 30.9839 125.569 30.9442C125.252 30.9045 124.974 30.5471 124.697 29.9513C124.419 29.3556 124.221 28.76 124.102 28.204C123.984 27.648 123.904 27.2508 123.865 26.9728L129.531 27.1714L132.265 14.8203C133.137 15.0189 134.048 15.2175 134.999 15.4955C135.95 15.7735 136.663 16.0514 137.059 16.3692C137.495 16.6869 137.535 16.9649 137.218 17.1634C136.98 17.4812 136.584 17.64 136.188 17.7194ZM161.587 23.3588H162.934V29.8322H161.587V23.3588ZM167.015 23.3588H168.362V29.8322H167.015V23.3588ZM172.483 23.3588H173.831V29.8322H172.483V23.3588ZM164.083 7.55266C164.479 7.35409 164.717 7.07608 164.876 6.83779C165.034 6.55979 164.836 6.32151 164.321 6.04351C163.806 5.80523 163.132 5.60665 162.379 5.48751C161.626 5.36836 160.992 5.24925 160.438 5.16982C160.24 5.76553 159.962 6.48039 159.566 7.35409C159.17 8.2278 158.615 9.22064 157.862 10.3724C157.109 11.5241 156.356 12.4772 155.604 13.3112C154.851 14.1452 154.177 14.8203 153.622 15.3763C154.454 15.0983 155.445 14.6614 156.554 14.0657C157.664 13.47 158.813 12.7155 159.962 11.802C161.111 10.8489 161.983 10.0149 162.617 9.30004C163.251 8.54548 163.726 7.98952 164.083 7.55266ZM171.096 9.73694C171.334 9.93551 171.612 10.1738 171.968 10.4518C172.325 10.7695 172.642 11.0872 172.919 11.4446C173.197 11.802 173.315 12.0403 173.276 12.1595C173.236 12.2786 173.078 12.3581 172.919 12.3581H162.696L162.023 11.0475H169.274L171.096 9.73694ZM168.6 16.2103H172.444C172.563 16.528 172.761 16.9649 173.078 17.5209C173.395 18.0769 173.949 18.7123 174.702 19.4669C175.455 20.2214 176.248 20.8172 177 21.254C177.793 21.6909 178.467 22.0483 179.021 22.2469C179.259 22.366 179.497 22.366 179.735 22.2071C179.972 22.088 180.25 21.7703 180.487 21.3334C180.765 20.8568 181.002 20.4597 181.24 20.1023C181.478 19.7449 181.716 19.5463 181.953 19.4271C181.518 19.4271 180.884 19.3874 180.131 19.2683C179.378 19.1492 178.506 18.9109 177.476 18.5534C176.485 18.1563 175.653 17.7592 175.019 17.3223C174.385 16.8855 173.87 16.528 173.553 16.1706L174.702 15.7337C174.94 15.6146 175.099 15.4955 175.138 15.2969C175.217 15.0983 175.099 14.8997 174.782 14.6614C174.465 14.4232 174.108 14.1849 173.672 14.026C173.236 13.8275 172.919 13.7083 172.642 13.5892L171.295 14.8998H167.887L168.6 16.2103ZM164.519 16.6471C164.955 16.4486 165.272 16.1706 165.47 15.9323C165.708 15.6543 165.549 15.416 165.074 15.138C164.598 14.8998 163.925 14.7012 163.092 14.582C162.26 14.4629 161.507 14.3438 160.874 14.3041C160.715 14.7012 160.477 15.2175 160.121 15.8926C159.764 16.5678 159.17 17.4017 158.338 18.3946C157.505 19.3874 156.713 20.2612 155.841 21.0554C154.97 21.8497 154.256 22.4851 153.583 22.9617C153.82 22.922 154.098 22.8822 154.454 22.8028C154.811 22.7234 155.207 22.644 155.683 22.4851C156.158 22.366 156.515 22.2468 156.792 22.1277C157.07 22.0086 157.307 21.9291 157.466 21.8497V30.5073H153.622L154.534 31.8179H181.557C181.676 31.8179 181.755 31.7385 181.755 31.5399C181.755 31.3413 181.676 31.0634 181.399 30.5868C181.161 30.1499 180.884 29.7131 180.527 29.3556C180.21 28.9982 179.933 28.7202 179.695 28.5613L177.872 29.6337V23.9942C178.15 23.8354 178.348 23.6766 178.467 23.4383C178.585 23.2 178.506 22.8823 178.15 22.5248C177.793 22.1277 177.357 21.7703 176.802 21.4526C176.248 21.0951 175.772 20.8171 175.336 20.5391L173.751 22.0483H161.706L158.773 21.4128C159.051 21.2143 159.407 20.976 159.883 20.6185C160.358 20.2611 160.913 19.8243 161.626 19.2683C162.3 18.7123 162.894 18.196 163.37 17.7592C163.885 17.3223 164.281 16.9251 164.519 16.6471ZM168.164 7.79094H172.483C172.602 8.18808 172.84 8.74407 173.157 9.4192C173.514 10.0943 174.068 10.8886 174.861 11.802C175.653 12.7155 176.446 13.4303 177.238 13.9466C178.031 14.5026 178.704 14.8998 179.299 15.138C179.536 15.2175 179.735 15.1777 179.933 15.0189C180.131 14.86 180.329 14.5423 180.527 14.0657C180.725 13.5892 181.002 13.1523 181.28 12.7552C181.597 12.3581 181.914 12.08 182.231 11.8815C181.795 11.8417 181.161 11.7623 180.408 11.6035C179.655 11.4446 178.784 11.1666 177.753 10.69C176.763 10.2135 175.931 9.69722 175.297 9.14123C174.663 8.54552 174.148 8.02923 173.831 7.55266L174.742 7.11577C174.94 7.03634 175.059 6.91723 175.099 6.79809C175.138 6.63923 175.019 6.48037 174.742 6.24208C174.425 6.0038 174.068 5.80524 173.672 5.60667C173.276 5.4081 172.959 5.28896 172.681 5.16982L171.334 6.48036H167.491L168.164 7.79094ZM188.769 4.97125V12.3183H185.599L186.035 13.6289H188.769V30.9442C188.769 31.1428 188.927 31.3811 189.284 31.5797C189.641 31.7782 190.116 31.8179 190.829 31.7385C191.503 31.659 192.018 31.4208 192.375 31.1031C192.731 30.7456 192.89 30.4279 192.89 30.1102V13.6686H196.733C197.011 13.6686 197.169 13.5892 197.288 13.47C197.367 13.3112 197.248 13.0729 196.931 12.6757C196.575 12.2786 196.218 11.9609 195.782 11.6035C195.346 11.2858 194.99 11.0078 194.712 10.8489L193.365 12.3581H192.929V6.95695C193.167 6.75838 193.326 6.48037 193.444 6.24208C193.563 5.96408 193.405 5.72578 192.929 5.52721C192.493 5.32864 191.859 5.16978 191.067 5.13007C190.195 4.97121 189.482 4.97125 188.769 4.97125ZM201.29 4.73293C201.845 4.77264 202.479 4.81237 203.192 4.8918C203.905 4.97122 204.46 5.09038 204.935 5.24923C205.371 5.40809 205.609 5.56696 205.53 5.76553C205.49 5.9641 205.332 6.12294 205.173 6.24208C205.133 6.40094 205.094 6.5598 205.015 6.79809C204.975 6.99666 204.896 7.23491 204.817 7.51291C204.737 7.7512 204.658 7.94977 204.618 8.10862C204.579 8.26748 204.5 8.34693 204.46 8.42635H208.105L209.69 6.9172C210.007 7.11577 210.364 7.31436 210.8 7.63207C211.236 7.91007 211.592 8.22779 211.909 8.58522C212.226 8.94265 212.305 9.18093 212.226 9.3795C212.147 9.57807 211.988 9.69721 211.751 9.77664C211.751 10.4518 211.632 11.2858 211.434 12.1992C211.236 13.1126 210.76 13.9863 210.007 14.7806C209.254 15.5749 208.462 16.1309 207.63 16.3692C206.758 16.6074 206.045 16.7266 205.371 16.7266C205.332 16.528 205.292 16.3294 205.213 16.0117C205.134 15.7337 204.975 15.416 204.777 15.0189C204.539 14.6614 204.301 14.3835 203.984 14.1452C203.667 13.9466 203.39 13.748 203.113 13.6686C203.588 13.7083 204.183 13.7083 204.817 13.6686C205.451 13.6289 206.084 13.4303 206.639 13.0332C207.194 12.636 207.59 12.1198 207.788 11.5241C207.986 10.9284 208.105 10.3326 208.145 9.77664H204.064C203.826 10.4915 203.39 11.3255 202.756 12.2786C202.122 13.2317 201.171 14.1055 199.903 14.9395C198.635 15.7735 197.486 16.3294 196.416 16.6074C195.346 16.8854 194.514 17.084 193.841 17.1634C194.316 16.9649 194.95 16.5678 195.703 16.0912C196.456 15.5749 197.248 14.8997 198.12 13.9863C198.992 13.0729 199.626 12.2786 200.022 11.5638C200.458 10.8489 200.735 10.2532 200.894 9.81635H196.139L195.465 8.50576H201.131C201.171 8.30719 201.211 8.10865 201.29 7.79094C201.33 7.51294 201.409 7.15549 201.448 6.71863C201.488 6.32149 201.488 5.92438 201.488 5.60667C201.33 5.24924 201.33 4.97121 201.29 4.73293ZM195.584 17.084C196.06 17.1237 196.614 17.1634 197.209 17.2031C197.803 17.2429 198.279 17.3223 198.596 17.4414C198.952 17.5606 199.071 17.6797 198.952 17.7989C198.873 17.918 198.714 18.0371 198.516 18.1563V20.7377H200.101L201.25 19.4271C201.369 19.4668 201.488 19.5463 201.686 19.6257C201.845 19.7448 202.043 19.864 202.241 20.0626C202.439 20.2612 202.637 20.3803 202.756 20.4994C202.875 20.6186 202.994 20.698 203.073 20.698H205.569V17.0046C206.005 17.0046 206.52 17.0046 207.115 17.0443C207.669 17.0443 208.145 17.1635 208.541 17.2826C208.937 17.4415 209.096 17.6003 209.056 17.8386C209.017 18.0768 208.937 18.3152 208.779 18.5137V20.698H209.928L211.751 19.3874C211.988 19.6257 212.266 19.9434 212.583 20.3009C212.9 20.6583 213.177 21.0554 213.375 21.4526C213.573 21.8497 213.653 22.1674 213.534 22.366C213.455 22.5645 213.296 22.7631 213.098 22.8426C213.098 24.034 213.019 25.3048 212.86 26.6154C212.702 27.9657 212.345 29.0776 211.751 29.9513C211.156 30.825 210.522 31.3413 209.809 31.5002C209.096 31.6591 208.462 31.6988 207.868 31.6988C207.868 31.5002 207.868 31.3017 207.828 30.9839C207.828 30.7059 207.749 30.3882 207.63 29.9911C207.511 29.6337 207.392 29.3556 207.194 29.1174C207.035 28.9188 206.877 28.7202 206.718 28.6408C207.154 28.6805 207.669 28.6408 208.185 28.6011C208.7 28.5217 209.136 28.1642 209.453 27.4891C209.809 26.814 210.007 25.98 210.047 24.9077C210.087 23.8751 210.126 22.8823 210.126 21.9291H208.779C208.779 22.7631 208.66 23.756 208.383 24.9474C208.105 26.1388 207.511 27.2905 206.56 28.4422C205.609 29.5939 204.579 30.3882 203.509 30.8648C202.399 31.3016 201.448 31.5796 200.616 31.6988C201.33 31.1825 202.082 30.5471 202.875 29.7528C203.667 28.9585 204.262 28.0054 204.737 26.8934C205.213 25.7814 205.49 24.8282 205.53 23.9942C205.569 23.1602 205.609 22.4851 205.609 21.9291H202.875C202.875 22.922 202.796 24.1134 202.677 25.424C202.558 26.7345 202.201 27.9657 201.686 29.0777C201.171 30.1896 200.577 30.9045 199.903 31.2222C199.23 31.5399 198.635 31.6988 198.12 31.6988C197.962 31.6591 197.882 31.5399 197.882 31.3413C197.882 31.1428 197.882 30.8251 197.922 30.4279C197.962 30.0308 197.882 29.6336 197.645 29.3556C197.407 29.0379 197.129 28.8394 196.733 28.6805C197.09 28.7202 197.446 28.6805 197.882 28.6011C198.318 28.5217 198.714 28.1245 199.071 27.4494C199.428 26.7742 199.665 25.9005 199.745 24.868C199.824 23.8354 199.903 22.8823 199.903 21.9688H198.556C198.556 22.5248 198.516 23.2397 198.397 24.1928C198.279 25.1459 197.922 26.2183 197.248 27.4494C196.614 28.6805 195.822 29.6337 194.871 30.3882C193.92 31.1031 193.048 31.6194 192.216 31.9768C192.652 31.4605 193.127 30.8251 193.643 30.0705C194.118 29.2762 194.554 28.3628 194.871 27.2508C195.188 26.1388 195.386 25.146 195.465 24.2723C195.544 23.3986 195.584 22.644 195.624 22.0085H193.563L193.127 20.698H195.624V17.084H195.584ZM229.383 18.8314C229.383 18.6726 229.344 18.474 229.304 18.196C229.265 17.918 229.027 17.64 228.67 17.3223C228.314 17.0046 227.838 16.7663 227.323 16.6471C226.768 16.528 226.253 16.4486 225.778 16.4486C226.015 16.6074 226.213 16.7663 226.372 17.0046C226.53 17.2429 226.649 17.5209 226.689 17.7989C226.729 18.1166 226.768 18.3549 226.768 18.5534C226.768 18.752 226.847 18.9108 226.927 19.03C227.006 19.2683 227.164 19.5463 227.363 19.7846C227.6 20.0228 227.878 20.142 228.234 20.142C228.591 20.142 228.868 19.9832 229.066 19.6654C229.265 19.3874 229.383 19.1094 229.383 18.8314ZM225.302 16.2103H229.859V20.3009H225.302V16.2103ZM233.94 16.2103H238.497V20.3009H235.089L238.061 17.2826L235.089 16.4089L234.416 20.3009H233.98V16.2103H233.94ZM226.887 23.9942H236.436V25.9402H226.887V23.9942ZM226.887 27.2508H236.436V29.1968H226.887V27.2508ZM232.791 7.11577C233.584 7.55263 234.535 8.02923 235.684 8.54552C236.833 9.0618 238.101 9.53836 239.567 9.97521C241.033 10.4121 242.301 10.69 243.41 10.8489C244.52 11.0078 245.431 11.1269 246.184 11.2063C245.867 11.4049 245.59 11.6829 245.352 12.0403C245.114 12.4375 244.876 12.8346 244.678 13.3112C244.48 13.7878 244.282 14.1054 244.044 14.2643C243.807 14.4232 243.529 14.5026 243.212 14.4629C242.935 14.3834 242.618 14.2643 242.182 14.1452C241.746 13.9863 241.271 13.7878 240.716 13.5495C240.161 13.3112 239.646 13.0729 239.25 12.8346C238.854 12.636 238.497 12.4375 238.22 12.2786L238.655 13.3509H227.759L226.61 12.0403H234.772L235.921 10.7298C235.684 10.5709 235.406 10.4121 235.089 10.1738C234.772 9.9355 234.416 9.65748 234.019 9.26034C233.623 8.90291 233.267 8.5852 232.989 8.26749C232.712 7.94978 232.474 7.71149 232.276 7.47321C231.721 8.06892 230.968 8.70435 230.097 9.4192C229.225 10.1341 228.195 10.8489 227.046 11.5241C225.857 12.1992 224.866 12.7155 223.995 13.0729C223.123 13.4303 222.41 13.7083 221.855 13.9466L225.698 14.8203H238.18L239.765 13.748C240.161 13.9466 240.597 14.1452 241.191 14.4232C241.746 14.7012 242.261 15.0189 242.657 15.3763C243.093 15.7337 243.212 16.0515 243.093 16.3295C242.974 16.6075 242.776 16.806 242.459 17.0046V20.8966C242.459 21.0951 242.301 21.3731 241.984 21.6511C241.667 21.9291 241.152 22.1277 240.518 22.2866C239.844 22.4057 239.329 22.366 238.972 22.2071C238.616 22.0085 238.418 21.81 238.378 21.5717H225.223V21.7703L227.046 22.644H236.119L237.942 21.7703C238.338 21.9688 238.774 22.1674 239.289 22.4454C239.805 22.7234 240.28 23.0411 240.637 23.3588C240.993 23.7162 241.112 23.9943 240.993 24.2326C240.874 24.4708 240.676 24.6694 240.438 24.7885V29.7528C240.438 30.0705 240.28 30.4279 239.923 30.7854C239.567 31.1428 239.052 31.381 238.378 31.5399C237.704 31.6988 237.189 31.6988 236.833 31.5399C236.476 31.381 236.318 31.2222 236.318 31.0634V30.4279H226.768C226.768 30.6265 226.61 30.8648 226.253 31.1428C225.896 31.381 225.421 31.5796 224.708 31.6591C224.034 31.7385 223.519 31.7385 223.162 31.5797C222.806 31.4208 222.647 31.2619 222.647 31.1031V22.7234C222.489 22.7234 222.33 22.7234 222.132 22.6837C221.934 22.6837 221.776 22.6043 221.617 22.4454C221.459 22.2866 221.379 22.1277 221.34 21.8894C221.3 21.6511 221.3 21.4128 221.3 21.2143V14.0657C221.062 14.1452 220.785 14.2246 220.428 14.3041C220.072 14.3835 219.676 14.4629 219.24 14.5423C218.804 14.6218 218.368 14.6614 218.051 14.6614C217.694 14.6614 217.417 14.7012 217.179 14.7012C217.853 14.4232 218.764 13.9466 219.913 13.3509C221.062 12.7552 222.37 11.8417 223.836 10.69C225.302 9.53833 226.412 8.42636 227.244 7.3938C228.076 6.36123 228.631 5.44778 228.987 4.73293C229.621 4.81236 230.414 4.89182 231.285 5.01096C232.197 5.1301 232.91 5.28893 233.425 5.52721C233.98 5.76549 234.099 6.04349 233.821 6.32149C233.742 6.59949 233.346 6.87749 232.791 7.11577Z" fill="#003444"/>
</svg>
