<svg width="14" height="9" viewBox="0 0 14 9" fill="none" xmlns="http://www.w3.org/2000/svg">
<path fill-rule="evenodd" clip-rule="evenodd" d="M0.577485 0.911328C0.733758 0.755103 0.945681 0.66734 1.16665 0.66734C1.38762 0.66734 1.59954 0.755103 1.75582 0.911328L6.99998 6.1555L12.2441 0.911328C12.321 0.831737 12.413 0.768251 12.5146 0.724577C12.6163 0.680903 12.7257 0.657914 12.8363 0.656953C12.947 0.655991 13.0567 0.677076 13.1591 0.718977C13.2615 0.760878 13.3546 0.822755 13.4328 0.900999C13.5111 0.979243 13.5729 1.07229 13.6148 1.1747C13.6567 1.27711 13.6778 1.38685 13.6769 1.4975C13.6759 1.60815 13.6529 1.7175 13.6092 1.81917C13.5656 1.92084 13.5021 2.01279 13.4225 2.08966L7.58915 7.923C7.43288 8.07922 7.22095 8.16698 6.99998 8.16698C6.77901 8.16698 6.56709 8.07922 6.41082 7.923L0.577485 2.08966C0.421259 1.93339 0.333496 1.72147 0.333496 1.50049C0.333496 1.27952 0.421259 1.0676 0.577485 0.911328Z" fill="white"/>
</svg>
