<svg width="14" height="9" viewBox="0 0 14 9" fill="none" xmlns="http://www.w3.org/2000/svg">
<path fill-rule="evenodd" clip-rule="evenodd" d="M0.577485 0.911267C0.733758 0.755041 0.945681 0.667279 1.16665 0.667279C1.38762 0.667279 1.59954 0.755041 1.75582 0.911267L6.99998 6.15543L12.2441 0.911267C12.321 0.831676 12.413 0.76819 12.5146 0.724516C12.6163 0.680842 12.7257 0.657853 12.8363 0.656892C12.947 0.65593 13.0567 0.677015 13.1591 0.718916C13.2615 0.760817 13.3546 0.822694 13.4328 0.900938C13.5111 0.979182 13.5729 1.07223 13.6148 1.17464C13.6567 1.27705 13.6778 1.38679 13.6769 1.49743C13.6759 1.60808 13.6529 1.71743 13.6092 1.8191C13.5656 1.92077 13.5021 2.01273 13.4225 2.0896L7.58915 7.92293C7.43288 8.07916 7.22095 8.16692 6.99998 8.16692C6.77901 8.16692 6.56709 8.07916 6.41082 7.92293L0.577485 2.0896C0.421259 1.93333 0.333496 1.7214 0.333496 1.50043C0.333496 1.27946 0.421259 1.06754 0.577485 0.911267Z" fill="#003444"/>
</svg>
