<svg width="18" height="18" viewBox="0 0 18 18" fill="none" xmlns="http://www.w3.org/2000/svg">
<path d="M14.0003 0.666504H4.00033C2.16233 0.666504 0.666992 2.16184 0.666992 3.99984V13.9998C0.666992 15.8378 2.16233 17.3332 4.00033 17.3332H14.0003C15.8383 17.3332 17.3337 15.8378 17.3337 13.9998V3.99984C17.3337 2.16184 15.8383 0.666504 14.0003 0.666504ZM13.667 6.33317H12.667C11.952 6.33317 11.667 6.50117 11.667 6.99984V7.99984H13.667L13.3337 9.99984H11.667V16.6665H9.33366V9.99984H8.33366V7.99984H9.33366V6.99984C9.33366 5.44084 9.86066 4.33317 11.667 4.33317C12.6343 4.33317 13.667 4.6665 13.667 4.6665V6.33317Z" fill="black"/>
</svg>
