<svg width="151" height="160" viewBox="0 0 151 160" fill="none" xmlns="http://www.w3.org/2000/svg">
<path fill-rule="evenodd" clip-rule="evenodd" d="M51.5675 6.19629C52.5422 5.88357 53.3777 5.11913 54.3176 4.63268C54.1087 5.29287 53.1688 5.74458 53.8999 6.54377C54.4568 6.26579 55.0138 5.98781 55.6056 5.67509C55.5012 5.50135 55.3967 5.36236 55.2575 5.11913C55.8145 4.77166 56.4062 4.38945 56.9632 4.04198C56.6151 3.38178 56.9284 2.89532 57.7639 2.79108C57.8683 2.79108 57.9727 2.75633 58.0424 2.72159L58.0772 2.96481C58.7038 2.86057 57.8683 3.79874 58.7038 2.72159L58.5645 2.5131C58.6689 2.47836 58.8082 2.40886 58.9126 2.37411C59.957 2.02664 61.0013 1.67917 62.0804 1.4012C62.3589 1.3317 62.6374 1.26221 62.9507 1.19271C63.2292 2.40886 63.7861 2.33937 64.3431 2.30462C64.2039 1.81816 63.8906 1.60968 63.4032 1.08847C63.9602 0.949483 64.4824 0.845241 65.0393 0.741C65.1786 0.706253 65.3526 0.775747 65.5267 0.741C66.1185 0.602012 66.7103 0.428276 67.302 0.324035C67.302 0.324035 66.3273 1.08847 67.2672 0.602012C67.4413 0.532518 67.5457 0.393529 67.6153 0.289288C67.685 0.289288 67.7546 0.254541 67.8242 0.254541C68.5204 0.1503 69.2166 0.254541 69.9129 0.219794H70.4698C70.7483 1.50544 71.3053 1.43594 71.8623 1.4012C71.723 0.914736 71.4445 0.706253 70.9224 0.219794C73.1155 0.185047 75.3085 0.185047 77.5016 0.115552L77.5712 0.810494C78.1978 0.706253 77.3624 1.64442 78.1978 0.567265C78.0586 0.358782 77.989 0.185047 77.9193 0.0808054C78.546 0.0460583 79.2074 0.0460583 79.8339 0.0113112C81.0871 -0.058183 82.1315 0.185047 83.0714 0.949483C83.2802 1.12322 83.4195 1.43594 83.5935 1.74867C83.872 1.36645 84.2201 0.879989 84.5682 0.428276C84.6379 0.463023 84.7075 0.497771 84.7771 0.532518C84.7075 0.810494 84.6727 1.08847 84.603 1.36645C84.6727 1.4012 84.7423 1.47069 84.8119 1.50544C85.0904 1.15797 85.3689 0.810494 85.7866 0.289288C86.3784 0.602012 87.0746 0.949483 87.7708 1.29695C87.9101 1.36645 88.0841 1.47069 88.1537 1.43594C89.5462 0.810494 90.1032 2.23513 91.0779 2.54785C91.4608 2.68684 91.9133 2.61734 92.2962 2.72159C92.8532 2.93007 93.4102 3.13855 93.9672 3.34703C94.2805 4.11147 94.733 4.04198 95.2204 4.00723C95.1855 3.93773 95.1855 3.86824 95.1507 3.79874L95.2204 3.83349C95.6381 4.00723 95.9862 4.21571 96.4039 4.3547C96.9261 4.52843 97.309 4.63268 97.5875 4.77166C98.3881 5.74458 97.9704 5.25812 98.2141 5.22338C98.423 5.43186 98.6318 5.74458 98.9451 6.26579C98.9451 5.88357 98.9451 5.64034 98.9451 5.15388C99.7806 5.70984 100.895 5.60559 100.999 6.68275C101.312 6.75225 101.8 6.78699 101.8 6.85649C101.8 7.3777 101.8 7.93365 101.66 8.42011C101.556 8.73283 100.964 9.01081 100.999 9.25404C101.069 10.0532 100.999 10.8524 100.72 11.6168C100.79 11.6516 100.895 11.6516 100.964 11.6863C101.451 11.1999 102.043 10.7482 102.357 10.1575C102.705 9.56676 102.809 8.80233 103.018 8.00314C103.645 8.21163 104.271 8.45486 104.759 8.59384C104.341 9.18454 103.819 9.63626 103.853 10.0185C103.888 10.5049 104.376 10.9914 104.759 11.6168C105.141 10.6787 106.116 10.1922 106.743 10.4007C107.3 10.5744 107.613 11.6863 107.3 12.4508C108.518 12.2075 108.379 13.0762 108.344 13.8754C108.448 13.8754 108.518 13.9102 108.623 13.9102C108.797 13.5627 108.971 13.25 109.249 12.7635C110.293 13.7712 111.338 14.7441 112.312 15.7517C113.183 16.6552 113.983 17.6281 114.784 18.601C115.828 19.9561 116.838 21.3808 117.847 22.7359C118.23 23.2571 118.718 23.6741 119.031 24.23C119.24 24.5775 119.135 25.064 119.24 25.4809C119.309 25.7937 119.414 26.3844 119.588 26.4191C120.772 26.5233 120.528 27.531 120.806 28.1912C121.607 30.1023 122.442 32.0481 123.104 34.0287C123.87 36.4263 124.461 38.9281 124.914 41.4646C124.67 41.2214 124.427 40.9434 124.079 40.5959C123.556 41.9163 124.949 43.1672 124.079 44.4529C125.889 45.7732 125.749 47.7886 125.575 49.8039C125.541 50.1861 125.61 50.4988 125.61 50.8116C125.61 51.1938 125.367 51.576 125.227 51.9235C125.332 52.3057 125.575 52.7574 125.506 53.1396C124.914 56.6838 124.461 60.2975 123.556 63.7722C122.86 66.4478 121.955 69.1233 120.215 71.4513C119.762 72.042 119.797 72.9802 119.414 73.6404C118.683 74.8913 117.813 76.0727 116.908 77.2194C116.768 77.3931 116.211 77.2194 115.794 77.2194C115.933 77.4278 116.107 77.6363 116.246 77.8796C115.794 78.366 115.341 78.8177 114.923 79.3042C114.54 79.7212 113.775 80.0339 114.436 80.8331C114.506 80.9026 114.262 81.25 114.123 81.4238C112.869 82.7441 111.651 84.134 110.328 85.3849C108.901 86.7401 107.439 88.13 105.838 89.2766C103.853 90.736 101.765 92.0216 99.6413 93.3073C96.578 95.1489 93.2361 96.365 89.8247 97.4074C88.7107 97.7549 87.5272 98.4846 86.5524 96.8862C86.4132 97.4769 86.3436 97.8591 86.2392 98.3456C84.3942 98.3109 82.4796 100.291 80.7042 98.1371C80.565 98.3109 80.3213 98.5888 79.9384 99.11C79.7991 98.4498 79.7295 98.1371 79.6599 97.7896C79.7295 97.8591 79.7991 97.9286 79.8688 97.9981C80.3909 97.5464 81.296 97.1294 81.3656 96.5735C81.3656 96.504 81.4004 96.3998 81.4004 96.3303C94.1412 94.6277 105.942 87.8172 113.705 77.8101C113.635 78.0185 113.566 78.2618 113.531 78.505C114.854 78.6787 114.61 77.3236 115.271 76.8371C114.888 76.7677 114.61 76.8024 114.366 76.9414C114.854 76.2812 115.306 75.621 115.759 74.9261L115.794 76.2464C116.316 75.8295 116.664 75.5515 117.186 75.0998C116.664 74.9608 116.316 74.8913 115.863 74.7523C120.389 67.8376 123.034 59.6373 122.965 50.6726C122.895 39.623 119.971 31.0752 115.863 24.508C113.148 20.3036 111.199 17.8366 110.468 17.6976C106.986 25.203 101.451 19.2265 98.9103 21.8672C96.1951 24.6817 97.3786 25.2725 93.9324 28.5734C90.4861 31.8744 85.4037 30.0676 83.3847 33.8897C82.5492 39.1018 84.8119 38.9628 82.7929 43.2715C81.5745 45.8427 77.4668 47.3716 76.8054 50.4294C76.144 53.4871 77.8497 59.1856 77.9193 60.7492C77.9542 62.3129 78.8941 64.2934 79.0333 65.6486C79.2422 67.8029 77.6757 69.0191 75.7263 69.7835L74.9952 71.7293C74.8908 71.9725 74.7864 72.2853 74.6471 72.598C74.7516 72.6328 74.856 72.6675 74.9256 72.7022C75.3782 72.8065 76.0048 72.737 76.1788 72.737H76.2136C76.2832 72.737 76.3529 72.7717 76.4921 72.8065C76.9098 72.9802 77.1187 73.1192 77.1883 73.0845C77.2579 73.0497 77.3624 73.0497 77.5016 72.598C77.6409 72.1115 77.6409 72.2505 77.6409 72.0768C77.6409 71.9031 77.5713 71.8683 77.5364 71.7988C77.5016 71.7293 77.3624 71.6251 77.3624 71.4166C77.3624 71.2081 77.5364 71.1734 77.6061 71.1734C77.6409 71.1734 77.6757 71.1734 77.7453 71.1039C77.8149 71.0344 77.8497 71.0344 77.9193 71.0344C77.989 71.0344 77.989 71.0344 77.989 71.0344C77.989 71.0344 77.9542 70.9649 78.0586 70.9301C78.163 70.8954 78.1978 70.8954 78.2327 70.7564C78.3023 70.6174 78.2675 70.5479 78.3023 70.5132C78.3371 70.4784 78.3371 70.4437 78.4067 70.4437C78.4067 70.4437 78.4067 70.4437 78.4763 70.4437C78.5111 70.4437 79.0333 70.6174 79.0333 70.6174L79.1377 70.6522C79.1377 70.6522 79.1725 70.6522 79.1725 70.6174C79.1725 70.5827 79.1725 70.5479 79.1725 70.5132C79.1725 70.4437 79.2074 70.4437 79.2422 70.4437C79.277 70.4437 79.3466 70.4437 79.4162 70.4784C79.4858 70.4784 79.5207 70.4784 79.5207 70.4784C79.5207 70.4784 79.5207 70.3394 79.5555 70.2005C79.6251 70.0615 79.7295 69.992 79.7295 69.992C79.7295 69.992 79.7643 69.992 79.7991 70.0267C79.834 70.0615 79.9384 70.2699 80.1473 70.3742C80.3213 70.4784 80.4954 70.5132 80.6694 70.5479C80.8435 70.5827 80.9131 70.7564 80.9131 70.7912C80.9131 70.8259 80.9479 70.8606 80.9479 70.8954C80.9479 70.9301 80.9479 70.9649 80.9479 70.9649C80.9479 70.9649 81.1219 70.9996 81.2264 71.2081C81.3308 71.4166 81.3308 71.9725 81.3308 72.2158C81.296 72.459 81.296 72.8065 81.3308 73.0497C81.3656 73.2929 81.4004 73.4319 81.4352 73.5014C81.4701 73.5709 81.5049 73.6057 81.4352 73.6752C81.3656 73.7099 81.2612 73.6404 80.8087 73.8142C80.3561 73.9879 80.0776 74.0574 79.8339 74.0574C79.5903 74.0574 79.3118 73.9531 79.1377 73.7794C78.9289 73.6057 78.8941 73.3624 78.8941 73.3624C78.8941 73.3624 78.72 73.5014 78.6852 73.8489C78.6852 74.1616 78.5111 75.5863 77.5364 76.9414C76.5617 78.2965 75.3085 79.2694 75.3085 79.2694C75.3085 79.2694 75.9351 79.2347 76.2136 79.8949C76.4921 80.5551 76.3877 81.389 76.3877 81.528C76.3529 81.667 76.2484 82.2229 75.7611 82.3272C75.2737 82.4314 75.0997 81.9797 75.0649 81.8755C75.0301 81.7365 74.9604 81.2848 74.8908 80.8331C74.8212 80.3813 74.7516 79.6864 74.7516 79.6864C74.7516 79.6864 74.6471 79.6864 74.5427 79.9644C74.4383 80.2424 74.3687 80.5203 73.5332 81.0415C72.6977 81.5628 72.1059 81.7712 71.4097 81.7365C71.0964 81.7365 70.6439 81.5628 70.2262 81.4238C69.9825 81.8407 69.7388 82.2924 69.7388 82.2924C69.7388 82.2924 69.147 83.3349 68.6597 84.0298C68.1375 84.7247 67.3717 86.2189 67.1976 86.4621C67.0236 86.7053 66.571 87.713 66.3273 88.1994C66.0837 88.6859 65.7356 89.2766 65.7007 89.3461C65.6659 89.3809 65.6311 89.4156 65.5963 89.4156C65.5615 89.4156 65.5615 89.3809 65.5267 89.3461C65.4919 89.3114 65.5615 89.2419 65.7007 89.0334C65.84 88.8249 66.2229 88.0605 66.5014 87.4698C66.7799 86.8791 67.2672 85.8366 68.2767 84.3425C68.9033 83.4044 69.6344 82.1535 70.0869 81.3543C69.704 81.2153 69.4255 81.0763 69.4255 81.0763L68.3464 80.6941C68.3464 80.6941 68.2419 81.0763 67.9635 81.4585C67.685 81.8755 67.302 82.1535 66.9191 82.8831C66.5362 83.6128 66.4666 83.7866 66.4318 83.8908C66.397 83.995 65.8748 83.9256 65.5963 83.8908C65.3526 83.8561 65.0741 83.7171 64.6912 83.8561C64.3431 83.995 63.3684 85.107 62.8811 85.0027C62.533 85.8366 61.8019 86.7053 60.2006 88.0605C58.4601 89.5198 50.384 89.6588 48.5042 88.3037C47.4598 87.5393 49.2352 89.1029 52.8207 91.0487L52.8555 91.1529L53.1688 91.2225C54.0043 91.6742 54.9094 92.1259 55.9189 92.5776L56.1278 95.6353C55.536 95.2184 55.2575 94.9404 54.8746 94.7666C54.4916 94.5582 53.9695 94.5582 53.6562 94.2802C53.2385 93.898 52.9948 93.342 52.6467 92.8556C52.7163 92.7861 52.7859 92.7166 52.8555 92.6471C52.6119 92.6123 52.403 92.6123 52.0549 92.5776C52.0897 92.9251 52.1245 93.203 52.1941 93.6895C51.0802 93.0293 50.0707 92.4733 49.1308 91.8826C49.2004 91.5004 49.27 91.2224 49.3396 90.8055C48.3301 91.3267 47.5991 90.8402 46.9029 90.3885C44.1876 88.6512 41.8901 86.4621 39.6622 84.1688C38.3394 82.8136 37.0862 81.4238 35.9375 79.9644L36.8077 79.6169C36.3204 78.8872 36.39 78.8177 36.0767 78.1923C35.7634 79.2 36.1463 78.783 35.4849 79.4084C34.545 78.1575 33.6747 76.8719 32.9089 75.5168C32.7 75.1693 32.4912 74.8218 32.2823 74.4396C32.3867 74.4396 32.4564 74.4049 32.5608 74.3701C33.257 74.0921 32.9785 74.1269 33.0482 73.7447L32.8045 73.0845L32.0386 73.154L31.6905 73.2234C31.5513 72.8065 31.4817 72.3548 31.5513 71.8336C31.5861 71.4166 31.5513 70.3742 30.507 70.3394C30.2981 70.3394 30.0892 69.992 29.8456 69.7487C30.2633 69.3318 30.681 68.9148 31.2728 68.2894C30.681 68.3589 30.4025 68.3588 30.1937 68.3936C29.7411 67.9071 29.2886 67.4554 28.9057 66.969C28.6968 66.691 28.0702 66.2393 28.9405 65.8918C29.0101 65.8571 28.9057 65.4401 28.8709 65.2316C28.6968 65.2664 28.5227 65.3011 28.2791 65.3359C27.9658 64.6409 27.7569 63.9807 28.836 63.5985C28.5576 62.9383 29.1145 61.8611 27.6525 62.0001C28.2443 60.9577 28.0702 60.2628 27.0607 59.8111C26.8518 59.7068 26.7126 59.3594 26.643 59.1161C26.4341 58.039 26.26 56.9618 26.0512 55.5719C26.4689 56.2321 26.7822 56.6491 27.0955 57.1355C28.0006 56.8228 27.7221 56.0584 27.5828 55.5372C27.3392 54.599 27.3044 53.3829 25.5986 53.4176C26.5385 50.9506 27.4436 48.692 28.3139 46.3639C27.5828 45.9817 27.2347 46.0165 26.1904 46.9199C25.6683 46.0512 26.2252 41.7773 27.2347 37.7467C27.5828 37.9899 27.9658 38.0594 28.3835 37.9551C28.5924 37.8857 28.8709 37.7467 29.0101 37.5382C29.4626 36.9475 29.2538 37.1212 29.1145 36.739L28.5576 36.2873L27.8961 36.739L27.3044 37.2602C27.6873 35.7313 28.1398 34.272 28.6272 33.0906C28.8709 33.3685 29.1145 33.6118 29.3582 33.855C29.3582 33.716 29.3582 33.5423 29.3582 33.4033C29.6367 33.1948 29.9848 33.0211 30.1589 32.7431C30.3677 32.3956 30.5766 31.9439 30.507 31.5964C30.4025 30.971 29.2886 30.3803 30.6114 29.7896C30.7506 29.7201 30.6114 29.0946 30.6114 28.6777C30.7854 28.6429 31.0291 28.6082 31.3772 28.5734C31.1336 28.3649 30.9595 28.1912 30.681 27.948C31.8994 26.0021 33.1178 24.0563 34.371 22.041C34.5798 22.4927 34.2317 23.5004 35.2761 23.1876C35.6242 23.0834 35.9375 22.7359 36.2508 22.5274C36.0071 22.4232 35.7286 22.2842 35.4849 22.2495C34.7887 22.18 34.545 21.4503 35.0672 20.7553C35.4849 20.2341 35.9026 19.7477 36.3204 19.2265C36.3204 19.4349 36.0071 19.6782 36.4596 19.2959C36.6685 19.1222 36.6685 18.9832 36.5989 18.879C37.5736 17.6628 38.5831 16.4467 39.6622 15.3C40.1148 14.8136 40.5673 14.3619 41.0198 13.8754C41.7857 14.1881 41.9945 14.1534 42.83 14.3966C43.0389 13.7364 43.561 12.5898 43.3174 11.7906C43.8395 11.3389 44.3965 10.9219 44.9535 10.4702C45.6497 11.2346 44.9535 10.8872 45.9978 10.8524C46.2763 9.84474 46.4503 10.5397 45.8934 9.77525C46.8333 9.11505 47.7731 8.45486 48.7827 7.82941C49.3396 10.2965 50.5928 6.50902 51.5675 6.19629ZM74.3338 73.3624C74.2294 73.5709 74.125 73.7794 74.0554 73.9879C74.4035 73.9531 74.6819 73.8141 75.0301 73.5362C74.9952 73.5362 74.8212 73.5709 74.3338 73.3624ZM73.568 74.9608C73.2199 75.6905 72.8718 76.3507 72.6977 76.6634C72.9066 76.8024 73.0458 76.7329 73.2199 76.5592C73.3939 76.3854 73.4636 76.0032 73.7072 75.6905C73.9509 75.3778 74.2294 75.065 74.2294 75.065C74.2294 75.065 74.1598 74.9261 73.9509 74.9956C73.8465 75.0303 73.742 75.0303 73.568 74.9608ZM72.5585 76.5939C72.7325 76.2812 73.0458 75.6557 73.3939 74.9261C73.0458 74.8218 72.5933 74.6133 72.1756 74.3006C71.4445 73.8141 71.0268 73.3277 70.5046 72.8412C69.9825 72.3895 69.9825 72.181 69.5299 71.9031C69.3211 71.7641 69.0078 71.5903 68.7641 71.4166C67.6153 71.9378 66.1185 73.0845 65.0393 75.2388C65.0045 75.3083 65.283 75.6905 65.5615 76.1422C65.7007 76.1075 65.8748 76.1075 66.014 76.2117C66.2577 76.3854 66.6058 76.7329 66.8147 77.0109C67.0236 77.2889 67.1628 77.5321 67.2672 77.5668C67.3717 77.6016 67.5457 77.4278 67.6502 77.1846C67.7546 76.9761 68.3116 75.5515 68.7293 74.8566C69.147 74.1616 69.4603 73.5014 70.0173 73.1887C70.5743 72.876 71.1312 73.2234 71.4445 73.8836C71.7926 74.5438 72.1756 76.3507 72.1756 76.3507C72.1756 76.3507 72.3844 76.4549 72.5585 76.5939ZM73.8813 74.0226C73.9857 73.7794 74.0902 73.5362 74.1946 73.3277C74.0205 73.2582 73.7769 73.1192 73.4984 72.9802C72.5237 72.32 71.6186 71.5556 70.9572 70.9301C70.435 70.9996 69.9825 71.0691 69.704 71.1386H69.6344C70.0173 71.3819 70.261 71.6251 70.4002 71.7293C70.6091 71.9031 71.6186 72.9107 72.0015 73.2234C72.4192 73.5709 72.9762 73.9531 73.568 73.9879C73.6724 74.0226 73.7769 74.0226 73.8813 74.0226ZM74.5427 72.5285C74.856 71.7293 75.2737 70.7217 75.587 69.8182C74.3338 70.2699 72.9762 70.5479 71.8274 70.7564C72.0363 70.9649 72.2452 71.1386 72.4541 71.2776C73.4636 71.9378 74.0902 72.32 74.5427 72.5285ZM66.1881 77.9143C65.9096 78.1575 64.1343 79.4779 64.0994 79.6169C63.5773 81.1458 63.438 82.1882 63.3336 83.0221C63.7861 82.8137 64.1691 82.6399 64.726 81.8755C65.3526 80.9373 65.8052 79.7559 66.1185 79.4432C66.4318 79.1305 66.4318 79.0957 66.4318 79.0957C66.4318 79.0957 66.5362 78.6787 66.2925 78.088C66.2229 78.0185 66.1881 77.9491 66.1881 77.9143ZM69.1818 77.9143C69.2514 78.1575 68.9033 78.1923 69.1818 78.4355C69.3211 78.5398 69.7388 78.644 69.8781 78.7135C70.0521 78.7482 70.1217 78.783 70.1565 78.7135C70.1913 78.644 70.1217 78.6092 70.0521 78.5745C69.9825 78.505 69.9825 78.4355 69.9477 77.9838C69.9129 77.5321 69.9825 76.8024 69.9129 76.5939C69.8432 76.3854 69.7736 76.5244 69.6692 76.6634C69.5648 76.8024 69.3907 77.1151 69.3211 77.2889C69.2514 77.4626 69.1818 77.3931 69.147 77.5321C69.1122 77.6363 69.147 77.7406 69.1818 77.9143ZM79.1029 96.5735C78.6852 96.6082 78.2675 96.643 77.8497 96.6777C77.8149 96.7472 77.7801 96.8167 77.7453 96.8862L77.2231 96.7125C74.6123 96.8167 72.0015 96.7125 69.3907 96.3998L69.7736 97.4074C69.6692 97.4422 69.5996 97.5117 69.4951 97.5464C69.2514 97.0252 68.4856 96.8515 68.2767 96.2608C67.685 96.1565 67.128 96.087 66.5362 95.9481C66.571 96.0523 66.6406 96.1218 66.6755 96.226C67.0236 96.9557 67.3717 97.6507 67.7894 98.3456C68.4508 99.388 69.2863 99.3533 69.8781 98.2761C70.6091 99.0753 71.5838 99.3533 72.2104 98.9016C73.7769 97.7896 75.5522 97.9634 77.2928 98.0329C77.8845 98.0676 78.4763 98.3109 79.0681 98.4846C79.1725 98.4498 79.2422 98.3803 79.3466 98.3456C78.8941 97.8244 78.8593 97.1642 79.1029 96.5735ZM64.1343 95.3921C61.1057 94.6277 58.3557 93.62 56.0233 92.5428C56.3018 92.8556 56.4411 93.0988 56.6847 93.2725C57.4854 93.898 56.998 94.9056 57.3809 95.6353C57.5202 95.8786 57.7639 96.1218 58.0075 96.226C58.1468 96.2608 58.4253 95.9828 58.5645 95.8091C58.8082 95.5311 58.9822 95.2531 59.1911 94.9404C59.4348 95.0794 59.6088 95.1836 59.8177 95.3226C59.9918 95.0099 60.1658 94.7667 60.3051 94.4887C61.8019 95.9133 61.8715 96.1565 61.0709 97.4769C62.0804 97.6159 63.0203 97.7549 63.9602 97.8939C63.995 97.7896 63.995 97.7202 64.0298 97.6159C63.821 97.5464 63.6121 97.4422 63.6469 97.4769C63.6817 96.5387 63.8906 95.8438 64.1343 95.3921ZM46.9377 58.039H48.4694V57.2398H44.4661V58.039H45.9978V63.0078H46.9377V58.039ZM54.8746 58.6297L54.9094 57.6915C54.3524 57.3093 53.7258 57.1008 53.0296 57.1008C52.1593 57.1008 51.3935 57.4135 50.8365 57.9695C50.2447 58.5254 49.9662 59.2899 49.9662 60.1585C49.9662 60.9925 50.2795 61.7917 50.8365 62.3476C51.3935 62.9036 52.1593 63.2163 53.0644 63.2163C53.7606 63.2163 54.3524 63.0425 54.8746 62.6603V61.6179C54.3176 62.1044 53.691 62.3476 52.9948 62.3476C51.846 62.3476 50.9409 61.4789 50.9409 60.1933C50.9409 58.9076 51.8112 58.0042 53.0644 58.0042C53.7606 57.9347 54.3524 58.178 54.8746 58.6297ZM62.1152 60.1585L62.7418 63.0078H63.6121L62.2197 56.9966L60.5487 60.645C60.4443 60.8535 60.3399 61.0967 60.2006 61.4442C60.0266 61.0272 59.9221 60.7492 59.8873 60.645L58.1816 56.9966L56.824 63.0078H57.6942L58.3208 60.1585C58.3905 59.9153 58.4253 59.6373 58.4253 59.3594C58.4949 59.6026 58.5993 59.8458 58.7038 60.089L60.2354 63.251L61.7671 60.1585C61.9064 59.8806 61.976 59.6373 62.0456 59.3594C62.0456 59.7763 62.0804 60.0543 62.1152 60.1585ZM69.5299 63.0078H70.5395L67.7198 56.9966L64.9001 63.0078H65.8748L66.5362 61.5137H68.8337L69.5299 63.0078ZM66.9191 60.7492H68.5204L67.9286 59.4289C67.859 59.2899 67.7894 59.0814 67.7198 58.7687C67.6502 59.0466 67.5805 59.2551 67.5109 59.4289L66.9191 60.7492ZM55.6752 23.2919V46.5724H48.0864V25.2725H44.3617V50.2209H66.8495C68.2071 50.2209 69.0774 49.9429 69.5299 49.4217C69.9477 48.9005 70.261 48.3098 70.4002 47.6496C70.5395 46.9894 70.6091 46.3292 70.6091 45.669V25.1682H66.8843V44.9046C66.8843 45.4605 66.7799 45.8775 66.571 46.1555C66.3622 46.4334 65.7356 46.5724 64.7609 46.5724H59.4348V23.2919H55.6752ZM70.6787 96.782C70.6439 96.8862 70.6091 96.9905 70.5743 97.0947C71.0268 97.2337 71.5142 97.4074 71.9667 97.5464C71.9667 97.6159 71.9667 97.6854 71.9319 97.7549C71.6186 97.7896 71.3053 97.8244 70.8179 97.8939C70.9572 98.1371 71.1312 98.4846 71.1312 98.4498C71.6882 98.1719 72.2452 97.8591 72.8022 97.5812C72.7673 97.4422 72.7325 97.3032 72.6977 97.1642C72.0711 97.0252 71.3749 96.921 70.6787 96.782ZM84.7423 96.4693C84.5682 96.5388 84.1157 96.6082 84.1157 96.7125C84.0809 97.1642 84.1505 97.6507 84.2897 98.0676C84.3246 98.2066 84.6727 98.2414 84.8815 98.3109C84.8815 98.1024 84.9163 97.8939 84.9163 97.6507C84.9163 97.3379 84.8467 97.0252 84.7423 96.4693ZM115.968 21.624C115.585 21.4503 115.237 21.1723 115.167 21.2418C114.958 21.4155 114.68 21.8325 114.749 21.9367C114.888 22.18 115.271 22.2842 115.515 22.4579C115.62 22.2495 115.724 22.0062 115.968 21.624Z" fill="#003444"/>
<path fill-rule="evenodd" clip-rule="evenodd" d="M85.4733 72.6328V69.575H85.9955V63.0426H111.407V69.575H111.86V72.6328H85.4733ZM93.1665 66.0308H89.8943V69.575H93.1665V66.0308ZM100.372 69.575V66.0308H96.7868V69.575H100.372ZM107.787 69.575V66.0308H104.027V69.575H107.787ZM85.9258 61.6527V45.808H97.0653V58.0042C97.0653 58.4212 96.9957 58.9771 96.8913 59.6026C96.7868 60.228 96.5084 60.7145 96.021 61.0967C95.5685 61.4789 94.5589 61.6527 93.0273 61.6527H85.9258ZM93.445 52.0972V48.831H89.581V52.0972H93.445ZM93.445 55.0855H89.581V58.6297H91.8437C92.4355 58.6297 92.8532 58.5602 93.0969 58.3517C93.3406 58.178 93.445 57.9 93.445 57.5525V55.0855ZM98.6318 45.7385H111.477V58.9771C111.477 59.5678 111.373 60.089 111.199 60.5408C111.024 60.9925 110.711 61.4094 110.259 61.7222C109.841 62.0349 108.692 62.2086 106.812 62.2086H105.107V59.0814H106.569C107.091 59.0814 107.404 59.0119 107.578 58.8729C107.752 58.7339 107.822 58.4907 107.822 58.2127V57.7262H102.183V59.1509C102.183 59.4636 102.148 59.8806 102.078 60.3323C102.008 60.784 101.8 61.2357 101.486 61.6179C101.138 62.0001 100.477 62.2086 99.4325 62.2086H97.6919V59.2551H98.0052C98.423 59.2551 98.6666 58.9076 98.6666 58.2475V45.7385H98.6318ZM102.183 53.3829V54.9117H107.822V53.3829H102.183ZM102.287 48.6573V50.4641H107.822V48.6573H102.287Z" fill="#003444"/>
<path fill-rule="evenodd" clip-rule="evenodd" d="M12.649 112.488V129.549H16.7567C17.5225 129.549 17.9751 129.444 18.1491 129.236C18.3232 129.027 18.3928 128.715 18.3928 128.332V113.843H21.2821V128.888C21.2821 129.375 21.2125 129.861 21.108 130.348C21.0036 130.834 20.7599 131.251 20.4466 131.633C20.0985 132.016 19.4371 132.224 18.3928 132.224H1.02216V113.947H3.87665V129.549H9.72488V112.488H12.649ZM26.5385 132.537V130.278H26.9563V125.483H46.5548V130.278H46.9029V132.537H26.5385ZM32.4564 127.707H29.95V130.278H32.4564V127.707ZM38.0261 130.313V127.742H35.2761V130.313H38.0261ZM43.7351 130.313V127.742H40.8458V130.313H43.7351ZM26.8866 112.905H35.4849V121.835C35.4849 122.147 35.4501 122.53 35.3457 123.016C35.2761 123.468 35.0324 123.85 34.6843 124.128C34.3362 124.406 33.5703 124.545 32.3519 124.545H26.8866V112.905ZM32.6652 117.491V115.094H29.7063V117.491H32.6652ZM32.6652 119.68H29.7063V122.286H31.4469C31.8994 122.286 32.2475 122.217 32.4216 122.078C32.5956 121.939 32.6652 121.765 32.6652 121.487V119.68ZM46.6244 112.8V122.53C46.6244 122.947 46.5548 123.364 46.4155 123.676C46.2763 124.024 46.0326 124.302 45.6845 124.545C45.3712 124.788 44.4661 124.892 43.0041 124.892H41.6812V122.634H42.7952C43.1781 122.634 43.4566 122.564 43.561 122.46C43.7003 122.356 43.7351 122.182 43.7351 121.974V121.626H39.3837V122.669C39.3837 122.912 39.3489 123.19 39.3141 123.537C39.2445 123.885 39.1052 124.197 38.8616 124.475C38.6179 124.753 38.0609 124.927 37.2603 124.927H35.9026V122.773H36.1463C36.4944 122.773 36.6337 122.53 36.6337 122.043V112.8H46.6244ZM39.4185 118.429V119.541H43.7699V118.429H39.4185ZM39.523 114.955V116.275H43.8047V114.955H39.523ZM59.957 114.955C60.4095 114.85 60.7228 114.677 60.8968 114.434C61.0709 114.19 60.862 113.947 60.3051 113.634C59.7481 113.322 59.1215 113.113 58.3905 112.974C57.6942 112.835 57.1025 112.731 56.6847 112.731C56.5803 113.461 56.4411 114.295 56.1974 115.302C55.9537 116.275 55.5708 117.387 54.9442 118.568C54.3524 119.75 53.691 120.792 52.96 121.626C52.2637 122.46 51.6023 123.19 51.0454 123.78C52.2289 123.225 53.4473 122.53 54.7353 121.626C56.0233 120.723 57.0676 119.75 57.9031 118.673C58.7386 117.596 59.2607 116.762 59.4696 116.206C59.6785 115.58 59.8525 115.163 59.957 114.955ZM63.4032 112.522H61.419L61.976 113.565H64.1691C64.2039 114.086 64.3083 114.816 64.5172 115.719C64.726 116.623 65.1786 117.734 65.8748 118.951C66.571 120.202 67.4065 121.174 68.2767 121.939C69.1818 122.703 69.9825 123.225 70.7135 123.572C70.9224 123.642 71.0964 123.642 71.2009 123.572C71.3053 123.468 71.4445 123.225 71.549 122.808C71.6882 122.391 71.9319 121.974 72.3148 121.591C72.6977 121.174 73.1155 120.862 73.6028 120.653C73.0807 120.549 72.3844 120.375 71.5142 120.063C70.6439 119.75 69.6692 119.194 68.59 118.395C67.5457 117.595 66.7451 116.762 66.2229 115.928C65.7007 115.094 65.3874 114.364 65.2134 113.773C65.5615 113.669 65.8748 113.495 66.1533 113.322C66.397 113.148 66.4318 112.905 66.2577 112.661C66.0837 112.418 65.7704 112.21 65.3526 112.071C64.9349 111.897 64.5868 111.793 64.2735 111.688L63.4032 112.522ZM62.4981 122.008L58.3208 129.583H67.0584C66.9887 129.375 66.8843 129.132 66.7799 128.819C66.6406 128.506 66.4318 128.124 66.0837 127.707C65.7704 127.29 65.4223 126.908 65.0741 126.595C64.726 126.282 64.4127 126.004 64.1343 125.831C64.726 125.9 65.4223 126.004 66.1881 126.213C66.9539 126.421 67.6501 126.734 68.3464 127.186C69.0426 127.637 69.5299 128.054 69.8084 128.471C70.1217 128.888 70.3306 129.201 70.4698 129.444C70.6439 129.931 70.6787 130.487 70.5395 131.077C70.4002 131.668 70.0521 132.05 69.4603 132.259C68.8685 132.467 68.416 132.363 68.0331 131.981C67.6502 131.599 67.4413 131.147 67.3717 130.66L54.6309 132.398C54.4568 132.606 54.248 132.676 54.0043 132.641C53.7606 132.606 53.5169 132.328 53.3081 131.842C53.0644 131.355 52.9252 130.869 52.8207 130.452C52.7163 130 52.6815 129.687 52.6467 129.479L57.2069 129.653L59.4 119.819C60.0962 119.958 60.8272 120.132 61.5931 120.375C62.3589 120.584 62.9159 120.827 63.264 121.07C63.6121 121.348 63.6469 121.522 63.3684 121.696C63.1247 121.8 62.8463 121.939 62.4981 122.008ZM82.8277 126.526H83.9068V131.668H82.8277V126.526ZM87.179 126.526H88.2582V131.668H87.179V126.526ZM91.5652 126.526H92.6444V131.668H91.5652V126.526ZM84.8119 113.912C85.1252 113.739 85.3341 113.53 85.4385 113.322C85.5429 113.113 85.4037 112.905 84.986 112.696C84.5682 112.488 84.0461 112.349 83.4543 112.244C82.8625 112.14 82.3403 112.071 81.9226 112.001C81.7834 112.453 81.5397 113.044 81.2264 113.739C80.9131 114.434 80.4605 115.233 79.8688 116.136C79.277 117.04 78.6504 117.839 78.0586 118.499C77.4668 119.159 76.9098 119.715 76.4573 120.132C77.1187 119.889 77.9194 119.541 78.7896 119.09C79.6947 118.638 80.5998 118.012 81.5049 117.283C82.4448 116.553 83.141 115.858 83.6283 115.302C84.1853 114.711 84.5682 114.26 84.8119 113.912ZM90.4513 115.65C90.6253 115.789 90.869 115.997 91.1475 116.24C91.426 116.484 91.7045 116.727 91.9133 117.005C92.157 117.283 92.2266 117.457 92.1918 117.561C92.157 117.665 92.0526 117.7 91.9133 117.7H83.7328L83.1758 116.657H88.9892L90.4513 115.65ZM88.467 120.827H91.5652C91.6697 121.07 91.8437 121.452 92.0874 121.869C92.3311 122.321 92.7836 122.842 93.3754 123.433C93.9672 124.024 94.5938 124.51 95.2204 124.858C95.847 125.205 96.3691 125.483 96.8217 125.657C96.9957 125.761 97.2046 125.726 97.3786 125.622C97.5875 125.518 97.7964 125.275 98.0052 124.927C98.2141 124.545 98.423 124.232 98.6318 123.954C98.8407 123.676 99.0147 123.503 99.1888 123.433C98.8407 123.433 98.3533 123.398 97.7267 123.294C97.1349 123.19 96.4039 123.016 95.6033 122.703C94.8026 122.391 94.1412 122.078 93.6191 121.73C93.0969 121.383 92.714 121.07 92.4355 120.827L93.3406 120.48C93.5146 120.375 93.6539 120.271 93.6887 120.132C93.7583 119.993 93.6539 119.819 93.4102 119.611C93.1665 119.402 92.8532 119.229 92.5399 119.09C92.1918 118.951 91.9481 118.846 91.7045 118.742L90.6253 119.785H87.9101L88.467 120.827ZM85.1948 121.174C85.5429 121.001 85.7866 120.827 85.9607 120.584C86.1347 120.375 86.0303 120.167 85.6474 119.958C85.2645 119.75 84.7075 119.611 84.0461 119.507C83.3847 119.402 82.7929 119.333 82.2707 119.263C82.1663 119.576 81.9574 119.993 81.6441 120.549C81.3656 121.07 80.8783 121.73 80.2169 122.53C79.5555 123.329 78.8941 124.024 78.2327 124.649C77.5364 125.275 76.9446 125.761 76.4225 126.178C76.5965 126.143 76.8402 126.109 77.1187 126.039C77.3972 125.97 77.7453 125.9 78.0934 125.796C78.4415 125.692 78.7548 125.587 78.9637 125.518C79.2074 125.448 79.3814 125.344 79.4858 125.309V132.224H76.3877L77.1187 133.266H98.7363C98.8407 133.266 98.8755 133.197 98.9103 133.058C98.9103 132.919 98.8407 132.676 98.6318 132.294C98.423 131.946 98.2141 131.599 97.9356 131.321C97.6919 131.043 97.4482 130.834 97.2742 130.66L95.8121 131.529V127.047C96.021 126.942 96.1951 126.769 96.2995 126.595C96.4039 126.421 96.3343 126.178 96.0558 125.865C95.7773 125.553 95.4292 125.275 94.9767 124.997C94.5241 124.719 94.1412 124.475 93.8279 124.267L92.5399 125.483H83.0017L80.6346 124.962C80.8435 124.823 81.1568 124.614 81.5397 124.336C81.9226 124.058 82.3752 123.711 82.9321 123.259C83.4891 122.808 83.9416 122.425 84.3246 122.043C84.6727 121.696 84.986 121.383 85.1948 121.174ZM88.0841 114.086H91.5304C91.6348 114.399 91.8089 114.85 92.0874 115.372C92.3659 115.928 92.8184 116.553 93.445 117.283C94.0716 118.012 94.733 118.568 95.3596 119.02C95.9862 119.437 96.5432 119.785 96.9957 119.958C97.1698 120.028 97.3438 119.993 97.4831 119.889C97.6223 119.785 97.7964 119.507 97.9704 119.124C98.1445 118.742 98.3533 118.395 98.597 118.082C98.8407 117.769 99.0844 117.526 99.3628 117.387C99.0147 117.352 98.5274 117.283 97.9008 117.179C97.309 117.074 96.578 116.831 95.7773 116.449C94.9767 116.067 94.3153 115.65 93.7931 115.198C93.2709 114.746 92.888 114.329 92.6095 113.947L93.3406 113.6C93.4798 113.53 93.5842 113.461 93.6191 113.356C93.6539 113.252 93.5843 113.078 93.3406 112.905C93.0969 112.731 92.8184 112.557 92.5051 112.418C92.1918 112.279 91.9133 112.14 91.7045 112.071L90.6253 113.113H87.5272L88.0841 114.086ZM104.619 111.862V117.734H102.078L102.426 118.777H104.619V132.572C104.619 132.745 104.759 132.919 105.037 133.058C105.315 133.232 105.698 133.266 106.255 133.197C106.812 133.127 107.195 132.954 107.474 132.676C107.752 132.398 107.892 132.155 107.892 131.877V118.777H110.99C111.199 118.777 111.338 118.707 111.407 118.603C111.477 118.499 111.373 118.29 111.129 117.978C110.85 117.665 110.537 117.387 110.189 117.144C109.841 116.901 109.562 116.692 109.354 116.553L108.274 117.769H107.926V113.461C108.1 113.287 108.24 113.078 108.344 112.87C108.448 112.661 108.309 112.453 107.926 112.279C107.578 112.105 107.056 112.001 106.429 111.966C105.733 111.862 105.141 111.862 104.619 111.862ZM114.61 111.688C115.063 111.723 115.585 111.758 116.142 111.827C116.699 111.897 117.151 111.966 117.534 112.105C117.882 112.244 118.056 112.383 118.021 112.522C117.987 112.661 117.882 112.8 117.743 112.905C117.708 113.009 117.673 113.183 117.639 113.322C117.604 113.495 117.534 113.669 117.464 113.878C117.395 114.086 117.36 114.225 117.29 114.364C117.256 114.468 117.221 114.573 117.186 114.607H120.11L121.398 113.391C121.642 113.53 121.92 113.739 122.268 113.947C122.617 114.19 122.895 114.434 123.173 114.712C123.417 114.989 123.487 115.198 123.417 115.337C123.348 115.476 123.208 115.58 123.034 115.65C123.034 116.206 122.965 116.831 122.791 117.561C122.617 118.29 122.234 118.985 121.642 119.646C121.05 120.306 120.423 120.723 119.727 120.896C119.031 121.07 118.439 121.174 117.917 121.174C117.882 121.035 117.847 120.862 117.778 120.618C117.708 120.375 117.604 120.132 117.43 119.854C117.256 119.576 117.047 119.333 116.803 119.159C116.559 118.985 116.351 118.846 116.107 118.777C116.49 118.812 116.942 118.812 117.464 118.777C117.987 118.742 118.474 118.568 118.927 118.256C119.379 117.943 119.692 117.526 119.832 117.04C119.971 116.553 120.075 116.101 120.11 115.65H116.768C116.594 116.24 116.246 116.901 115.724 117.63C115.202 118.395 114.436 119.09 113.426 119.75C112.417 120.41 111.477 120.862 110.642 121.07C109.806 121.313 109.11 121.452 108.588 121.487C108.971 121.313 109.493 121.035 110.085 120.618C110.676 120.202 111.338 119.646 111.999 118.951C112.695 118.221 113.183 117.595 113.531 117.005C113.879 116.414 114.088 115.962 114.227 115.615H110.398L109.841 114.573H114.366C114.401 114.434 114.436 114.225 114.471 114.017C114.506 113.773 114.54 113.495 114.575 113.183C114.61 112.835 114.61 112.557 114.61 112.314C114.645 112.071 114.645 111.862 114.61 111.688ZM110.05 121.522C110.433 121.557 110.885 121.591 111.338 121.626C111.79 121.661 112.173 121.73 112.452 121.835C112.73 121.939 112.835 122.008 112.765 122.113C112.695 122.217 112.591 122.321 112.417 122.391V124.475H113.705L114.61 123.433C114.714 123.468 114.819 123.503 114.958 123.607C115.097 123.676 115.237 123.815 115.411 123.954C115.585 124.093 115.724 124.232 115.828 124.302C115.933 124.406 116.002 124.441 116.072 124.475H118.056V121.557C118.404 121.557 118.822 121.557 119.275 121.591C119.727 121.591 120.11 121.661 120.423 121.8C120.737 121.904 120.876 122.078 120.841 122.252C120.806 122.425 120.737 122.599 120.597 122.773V124.51H121.503L122.965 123.468C123.139 123.676 123.348 123.919 123.626 124.197C123.87 124.475 124.113 124.788 124.253 125.101C124.427 125.414 124.461 125.657 124.392 125.831C124.322 126.004 124.218 126.143 124.044 126.213C124.044 127.151 123.974 128.159 123.87 129.236C123.765 130.313 123.452 131.182 122.965 131.877C122.512 132.572 121.99 132.988 121.398 133.093C120.841 133.197 120.319 133.266 119.866 133.266C119.866 133.127 119.866 132.919 119.832 132.71C119.832 132.467 119.762 132.224 119.658 131.946C119.553 131.668 119.449 131.425 119.309 131.251C119.17 131.077 119.031 130.938 118.927 130.869C119.275 130.904 119.692 130.869 120.075 130.834C120.493 130.765 120.806 130.487 121.085 129.931C121.363 129.41 121.503 128.715 121.572 127.881C121.607 127.047 121.642 126.248 121.642 125.518H120.597C120.597 126.178 120.493 126.977 120.284 127.915C120.075 128.854 119.588 129.792 118.822 130.695C118.056 131.599 117.256 132.259 116.351 132.606C115.48 132.954 114.714 133.197 114.018 133.266C114.575 132.849 115.202 132.363 115.828 131.703C116.455 131.077 116.942 130.313 117.325 129.444C117.708 128.576 117.917 127.811 117.952 127.151C117.987 126.491 118.021 125.935 118.021 125.518H115.828C115.828 126.317 115.794 127.255 115.654 128.298C115.55 129.34 115.271 130.313 114.854 131.216C114.436 132.12 113.949 132.676 113.426 132.919C112.904 133.162 112.417 133.301 111.999 133.301C111.895 133.266 111.825 133.162 111.825 133.023C111.825 132.849 111.825 132.606 111.86 132.294C111.895 131.946 111.825 131.668 111.616 131.425C111.442 131.182 111.199 131.008 110.885 130.869C111.164 130.904 111.477 130.869 111.825 130.799C112.173 130.73 112.487 130.417 112.765 129.861C113.044 129.305 113.218 128.645 113.322 127.811C113.392 126.977 113.426 126.213 113.426 125.518H112.347C112.347 125.935 112.312 126.526 112.208 127.29C112.104 128.054 111.825 128.888 111.303 129.861C110.781 130.834 110.154 131.599 109.388 132.189C108.623 132.78 107.926 133.162 107.265 133.44C107.613 133.023 107.996 132.537 108.414 131.911C108.797 131.286 109.145 130.556 109.388 129.653C109.632 128.784 109.806 127.985 109.876 127.29C109.945 126.595 109.98 126.004 110.015 125.483H108.414L108.066 124.441H110.05V121.522ZM137.098 122.877C137.098 122.773 137.063 122.599 137.028 122.391C136.993 122.182 136.819 121.939 136.541 121.696C136.262 121.452 135.879 121.244 135.462 121.174C135.009 121.07 134.591 121.035 134.209 121.035C134.383 121.14 134.557 121.313 134.696 121.487C134.835 121.661 134.905 121.904 134.94 122.147C134.974 122.391 135.009 122.599 135.009 122.738C135.009 122.912 135.079 123.016 135.114 123.12C135.183 123.329 135.288 123.537 135.462 123.711C135.636 123.919 135.879 123.989 136.158 123.989C136.436 123.989 136.68 123.85 136.819 123.641C136.993 123.329 137.063 123.12 137.098 122.877ZM133.826 120.827H137.446V124.093H133.826V120.827ZM140.753 120.827H144.373V124.093H141.658L144.025 121.696L141.658 121.001L141.101 124.093H140.753V120.827ZM135.114 127.012H142.737V128.576H135.114V127.012ZM135.114 129.618H142.737V131.182H135.114V129.618ZM139.813 113.565C140.44 113.912 141.206 114.295 142.111 114.712C143.016 115.128 144.06 115.511 145.209 115.858C146.392 116.206 147.402 116.449 148.272 116.553C149.142 116.692 149.908 116.762 150.5 116.831C150.256 116.97 150.047 117.179 149.839 117.491C149.63 117.804 149.456 118.117 149.316 118.499C149.177 118.881 149.003 119.124 148.794 119.263C148.585 119.402 148.377 119.437 148.133 119.402C147.924 119.333 147.646 119.263 147.332 119.124C146.984 119.02 146.601 118.846 146.149 118.638C145.696 118.429 145.313 118.256 144.965 118.082C144.652 117.908 144.373 117.769 144.164 117.665L144.513 118.534H135.775L134.87 117.491H141.414L142.319 116.449C142.145 116.345 141.902 116.171 141.658 115.997C141.414 115.823 141.101 115.58 140.788 115.267C140.474 114.989 140.196 114.711 139.952 114.468C139.743 114.225 139.535 114.017 139.395 113.843C138.943 114.295 138.351 114.816 137.655 115.406C136.959 115.997 136.158 116.553 135.218 117.074C134.278 117.63 133.477 118.047 132.781 118.325C132.085 118.603 131.493 118.846 131.041 119.02L134.139 119.715H144.13L145.418 118.846C145.731 118.985 146.079 119.159 146.566 119.402C147.019 119.611 147.402 119.854 147.75 120.167C148.098 120.445 148.202 120.688 148.098 120.931C147.994 121.14 147.854 121.313 147.611 121.452V124.545C147.611 124.719 147.471 124.927 147.228 125.136C146.984 125.379 146.566 125.518 146.044 125.622C145.522 125.726 145.104 125.692 144.826 125.553C144.547 125.414 144.373 125.24 144.338 125.031H133.826V125.205L135.288 125.9H142.563L144.025 125.205C144.338 125.344 144.687 125.518 145.104 125.761C145.522 125.97 145.87 126.213 146.183 126.491C146.462 126.769 146.566 127.012 146.462 127.186C146.357 127.359 146.218 127.533 146.009 127.637V131.668C146.009 131.911 145.87 132.189 145.592 132.502C145.313 132.78 144.895 132.988 144.373 133.093C143.816 133.197 143.433 133.197 143.155 133.093C142.876 132.988 142.737 132.849 142.737 132.71V132.189H135.114C135.114 132.363 134.974 132.537 134.696 132.745C134.417 132.954 134.034 133.093 133.477 133.162C132.921 133.232 132.538 133.197 132.259 133.093C131.981 132.988 131.841 132.849 131.841 132.71V125.97C131.737 125.97 131.598 125.97 131.424 125.935C131.284 125.935 131.145 125.865 131.006 125.726C130.901 125.622 130.797 125.448 130.762 125.275C130.727 125.101 130.727 124.927 130.727 124.753V119.055C130.553 119.124 130.31 119.159 130.031 119.263C129.753 119.333 129.439 119.402 129.091 119.472C128.743 119.541 128.395 119.576 128.151 119.576C127.873 119.576 127.664 119.611 127.455 119.611C128.012 119.368 128.743 119.02 129.648 118.534C130.588 118.047 131.633 117.352 132.781 116.414C133.965 115.511 134.87 114.607 135.497 113.773C136.158 112.939 136.61 112.244 136.889 111.654C137.411 111.723 138.003 111.793 138.734 111.862C139.43 111.932 140.022 112.071 140.474 112.279C140.927 112.453 141.031 112.661 140.788 112.905C140.579 113.148 140.266 113.356 139.813 113.565Z" fill="#003444"/>
<path fill-rule="evenodd" clip-rule="evenodd" d="M26.9563 153.42H24.9372L25.1809 153.871H26.9563C26.9563 154.115 26.8866 154.393 26.817 154.775C26.7474 155.157 26.6081 155.574 26.3645 156.061C26.1208 156.547 25.8771 156.964 25.5986 157.346C25.3201 157.694 25.0417 157.972 24.8328 158.215C25.1113 158.111 25.4594 158.006 25.8771 157.833C26.2948 157.659 26.6778 157.346 27.0955 156.929C27.4784 156.512 27.7569 156.026 27.931 155.539C28.0702 155.018 28.1746 154.566 28.2094 154.149C28.2443 154.532 28.2791 154.983 28.3139 155.47C28.3835 155.956 28.4879 156.443 28.6272 156.929C28.8012 157.416 28.9753 157.763 29.1842 158.006C29.393 158.25 29.6019 158.423 29.7759 158.562C29.8456 158.562 29.9152 158.562 29.9848 158.458C30.0544 158.389 30.124 158.25 30.2285 158.076C30.3329 157.902 30.4373 157.763 30.5766 157.659C30.7158 157.555 30.8551 157.485 30.9943 157.45C30.7506 157.346 30.4721 157.207 30.1589 157.033C29.8456 156.825 29.5323 156.547 29.2538 156.13C28.9753 155.713 28.7664 155.331 28.662 154.949C28.5227 154.566 28.4531 154.219 28.3835 153.941H30.7854C30.8551 153.941 30.9247 153.906 30.9595 153.871C30.9943 153.837 30.9595 153.732 30.8551 153.594C30.7506 153.455 30.5766 153.316 30.4025 153.177C30.2285 153.038 30.0544 152.933 29.8804 152.864L29.219 153.489H28.4183V151.856C28.5227 151.787 28.6272 151.682 28.6968 151.578C28.7664 151.474 28.7316 151.37 28.5924 151.3C28.4531 151.196 28.2094 151.161 27.8961 151.126C27.5828 151.092 27.2696 151.092 26.9563 151.092V153.42ZM24.7632 150.883H31.0987V158.736H24.7632V150.883ZM24.8676 150.397H30.9595L31.6905 150.015C31.8646 150.084 32.0386 150.188 32.2475 150.293C32.4564 150.397 32.5956 150.501 32.7349 150.64C32.8393 150.779 32.8741 150.848 32.8393 150.918C32.7697 150.987 32.7001 151.057 32.6304 151.092V159.188C32.6304 159.257 32.5608 159.327 32.4564 159.396C32.3171 159.466 32.1431 159.535 31.8994 159.57C31.6557 159.605 31.4817 159.605 31.3424 159.57C31.2032 159.535 31.1684 159.466 31.1684 159.396V159.153H24.7632V159.292C24.7632 159.327 24.6935 159.396 24.5891 159.466C24.4499 159.535 24.2758 159.57 24.0321 159.605C23.7885 159.639 23.6144 159.605 23.4752 159.57C23.3359 159.501 23.3011 159.466 23.3011 159.396V149.98L24.8676 150.397ZM48.4694 150.015L48.2953 151.717C48.2257 151.682 48.1561 151.648 48.0864 151.578C47.982 151.543 47.8776 151.509 47.7035 151.474C47.5643 151.439 47.425 151.439 47.2858 151.439C47.1466 151.439 47.0769 151.439 46.9725 151.474C47.1466 151.578 47.2858 151.752 47.425 151.995C47.5295 152.204 47.6339 152.447 47.7035 152.725C47.7732 152.968 47.8776 153.142 48.0516 153.211C48.1909 153.281 48.3997 153.281 48.6086 153.246L48.0516 154.254H46.8333C46.8333 154.427 46.8681 154.636 46.9029 154.879C46.9377 155.122 47.0073 155.331 47.0769 155.505C47.1466 155.678 47.2162 155.783 47.2858 155.748C47.3554 155.713 47.425 155.678 47.4947 155.574L48.539 155.192V156.2C48.5042 156.165 48.4346 156.13 48.3649 156.13C48.2953 156.095 48.1909 156.061 48.0864 156.026C47.982 155.991 47.8428 155.991 47.7383 155.991C47.6339 155.991 47.5643 155.991 47.4947 155.991C47.4947 156.13 47.4599 156.269 47.4599 156.478C47.425 156.686 47.3902 156.929 47.3554 157.242C47.3206 157.555 47.251 157.867 47.1814 158.18C47.1117 158.493 47.0769 158.736 47.0073 158.979C47.1466 158.91 47.2858 158.771 47.4599 158.597C47.6339 158.423 47.808 158.215 47.982 157.937C48.1561 157.659 48.2605 157.416 48.3649 157.172C48.4346 156.964 48.5042 156.79 48.539 156.651V159.362C48.539 159.431 48.6086 159.501 48.713 159.57C48.8175 159.639 49.0263 159.674 49.27 159.639C49.5137 159.605 49.6877 159.535 49.827 159.396C49.9314 159.257 50.001 159.153 50.001 159.049V156.269C50.1055 156.373 50.1403 156.512 50.1751 156.721C50.2099 156.894 50.2099 157.103 50.2099 157.346C50.2099 157.589 50.2447 157.763 50.3492 157.867C50.4536 157.972 50.558 158.041 50.7321 158.076C50.9757 158.041 51.1846 157.937 51.3587 157.763C51.5327 157.589 51.5327 157.311 51.3935 156.999C51.2542 156.686 51.0454 156.443 50.7669 156.269C50.4884 156.13 50.2099 156.061 50.001 156.061V154.914L50.3143 154.775C50.3143 154.81 50.3492 154.914 50.3492 155.018C50.3492 155.122 50.4188 155.227 50.4884 155.331C50.558 155.435 50.6625 155.505 50.8017 155.505C50.9409 155.505 51.0802 155.505 51.2194 155.47C51.3587 155.366 51.4631 155.192 51.4979 154.983C51.5675 154.775 51.4631 154.497 51.2542 154.219C51.0454 153.906 50.7669 153.698 50.4536 153.594C50.1403 153.455 49.827 153.42 49.5833 153.42C49.6529 153.455 49.6877 153.524 49.7574 153.628C49.827 153.698 49.8966 153.802 49.9662 153.906C50.0359 154.01 50.0707 154.115 50.1055 154.184C50.1403 154.254 50.1403 154.323 50.1751 154.393H48.3997L50.8365 152.065C50.9758 152.03 51.0802 151.926 51.115 151.856C51.1498 151.752 51.0802 151.648 50.9061 151.543C50.7321 151.439 50.4884 151.335 50.2447 151.3C50.001 151.265 49.7922 151.231 49.6181 151.231L48.8871 152.933C48.9219 152.864 48.9219 152.76 48.9219 152.655C48.9219 152.551 48.8871 152.447 48.8523 152.343C48.7827 152.238 48.7479 152.134 48.6434 152.099C48.5738 152.03 48.5042 151.995 48.4346 151.96L49.7226 150.883C49.827 150.814 49.9314 150.71 49.9314 150.64C49.9662 150.536 49.8618 150.466 49.6529 150.397C49.4441 150.327 49.2352 150.293 48.9915 150.258C48.8175 150.049 48.6086 150.049 48.4694 150.015ZM53.2036 156.2H55.1531V158.528H53.2036V156.2ZM55.6404 155.192L55.0834 155.748H53.3081L51.7764 155.366V159.362C51.7764 159.431 51.846 159.501 51.9505 159.57C52.0549 159.639 52.2637 159.639 52.5074 159.605C52.7511 159.57 52.9252 159.501 53.0644 159.396C53.1688 159.292 53.2385 159.188 53.2385 159.118V158.979H55.1879V159.362C55.1879 159.431 55.2575 159.501 55.3619 159.57C55.4664 159.639 55.6752 159.605 55.9189 159.535C56.1626 159.466 56.3366 159.362 56.4759 159.257C56.5803 159.118 56.6499 159.014 56.6499 158.91V156.339C56.7195 156.304 56.7892 156.2 56.7892 156.13C56.824 156.026 56.7543 155.922 56.6151 155.783C56.4759 155.644 56.3018 155.539 56.1278 155.435C55.9189 155.331 55.7448 155.227 55.6404 155.192ZM51.3935 152.482L51.1498 152.03H53.2733V150.015C53.3777 150.015 53.5866 150.015 53.7954 150.015C54.0391 150.015 54.2828 150.049 54.4916 150.119C54.7353 150.188 54.8398 150.258 54.8746 150.362C54.8746 150.466 54.8398 150.571 54.7353 150.675V151.995H55.71L56.3714 151.37C56.4759 151.439 56.5803 151.543 56.6847 151.682C56.7892 151.821 56.8936 151.96 56.9632 152.099C57.0328 152.238 57.0676 152.343 57.0676 152.377C57.0676 152.447 57.0328 152.447 56.998 152.447H54.7353V154.08H55.2227L55.7796 153.524C55.8493 153.559 55.9537 153.663 56.0929 153.767C56.2322 153.871 56.3714 154.01 56.4759 154.149C56.5803 154.288 56.6499 154.393 56.6151 154.462C56.5803 154.532 56.5107 154.566 56.4411 154.566H51.8808L51.6372 154.115H53.2733V152.482H51.3935ZM61.0709 151.092H61.8019V152.238H61.0709V151.092ZM61.0709 152.725H61.8019V153.871H61.0709V152.725ZM59.6088 154.81C59.6088 154.949 59.6785 155.053 59.7829 155.122C59.9221 155.227 60.0962 155.227 60.3399 155.157C60.5835 155.088 60.7576 154.949 60.8968 154.775C61.0013 154.601 61.0709 154.462 61.0709 154.323H61.8019V154.636C61.8019 154.74 61.8715 154.844 61.976 154.949C62.0804 155.053 62.2893 155.053 62.533 154.983C62.7766 154.914 62.9507 154.81 63.0899 154.671C63.1944 154.532 63.264 154.393 63.264 154.254V151.335C63.3684 151.265 63.438 151.161 63.4728 151.057C63.5077 150.953 63.4729 150.814 63.3336 150.675C63.1944 150.536 63.0551 150.432 62.8811 150.362C62.7418 150.293 62.6026 150.223 62.533 150.188L61.8019 150.64H61.0709L59.6088 150.327V154.81ZM65.4571 151.092H66.6755V151.787H65.4571V151.092ZM65.4571 152.273H66.6755V153.211H65.4571V152.273ZM61.8019 156.894H62.2893V159.223H61.8019V156.894ZM63.7513 156.894H64.2387V159.223H63.7513V156.894ZM65.7007 156.894H66.1881V159.223H65.7007V156.894ZM62.6026 156.2C62.8462 155.991 63.0551 155.748 63.2988 155.47C63.5425 155.192 63.7165 154.879 63.821 154.532C63.9254 154.184 63.995 153.871 63.995 153.594C63.995 153.316 63.995 153.107 63.995 152.899V150.362L65.5267 150.675H66.571L67.128 150.293C67.2672 150.362 67.4065 150.432 67.6153 150.536C67.8242 150.64 67.9983 150.744 68.1375 150.883C68.2767 151.022 68.3464 151.126 68.3116 151.231C68.2767 151.335 68.2071 151.404 68.1027 151.474V154.566C68.1027 154.671 68.0679 154.81 67.9983 154.983C67.9286 155.157 67.8242 155.296 67.6153 155.435C67.4413 155.574 67.2324 155.678 67.0584 155.713C66.8843 155.748 66.7103 155.783 66.6058 155.783C66.5362 155.783 66.4666 155.748 66.4318 155.678C66.397 155.609 66.3622 155.505 66.3273 155.331C66.2925 155.157 66.1881 155.018 66.0489 154.879C65.9096 154.74 65.7355 154.636 65.5615 154.566C65.6659 154.566 65.8052 154.566 65.9792 154.566C66.1185 154.566 66.2577 154.532 66.3622 154.462C66.4666 154.393 66.5362 154.323 66.571 154.219C66.6058 154.115 66.6058 154.045 66.6058 153.976V153.732H65.3874C65.3874 153.906 65.3526 154.149 65.2482 154.462C65.1438 154.775 64.9349 155.053 64.5868 155.4C64.2387 155.713 63.8906 155.956 63.5077 156.095C63.1944 156.095 62.8811 156.165 62.6026 156.2ZM60.3399 159.188H58.9474L59.2607 159.639H68.9382C68.973 159.639 69.0078 159.605 69.0078 159.535C69.0078 159.466 68.973 159.362 68.8685 159.223C68.7641 159.084 68.6945 158.945 68.5552 158.84C68.4508 158.736 68.3464 158.667 68.2767 158.597L67.6153 159.153V157.068C67.7198 157.033 67.7894 156.929 67.8242 156.86C67.859 156.755 67.8242 156.651 67.685 156.512C67.5457 156.373 67.3717 156.234 67.1976 156.13C67.0236 156.026 66.8495 155.922 66.7451 155.852L66.0837 156.408H61.8716L60.3399 156.095V159.188Z" fill="#003444"/>
<path d="M18.6713 154.532H0.5V155.192H18.6713V154.532Z" fill="#003444"/>
<path d="M146.358 154.532H128.186V155.192H146.358V154.532Z" fill="#003444"/>
<path fill-rule="evenodd" clip-rule="evenodd" d="M73.6028 153.837C74.1946 153.837 74.6819 154.288 74.6819 154.844C74.6819 155.4 74.1946 155.852 73.6028 155.852C73.011 155.852 72.5237 155.4 72.5237 154.844C72.5237 154.288 73.011 153.837 73.6028 153.837Z" fill="#003444"/>
<path fill-rule="evenodd" clip-rule="evenodd" d="M85.5429 152.134C85.6822 152.099 85.8214 152.03 85.891 151.995C85.9607 151.926 85.9607 151.856 85.8562 151.787C85.7518 151.717 85.5777 151.648 85.4037 151.613C85.2296 151.578 85.0904 151.543 84.986 151.509H86.274L85.8562 152.655H84.8815C84.9163 152.621 84.986 152.586 85.0208 152.551C85.0904 152.516 85.16 152.447 85.2296 152.377C85.2993 152.308 85.3689 152.273 85.4037 152.204C85.4733 152.204 85.5081 152.169 85.5429 152.134ZM87.1442 152.134C87.2835 152.099 87.4227 152.065 87.4923 152.03C87.562 151.995 87.562 151.926 87.4575 151.821C87.3531 151.752 87.2139 151.682 87.005 151.613C86.8309 151.578 86.6917 151.509 86.5873 151.509H88.0493V151.752C88.0493 151.821 88.0493 151.856 88.0841 151.891C88.1189 151.926 88.1537 151.995 88.2234 152.03C88.293 152.065 88.3626 152.099 88.4322 152.099C88.5019 152.099 88.5715 152.134 88.6411 152.134L88.1537 152.69H86.448L87.1442 152.134ZM84.8815 153.072H85.8562V153.454H84.8815V153.072ZM84.8815 153.906H85.8562V154.219H84.8815V153.906ZM84.8815 154.601H85.8562V154.914H84.8815V154.601ZM87.2487 153.454V153.072H88.293L87.8753 153.454H87.2487ZM87.2487 154.219V153.906H88.1537L87.736 154.219H87.2487ZM87.2487 154.914V154.601H88.6411L88.2234 154.914H87.2487ZM84.3942 156.234H84.6379C84.6379 156.269 84.6379 156.339 84.6379 156.408C84.6379 156.478 84.603 156.547 84.603 156.616C84.5682 156.686 84.5334 156.755 84.4986 156.79C84.4638 156.825 84.429 156.86 84.3942 156.894V156.234ZM87.3531 156.304C87.3531 156.339 87.3879 156.339 87.3531 156.304C87.4227 156.373 87.4575 156.373 87.4923 156.408C87.7012 156.478 88.0493 156.477 88.0493 156.477V156.234H87.3183C87.3183 156.269 87.3183 156.304 87.3531 156.304ZM85.9258 157.763H86.2392V158.458H85.9258V157.763ZM87.3879 158.006C87.4575 157.972 87.5272 157.937 87.5968 157.902C87.6316 157.867 87.6316 157.798 87.5968 157.694C87.5272 157.624 87.4575 157.52 87.3879 157.485C87.3183 157.416 87.2139 157.381 87.179 157.346H88.0841V157.902C88.0841 157.972 88.0841 158.041 88.0841 158.145C88.0841 158.25 88.0493 158.319 87.9797 158.389C87.9101 158.458 87.8405 158.528 87.736 158.562C87.6316 158.597 87.5272 158.597 87.4575 158.597V158.006H87.3879ZM85.6126 151.057H84.8815V150.814C84.986 150.744 85.0904 150.64 85.1252 150.57C85.16 150.501 85.0904 150.432 84.8815 150.362C84.6727 150.293 84.429 150.258 84.1505 150.258C83.872 150.223 83.6283 150.223 83.4195 150.223V151.856C83.4195 151.926 83.4195 151.96 83.4543 151.995C83.4891 152.03 83.5239 152.065 83.6283 152.099C83.7328 152.099 83.8024 152.099 83.9068 152.065C84.0113 152.03 84.0809 152.03 84.1505 151.995C84.1157 152.099 84.0461 152.238 83.9764 152.412C83.9068 152.586 83.8024 152.76 83.698 153.003C83.5935 153.211 83.4543 153.42 83.3498 153.559C83.2454 153.698 83.1758 153.837 83.1062 153.941L83.5239 153.802V155.435C83.5239 155.47 83.5239 155.505 83.5239 155.574C83.5239 155.609 83.5587 155.644 83.5587 155.678C83.5935 155.713 83.6283 155.713 83.6631 155.748C83.698 155.748 83.7328 155.748 83.7676 155.748L82.9669 155.505V159.292C82.9669 159.396 83.0365 159.466 83.141 159.535C83.2802 159.605 83.4543 159.639 83.698 159.605C83.9416 159.57 84.1157 159.5 84.2549 159.396C84.3594 159.292 84.429 159.188 84.429 159.084V157.242C84.5682 157.242 84.7075 157.207 84.9163 157.138C85.0904 157.103 85.2645 156.999 85.4385 156.894C85.6126 156.79 85.717 156.686 85.7866 156.582C85.8562 156.478 85.891 156.408 85.891 156.339H86.3088C86.3088 156.408 86.3088 156.478 86.3088 156.582C86.3088 156.686 86.3088 156.79 86.3436 156.894C86.3436 156.999 86.3784 157.068 86.4132 157.103C86.448 157.138 86.4828 157.172 86.4828 157.207L86.3088 157.45H85.9955L84.8467 157.311V159.257C84.8467 159.362 84.8815 159.466 84.986 159.535C85.0904 159.605 85.2296 159.639 85.4037 159.605C85.5777 159.57 85.7518 159.5 85.8214 159.396C85.9259 159.292 85.9607 159.188 85.9607 159.118H86.274V159.257C86.274 159.327 86.3088 159.396 86.4132 159.466C86.5176 159.501 86.6569 159.501 86.8309 159.466C87.005 159.396 87.179 159.327 87.2487 159.223C87.3531 159.118 87.3879 159.014 87.3879 158.91C87.4923 158.945 87.5968 159.014 87.6664 159.118C87.736 159.223 87.7708 159.327 87.8056 159.466C87.8056 159.605 87.8405 159.709 87.8753 159.778C87.9101 159.848 87.9797 159.883 88.0493 159.917C88.1886 159.917 88.3626 159.883 88.5367 159.848C88.7107 159.813 88.9196 159.709 89.0936 159.535C89.2677 159.396 89.3721 159.223 89.4417 159.049C89.5114 158.875 89.5114 158.736 89.5114 158.597V156.651C89.581 156.582 89.581 156.512 89.6158 156.408C89.6158 156.304 89.581 156.234 89.4766 156.095C89.3721 155.991 89.2329 155.887 89.0588 155.817C88.8848 155.748 88.7455 155.678 88.6411 155.609L88.1537 155.922H84.4986C84.5334 155.922 84.603 155.887 84.6379 155.852C84.7075 155.817 84.7423 155.783 84.7771 155.748C84.8119 155.713 84.8467 155.678 84.8815 155.609C84.8815 155.574 84.9163 155.539 84.9163 155.505H89.2329C89.3373 155.505 89.4418 155.47 89.4766 155.435C89.5462 155.4 89.5114 155.296 89.4417 155.192C89.3721 155.088 89.2677 154.983 89.1285 154.914C88.9892 154.844 88.8848 154.775 88.8152 154.74C88.9196 154.74 89.024 154.705 89.0936 154.671C89.1633 154.636 89.1284 154.566 89.0588 154.462C88.9544 154.358 88.8848 154.288 88.7455 154.184C88.6411 154.115 88.5367 154.045 88.5019 154.01H89.0588C89.1284 154.01 89.1981 153.976 89.1981 153.941C89.2329 153.906 89.1633 153.802 89.0588 153.698C88.9544 153.559 88.8152 153.454 88.6759 153.385C88.5367 153.281 88.4322 153.246 88.3974 153.177H89.3721C89.4417 153.177 89.5114 153.142 89.5462 153.107C89.581 153.072 89.5462 152.968 89.4417 152.864C89.3373 152.725 89.2329 152.621 89.0936 152.516C88.9544 152.412 88.85 152.308 88.7803 152.273C88.85 152.273 88.9196 152.238 89.024 152.204C89.1285 152.169 89.1981 152.134 89.3025 152.099C89.3721 152.065 89.4418 151.995 89.4766 151.96C89.5114 151.891 89.5114 151.856 89.5114 151.821V151.126C89.581 151.057 89.581 150.953 89.581 150.883C89.581 150.814 89.4766 150.744 89.3025 150.675C89.1284 150.605 88.9196 150.57 88.6759 150.57C88.4322 150.536 88.2234 150.536 88.0145 150.536V151.231H87.0398V150.675C87.179 150.605 87.2487 150.501 87.2835 150.432C87.3183 150.362 87.2487 150.293 87.0398 150.223C86.8309 150.188 86.5873 150.154 86.3088 150.119C86.0303 150.119 85.7866 150.119 85.5777 150.119V151.057H85.6126ZM80.6694 149.98C80.9131 149.98 81.1568 150.015 81.4701 150.015C81.7834 150.049 82.027 150.084 82.2359 150.154C82.4448 150.223 82.5144 150.327 82.4448 150.432C82.3751 150.536 82.2707 150.64 82.1315 150.744V152.204L82.6188 151.752C82.6884 151.821 82.7929 151.891 82.9321 152.03C83.0714 152.134 83.1758 152.238 83.2454 152.377C83.3499 152.516 83.3498 152.586 83.315 152.621C83.2802 152.655 83.2106 152.69 83.1062 152.69H82.1315V154.323L83.2802 154.01L82.1315 155.088V158.319C82.1315 158.458 82.0967 158.597 82.0618 158.771C82.027 158.945 81.9226 159.118 81.7485 159.257C81.5745 159.396 81.4004 159.5 81.1916 159.57C80.9827 159.605 80.8087 159.639 80.6346 159.639C80.565 159.639 80.5302 159.605 80.4954 159.535C80.4605 159.466 80.4257 159.362 80.3909 159.223C80.3561 159.049 80.2517 158.91 80.1124 158.771C79.9732 158.632 79.834 158.493 79.6599 158.423C79.7991 158.423 79.9384 158.423 80.0776 158.389C80.2169 158.354 80.3561 158.319 80.4605 158.215C80.565 158.111 80.5998 158.006 80.6346 157.902C80.6346 157.763 80.6694 157.659 80.6694 157.555V155.852L80.2517 156.234C80.1821 156.373 80.1124 156.443 80.0428 156.477C79.9732 156.512 79.9036 156.443 79.8339 156.2C79.7643 155.991 79.7295 155.748 79.6947 155.47C79.6599 155.192 79.6599 154.949 79.6251 154.74L80.6694 154.497V152.655H79.8688L79.6251 152.204H80.6694V149.98ZM95.9166 151.543V153.177H92.4355L92.7488 153.628H95.9166V155.47H91.6L91.8437 155.922H95.9166V157.694C95.9166 157.763 95.8818 157.867 95.8469 157.937C95.8121 158.041 95.7077 158.111 95.5337 158.18C95.3596 158.25 95.1855 158.284 95.0115 158.284C94.8374 158.284 94.6634 158.284 94.5241 158.284C94.7678 158.389 94.9419 158.493 95.1507 158.667C95.3248 158.806 95.4292 158.979 95.4988 159.153C95.5685 159.327 95.6033 159.431 95.6729 159.501C95.7425 159.57 95.8121 159.605 95.9166 159.605C96.0558 159.605 96.1951 159.57 96.3691 159.501C96.5432 159.431 96.752 159.327 96.9261 159.118C97.1001 158.945 97.2394 158.771 97.309 158.597C97.3786 158.423 97.4134 158.284 97.4134 158.18V155.852H101.382C101.451 155.852 101.521 155.817 101.556 155.748C101.591 155.678 101.521 155.574 101.417 155.435C101.277 155.296 101.138 155.122 100.964 155.018C100.79 154.879 100.651 154.775 100.512 154.705L99.7806 155.4H97.4134V153.559H100.755C100.86 153.559 100.895 153.524 100.929 153.454C100.964 153.385 100.895 153.281 100.72 153.142C100.581 153.003 100.407 152.864 100.233 152.725C100.059 152.621 99.9198 152.516 99.8502 152.482L99.0496 153.107H97.4134V152.343C97.5179 152.273 97.6223 152.169 97.6919 152.065C97.7964 151.96 97.7963 151.856 97.7615 151.752C97.7267 151.648 97.6571 151.578 97.5527 151.543C97.4482 151.509 97.3438 151.474 97.2394 151.474C97.4134 151.474 97.6223 151.439 97.9008 151.439C98.1445 151.404 98.4578 151.404 98.7711 151.335C99.1192 151.3 99.3977 151.265 99.6413 151.196C99.885 151.161 100.094 151.092 100.268 151.057C100.407 151.022 100.512 150.953 100.581 150.883C100.651 150.814 100.616 150.675 100.442 150.536C100.268 150.397 100.059 150.258 99.7458 150.154C99.4673 150.049 99.1888 149.945 98.9799 149.876C98.597 150.015 98.1445 150.154 97.5875 150.327C97.0305 150.501 96.4039 150.675 95.6381 150.848C94.8722 151.022 94.2108 151.161 93.5842 151.265C92.9576 151.37 92.4355 151.439 91.9829 151.509C92.2614 151.509 92.5747 151.509 92.9228 151.509C93.3058 151.509 93.6887 151.509 94.1064 151.509C94.5241 151.509 94.9071 151.509 95.1855 151.474C95.464 151.543 95.7077 151.543 95.9166 151.543ZM107.683 151.439C107.892 151.404 108.031 151.3 108.1 151.196C108.17 151.092 108.1 150.987 107.822 150.848C107.578 150.709 107.3 150.605 106.952 150.536C106.638 150.466 106.395 150.432 106.186 150.432C106.151 150.744 106.081 151.126 105.977 151.578C105.872 152.03 105.698 152.516 105.42 153.038C105.141 153.559 104.863 154.045 104.55 154.393C104.236 154.775 103.958 155.088 103.679 155.366C104.202 155.122 104.759 154.81 105.315 154.393C105.872 153.976 106.36 153.559 106.743 153.072C107.126 152.586 107.335 152.204 107.439 151.96C107.578 151.752 107.648 151.543 107.683 151.439ZM109.249 150.362H108.344L108.588 150.814H109.562C109.562 151.057 109.632 151.37 109.702 151.787C109.771 152.204 109.98 152.69 110.293 153.246C110.607 153.802 110.955 154.254 111.373 154.566C111.79 154.914 112.138 155.157 112.452 155.296C112.556 155.331 112.626 155.331 112.661 155.296C112.695 155.261 112.765 155.157 112.835 154.949C112.904 154.775 113.009 154.566 113.183 154.393C113.357 154.219 113.531 154.08 113.775 153.976C113.531 153.941 113.218 153.837 112.835 153.698C112.452 153.559 111.999 153.316 111.547 152.933C111.059 152.586 110.711 152.204 110.502 151.821C110.259 151.439 110.119 151.126 110.05 150.848C110.224 150.814 110.363 150.744 110.468 150.64C110.572 150.57 110.607 150.466 110.537 150.362C110.468 150.258 110.328 150.154 110.154 150.084C109.98 150.015 109.806 149.945 109.667 149.91L109.249 150.362ZM108.831 154.601L106.952 158.006H110.85C110.816 157.902 110.781 157.798 110.711 157.659C110.642 157.52 110.537 157.346 110.398 157.172C110.259 156.964 110.119 156.825 109.945 156.686C109.806 156.547 109.667 156.443 109.528 156.339C109.806 156.373 110.119 156.408 110.433 156.512C110.781 156.616 111.094 156.755 111.407 156.929C111.721 157.138 111.93 157.311 112.069 157.485C112.208 157.659 112.312 157.798 112.382 157.937C112.452 158.145 112.487 158.389 112.417 158.667C112.347 158.945 112.208 159.118 111.93 159.188C111.686 159.292 111.442 159.223 111.303 159.049C111.129 158.875 111.024 158.667 111.024 158.458L105.35 159.223C105.281 159.327 105.176 159.362 105.072 159.327C104.967 159.292 104.863 159.188 104.759 158.979C104.654 158.771 104.584 158.562 104.55 158.354C104.515 158.145 104.48 158.006 104.48 157.937L106.499 158.006L107.474 153.593C107.787 153.663 108.1 153.732 108.448 153.837C108.797 153.941 109.04 154.045 109.18 154.149C109.319 154.254 109.354 154.358 109.214 154.427C109.11 154.532 108.971 154.566 108.831 154.601ZM118.474 156.616H118.961V158.945H118.474V156.616ZM120.458 156.616H120.946V158.945H120.458V156.616ZM122.408 156.616H122.895V158.945H122.408V156.616ZM119.379 150.987C119.518 150.918 119.623 150.814 119.658 150.709C119.727 150.605 119.658 150.536 119.449 150.432C119.275 150.327 119.031 150.258 118.753 150.223C118.474 150.188 118.265 150.154 118.056 150.119C117.987 150.327 117.882 150.57 117.743 150.883C117.604 151.196 117.395 151.543 117.151 151.96C116.873 152.377 116.594 152.725 116.351 153.003C116.072 153.316 115.828 153.559 115.654 153.732C115.968 153.628 116.316 153.489 116.699 153.281C117.116 153.072 117.499 152.794 117.917 152.482C118.335 152.134 118.648 151.856 118.857 151.578C119.101 151.335 119.275 151.126 119.379 150.987ZM121.92 151.752C121.99 151.821 122.094 151.891 122.234 152.03C122.373 152.134 122.477 152.238 122.582 152.377C122.686 152.516 122.721 152.586 122.686 152.621C122.651 152.655 122.617 152.69 122.547 152.69H118.892L118.648 152.238H121.259L121.92 151.752ZM121.015 154.08H122.408C122.442 154.184 122.512 154.358 122.651 154.566C122.756 154.775 122.965 154.983 123.243 155.261C123.522 155.539 123.8 155.748 124.079 155.887C124.357 156.061 124.601 156.165 124.81 156.234C124.879 156.269 124.984 156.269 125.053 156.234C125.158 156.2 125.227 156.095 125.332 155.922C125.436 155.748 125.506 155.609 125.61 155.505C125.715 155.366 125.784 155.296 125.854 155.261C125.68 155.261 125.471 155.227 125.193 155.192C124.914 155.157 124.601 155.053 124.253 154.914C123.905 154.775 123.591 154.636 123.382 154.497C123.139 154.358 122.965 154.219 122.86 154.08L123.278 153.941C123.348 153.906 123.417 153.837 123.452 153.802C123.487 153.732 123.417 153.663 123.313 153.559C123.208 153.454 123.069 153.385 122.93 153.316C122.791 153.246 122.651 153.211 122.547 153.177L122.06 153.628H120.841L121.015 154.08ZM119.553 154.219C119.692 154.149 119.832 154.045 119.901 153.976C119.971 153.871 119.936 153.802 119.762 153.698C119.588 153.593 119.344 153.559 119.066 153.489C118.752 153.454 118.509 153.42 118.265 153.385C118.196 153.524 118.126 153.732 117.987 153.941C117.847 154.184 117.639 154.462 117.36 154.844C117.082 155.192 116.768 155.505 116.455 155.783C116.142 156.061 115.898 156.269 115.654 156.477C115.724 156.477 115.828 156.443 115.968 156.408C116.107 156.373 116.246 156.339 116.42 156.304C116.594 156.269 116.699 156.2 116.803 156.165C116.908 156.13 116.977 156.095 117.047 156.061V159.153H115.654L115.968 159.605H125.645C125.68 159.605 125.715 159.57 125.715 159.501C125.715 159.431 125.68 159.327 125.575 159.153C125.471 158.979 125.401 158.84 125.262 158.736C125.158 158.597 125.053 158.528 124.984 158.458L124.322 158.84V156.825C124.427 156.79 124.496 156.721 124.531 156.616C124.566 156.547 124.531 156.408 124.427 156.304C124.322 156.165 124.148 156.026 123.939 155.922C123.73 155.783 123.556 155.678 123.417 155.609L122.86 156.165H118.544L117.499 155.922C117.604 155.852 117.743 155.748 117.882 155.644C118.056 155.505 118.265 155.366 118.509 155.157C118.752 154.949 118.961 154.775 119.135 154.601C119.309 154.462 119.449 154.323 119.553 154.219ZM120.841 151.057H122.373C122.408 151.196 122.477 151.404 122.616 151.648C122.721 151.891 122.93 152.169 123.243 152.482C123.522 152.794 123.8 153.072 124.113 153.246C124.392 153.455 124.636 153.593 124.844 153.663C124.914 153.698 124.984 153.663 125.053 153.628C125.123 153.594 125.192 153.455 125.262 153.281C125.332 153.107 125.436 152.933 125.541 152.794C125.645 152.655 125.749 152.551 125.889 152.482C125.715 152.482 125.506 152.447 125.227 152.377C124.949 152.308 124.636 152.204 124.287 152.065C123.939 151.891 123.626 151.717 123.417 151.509C123.173 151.3 122.999 151.126 122.895 150.953L123.208 150.814C123.278 150.779 123.313 150.744 123.348 150.709C123.382 150.64 123.313 150.605 123.208 150.501C123.104 150.432 122.965 150.327 122.825 150.293C122.686 150.223 122.582 150.188 122.477 150.154L121.99 150.605H120.597L120.841 151.057Z" fill="#003444"/>
<path fill-rule="evenodd" clip-rule="evenodd" d="M35.659 152.099V159.535C35.659 159.674 35.7286 159.778 35.833 159.883C35.9723 159.987 36.1463 160.022 36.39 159.987C36.6337 159.952 36.8077 159.848 36.947 159.674C37.0862 159.501 37.121 159.362 37.121 159.188H43.4914V159.501C43.4914 159.605 43.561 159.674 43.6655 159.778C43.8047 159.883 43.9788 159.883 44.2224 159.883C44.4661 159.848 44.6402 159.778 44.7794 159.639C44.9187 159.501 44.9535 159.396 44.9535 159.257V153.072C45.0579 152.968 45.1275 152.829 45.1971 152.725C45.2668 152.586 45.232 152.482 45.0579 152.377C44.9187 152.273 44.675 152.238 44.3617 152.204C44.0484 152.169 43.7351 152.169 43.4566 152.169V158.701H41.0198V150.779C41.1939 150.71 41.368 150.605 41.5072 150.501C41.6464 150.397 41.6116 150.293 41.4028 150.188C41.2287 150.084 40.9154 150.015 40.5673 150.015C40.1844 149.98 39.8711 149.98 39.5578 149.98V158.701H37.121V153.003C37.2603 152.933 37.3647 152.864 37.4691 152.76C37.5736 152.655 37.5388 152.551 37.3647 152.447C37.1907 152.343 36.947 152.273 36.5989 152.204C36.2856 152.134 35.9375 152.134 35.659 152.099Z" fill="#003444"/>
<path fill-rule="evenodd" clip-rule="evenodd" d="M3.31968 139.139H4.60768V138.479H1.26584V139.139H2.55384V143.274H3.31968V139.139ZM30.7158 139.625L30.7506 138.826C30.2633 138.513 29.7759 138.34 29.1842 138.34C28.4531 138.34 27.8265 138.583 27.374 139.069C26.8866 139.556 26.643 140.181 26.643 140.876C26.643 141.571 26.8866 142.231 27.374 142.683C27.8613 143.135 28.4879 143.378 29.219 143.378C29.8107 143.378 30.2981 143.239 30.7158 142.926V142.057C30.2285 142.474 29.7411 142.648 29.1493 142.648C28.1746 142.648 27.4436 141.918 27.4436 140.876C27.4436 139.799 28.1746 139.069 29.219 139.069C29.8107 139.069 30.2981 139.278 30.7158 139.625ZM69.5996 140.911L70.1217 143.274H70.8528L69.704 138.27L68.3116 141.293C68.2419 141.467 68.1375 141.675 68.0331 141.953C67.8938 141.606 67.8242 141.397 67.7546 141.293L66.3273 138.27L65.1786 143.274H65.9096L66.4318 140.911C66.4666 140.702 66.5014 140.459 66.5362 140.251C66.6058 140.459 66.6754 140.668 66.7799 140.876L68.0331 143.482L69.2863 140.911C69.3907 140.702 69.4603 140.459 69.4951 140.251C69.5648 140.598 69.5648 140.807 69.5996 140.911ZM124.079 143.274H124.914L122.582 138.27L120.249 143.274H121.085L121.642 142.023H123.556L124.079 143.274ZM121.92 141.397L122.408 140.32C122.477 140.181 122.512 140.007 122.582 139.764C122.651 140.007 122.721 140.181 122.756 140.32L123.243 141.397H121.92ZM6.06974 140.876L5.23428 140.737C5.33871 140.39 5.47795 140.146 5.72163 139.973C5.96531 139.799 6.2786 139.729 6.73114 139.729C7.14887 139.729 7.46217 139.764 7.63623 139.868C7.84509 139.973 7.98434 140.077 8.05396 140.251C8.12358 140.39 8.1932 140.668 8.1932 141.085V142.162C8.1932 142.474 8.1932 142.683 8.22801 142.822C8.26282 142.961 8.29763 143.135 8.40207 143.274H7.49698C7.46217 143.204 7.42736 143.135 7.39255 142.996C7.39255 142.926 7.35774 142.891 7.35774 142.891C7.18369 143.03 7.04444 143.169 6.87039 143.239C6.69633 143.308 6.48747 143.343 6.31341 143.343C5.96531 143.343 5.68682 143.239 5.47795 143.065C5.26909 142.857 5.16466 142.613 5.16466 142.335C5.16466 142.127 5.19947 141.953 5.3039 141.814C5.40833 141.675 5.51276 141.536 5.68682 141.467C5.86087 141.397 6.10455 141.328 6.41785 141.258C6.83558 141.189 7.14887 141.085 7.32293 141.015V140.911C7.32293 140.737 7.28812 140.598 7.18369 140.529C7.07925 140.459 6.94001 140.424 6.69633 140.424C6.52228 140.424 6.41785 140.459 6.31341 140.529C6.20898 140.563 6.13936 140.702 6.06974 140.876ZM7.32293 141.606C7.2185 141.641 7.00963 141.675 6.76596 141.745C6.52228 141.814 6.34823 141.849 6.2786 141.918C6.17417 141.988 6.10455 142.127 6.10455 142.231C6.10455 142.37 6.13936 142.474 6.24379 142.579C6.34822 142.683 6.45266 142.718 6.62671 142.718C6.80077 142.718 6.94001 142.648 7.11406 142.544C7.2185 142.474 7.28812 142.37 7.32293 142.231C7.35774 142.162 7.35774 141.988 7.35774 141.779V141.606H7.32293ZM9.37677 139.312V138.444H10.2819V139.312H9.37677ZM9.37677 143.274V139.799H10.2819V143.274H9.37677ZM12.1268 143.274L11.0129 139.799H11.918L12.5794 142.092L13.1712 139.799H14.0762L14.668 142.092L15.3294 139.799H16.2345L15.1206 143.274H14.2503L13.6585 141.015L13.0667 143.274H12.1268ZM17.6618 140.876L16.8263 140.737C16.9307 140.39 17.07 140.146 17.3136 139.973C17.5573 139.799 17.8706 139.729 18.3232 139.729C18.7409 139.729 19.0542 139.764 19.2282 139.868C19.4371 139.973 19.5764 140.077 19.646 140.251C19.7156 140.39 19.7852 140.668 19.7852 141.085V142.162C19.7852 142.474 19.7852 142.683 19.82 142.822C19.8548 142.961 19.8897 143.135 19.9941 143.274H19.089C19.0542 143.204 19.0194 143.135 18.9846 142.996C18.9846 142.926 18.9498 142.891 18.9498 142.891C18.7757 143.03 18.6365 143.169 18.4624 143.239C18.2883 143.308 18.0795 143.343 17.9054 143.343C17.5573 143.343 17.2788 143.239 17.07 143.065C16.8611 142.857 16.7567 142.613 16.7567 142.335C16.7567 142.127 16.7915 141.953 16.8959 141.814C17.0003 141.675 17.1048 141.536 17.2788 141.467C17.4529 141.397 17.6966 141.328 18.0099 141.258C18.4276 141.189 18.7409 141.085 18.9149 141.015V140.911C18.9149 140.737 18.8801 140.598 18.7757 140.529C18.6713 140.459 18.532 140.424 18.2883 140.424C18.1143 140.424 18.0099 140.459 17.9054 140.529C17.801 140.563 17.6966 140.702 17.6618 140.876ZM18.8801 141.606C18.7757 141.641 18.5668 141.675 18.3232 141.745C18.0795 141.814 17.9054 141.849 17.8358 141.918C17.7314 141.988 17.6618 142.127 17.6618 142.231C17.6618 142.37 17.6966 142.474 17.801 142.579C17.9054 142.683 18.0099 142.718 18.1839 142.718C18.358 142.718 18.4972 142.648 18.6713 142.544C18.7757 142.474 18.8453 142.37 18.8801 142.231C18.9149 142.162 18.9149 141.988 18.9149 141.779V141.606H18.8801ZM24.1366 143.274H23.2315V141.501C23.2315 141.119 23.1967 140.876 23.1619 140.772C23.1271 140.668 23.0574 140.563 22.953 140.529C22.8486 140.459 22.7441 140.424 22.6397 140.424C22.4657 140.424 22.3264 140.459 22.222 140.563C22.0827 140.668 22.0131 140.772 21.9435 140.911C21.9087 141.05 21.8739 141.328 21.8739 141.71V143.274H20.9688V139.799H21.8391V140.32C22.1524 139.938 22.5353 139.729 22.9878 139.729C23.1967 139.729 23.3707 139.764 23.5448 139.834C23.7188 139.903 23.8581 140.007 23.9277 140.112C24.0321 140.216 24.067 140.355 24.1018 140.494C24.1366 140.633 24.1366 140.841 24.1366 141.119V143.274ZM31.8994 143.274V138.479H32.8045V143.274H31.8994ZM34.0229 139.312V138.444H34.9279V139.312H34.0229ZM34.0229 143.274V139.799H34.9279V143.274H34.0229ZM36.0419 139.799H36.8773V140.285C37.1906 139.903 37.5388 139.729 37.9565 139.729C38.1654 139.729 38.3742 139.764 38.5483 139.868C38.7223 139.973 38.8616 140.112 38.966 140.285C39.1052 140.112 39.2793 139.973 39.4534 139.868C39.6274 139.764 39.8363 139.729 40.0103 139.729C40.254 139.729 40.4977 139.764 40.6717 139.868C40.8458 139.973 40.985 140.112 41.0547 140.32C41.1243 140.459 41.1591 140.702 41.1591 141.05V143.274H40.254V141.293C40.254 140.946 40.2192 140.737 40.1496 140.633C40.08 140.494 39.9407 140.424 39.7667 140.424C39.6274 140.424 39.523 140.459 39.4185 140.529C39.3141 140.598 39.2097 140.737 39.1749 140.876C39.1401 141.015 39.1052 141.258 39.1052 141.606V143.274H38.2002V141.363C38.2002 141.015 38.2002 140.807 38.1654 140.702C38.1305 140.598 38.0957 140.529 38.0261 140.494C37.9565 140.459 37.8521 140.424 37.7476 140.424C37.6084 140.424 37.4691 140.459 37.3647 140.529C37.2603 140.598 37.1558 140.702 37.121 140.876C37.0862 141.015 37.0514 141.258 37.0514 141.606V143.308H36.1463V139.799H36.0419ZM42.3078 138.479H43.2129V140.216C43.4914 139.903 43.8395 139.729 44.2224 139.729C44.6402 139.729 44.9883 139.868 45.2668 140.181C45.5453 140.494 45.6845 140.946 45.6845 141.501C45.6845 142.092 45.5453 142.544 45.2668 142.891C44.9883 143.204 44.6402 143.378 44.2224 143.378C44.0136 143.378 43.8395 143.343 43.6307 143.239C43.4218 143.135 43.2826 142.996 43.1433 142.787V143.308H42.3078V138.479ZM43.2129 141.467C43.2129 141.814 43.2826 142.092 43.387 142.266C43.561 142.509 43.7699 142.648 44.0136 142.648C44.2224 142.648 44.3965 142.544 44.5357 142.37C44.675 142.196 44.7446 141.918 44.7446 141.536C44.7446 141.154 44.675 140.841 44.5357 140.668C44.3965 140.494 44.2224 140.39 43.9788 140.39C43.7699 140.39 43.561 140.459 43.4218 140.633C43.2826 140.841 43.2129 141.119 43.2129 141.467ZM46.694 139.312V138.444H47.5991V139.312H46.694ZM46.694 143.274V139.799H47.5991V143.274H46.694ZM51.9853 143.274H51.0802V141.501C51.0802 141.119 51.0454 140.876 51.0106 140.772C50.9758 140.668 50.9061 140.563 50.8017 140.529C50.6973 140.459 50.5928 140.424 50.4884 140.424C50.3143 140.424 50.1751 140.459 50.0707 140.563C49.9314 140.668 49.8618 140.772 49.7922 140.911C49.7574 141.05 49.7226 141.328 49.7226 141.71V143.274H48.8175V139.799H49.6878V140.32C50.001 139.938 50.384 139.729 50.8365 139.729C51.0454 139.729 51.2194 139.764 51.3935 139.834C51.5675 139.903 51.7068 140.007 51.7764 140.112C51.8808 140.216 51.9156 140.355 51.9505 140.494C51.9853 140.633 51.9853 140.841 51.9853 141.119V143.274ZM53.0644 143.482L54.1087 143.621C54.1435 143.76 54.1784 143.83 54.2132 143.864C54.3176 143.934 54.4568 143.969 54.6309 143.969C54.8746 143.969 55.0486 143.934 55.1879 143.864C55.2575 143.83 55.3271 143.725 55.3619 143.621C55.3967 143.552 55.3967 143.413 55.3967 143.204V142.683C55.1182 143.065 54.7701 143.239 54.3524 143.239C53.8999 143.239 53.5169 143.03 53.2385 142.648C53.0296 142.335 52.9252 141.953 52.9252 141.467C52.9252 140.876 53.0644 140.424 53.3429 140.146C53.6214 139.834 53.9695 139.695 54.3872 139.695C54.8049 139.695 55.1879 139.868 55.4663 140.251V139.764H56.3366V142.891C56.3366 143.308 56.3018 143.621 56.2322 143.83C56.1626 144.038 56.0581 144.177 55.9537 144.316C55.8145 144.42 55.6752 144.525 55.4663 144.594C55.2575 144.663 55.0138 144.698 54.7005 144.698C54.1087 144.698 53.691 144.594 53.4473 144.386C53.2037 144.177 53.0644 143.934 53.0644 143.621C53.0644 143.586 53.0644 143.517 53.0644 143.482ZM53.8999 141.467C53.8999 141.849 53.9695 142.092 54.1087 142.266C54.248 142.44 54.422 142.509 54.6309 142.509C54.8398 142.509 55.0486 142.405 55.1879 142.231C55.3271 142.057 55.4315 141.779 55.4315 141.467C55.4315 141.119 55.3619 140.841 55.2227 140.668C55.0834 140.494 54.8746 140.39 54.6657 140.39C54.4568 140.39 54.248 140.459 54.1087 140.633C53.9695 140.841 53.8999 141.119 53.8999 141.467ZM63.264 142.683L62.707 143.378C62.4285 143.239 62.1848 143.065 61.9064 142.822C61.6975 142.996 61.4886 143.135 61.2798 143.204C61.0709 143.274 60.7924 143.343 60.5139 143.343C59.9221 143.343 59.4696 143.169 59.1563 142.822C58.9126 142.579 58.8082 142.266 58.8082 141.918C58.8082 141.606 58.9126 141.328 59.0867 141.085C59.2607 140.841 59.5392 140.633 59.9221 140.459C59.7481 140.251 59.6437 140.077 59.5392 139.903C59.4696 139.729 59.4 139.556 59.4 139.417C59.4 139.139 59.5044 138.895 59.7481 138.687C59.9918 138.479 60.3051 138.374 60.7576 138.374C61.1753 138.374 61.4886 138.479 61.7323 138.687C61.976 138.895 62.0804 139.173 62.0804 139.451C62.0804 139.66 62.0108 139.834 61.9064 140.007C61.8019 140.181 61.5583 140.39 61.2101 140.598L61.8716 141.501C61.9412 141.363 62.0108 141.189 62.0804 140.946L62.9159 141.119C62.8463 141.432 62.7766 141.641 62.707 141.779C62.6374 141.918 62.5678 142.023 62.4981 142.127C62.6026 142.231 62.7418 142.335 62.9159 142.44C63.0899 142.579 63.1944 142.648 63.264 142.683ZM60.7576 140.077L61.0013 139.868C61.1753 139.729 61.2798 139.59 61.2798 139.451C61.2798 139.347 61.245 139.243 61.1405 139.139C61.0709 139.069 60.9317 139 60.7924 139C60.6532 139 60.5487 139.034 60.4443 139.104C60.3747 139.173 60.3051 139.278 60.3051 139.347C60.3051 139.451 60.3747 139.59 60.5139 139.764L60.7576 140.077ZM60.4095 141.085C60.2006 141.189 60.0266 141.328 59.9221 141.467C59.8177 141.606 59.7481 141.779 59.7481 141.918C59.7481 142.127 59.8177 142.266 59.957 142.405C60.0962 142.544 60.2703 142.579 60.4791 142.579C60.6184 142.579 60.7576 142.544 60.8968 142.509C61.0361 142.44 61.1753 142.37 61.3146 142.231L60.4095 141.085ZM71.4793 141.501C71.4793 141.189 71.549 140.911 71.723 140.598C71.8623 140.32 72.0711 140.077 72.3496 139.938C72.6281 139.799 72.9414 139.695 73.2895 139.695C73.8117 139.695 74.2642 139.868 74.5775 140.216C74.9256 140.563 75.0997 140.98 75.0997 141.501C75.0997 142.023 74.9256 142.474 74.5775 142.822C74.2294 143.169 73.8117 143.343 73.2895 143.343C72.9762 143.343 72.6629 143.274 72.3844 143.135C72.1059 142.996 71.8623 142.787 71.723 142.509C71.549 142.231 71.4793 141.884 71.4793 141.501ZM72.4192 141.536C72.4192 141.884 72.4889 142.162 72.6629 142.335C72.837 142.509 73.0458 142.613 73.2547 142.613C73.4984 142.613 73.7072 142.509 73.8465 142.335C74.0205 142.162 74.0902 141.884 74.0902 141.536C74.0902 141.189 74.0205 140.946 73.8465 140.737C73.6724 140.563 73.4984 140.459 73.2547 140.459C73.011 140.459 72.8022 140.563 72.6629 140.737C72.4889 140.911 72.4192 141.189 72.4192 141.536ZM78.3371 142.752C78.1978 142.926 78.0586 143.1 77.8497 143.204C77.6409 143.308 77.432 143.378 77.1883 143.378C76.9447 143.378 76.7358 143.343 76.5617 143.239C76.3877 143.135 76.2484 142.996 76.144 142.822C76.0744 142.648 76.0048 142.37 76.0048 142.057V139.834H76.9098V141.432C76.9098 141.918 76.9098 142.231 76.9447 142.335C76.9795 142.44 77.0491 142.544 77.1187 142.613C77.2231 142.683 77.3276 142.718 77.4668 142.718C77.6409 142.718 77.7801 142.683 77.8846 142.579C78.0238 142.509 78.0934 142.37 78.1282 142.266C78.163 142.127 78.1978 141.814 78.1978 141.328V139.868H79.1029V143.343H78.3371V142.752ZM83.5587 143.274H82.6536V141.501C82.6536 141.119 82.6188 140.876 82.584 140.772C82.5492 140.668 82.4796 140.563 82.3751 140.529C82.2707 140.459 82.1663 140.424 82.0619 140.424C81.8878 140.424 81.7486 140.459 81.6441 140.563C81.5049 140.668 81.4353 140.772 81.3656 140.911C81.3308 141.05 81.296 141.328 81.296 141.71V143.274H80.3909V139.799H81.2612V140.32C81.5745 139.938 81.9574 139.729 82.41 139.729C82.6188 139.729 82.7929 139.764 82.9669 139.834C83.141 139.903 83.2802 140.007 83.3498 140.112C83.4543 140.216 83.4891 140.355 83.5239 140.494C83.5587 140.633 83.5587 140.841 83.5587 141.119V143.274ZM86.3436 139.799V140.529H85.717V141.953C85.717 142.231 85.717 142.405 85.7518 142.44C85.7518 142.474 85.7866 142.509 85.8214 142.544C85.8562 142.579 85.9259 142.579 85.9607 142.579C86.0303 142.579 86.1695 142.544 86.3436 142.474L86.4132 143.204C86.2043 143.308 85.9607 143.343 85.6822 143.343C85.5081 143.343 85.3689 143.308 85.2296 143.274C85.0904 143.204 84.986 143.135 84.9511 143.065C84.8815 142.961 84.8467 142.857 84.8119 142.718C84.7771 142.613 84.7771 142.405 84.7771 142.057V140.529H84.3594V139.799H84.7771V139.104L85.6822 138.548V139.799H86.3436ZM87.9101 140.876L87.0746 140.737C87.179 140.39 87.3183 140.146 87.562 139.973C87.8056 139.799 88.1189 139.729 88.5715 139.729C88.9892 139.729 89.3025 139.764 89.4766 139.868C89.6854 139.973 89.8247 140.077 89.8943 140.251C89.9639 140.39 90.0335 140.668 90.0335 141.085V142.162C90.0335 142.474 90.0335 142.683 90.0683 142.822C90.1032 142.961 90.138 143.135 90.2424 143.274H89.3373C89.3025 143.204 89.2677 143.135 89.2329 142.996C89.2329 142.926 89.1981 142.891 89.1981 142.891C89.024 143.03 88.8848 143.169 88.7107 143.239C88.5367 143.308 88.3278 143.343 88.1537 143.343C87.8056 143.343 87.5272 143.239 87.3183 143.065C87.1094 142.857 87.005 142.613 87.005 142.335C87.005 142.127 87.0398 141.953 87.1442 141.814C87.2487 141.675 87.3531 141.536 87.5272 141.467C87.7012 141.397 87.9449 141.328 88.2582 141.258C88.6759 141.189 88.9892 141.085 89.1633 141.015V140.911C89.1633 140.737 89.1285 140.598 89.024 140.529C88.9196 140.459 88.7803 140.424 88.5367 140.424C88.3626 140.424 88.2582 140.459 88.1537 140.529C88.0493 140.563 87.9797 140.702 87.9101 140.876ZM89.1633 141.606C89.0588 141.641 88.85 141.675 88.6063 141.745C88.3626 141.814 88.1886 141.849 88.1189 141.918C88.0145 141.988 87.9449 142.127 87.9449 142.231C87.9449 142.37 87.9797 142.474 88.0841 142.579C88.1886 142.683 88.293 142.718 88.467 142.718C88.6411 142.718 88.7803 142.648 88.9544 142.544C89.0588 142.474 89.1285 142.37 89.1633 142.231C89.1981 142.162 89.1981 141.988 89.1981 141.779V141.606H89.1633ZM91.2171 139.312V138.444H92.1222V139.312H91.2171ZM91.2171 143.274V139.799H92.1222V143.274H91.2171ZM96.5083 143.274H95.6033V141.501C95.6033 141.119 95.5685 140.876 95.5336 140.772C95.4988 140.668 95.4292 140.563 95.3248 140.529C95.2204 140.459 95.1159 140.424 95.0115 140.424C94.8374 140.424 94.6982 140.459 94.5938 140.563C94.4545 140.668 94.3849 140.772 94.3153 140.911C94.2805 141.05 94.2456 141.328 94.2456 141.71V143.274H93.3406V139.799H94.2108V140.32C94.5241 139.938 94.9071 139.729 95.3596 139.729C95.5685 139.729 95.7425 139.764 95.9166 139.834C96.0906 139.903 96.2299 140.007 96.2995 140.112C96.3691 140.216 96.4387 140.355 96.4735 140.494C96.5084 140.633 96.5083 140.841 96.5083 141.119V143.274ZM99.711 142.162L100.616 142.301C100.512 142.648 100.303 142.891 100.059 143.065C99.8154 143.239 99.4673 143.343 99.0844 143.343C98.4926 143.343 98.04 143.135 97.7267 142.752C97.4831 142.44 97.3786 142.023 97.3786 141.536C97.3786 140.946 97.5179 140.494 97.8312 140.181C98.1445 139.868 98.5274 139.695 98.9799 139.695C99.5021 139.695 99.9198 139.868 100.198 140.216C100.512 140.563 100.651 141.085 100.616 141.779H98.3185C98.3185 142.057 98.3881 142.266 98.5274 142.405C98.6666 142.544 98.8407 142.648 99.0495 142.648C99.1888 142.648 99.328 142.613 99.3977 142.544C99.5717 142.474 99.6413 142.335 99.711 142.162ZM99.7458 141.224C99.7458 140.946 99.6761 140.737 99.5369 140.598C99.3977 140.459 99.2584 140.39 99.0495 140.39C98.8407 140.39 98.6666 140.459 98.5622 140.598C98.423 140.737 98.3533 140.946 98.3533 141.189H99.7458V141.224ZM103.679 142.162L104.584 142.301C104.48 142.648 104.271 142.891 104.027 143.065C103.784 143.239 103.436 143.343 103.053 143.343C102.461 143.343 102.008 143.135 101.695 142.752C101.451 142.44 101.347 142.023 101.347 141.536C101.347 140.946 101.486 140.494 101.8 140.181C102.113 139.868 102.496 139.695 102.948 139.695C103.471 139.695 103.888 139.868 104.167 140.216C104.48 140.563 104.619 141.085 104.584 141.779H102.287C102.287 142.057 102.357 142.266 102.496 142.405C102.635 142.544 102.809 142.648 103.018 142.648C103.157 142.648 103.296 142.613 103.366 142.544C103.54 142.474 103.645 142.335 103.679 142.162ZM103.749 141.224C103.749 140.946 103.679 140.737 103.54 140.598C103.401 140.459 103.262 140.39 103.053 140.39C102.844 140.39 102.67 140.459 102.565 140.598C102.426 140.737 102.357 140.946 102.357 141.189H103.749V141.224ZM105.629 143.274V139.799H106.499V140.285C106.638 140.042 106.778 139.903 106.882 139.834C106.986 139.764 107.126 139.729 107.3 139.729C107.509 139.729 107.717 139.799 107.892 139.903L107.613 140.702C107.474 140.598 107.3 140.563 107.195 140.563C107.056 140.563 106.952 140.598 106.882 140.668C106.778 140.737 106.708 140.876 106.673 141.05C106.638 141.224 106.604 141.64 106.604 142.231V143.274H105.629ZM108.518 139.312V138.444H109.423V139.312H108.518ZM108.518 143.274V139.799H109.423V143.274H108.518ZM113.809 143.274H112.904V141.501C112.904 141.119 112.869 140.876 112.835 140.772C112.8 140.668 112.73 140.563 112.626 140.529C112.521 140.459 112.417 140.424 112.312 140.424C112.138 140.424 111.999 140.459 111.895 140.563C111.756 140.668 111.686 140.772 111.616 140.911C111.581 141.05 111.547 141.328 111.547 141.71V143.274H110.642V139.799H111.512V140.32C111.825 139.938 112.208 139.729 112.661 139.729C112.869 139.729 113.044 139.764 113.218 139.834C113.392 139.903 113.531 140.007 113.6 140.112C113.705 140.216 113.74 140.355 113.775 140.494C113.809 140.633 113.809 140.841 113.809 141.119V143.274ZM114.888 143.482L115.933 143.621C115.968 143.76 116.002 143.83 116.037 143.864C116.142 143.934 116.281 143.969 116.455 143.969C116.699 143.969 116.873 143.934 117.012 143.864C117.082 143.83 117.151 143.725 117.186 143.621C117.221 143.552 117.221 143.413 117.221 143.204V142.683C116.942 143.065 116.594 143.239 116.176 143.239C115.724 143.239 115.341 143.03 115.063 142.648C114.854 142.335 114.749 141.953 114.749 141.467C114.749 140.876 114.888 140.424 115.167 140.146C115.445 139.834 115.794 139.695 116.211 139.695C116.629 139.695 117.012 139.868 117.29 140.251V139.764H118.161V142.891C118.161 143.308 118.126 143.621 118.056 143.83C117.987 144.038 117.882 144.177 117.778 144.316C117.639 144.42 117.499 144.525 117.29 144.594C117.082 144.663 116.838 144.698 116.525 144.698C115.933 144.698 115.515 144.594 115.271 144.386C115.028 144.177 114.888 143.934 114.888 143.621C114.888 143.586 114.888 143.517 114.888 143.482ZM115.724 141.467C115.724 141.849 115.794 142.092 115.933 142.266C116.072 142.44 116.246 142.509 116.455 142.509C116.664 142.509 116.873 142.405 117.012 142.231C117.151 142.057 117.256 141.779 117.256 141.467C117.256 141.119 117.186 140.841 117.047 140.668C116.908 140.494 116.699 140.39 116.49 140.39C116.281 140.39 116.072 140.459 115.933 140.633C115.794 140.841 115.724 141.119 115.724 141.467ZM125.541 143.274V138.479H126.446V143.274H125.541ZM127.664 143.274V138.479H128.569V143.274H127.664ZM129.788 139.312V138.444H130.693V139.312H129.788ZM129.788 143.274V139.799H130.693V143.274H129.788ZM132.572 140.876L131.737 140.702C131.841 140.355 131.981 140.112 132.224 139.938C132.468 139.764 132.781 139.695 133.234 139.695C133.652 139.695 133.965 139.729 134.139 139.834C134.348 139.938 134.487 140.042 134.557 140.216C134.626 140.355 134.696 140.633 134.696 141.05V142.127C134.696 142.44 134.696 142.648 134.731 142.787C134.766 142.926 134.8 143.1 134.905 143.239H134C133.965 143.169 133.93 143.1 133.895 142.961C133.895 142.891 133.86 142.857 133.86 142.857C133.686 142.996 133.547 143.135 133.373 143.204C133.199 143.274 132.99 143.308 132.816 143.308C132.468 143.308 132.189 143.204 131.981 143.03C131.772 142.822 131.667 142.579 131.667 142.301C131.667 142.092 131.702 141.918 131.807 141.779C131.911 141.641 132.015 141.502 132.189 141.432C132.364 141.363 132.607 141.293 132.921 141.224C133.338 141.154 133.652 141.05 133.826 140.98V140.876C133.826 140.702 133.791 140.563 133.686 140.494C133.582 140.424 133.443 140.39 133.199 140.39C133.025 140.39 132.921 140.424 132.816 140.494C132.712 140.563 132.642 140.702 132.572 140.876ZM133.826 141.606C133.721 141.641 133.512 141.675 133.269 141.745C133.025 141.814 132.851 141.849 132.781 141.918C132.677 141.988 132.607 142.127 132.607 142.231C132.607 142.37 132.642 142.474 132.746 142.579C132.851 142.683 132.955 142.718 133.129 142.718C133.303 142.718 133.443 142.648 133.617 142.544C133.721 142.474 133.791 142.37 133.826 142.231C133.86 142.162 133.86 141.988 133.86 141.779V141.606H133.826ZM139.047 143.274H138.142V141.501C138.142 141.119 138.107 140.876 138.073 140.772C138.038 140.668 137.968 140.563 137.864 140.529C137.759 140.459 137.655 140.424 137.55 140.424C137.376 140.424 137.237 140.459 137.133 140.563C136.993 140.668 136.924 140.772 136.854 140.911C136.819 141.05 136.785 141.328 136.785 141.71V143.274H135.879V139.799H136.75V140.32C137.063 139.938 137.446 139.729 137.898 139.729C138.107 139.729 138.281 139.764 138.455 139.834C138.629 139.903 138.769 140.007 138.838 140.112C138.943 140.216 138.978 140.355 139.012 140.494C139.047 140.633 139.047 140.841 139.047 141.119V143.274ZM143.259 140.807L142.354 140.98C142.319 140.807 142.25 140.668 142.145 140.563C142.041 140.459 141.902 140.424 141.728 140.424C141.484 140.424 141.31 140.494 141.171 140.668C141.031 140.841 140.962 141.085 140.962 141.467C140.962 141.884 141.031 142.162 141.171 142.335C141.31 142.509 141.484 142.579 141.728 142.579C141.902 142.579 142.041 142.544 142.145 142.44C142.25 142.335 142.319 142.162 142.389 141.918L143.294 142.057C143.19 142.474 143.016 142.787 142.737 142.996C142.459 143.204 142.111 143.308 141.658 143.308C141.136 143.308 140.753 143.135 140.44 142.822C140.126 142.509 139.987 142.057 139.987 141.501C139.987 140.911 140.126 140.494 140.44 140.146C140.753 139.834 141.171 139.66 141.658 139.66C142.076 139.66 142.424 139.764 142.668 139.938C142.981 140.181 143.155 140.459 143.259 140.807ZM146.218 142.162L147.123 142.301C147.019 142.648 146.81 142.891 146.566 143.065C146.323 143.239 145.975 143.343 145.626 143.343C145.035 143.343 144.582 143.135 144.269 142.752C144.025 142.44 143.921 142.023 143.921 141.536C143.921 140.946 144.06 140.494 144.373 140.181C144.687 139.868 145.07 139.695 145.522 139.695C146.044 139.695 146.462 139.868 146.74 140.216C147.054 140.563 147.193 141.085 147.158 141.779H144.861C144.861 142.057 144.93 142.266 145.07 142.405C145.209 142.544 145.383 142.648 145.592 142.648C145.731 142.648 145.87 142.613 145.94 142.544C146.114 142.474 146.183 142.335 146.218 142.162ZM146.288 141.224C146.288 140.946 146.218 140.737 146.079 140.598C145.94 140.459 145.801 140.39 145.592 140.39C145.383 140.39 145.209 140.459 145.104 140.598C144.965 140.737 144.895 140.946 144.895 141.189H146.288V141.224Z" fill="#003444"/>
</svg>
