<svg width="18" height="17" viewBox="0 0 18 17" fill="none" xmlns="http://www.w3.org/2000/svg">
<path d="M9.00033 0.5C13.5951 0.5 17.3337 3.52436 17.3337 7.2425C17.3337 8.73079 16.7555 10.0706 15.5472 11.3906C13.7993 13.3972 9.88991 15.8409 9.00033 16.2148C8.13574 16.5783 8.23574 16.0102 8.27533 15.7859L8.27845 15.7672L8.3972 15.0558C8.42533 14.8439 8.45449 14.5147 8.37012 14.3049C8.27637 14.0733 7.90762 13.9528 7.63678 13.8946C3.63158 13.3681 0.666992 10.5753 0.666992 7.2425C0.666992 3.52436 4.40658 0.5 9.00033 0.5ZM5.89824 8.48257H4.3097V5.60776C4.3097 5.56497 4.29272 5.52392 4.26247 5.49356C4.23222 5.46321 4.19116 5.44602 4.14824 5.44574H3.56283C3.54149 5.44574 3.52035 5.44993 3.50064 5.45808C3.48092 5.46622 3.46301 5.47815 3.44792 5.4932C3.43283 5.50824 3.42086 5.5261 3.4127 5.54576C3.40453 5.56542 3.40033 5.58649 3.40033 5.60776V9.22827C3.40033 9.27085 3.41803 9.31136 3.44616 9.3394V9.34044L3.44824 9.34252L3.45033 9.34459C3.48053 9.37356 3.52091 9.38959 3.56283 9.38925H5.89824C5.98783 9.38925 6.0597 9.31655 6.0597 9.22723V8.64563C6.05984 8.62435 6.05577 8.60325 6.04773 8.58354C6.03969 8.56384 6.02784 8.5459 6.01284 8.53076C5.99785 8.51561 5.98001 8.50357 5.96035 8.4953C5.94069 8.48703 5.91958 8.4827 5.89824 8.48257ZM6.7222 5.44574C6.6791 5.44574 6.63777 5.46281 6.6073 5.4932C6.57682 5.52358 6.5597 5.56479 6.5597 5.60776V9.22827C6.5597 9.31759 6.63262 9.38925 6.7222 9.38925H7.30762C7.3972 9.38925 7.46908 9.31655 7.46908 9.22827V5.60776C7.46908 5.56497 7.4521 5.52392 7.42185 5.49356C7.3916 5.46321 7.35053 5.44602 7.30762 5.44574H6.7222ZM10.7462 5.44574C10.7031 5.44574 10.6617 5.46281 10.6313 5.4932C10.6008 5.52358 10.5837 5.56479 10.5837 5.60776V7.75764L8.92012 5.51845C8.91591 5.51299 8.91139 5.50779 8.90658 5.50287C8.90328 5.49923 8.89981 5.49473 8.89616 5.49144L8.89303 5.48833C8.88946 5.48492 8.88563 5.4818 8.88158 5.47898L8.87533 5.47482L8.8722 5.47275C8.87057 5.47154 8.86883 5.47049 8.86699 5.46963L8.85866 5.46444H8.85658L8.85345 5.46236L8.84303 5.45821L8.83887 5.45613C8.83546 5.4549 8.83198 5.45386 8.82845 5.45301H8.82637L8.82324 5.45198L8.81387 5.4499H8.80762L8.80449 5.44886H8.80033L8.79824 5.44782H8.20033C8.15741 5.44782 8.11623 5.46475 8.08579 5.49491C8.05534 5.52507 8.0381 5.56601 8.03783 5.6088V9.22931C8.03783 9.31863 8.11074 9.39029 8.20033 9.39029H8.78366C8.87428 9.39029 8.9472 9.31759 8.9472 9.22931V7.07944L10.6139 9.32278C10.625 9.33824 10.6387 9.35161 10.6545 9.36225L10.6555 9.36329L10.666 9.36952L10.6701 9.3716C10.6728 9.37317 10.6756 9.37456 10.6785 9.37575L10.6857 9.37887L10.691 9.38094C10.6944 9.38209 10.6979 9.38313 10.7014 9.38406H10.7045C10.718 9.38794 10.7321 9.39004 10.7462 9.39029H11.3295C11.4201 9.39029 11.493 9.31759 11.493 9.22931V5.60776C11.493 5.56479 11.4759 5.52358 11.4454 5.4932C11.415 5.46281 11.3736 5.44574 11.3305 5.44574H10.7462ZM14.7201 6.19041V5.6088C14.7203 5.58753 14.7162 5.56643 14.7081 5.54672C14.7001 5.52701 14.6883 5.50907 14.6733 5.49393C14.6583 5.47879 14.6404 5.46674 14.6208 5.45847C14.6011 5.45021 14.58 5.44588 14.5587 5.44574H12.2232C12.1812 5.44579 12.1408 5.46219 12.1107 5.49144H12.1097L12.1087 5.49352L12.1066 5.49663C12.0775 5.52639 12.0611 5.56621 12.0607 5.60776V9.22827C12.0607 9.27085 12.0785 9.31136 12.1066 9.3394L12.1087 9.34252L12.1107 9.34459C12.141 9.37347 12.1814 9.38948 12.2232 9.38925H14.5587C14.6482 9.38925 14.7201 9.31655 14.7201 9.22723V8.64563C14.7203 8.62435 14.7162 8.60325 14.7081 8.58354C14.7001 8.56384 14.6883 8.5459 14.6733 8.53076C14.6583 8.51561 14.6404 8.50357 14.6208 8.4953C14.6011 8.48703 14.58 8.4827 14.5587 8.48257H12.9691V7.87084H14.5576C14.6472 7.87084 14.7191 7.79814 14.7191 7.70882V7.12721C14.7192 7.10594 14.7151 7.08484 14.7071 7.06513C14.6991 7.04542 14.6872 7.02749 14.6722 7.01234C14.6572 6.9972 14.6394 6.98515 14.6197 6.97689C14.6001 6.96862 14.579 6.96429 14.5576 6.96416H12.9691V6.35243H14.5576C14.6472 6.35243 14.7191 6.27973 14.7191 6.19041H14.7201Z" fill="black"/>
</svg>
