<svg width="263" height="66" viewBox="0 0 263 66" fill="none" xmlns="http://www.w3.org/2000/svg">
<g filter="url(#filter0_d_655_323)">
<path fill-rule="evenodd" clip-rule="evenodd" d="M69.338 47.6418H70.923V46.8078H66.7624V47.6418H68.3474V52.8443H69.338V47.6418ZM103.732 48.2772L103.771 47.2844C103.177 46.8872 102.543 46.6489 101.83 46.6489C100.918 46.6489 100.126 46.9667 99.5315 47.5624C98.9371 48.1581 98.6201 48.9524 98.6201 49.8261C98.6201 50.6998 98.9371 51.5338 99.5315 52.0898C100.126 52.6855 100.918 53.0032 101.83 53.0032C102.543 53.0032 103.177 52.8046 103.692 52.4472V51.3352C103.098 51.8515 102.464 52.0898 101.75 52.0898C100.562 52.0898 99.6107 51.1763 99.6107 49.8261C99.6107 48.4758 100.522 47.5227 101.83 47.5227C102.543 47.5624 103.177 47.8006 103.732 48.2772ZM152.509 49.8658L153.182 52.8443H154.094L152.628 46.5695L150.884 50.3821C150.805 50.5806 150.646 50.8586 150.528 51.2161C150.369 50.7792 150.25 50.5012 150.211 50.3821L148.428 46.5695L147.001 52.8443H147.912L148.546 49.8658C148.586 49.5878 148.665 49.3098 148.665 49.0318C148.745 49.3098 148.824 49.5481 148.943 49.7864L150.528 53.0826L152.113 49.8658C152.231 49.5878 152.35 49.3098 152.39 49.0318C152.469 49.4686 152.509 49.7466 152.509 49.8658ZM220.9 52.8443H221.93L218.998 46.5695L216.066 52.8443H217.096L217.809 51.2955H220.187L220.9 52.8443ZM218.205 50.4615L218.839 49.0715C218.919 48.9126 218.998 48.6744 219.077 48.3964C219.156 48.7141 219.236 48.9126 219.315 49.0715L219.949 50.4615H218.205ZM72.7853 49.8261L71.7551 49.6275C71.8739 49.1906 72.0721 48.8729 72.3494 48.6744C72.6268 48.4758 73.0627 48.3567 73.6174 48.3567C74.1325 48.3567 74.5287 48.4361 74.7665 48.5552C75.0042 48.6744 75.2024 48.8332 75.2816 49.0318C75.4005 49.2304 75.4401 49.5481 75.4401 50.0643V51.4146C75.4401 51.8118 75.4401 52.0898 75.4797 52.2486C75.5193 52.4075 75.5986 52.6458 75.6778 52.8443H74.5287C74.4891 52.7649 74.4495 52.6458 74.4099 52.4869C74.4099 52.4075 74.3702 52.3678 74.3702 52.3678C74.1721 52.5663 73.974 52.7252 73.7363 52.8046C73.4985 52.8841 73.2608 52.9635 73.023 52.9635C72.5872 52.9635 72.2305 52.8443 71.9532 52.6061C71.6758 52.3678 71.5569 52.0501 71.5569 51.6927C71.5569 51.4544 71.5966 51.2161 71.7154 51.0175C71.8343 50.8189 71.9928 50.6601 72.2306 50.5806C72.4287 50.4615 72.7457 50.3821 73.1419 50.3027C73.6966 50.1835 74.0533 50.1041 74.2514 50.0246V49.9055C74.2514 49.6672 74.2118 49.5084 74.0929 49.4289C73.974 49.3495 73.7759 49.2701 73.4589 49.2701C73.2608 49.2701 73.1023 49.3098 72.9834 49.3892C72.9438 49.4687 72.8645 49.5878 72.7853 49.8261ZM74.3306 50.7395C74.1721 50.7792 73.9344 50.8587 73.6174 50.8984C73.3004 50.9778 73.1023 51.0175 72.9834 51.0969C72.8249 51.2161 72.7457 51.3352 72.7457 51.4941C72.7457 51.6529 72.8249 51.8118 72.9438 51.9309C73.0627 52.0501 73.2212 52.0898 73.4193 52.0898C73.6174 52.0898 73.8155 52.0104 74.0136 51.8912C74.1721 51.7721 74.2514 51.6529 74.291 51.4941C74.3306 51.4147 74.3306 51.2161 74.3306 50.9381V50.7395ZM76.9062 47.8801V46.8078H78.0553V47.8801H76.9062ZM76.9062 52.8443V48.4361H78.0553V52.8443H76.9062ZM80.3931 52.8443L79.0063 48.4361H80.1157L80.9478 51.2955L81.7007 48.4361H82.8102L83.5234 51.2955L84.3555 48.4361H85.5046L84.0781 52.8443H82.9687L82.2158 50.0246L81.4629 52.8443H80.3931ZM87.3273 49.8261L86.2971 49.6275C86.4159 49.1906 86.6141 48.8729 86.8914 48.6744C87.1688 48.4758 87.6047 48.3567 88.1594 48.3567C88.6745 48.3567 89.0707 48.4361 89.3085 48.5552C89.5462 48.6744 89.7444 48.8332 89.8236 49.0318C89.9425 49.2304 89.9821 49.5481 89.9821 50.0643V51.4146C89.9821 51.8118 89.9821 52.0898 90.0217 52.2486C90.0614 52.4075 90.1406 52.6458 90.2198 52.8443H89.0708C89.0311 52.7649 88.9915 52.6458 88.9519 52.4869C88.9519 52.4075 88.9123 52.3678 88.9123 52.3678C88.7141 52.5663 88.516 52.7252 88.2783 52.8046C88.0405 52.8841 87.8028 52.9635 87.565 52.9635C87.1292 52.9635 86.7726 52.8443 86.4952 52.6061C86.2178 52.3678 86.099 52.0501 86.099 51.6927C86.099 51.4544 86.1386 51.2161 86.2574 51.0175C86.3763 50.8189 86.5348 50.6601 86.7726 50.5806C86.9707 50.4615 87.2877 50.3821 87.6839 50.3027C88.2386 50.1835 88.5953 50.1041 88.7934 50.0246V49.9055C88.7934 49.6672 88.7538 49.5084 88.6349 49.4289C88.516 49.3495 88.3179 49.2701 88.0009 49.2701C87.8028 49.2701 87.6443 49.3098 87.5254 49.3892C87.4858 49.4687 87.3669 49.5878 87.3273 49.8261ZM88.8726 50.7395C88.7141 50.7792 88.4764 50.8587 88.1594 50.8984C87.8424 50.9778 87.6443 51.0175 87.5254 51.0969C87.3669 51.2161 87.2877 51.3352 87.2877 51.4941C87.2877 51.6529 87.3669 51.8118 87.4858 51.9309C87.6047 52.0501 87.7632 52.0898 87.9613 52.0898C88.1594 52.0898 88.3575 52.0104 88.5556 51.8912C88.7141 51.7721 88.7934 51.6529 88.833 51.4941C88.8726 51.4147 88.8726 51.2161 88.8726 50.9381V50.7395ZM94.3011 52.8443V50.6203C94.3011 50.1438 94.2615 49.8261 94.2219 49.707C94.1822 49.5481 94.103 49.4687 93.9841 49.3892C93.8652 49.3098 93.7464 49.2701 93.5879 49.2701C93.3898 49.2701 93.1916 49.3098 93.0331 49.4289C92.8747 49.5481 92.7558 49.6672 92.7162 49.8658C92.6369 50.0643 92.6369 50.3821 92.6369 50.8586V52.8443H91.4878V48.4361H92.5577V49.0715C92.9539 48.5949 93.4294 48.317 94.0238 48.317C94.2615 48.317 94.4992 48.3566 94.737 48.4361C94.9351 48.5155 95.0936 48.6347 95.2125 48.7935C95.3313 48.9524 95.4106 49.1112 95.4502 49.2701C95.4898 49.4686 95.5295 49.7069 95.5295 50.0643V52.8443H94.3011ZM105.198 52.8443V46.7681H106.347V52.8443H105.198ZM107.853 47.8801V46.8078H109.002V47.8801H107.853ZM107.853 52.8443V48.4361H109.002V52.8443H107.853ZM110.428 48.4758H111.498V49.0715C111.894 48.5949 112.33 48.3964 112.845 48.3964C113.123 48.3964 113.36 48.4361 113.558 48.5552C113.757 48.6744 113.915 48.8332 114.074 49.0715C114.272 48.8332 114.47 48.6744 114.707 48.5552C114.945 48.4361 115.183 48.3964 115.421 48.3964C115.738 48.3964 116.015 48.4758 116.253 48.5949C116.491 48.7141 116.649 48.9127 116.768 49.1907C116.847 49.3892 116.887 49.6672 116.887 50.1041V52.9238H115.738V50.4218C115.738 49.9849 115.698 49.7069 115.619 49.5878C115.5 49.4289 115.341 49.3495 115.143 49.3495C114.985 49.3495 114.826 49.3892 114.668 49.5084C114.509 49.6275 114.43 49.7467 114.351 49.9452C114.272 50.1438 114.272 50.4218 114.272 50.8586V52.9635H113.123V50.5409C113.123 50.1041 113.083 49.8261 113.043 49.707C113.004 49.5878 112.924 49.5084 112.845 49.4289C112.766 49.3495 112.647 49.3495 112.489 49.3495C112.29 49.3495 112.132 49.3892 112.013 49.5084C111.855 49.5878 111.775 49.7467 111.696 49.9452C111.617 50.1438 111.617 50.4218 111.617 50.8586V53.0032H110.428V48.4758ZM118.274 52.8443V46.7681H119.423V48.9524C119.779 48.5552 120.215 48.3567 120.691 48.3567C121.206 48.3567 121.681 48.5552 121.998 48.9524C122.355 49.3495 122.513 49.9055 122.513 50.6203C122.513 51.3749 122.355 51.9309 121.998 52.3678C121.642 52.7649 121.206 52.9635 120.691 52.9635C120.453 52.9635 120.176 52.8841 119.938 52.7649C119.7 52.6458 119.502 52.4472 119.304 52.2089V52.8443H118.274ZM119.383 50.5806C119.383 51.0175 119.462 51.3749 119.581 51.5735C119.779 51.8912 120.057 52.05 120.374 52.05C120.611 52.05 120.849 51.9309 121.047 51.7324C121.245 51.4941 121.325 51.1764 121.325 50.6998C121.325 50.1835 121.245 49.8261 121.047 49.6275C120.849 49.3892 120.651 49.3098 120.334 49.3098C120.057 49.3098 119.819 49.4289 119.621 49.6275C119.502 49.7864 119.383 50.1438 119.383 50.5806ZM123.781 47.8801V46.8078H124.93V47.8801H123.781ZM123.781 52.8443V48.4361H124.93V52.8443H123.781ZM129.249 52.8443V50.6203C129.249 50.1438 129.21 49.8261 129.17 49.707C129.131 49.5481 129.051 49.4687 128.932 49.3892C128.814 49.3098 128.695 49.2701 128.536 49.2701C128.338 49.2701 128.14 49.3098 127.982 49.4289C127.823 49.5481 127.704 49.6672 127.665 49.8658C127.585 50.0643 127.585 50.3821 127.585 50.8586V52.8443H126.436V48.4361H127.506V49.0715C127.902 48.5949 128.378 48.317 128.972 48.317C129.21 48.317 129.448 48.3566 129.685 48.4361C129.883 48.5155 130.042 48.6347 130.161 48.7935C130.28 48.9524 130.359 49.1112 130.399 49.2701C130.438 49.4686 130.478 49.7069 130.478 50.0643V52.8443H129.249ZM131.785 53.1224L133.093 53.2812C133.133 53.4401 133.172 53.5592 133.252 53.5989C133.37 53.6783 133.529 53.7181 133.767 53.7181C134.084 53.7181 134.282 53.6783 134.44 53.5989C134.559 53.5195 134.638 53.4401 134.678 53.3209C134.718 53.2415 134.718 53.0429 134.718 52.8046V52.1692C134.361 52.6458 133.925 52.8841 133.41 52.8841C132.816 52.8841 132.34 52.6458 132.023 52.1295C131.746 51.7324 131.627 51.2558 131.627 50.6601C131.627 49.9055 131.785 49.3495 132.142 48.9921C132.499 48.5949 132.935 48.3964 133.45 48.3964C134.004 48.3964 134.44 48.6347 134.797 49.1112V48.4758H135.867V52.4075C135.867 52.9238 135.827 53.3209 135.748 53.5592C135.669 53.7975 135.55 54.0358 135.391 54.1549C135.233 54.3138 135.035 54.4329 134.757 54.5123C134.519 54.5918 134.163 54.6315 133.767 54.6315C133.014 54.6315 132.499 54.5123 132.182 54.2343C131.865 53.996 131.706 53.6386 131.706 53.2415C131.785 53.2415 131.785 53.2018 131.785 53.1224ZM132.816 50.5806C132.816 51.0572 132.895 51.3749 133.093 51.6132C133.291 51.8118 133.489 51.9309 133.767 51.9309C134.044 51.9309 134.282 51.8118 134.48 51.6132C134.678 51.3749 134.757 51.0572 134.757 50.6203C134.757 50.1835 134.678 49.8261 134.48 49.6275C134.282 49.3892 134.044 49.3098 133.767 49.3098C133.489 49.3098 133.252 49.4289 133.093 49.6275C132.895 49.7864 132.816 50.1438 132.816 50.5806ZM144.584 52.1295L143.871 53.0429C143.514 52.884 143.197 52.6458 142.88 52.3678C142.642 52.6061 142.365 52.7649 142.088 52.8443C141.81 52.9635 141.493 53.0032 141.097 53.0032C140.344 53.0032 139.789 52.8046 139.393 52.3678C139.116 52.0501 138.957 51.6529 138.957 51.2161C138.957 50.8189 139.076 50.4615 139.314 50.1835C139.552 49.8658 139.908 49.5878 140.344 49.3892C140.146 49.1509 139.988 48.9126 139.869 48.6744C139.75 48.4361 139.71 48.2375 139.71 48.0389C139.71 47.6815 139.869 47.3638 140.146 47.0858C140.423 46.8475 140.859 46.6887 141.414 46.6887C141.929 46.6887 142.325 46.8078 142.642 47.0858C142.92 47.3638 143.078 47.6815 143.078 48.0786C143.078 48.3169 142.999 48.5552 142.88 48.7935C142.722 49.0318 142.444 49.2701 142.008 49.5481L142.841 50.6601C142.92 50.5012 143.039 50.2629 143.078 49.9849L144.148 50.2232C144.029 50.5806 143.95 50.8586 143.871 51.0572C143.791 51.216 143.712 51.3749 143.633 51.4941C143.752 51.6132 143.95 51.7324 144.148 51.8912C144.346 51.9707 144.505 52.0898 144.584 52.1295ZM141.414 48.8332L141.731 48.5949C141.969 48.3964 142.088 48.2375 142.088 48.0786C142.088 47.9198 142.048 47.8006 141.929 47.6815C141.81 47.5624 141.652 47.5227 141.493 47.5227C141.295 47.5227 141.176 47.5624 141.057 47.6418C140.939 47.7212 140.899 47.8404 140.899 47.9595C140.899 48.1184 140.978 48.2772 141.176 48.4758L141.414 48.8332ZM140.978 50.0643C140.701 50.1835 140.503 50.3821 140.384 50.5409C140.265 50.7395 140.186 50.9381 140.186 51.1367C140.186 51.3749 140.265 51.6132 140.423 51.7324C140.582 51.8912 140.82 51.9706 141.097 51.9706C141.295 51.9706 141.454 51.9309 141.612 51.8515C141.771 51.772 141.969 51.6529 142.167 51.4941L140.978 50.0643ZM154.847 50.6203C154.847 50.2232 154.926 49.8658 155.124 49.5084C155.322 49.151 155.599 48.8729 155.916 48.6744C156.273 48.4758 156.669 48.3964 157.066 48.3964C157.739 48.3964 158.254 48.5949 158.69 49.0318C159.126 49.4686 159.324 50.0246 159.324 50.6601C159.324 51.3352 159.126 51.8912 158.69 52.3281C158.254 52.7649 157.739 53.0032 157.066 53.0032C156.669 53.0032 156.273 52.9238 155.916 52.7252C155.56 52.5266 155.282 52.2884 155.084 51.9309C154.965 51.5338 154.847 51.0969 154.847 50.6203ZM156.075 50.6601C156.075 51.0969 156.194 51.4146 156.392 51.6529C156.59 51.8912 156.867 52.0103 157.145 52.0103C157.462 52.0103 157.7 51.8912 157.898 51.6529C158.096 51.4146 158.215 51.0969 158.215 50.6601C158.215 50.2232 158.096 49.9055 157.898 49.6672C157.7 49.4289 157.422 49.3098 157.145 49.3098C156.828 49.3098 156.59 49.4289 156.392 49.6672C156.154 49.9055 156.075 50.2232 156.075 50.6601ZM163.485 52.8443V52.1692C163.326 52.4075 163.128 52.6061 162.851 52.7252C162.573 52.8444 162.336 52.9238 162.019 52.9238C161.741 52.9238 161.464 52.8444 161.226 52.7252C160.988 52.6061 160.83 52.4075 160.711 52.1692C160.592 51.9309 160.552 51.6132 160.552 51.1764V48.3964H161.702V50.4218C161.702 51.0572 161.741 51.4146 161.781 51.5735C161.82 51.7324 161.9 51.8118 162.019 51.8912C162.137 51.9707 162.256 52.0103 162.454 52.0103C162.653 52.0103 162.811 51.9706 162.97 51.8515C163.128 51.7323 163.247 51.6132 163.286 51.4543C163.326 51.2955 163.366 50.8983 163.366 50.2629V48.3964H164.515V52.8046H163.485V52.8443ZM168.913 52.8443V50.6203C168.913 50.1438 168.873 49.8261 168.834 49.707C168.794 49.5481 168.715 49.4687 168.596 49.3892C168.477 49.3098 168.358 49.2701 168.2 49.2701C168.002 49.2701 167.804 49.3098 167.645 49.4289C167.487 49.5481 167.368 49.6672 167.328 49.8658C167.249 50.0643 167.249 50.3821 167.249 50.8586V52.8443H166.1V48.4361H167.17V49.0715C167.566 48.5949 168.041 48.317 168.636 48.317C168.873 48.317 169.111 48.3566 169.349 48.4361C169.547 48.5155 169.706 48.6347 169.824 48.7935C169.943 48.9524 170.023 49.1112 170.062 49.2701C170.102 49.4686 170.141 49.7069 170.141 50.0643V52.8443H168.913ZM173.549 48.4758V49.3892H172.757V51.1764C172.757 51.5338 172.757 51.7323 172.796 51.8118C172.796 51.8515 172.836 51.9309 172.915 51.9706C172.955 52.0104 173.034 52.0103 173.113 52.0103C173.232 52.0103 173.391 51.9707 173.589 51.8912L173.668 52.8046C173.391 52.9238 173.113 52.9635 172.757 52.9635C172.559 52.9635 172.36 52.9238 172.202 52.8443C172.043 52.7649 171.925 52.6855 171.845 52.5663C171.766 52.4472 171.726 52.2884 171.687 52.1295C171.647 52.0104 171.647 51.7324 171.647 51.2955V49.3892H171.053V48.4758H171.568V47.6021L172.717 46.927V48.4758H173.549ZM175.491 49.8261L174.46 49.6275C174.579 49.1906 174.777 48.8729 175.055 48.6744C175.332 48.4758 175.768 48.3567 176.323 48.3567C176.838 48.3567 177.234 48.4361 177.472 48.5552C177.71 48.6744 177.908 48.8332 177.987 49.0318C178.106 49.2304 178.145 49.5481 178.145 50.0643V51.4146C178.145 51.8118 178.146 52.0898 178.185 52.2486C178.225 52.4075 178.304 52.6458 178.383 52.8443H177.234C177.195 52.7649 177.155 52.6458 177.115 52.4869C177.115 52.4075 177.076 52.3678 177.076 52.3678C176.878 52.5663 176.679 52.7252 176.442 52.8046C176.204 52.8841 175.966 52.9635 175.728 52.9635C175.293 52.9635 174.936 52.8443 174.659 52.6061C174.381 52.3678 174.262 52.0501 174.262 51.6927C174.262 51.4544 174.302 51.2161 174.421 51.0175C174.54 50.8189 174.698 50.6601 174.936 50.5806C175.134 50.4615 175.451 50.3821 175.847 50.3027C176.402 50.1835 176.759 50.1041 176.957 50.0246V49.9055C176.957 49.6672 176.917 49.5084 176.798 49.4289C176.679 49.3495 176.481 49.2701 176.164 49.2701C175.966 49.2701 175.808 49.3098 175.689 49.3892C175.689 49.4687 175.57 49.5878 175.491 49.8261ZM177.076 50.7395C176.917 50.7792 176.679 50.8587 176.362 50.8984C176.045 50.9778 175.847 51.0175 175.728 51.0969C175.57 51.2161 175.491 51.3352 175.491 51.4941C175.491 51.6529 175.57 51.8118 175.689 51.9309C175.808 52.0501 175.966 52.0898 176.164 52.0898C176.362 52.0898 176.561 52.0104 176.759 51.8912C176.917 51.7721 176.996 51.6529 177.036 51.4941C177.076 51.4147 177.076 51.2161 177.076 50.9381V50.7395ZM179.651 47.8801V46.8078H180.8V47.8801H179.651ZM179.651 52.8443V48.4361H180.8V52.8443H179.651ZM185.159 52.8443V50.6203C185.159 50.1438 185.119 49.8261 185.08 49.707C185.04 49.5481 184.961 49.4687 184.842 49.3892C184.723 49.3098 184.604 49.2701 184.446 49.2701C184.248 49.2701 184.049 49.3098 183.891 49.4289C183.732 49.5481 183.614 49.6672 183.574 49.8658C183.495 50.0643 183.495 50.3821 183.495 50.8586V52.8443H182.346V48.4361H183.415V49.0715C183.812 48.5949 184.287 48.317 184.882 48.317C185.119 48.317 185.357 48.3566 185.595 48.4361C185.793 48.5155 185.951 48.6347 186.07 48.7935C186.189 48.9524 186.268 49.1112 186.308 49.2701C186.348 49.4686 186.387 49.7069 186.387 50.0643V52.8443H185.159ZM190.31 51.4543L191.459 51.6529C191.301 52.0898 191.063 52.4075 190.746 52.6061C190.429 52.8443 190.033 52.9238 189.557 52.9238C188.804 52.9238 188.25 52.6855 187.853 52.1692C187.576 51.7721 187.418 51.2558 187.418 50.6601C187.418 49.9452 187.616 49.3495 187.972 48.9524C188.368 48.5552 188.844 48.317 189.399 48.317C190.033 48.317 190.548 48.5155 190.944 48.9524C191.301 49.3892 191.499 50.0644 191.499 50.9381H188.606C188.606 51.2955 188.725 51.5338 188.884 51.7324C189.042 51.9309 189.28 52.0103 189.557 52.0103C189.755 52.0103 189.874 51.9706 190.033 51.8515C190.152 51.8515 190.231 51.6926 190.31 51.4543ZM190.389 50.3027C190.389 49.985 190.31 49.7069 190.112 49.5481C189.953 49.3892 189.755 49.2701 189.518 49.2701C189.28 49.2701 189.042 49.3495 188.884 49.5481C188.725 49.7467 188.646 49.985 188.646 50.3027H190.389ZM195.303 51.4543L196.452 51.6529C196.293 52.0898 196.056 52.4075 195.739 52.6061C195.422 52.8443 195.025 52.9238 194.55 52.9238C193.797 52.9238 193.242 52.6855 192.846 52.1692C192.569 51.7721 192.41 51.2558 192.41 50.6601C192.41 49.9452 192.608 49.3495 192.965 48.9524C193.361 48.5552 193.837 48.317 194.391 48.317C195.025 48.317 195.54 48.5155 195.937 48.9524C196.293 49.3892 196.491 50.0644 196.491 50.9381H193.638C193.638 51.2955 193.757 51.5338 193.916 51.7324C194.074 51.9309 194.312 52.0103 194.589 52.0103C194.788 52.0103 194.906 51.9706 195.065 51.8515C195.144 51.8515 195.223 51.6926 195.303 51.4543ZM195.382 50.3027C195.382 49.985 195.303 49.7069 195.105 49.5481C194.946 49.3892 194.748 49.2701 194.51 49.2701C194.272 49.2701 194.035 49.3495 193.876 49.5481C193.718 49.7467 193.638 49.985 193.638 50.3027H195.382ZM197.72 52.8443V48.4361H198.79V49.0715C198.988 48.7935 199.146 48.5949 199.305 48.4758C199.463 48.3964 199.622 48.3567 199.82 48.3567C200.097 48.3567 200.335 48.4361 200.573 48.5949L200.216 49.5878C200.018 49.4687 199.82 49.3892 199.661 49.3892C199.503 49.3892 199.344 49.429 199.265 49.5084C199.146 49.5878 199.067 49.7467 198.988 49.9849C198.908 50.2232 198.908 50.6998 198.908 51.4543V52.8443H197.72ZM201.365 47.8801V46.8078H202.514V47.8801H201.365ZM201.365 52.8443V48.4361H202.514V52.8443H201.365ZM206.873 52.8443V50.6203C206.873 50.1438 206.833 49.8261 206.794 49.707C206.754 49.5481 206.675 49.4687 206.556 49.3892C206.437 49.3098 206.318 49.2701 206.16 49.2701C205.962 49.2701 205.763 49.3098 205.605 49.4289C205.446 49.5481 205.328 49.6672 205.288 49.8658C205.209 50.0643 205.209 50.3821 205.209 50.8586V52.8443H204.06V48.4361H205.129V49.0715C205.526 48.5949 206.001 48.317 206.596 48.317C206.833 48.317 207.071 48.3566 207.309 48.4361C207.507 48.5155 207.665 48.6347 207.784 48.7935C207.903 48.9524 207.982 49.1112 208.022 49.2701C208.062 49.4686 208.101 49.7069 208.101 50.0643V52.8443H206.873ZM209.369 53.1224L210.677 53.2812C210.716 53.4401 210.756 53.5592 210.835 53.5989C210.954 53.6783 211.113 53.7181 211.35 53.7181C211.667 53.7181 211.866 53.6783 212.024 53.5989C212.143 53.5195 212.222 53.4401 212.262 53.3209C212.301 53.2415 212.301 53.0429 212.301 52.8046V52.1692C211.945 52.6458 211.509 52.8841 210.994 52.8841C210.399 52.8841 209.924 52.6458 209.607 52.1295C209.33 51.7324 209.211 51.2558 209.211 50.6601C209.211 49.9055 209.369 49.3495 209.726 48.9921C210.082 48.5949 210.518 48.3964 211.033 48.3964C211.588 48.3964 212.024 48.6347 212.381 49.1112V48.4758H213.45V52.4075C213.45 52.9238 213.411 53.3209 213.332 53.5592C213.252 53.7975 213.133 54.0358 212.975 54.1549C212.816 54.3138 212.618 54.4329 212.341 54.5123C212.103 54.5918 211.747 54.6315 211.35 54.6315C210.598 54.6315 210.082 54.5123 209.765 54.2343C209.448 53.996 209.29 53.6386 209.29 53.2415C209.369 53.2415 209.369 53.2018 209.369 53.1224ZM210.399 50.5806C210.399 51.0572 210.479 51.3749 210.677 51.6132C210.875 51.8118 211.073 51.9309 211.35 51.9309C211.628 51.9309 211.866 51.8118 212.064 51.6132C212.262 51.3749 212.341 51.0572 212.341 50.6203C212.341 50.1835 212.262 49.8261 212.064 49.6275C211.866 49.3892 211.628 49.3098 211.35 49.3098C211.073 49.3098 210.835 49.4289 210.677 49.6275C210.518 49.7864 210.399 50.1438 210.399 50.5806ZM222.762 52.8443V46.7681H223.911V52.8443H222.762ZM225.417 52.8443V46.7681H226.566V52.8443H225.417ZM228.072 47.8801V46.8078H229.221V47.8801H228.072ZM228.072 52.8443V48.4361H229.221V52.8443H228.072ZM231.559 49.8261L230.528 49.6275C230.647 49.1906 230.845 48.8729 231.123 48.6744C231.4 48.4758 231.836 48.3567 232.391 48.3567C232.906 48.3567 233.302 48.4361 233.54 48.5552C233.778 48.6744 233.976 48.8332 234.055 49.0318C234.174 49.2304 234.213 49.5481 234.213 50.0643V51.4146C234.213 51.8118 234.213 52.0898 234.253 52.2486C234.293 52.4472 234.372 52.6458 234.451 52.8443H233.302C233.262 52.7649 233.223 52.6458 233.183 52.4869C233.183 52.4075 233.144 52.3678 233.144 52.3678C232.946 52.5663 232.747 52.7252 232.51 52.8046C232.272 52.8841 232.034 52.9635 231.796 52.9635C231.361 52.9635 231.004 52.8443 230.727 52.6061C230.449 52.3678 230.33 52.0501 230.33 51.6927C230.33 51.4544 230.37 51.2161 230.489 51.0175C230.608 50.8189 230.766 50.6601 231.004 50.5806C231.202 50.4615 231.519 50.3821 231.915 50.3027C232.47 50.1835 232.827 50.1041 233.025 50.0246V49.9055C233.025 49.6672 232.985 49.5084 232.866 49.4289C232.747 49.3495 232.549 49.2701 232.232 49.2701C232.034 49.2701 231.876 49.3098 231.757 49.3892C231.757 49.4687 231.638 49.5878 231.559 49.8261ZM233.144 50.7395C232.985 50.7792 232.747 50.8587 232.43 50.8984C232.113 50.9778 231.915 51.0175 231.796 51.0969C231.638 51.2161 231.559 51.3352 231.559 51.4941C231.559 51.6529 231.638 51.8118 231.757 51.9309C231.876 52.0501 232.034 52.0898 232.232 52.0898C232.43 52.0898 232.629 52.0104 232.827 51.8912C232.985 51.7721 233.064 51.6529 233.104 51.4941C233.144 51.4147 233.144 51.2161 233.144 50.9381V50.7395ZM238.532 52.8443V50.6203C238.532 50.1438 238.493 49.8261 238.453 49.707C238.414 49.5481 238.334 49.4687 238.215 49.3892C238.097 49.3098 237.978 49.2701 237.819 49.2701C237.621 49.2701 237.423 49.3098 237.265 49.4289C237.106 49.5481 236.987 49.6672 236.948 49.8658C236.868 50.0643 236.868 50.3821 236.868 50.8586V52.8443H235.719V48.4361H236.789V49.0715C237.185 48.5949 237.661 48.317 238.255 48.317C238.493 48.317 238.731 48.3566 238.968 48.4361C239.166 48.5155 239.325 48.6347 239.444 48.7935C239.563 48.9524 239.642 49.1112 239.682 49.2701C239.721 49.4686 239.761 49.7069 239.761 50.0643V52.8443H238.532ZM244.991 49.7467L243.842 49.9452C243.802 49.7069 243.723 49.5481 243.565 49.4289C243.446 49.3098 243.248 49.2701 243.05 49.2701C242.772 49.2701 242.535 49.3892 242.376 49.5878C242.218 49.7864 242.099 50.1041 242.099 50.5806C242.099 51.0969 242.178 51.4544 242.376 51.6927C242.535 51.8912 242.772 52.0103 243.089 52.0103C243.327 52.0103 243.485 51.9309 243.644 51.8118C243.802 51.6926 243.882 51.4544 243.961 51.1764L245.11 51.3749C244.991 51.8912 244.753 52.2883 244.436 52.5663C244.119 52.8443 243.644 52.9635 243.089 52.9635C242.455 52.9635 241.94 52.7649 241.544 52.3678C241.148 51.9706 240.989 51.4147 240.989 50.6998C240.989 49.985 241.187 49.4289 241.544 48.9921C241.94 48.5949 242.455 48.3964 243.089 48.3964C243.604 48.3964 244.04 48.5155 244.357 48.7538C244.635 48.9524 244.872 49.3098 244.991 49.7467ZM248.716 51.4543L249.865 51.6529C249.706 52.0898 249.469 52.4075 249.152 52.6061C248.835 52.8443 248.438 52.9238 247.963 52.9238C247.21 52.9238 246.655 52.6855 246.259 52.1692C245.982 51.7721 245.823 51.2558 245.823 50.6601C245.823 49.9452 246.021 49.3495 246.378 48.9524C246.774 48.5552 247.25 48.317 247.805 48.317C248.438 48.317 248.954 48.5155 249.35 48.9524C249.706 49.3892 249.905 50.0644 249.905 50.9381H247.012C247.012 51.2955 247.131 51.5338 247.289 51.7324C247.448 51.9309 247.686 52.0103 247.963 52.0103C248.161 52.0103 248.28 51.9706 248.438 51.8515C248.557 51.8515 248.637 51.6926 248.716 51.4543ZM248.795 50.3027C248.795 49.985 248.716 49.7069 248.518 49.5481C248.359 49.3892 248.161 49.2701 247.923 49.2701C247.686 49.2701 247.448 49.3495 247.289 49.5481C247.131 49.7467 247.052 49.985 247.052 50.3027H248.795Z" fill="white"/>
<path fill-rule="evenodd" clip-rule="evenodd" d="M20.7986 11.1844C21.274 11.0255 21.7099 10.6284 22.1854 10.3901C22.0665 10.7078 21.6307 10.946 21.9873 11.3432C22.2646 11.1843 22.542 11.0652 22.859 10.9063C22.8194 10.8269 22.7401 10.7475 22.7005 10.6283C22.9779 10.4695 23.2552 10.2709 23.5722 10.0723C23.4137 9.75463 23.5722 9.47664 23.9685 9.43692C24.0081 9.43692 24.0477 9.43693 24.127 9.39722V9.51633C24.444 9.47662 24.0081 9.9135 24.444 9.39722L24.3647 9.27806C24.4043 9.23835 24.4836 9.23836 24.5232 9.19865C25.0383 9.03979 25.5931 8.8412 26.1082 8.72205C26.2667 8.68234 26.3855 8.64265 26.544 8.60294C26.7025 9.19865 26.9799 9.19861 27.2573 9.1589C27.178 8.92061 27.0195 8.80148 26.7818 8.52348C27.0591 8.44405 27.3365 8.40434 27.6139 8.32491C27.6931 8.32491 27.7724 8.32491 27.8516 8.32491C28.1686 8.24548 28.446 8.16606 28.763 8.12634C28.763 8.12634 28.2875 8.5235 28.763 8.2455C28.8422 8.20579 28.9215 8.12635 28.9215 8.08664C28.9611 8.08664 29.0007 8.08664 29.0403 8.08664C29.397 8.04692 29.7536 8.08664 30.0706 8.08664H30.3479C30.5064 8.72206 30.7838 8.68235 31.0612 8.68235C30.9819 8.44406 30.863 8.32492 30.5857 8.08664C31.6952 8.08664 32.8046 8.08665 33.8745 8.04693L33.9141 8.40437C34.2311 8.36466 33.7952 8.80149 34.2311 8.28521C34.1518 8.16607 34.1122 8.08665 34.0726 8.04693C34.3896 8.04693 34.7066 8.04694 35.0236 8.00723C35.6576 7.96752 36.1727 8.08664 36.6482 8.48378C36.767 8.56321 36.8067 8.72206 36.9255 8.88092C37.084 8.68235 37.2425 8.44408 37.401 8.2058C37.4406 8.2058 37.4803 8.2455 37.5199 8.2455C37.4803 8.40436 37.4803 8.52349 37.4406 8.68235C37.4803 8.72206 37.5199 8.72204 37.5595 8.76176C37.6784 8.6029 37.8369 8.40434 38.035 8.12634C38.3124 8.2852 38.669 8.44407 39.0256 8.64264C39.1048 8.68236 39.1841 8.72205 39.2237 8.72205C39.8973 8.40434 40.1747 9.1192 40.6898 9.27806C40.8879 9.35749 41.1257 9.31775 41.2842 9.35747C41.5615 9.4369 41.8389 9.55606 42.1163 9.6752C42.2748 10.0326 42.5125 10.0326 42.7502 10.0326C42.7502 9.99292 42.7106 9.95319 42.7106 9.91347H42.7502C42.9484 9.9929 43.1465 10.112 43.3446 10.1517C43.622 10.2312 43.7805 10.3106 43.939 10.3503C44.3352 10.8269 44.1371 10.5886 44.256 10.5886C44.3748 10.7078 44.4541 10.8666 44.6126 11.1049C44.6126 10.9063 44.6126 10.7872 44.6126 10.5489C45.0484 10.8269 45.6032 10.7872 45.6428 11.3035C45.8013 11.3432 46.039 11.3829 46.039 11.3829C46.039 11.6609 46.039 11.8992 45.9598 12.1772C45.9202 12.3361 45.6032 12.4552 45.6428 12.614C45.6824 13.0112 45.6428 13.4083 45.4843 13.8055C45.5239 13.8055 45.5636 13.8452 45.6032 13.8452C45.8409 13.6069 46.1183 13.3686 46.3164 13.0906C46.4749 12.7729 46.5145 12.4155 46.673 12.0183C46.99 12.1375 47.307 12.2566 47.5448 12.336C47.3466 12.6537 47.0693 12.8523 47.1089 13.0509C47.1089 13.2892 47.3863 13.5275 47.5844 13.8452C47.7825 13.3686 48.258 13.1303 48.575 13.2495C48.8523 13.3289 49.0108 13.8849 48.8523 14.282C49.4467 14.1629 49.4071 14.5997 49.3675 14.9969C49.4071 14.9969 49.4467 14.9969 49.4863 14.9969C49.5656 14.838 49.6448 14.6792 49.8033 14.4012C50.3184 14.9175 50.8335 15.394 51.3487 15.9103C51.7845 16.3869 52.1808 16.8635 52.577 17.34C53.0921 18.0152 53.6072 18.73 54.1223 19.4051C54.3205 19.6434 54.5582 19.8817 54.7167 20.1597C54.7959 20.3186 54.7563 20.5966 54.8356 20.7951C54.8752 20.954 54.9148 21.2717 54.9941 21.2717C55.5884 21.3114 55.4696 21.8277 55.5884 22.1851C55.9847 23.1383 56.4205 24.1311 56.7375 25.124C57.1338 26.3551 57.4111 27.5862 57.6489 28.8571C57.53 28.738 57.4111 28.6188 57.2526 28.4202C56.9753 29.0953 57.6885 29.6911 57.2526 30.3662C58.164 31.0413 58.0847 32.0342 58.0055 33.0668C58.0055 33.2653 58.0055 33.4242 58.0055 33.583C58.0055 33.7816 57.8866 33.9802 57.8074 34.139C57.847 34.3376 57.9659 34.5362 57.9659 34.7347C57.6489 36.5219 57.4507 38.3487 56.9753 40.0961C56.6186 41.4464 56.1828 42.7967 55.3111 43.9484C55.0733 44.2264 55.1129 44.703 54.9148 45.0604C54.5582 45.6958 54.1223 46.2915 53.6468 46.8475C53.5676 46.927 53.2902 46.8475 53.0921 46.8475C53.1714 46.9667 53.2506 47.0461 53.3299 47.1653C53.0921 47.4035 52.894 47.6418 52.6562 47.8801C52.4581 48.0787 52.0619 48.2375 52.4185 48.6744C52.4581 48.7141 52.3393 48.873 52.26 48.9921C51.626 49.6672 51.0317 50.3424 50.3581 50.9778C49.6448 51.6529 48.892 52.3678 48.0995 52.9238C47.1089 53.6386 46.039 54.3138 45.0088 54.9492C43.4635 55.8626 41.7993 56.498 40.0954 57.0143C39.5407 57.1732 38.9463 57.5703 38.4312 56.7363C38.352 57.054 38.3124 57.2129 38.2727 57.4512C37.3614 57.4512 36.4104 58.444 35.4991 57.332C35.4198 57.4115 35.3009 57.5703 35.1028 57.8086C35.0236 57.4909 34.9839 57.332 34.9443 57.1335C34.9839 57.1732 35.0236 57.2129 35.0632 57.2526C35.3406 57.0143 35.7764 56.8158 35.816 56.5378C35.816 56.498 35.816 56.4583 35.816 56.4186C42.1955 55.5846 48.0995 52.1295 51.9826 47.1256C51.943 47.2447 51.9034 47.3638 51.9034 47.4829C52.577 47.5624 52.4581 46.8872 52.7751 46.649C52.577 46.6092 52.4185 46.6489 52.3393 46.6887C52.577 46.3709 52.8147 46.0135 53.0525 45.6958V46.371C53.2902 46.1724 53.4884 46.0135 53.7657 45.815C53.4884 45.7355 53.3299 45.6958 53.0921 45.6561C55.3507 42.1613 56.6979 38.031 56.6583 33.5433C56.6187 27.9834 55.1526 23.6943 53.0921 20.398C51.7449 18.2534 50.7543 16.9826 50.3977 16.9429C48.6542 20.7157 45.8805 17.6974 44.6126 19.0477C43.2654 20.4774 43.8201 20.7554 42.1163 22.4234C40.4124 24.0914 37.8369 23.178 36.8463 25.0843C36.4104 27.7054 37.5595 27.6259 36.5689 29.8102C35.9745 31.1208 33.9141 31.8754 33.5575 33.4242C33.2405 34.9731 34.0726 37.8325 34.1122 38.6267C34.1518 39.421 34.5877 40.4138 34.667 41.089C34.7858 42.1613 33.9933 42.7967 33.0027 43.1541L32.6461 44.147C32.6065 44.2661 32.5273 44.425 32.4876 44.5838C32.5273 44.6236 32.6065 44.6235 32.6461 44.6235C32.8839 44.6633 33.2009 44.6633 33.2801 44.6235C33.2801 44.6235 33.2801 44.6235 33.3197 44.6235C33.3594 44.6235 33.399 44.6235 33.4386 44.6633C33.6367 44.7427 33.7556 44.8221 33.7952 44.7824C33.8348 44.7824 33.8745 44.7824 33.9537 44.5441C34.033 44.3059 34.033 44.3853 34.033 44.2661C34.033 44.1867 33.9933 44.147 33.9933 44.1072C33.9537 44.0675 33.9141 44.0278 33.9141 43.9087C33.9141 43.7895 33.9933 43.7896 34.033 43.7896C34.033 43.7896 34.0726 43.7896 34.1122 43.7499C34.1518 43.7101 34.1518 43.7101 34.1915 43.7101C34.2311 43.7101 34.2311 43.7101 34.2311 43.7101C34.2311 43.7101 34.2311 43.6704 34.2707 43.6307C34.3103 43.591 34.35 43.591 34.35 43.5513C34.3896 43.4719 34.3896 43.4321 34.3896 43.4321C34.3896 43.3924 34.3896 43.3924 34.4292 43.3924C34.4292 43.3924 34.4292 43.3924 34.4688 43.3924C34.5085 43.3924 34.7462 43.4718 34.7462 43.4718H34.7858C34.7858 43.4718 34.7858 43.4718 34.8254 43.4718V43.4321C34.8254 43.3924 34.8651 43.3924 34.8651 43.3924C34.8651 43.3924 34.9047 43.3924 34.9443 43.3924C34.9839 43.3924 34.9839 43.3924 34.9839 43.3924C34.9839 43.3924 34.9839 43.313 35.0236 43.2733C35.0632 43.1938 35.1028 43.1541 35.1028 43.1541H35.1424C35.1424 43.1541 35.2217 43.2733 35.3009 43.313C35.3802 43.3527 35.4594 43.3924 35.5783 43.3924C35.6576 43.4321 35.6972 43.5115 35.6972 43.5115V43.5513C35.6972 43.591 35.6972 43.591 35.6972 43.591C35.6972 43.591 35.7764 43.591 35.8557 43.7101C35.8953 43.8292 35.9349 44.1073 35.8953 44.2264C35.8953 44.3455 35.8953 44.5441 35.8953 44.6633C35.8953 44.7824 35.9349 44.8618 35.9349 44.9015C35.9349 44.9412 35.9745 44.981 35.9349 44.981C35.8953 45.0207 35.8557 44.981 35.6179 45.0604C35.3802 45.1398 35.2613 45.1796 35.1424 45.1796C35.0236 45.1796 34.8651 45.1398 34.7858 45.0604C34.7066 44.981 34.667 44.8618 34.667 44.8618C34.667 44.8618 34.5877 44.9412 34.5481 45.1001C34.5481 45.259 34.4688 45.9738 33.9933 46.649C33.5179 47.3241 32.8839 47.8007 32.8839 47.8007C32.8839 47.8007 33.2009 47.8007 33.3594 48.1184C33.5179 48.4361 33.4386 48.873 33.4386 48.9524C33.4386 49.0318 33.3594 49.3098 33.1216 49.3495C32.8839 49.3892 32.8046 49.1907 32.765 49.1113C32.765 49.0318 32.7254 48.8332 32.6858 48.595C32.6461 48.3567 32.6065 48.0389 32.6065 48.0389C32.6065 48.0389 32.5273 48.039 32.4876 48.1978C32.448 48.3567 32.4084 48.4758 31.9725 48.7141C31.5763 48.9524 31.2593 49.0715 30.9027 49.0715C30.7442 49.0715 30.5064 48.9921 30.3083 48.9127C30.1894 49.1113 30.0706 49.3495 30.0706 49.3495C30.0706 49.3495 29.7932 49.8658 29.5158 50.2232C29.2781 50.5806 28.8818 51.3352 28.763 51.4543C28.6837 51.5735 28.446 52.0898 28.3271 52.3281C28.2082 52.5664 28.0101 52.8841 28.0101 52.8841L27.9705 52.9238C27.9309 52.9238 27.9309 52.9238 27.9309 52.8841C27.9309 52.8841 27.9309 52.8444 28.0101 52.7252C28.0894 52.6061 28.2875 52.2486 28.4064 51.9309C28.5252 51.6529 28.8026 51.0969 29.2781 50.3424C29.5951 49.8658 29.9517 49.2304 30.1894 48.8332C29.9913 48.7538 29.8724 48.6744 29.8724 48.6744L29.3177 48.4758C29.3177 48.4758 29.2781 48.6744 29.1196 48.8729C29.0007 49.0715 28.8026 49.2304 28.6045 49.5878C28.4064 49.9452 28.3667 50.0247 28.3667 50.1041C28.3667 50.1438 28.0894 50.1041 27.9705 50.1041C27.8516 50.0644 27.7328 50.0246 27.5346 50.0644C27.3365 50.1438 26.861 50.6998 26.6233 50.6601C26.4252 51.0969 26.0685 51.5338 25.2761 52.2089C24.4043 52.9238 20.3627 53.0032 19.4117 52.3281C18.8966 51.9309 19.7683 52.7252 21.591 53.7181V53.7578L21.7495 53.7975C22.1458 54.0358 22.6213 54.2344 23.1364 54.4726L23.2552 56.0215C22.9779 55.8229 22.8194 55.664 22.6213 55.5846C22.4231 55.4655 22.1458 55.4655 22.0269 55.3463C21.8288 55.1478 21.6703 54.8698 21.5118 54.6315C21.5514 54.5918 21.591 54.5521 21.591 54.5521C21.4722 54.5521 21.3533 54.5124 21.1948 54.5124C21.2344 54.6712 21.2344 54.8301 21.274 55.0684C20.7193 54.7506 20.2042 54.4329 19.7287 54.1549C19.7683 53.9563 19.808 53.7975 19.8476 53.5989C19.3325 53.8769 18.9758 53.5989 18.6192 53.4003C17.272 52.5266 16.1229 51.4146 15.0134 50.2629C14.3398 49.5878 13.7059 48.873 13.1511 48.1581L13.587 47.9595C13.3492 47.6021 13.3889 47.5624 13.2304 47.2447C13.0719 47.7609 13.27 47.5624 12.953 47.8404C12.4775 47.205 12.0416 46.5695 11.685 45.8944C11.5662 45.7355 11.4869 45.537 11.368 45.3384C11.4077 45.3384 11.4473 45.3384 11.5265 45.2987C11.8832 45.1398 11.7247 45.1796 11.7643 44.981L11.6454 44.6235L11.2492 44.6633L11.0907 44.703C11.0114 44.5044 10.9718 44.2661 11.0114 43.9881C11.051 43.7896 11.0114 43.2733 10.4963 43.2336C10.3774 43.2336 10.2982 43.035 10.1793 42.9158C10.3774 42.7173 10.5756 42.479 10.8926 42.201C10.6152 42.2407 10.4567 42.2407 10.3378 42.2407C10.1001 42.0024 9.86233 41.7641 9.70383 41.5258C9.58496 41.367 9.26797 41.1684 9.70383 40.9699C9.74346 40.9699 9.66421 40.7316 9.66421 40.6124C9.58496 40.6124 9.46609 40.6521 9.34722 40.6521C9.18872 40.2947 9.06985 39.977 9.62458 39.7785C9.50571 39.4607 9.78308 38.9047 9.03022 38.9842C9.34722 38.4679 9.22834 38.1104 8.71323 37.8722C8.59436 37.8324 8.51511 37.6339 8.51511 37.5147C8.39624 36.9587 8.31699 36.4027 8.23774 35.7276C8.47549 36.0453 8.59436 36.2836 8.75286 36.5219C9.22834 36.363 9.06985 35.9659 8.9906 35.7276C8.87173 35.251 8.87173 34.6553 8 34.6553C8.47549 33.4242 8.91135 32.2725 9.38684 31.1208C9.03022 30.9222 8.8321 30.9619 8.31699 31.3988C8.07925 30.9619 8.35662 28.8174 8.8321 26.7919C8.9906 26.9111 9.18872 26.9508 9.42646 26.8714C9.54534 26.8317 9.66421 26.7523 9.74346 26.6728C9.9812 26.3551 9.86233 26.4743 9.78308 26.2757L9.50571 26.0374L9.18872 26.2757L8.87173 26.5537C9.06985 25.7991 9.30759 25.0445 9.54534 24.4488C9.66421 24.5679 9.78308 24.7268 9.90195 24.8459C9.90195 24.7665 9.90195 24.6871 9.90195 24.6077C10.0208 24.4885 10.2189 24.4091 10.2982 24.29C10.4171 24.1311 10.4963 23.8928 10.4567 23.6943C10.3774 23.3766 9.86233 23.0588 10.4963 22.7808C10.5756 22.7411 10.4963 22.4234 10.4963 22.2248C10.5756 22.2248 10.6944 22.1851 10.8926 22.1851C10.7737 22.066 10.6944 21.9865 10.5359 21.8674C11.1303 20.8745 11.7643 19.9214 12.3983 18.8888C12.5171 19.1271 12.319 19.6037 12.8341 19.4845C13.0322 19.4448 13.1511 19.2463 13.3096 19.1272C13.1907 19.0874 13.0719 19.008 12.9134 18.9683C12.5568 18.9286 12.4379 18.5711 12.7153 18.2137C12.9134 17.9754 13.1115 17.6974 13.3492 17.4591C13.3492 17.5783 13.1907 17.6974 13.4285 17.4988C13.5474 17.4194 13.5474 17.34 13.5077 17.3003C13.9832 16.7046 14.4983 16.0691 15.0531 15.5131C15.2908 15.2749 15.4889 15.0366 15.7267 14.7983C16.1229 14.9572 16.2022 14.9572 16.638 15.0763C16.7569 14.7586 16.9946 14.1629 16.8758 13.7658C17.1531 13.5275 17.4305 13.3289 17.7079 13.0906C18.0645 13.4877 17.7079 13.2892 18.223 13.2892C18.3419 12.7729 18.4607 13.1303 18.1834 12.7332C18.6589 12.3757 19.1343 12.058 19.6098 11.7403C19.6891 13.2494 20.3231 11.3432 20.7986 11.1844ZM32.2103 44.981C32.1706 45.1001 32.131 45.1795 32.0518 45.2987C32.2103 45.259 32.3688 45.2192 32.5273 45.0604C32.5669 45.0604 32.4876 45.1001 32.2103 44.981ZM31.814 45.815C31.6159 46.1724 31.4574 46.5298 31.3782 46.6887C31.497 46.7681 31.5367 46.7284 31.6555 46.649C31.7348 46.5695 31.7744 46.371 31.8933 46.2121C32.0121 46.0533 32.1706 45.8944 32.1706 45.8944C32.1706 45.8944 32.131 45.815 32.0121 45.8547C31.9725 45.815 31.9329 45.815 31.814 45.815ZM31.3385 46.6092C31.4178 46.4504 31.5763 46.1327 31.7744 45.7753C31.6159 45.7355 31.3782 45.6164 31.1404 45.4575C30.7838 45.2192 30.5857 44.981 30.3083 44.7427C30.0309 44.5044 30.0309 44.3853 29.8328 44.2661C29.714 44.1867 29.5951 44.1073 29.4366 44.0278C28.8818 44.3058 28.0894 44.8618 27.5743 45.9738C27.5743 46.0135 27.6931 46.2121 27.8516 46.4504C27.9309 46.4107 28.0101 46.4504 28.0894 46.4901C28.2082 46.5695 28.3667 46.7681 28.4856 46.8872C28.6045 47.0461 28.6441 47.1653 28.7234 47.1653C28.763 47.1653 28.8422 47.0858 28.9215 46.9667C28.9611 46.8475 29.2781 46.1327 29.4762 45.7753C29.6743 45.4178 29.8328 45.1001 30.1102 44.9413C30.3876 44.7824 30.6649 44.981 30.8234 45.2987C30.9819 45.6164 31.18 46.5298 31.18 46.5298C31.18 46.5298 31.2197 46.5695 31.3385 46.6092ZM31.9725 45.2987C32.0121 45.1795 32.0914 45.0604 32.131 44.9413C32.0518 44.9016 31.9329 44.8618 31.7744 44.7824C31.2989 44.4647 30.8234 44.0676 30.5064 43.7499C30.2291 43.7896 30.0309 43.8293 29.8724 43.869H29.8328C30.0309 43.9881 30.1498 44.1073 30.2291 44.147C30.3083 44.2264 30.8234 44.7427 31.0215 44.9015C31.2197 45.0604 31.497 45.259 31.814 45.2987C31.8933 45.2987 31.9329 45.2987 31.9725 45.2987ZM32.3291 44.5838C32.4876 44.1867 32.6858 43.6704 32.8442 43.2336C32.2103 43.4718 31.5367 43.591 30.9423 43.7101C31.0612 43.8292 31.1404 43.9087 31.2593 43.9881C31.7744 44.2661 32.0914 44.4647 32.3291 44.5838ZM28.129 47.2844C28.0101 47.4035 27.0988 48.0787 27.0591 48.1581C26.7818 48.9127 26.7422 49.4289 26.6629 49.8658C26.9006 49.7864 27.0988 49.6672 27.3761 49.2701C27.6931 48.7935 27.9309 48.1978 28.0497 48.0389C28.2082 47.8801 28.2082 47.8404 28.2082 47.8404C28.2082 47.8404 28.2479 47.6418 28.129 47.3241C28.1686 47.3241 28.1686 47.3241 28.129 47.2844ZM29.6347 47.2844C29.6743 47.4035 29.4762 47.4433 29.6347 47.5624C29.714 47.6021 29.9121 47.6815 29.9913 47.6815C30.0706 47.7212 30.1102 47.7212 30.1498 47.6815C30.1498 47.6418 30.1498 47.6418 30.1102 47.6021C30.0706 47.5624 30.0706 47.5227 30.0706 47.3241C30.0706 47.0858 30.0706 46.7284 30.0706 46.6092C30.0706 46.4901 29.9913 46.5695 29.9517 46.649C29.9121 46.7284 29.7932 46.8873 29.7536 46.9667C29.714 47.0461 29.6743 47.0064 29.6743 47.0858C29.5951 47.1255 29.6347 47.2049 29.6347 47.2844ZM34.5877 56.6569C34.3896 56.6569 34.1518 56.6966 33.9537 56.6966C33.9537 56.7363 33.9141 56.776 33.9141 56.8157L33.6367 56.7363C32.3291 56.776 31.0215 56.7363 29.714 56.5775L29.9121 57.0938C29.8724 57.1335 29.8328 57.1335 29.7932 57.1732C29.6743 56.8952 29.2781 56.8158 29.1988 56.5378C28.9215 56.498 28.6045 56.4583 28.3271 56.3789C28.3667 56.4186 28.3667 56.4583 28.4064 56.5378C28.5649 56.8952 28.763 57.2526 28.9611 57.61C29.3177 58.1263 29.714 58.1263 30.0309 57.5703C30.3876 57.9675 30.9027 58.1263 31.18 57.888C31.9725 57.332 32.8442 57.4115 33.716 57.4512C34.033 57.4512 34.3103 57.61 34.5877 57.6895C34.6273 57.6498 34.667 57.6497 34.7462 57.61C34.5085 57.2923 34.5085 56.9746 34.5877 56.6569ZM27.0988 56.0612C25.5931 55.6641 24.2062 55.1477 23.0175 54.6315C23.1364 54.7903 23.2156 54.9095 23.3345 54.9889C23.7307 55.3066 23.493 55.8229 23.6911 56.1803C23.7704 56.2995 23.8892 56.4186 24.0081 56.4584C24.0873 56.4981 24.2062 56.3392 24.2855 56.2598C24.4043 56.1406 24.4836 55.9817 24.6025 55.8229C24.7213 55.9023 24.8006 55.942 24.9194 56.0215C24.9987 55.8626 25.0779 55.7435 25.1572 55.5846C25.91 56.2995 25.9497 56.4186 25.5534 57.0938C26.0685 57.1732 26.544 57.2526 27.0195 57.2923C27.0195 57.2526 27.0195 57.2129 27.0591 57.1335C26.9403 57.0938 26.861 57.0541 26.861 57.0541C26.9006 56.6569 26.9799 56.2995 27.0988 56.0612ZM18.5004 37.2765H19.2532V36.8793H17.2324V37.2765H17.9852V39.7785H18.5004V37.2765ZM22.4628 37.5942L22.5024 37.1176C22.225 36.919 21.908 36.7999 21.5514 36.7999C21.1155 36.7999 20.7589 36.9587 20.4419 37.2367C20.1646 37.5147 20.0061 37.9119 20.0061 38.3487C20.0061 38.7856 20.1646 39.143 20.4419 39.4607C20.7193 39.7387 21.1155 39.8976 21.5514 39.8976C21.908 39.8976 22.1854 39.8182 22.4628 39.6196V39.1033C22.1854 39.3416 21.8684 39.4607 21.5118 39.4607C20.9174 39.4607 20.4816 39.0239 20.4816 38.3885C20.4816 37.753 20.9174 37.2765 21.5514 37.2765C21.908 37.2367 22.225 37.3559 22.4628 37.5942ZM26.1082 38.3487L26.4252 39.7785H26.861L26.1478 36.7601L25.3157 38.587C25.2761 38.7062 25.1968 38.8253 25.1572 38.9842C25.0779 38.7856 25.0383 38.6268 24.9987 38.587L24.127 36.7601L23.4534 39.7785H23.8892L24.2062 38.3487C24.2458 38.2296 24.2458 38.0707 24.2458 37.9516C24.2855 38.0707 24.3251 38.1899 24.4043 38.309L25.1572 39.8976L25.91 38.3487C25.9893 38.2296 26.0289 38.0707 26.0289 37.9516C26.0685 38.1501 26.0685 38.309 26.1082 38.3487ZM29.8328 39.7785H30.3479L28.9611 36.7601L27.5743 39.7785H28.0101L28.3667 39.0239H29.5158L29.8328 39.7785ZM28.5252 38.6267H29.3177L29.0403 37.9516C29.0007 37.8721 28.9611 37.753 28.9215 37.6339C28.8818 37.7927 28.8422 37.8721 28.8026 37.9516L28.5252 38.6267ZM22.859 20.3186V31.5179H19.0551V23.2971H17.1928V33.3845H28.446C29.1196 33.3845 29.5555 33.2653 29.7932 32.9873C29.9913 32.7093 30.1498 32.4313 30.2291 32.1136C30.3083 31.7959 30.3479 31.4385 30.3479 31.1208V23.3368H28.4856V30.7236C28.4856 31.0016 28.446 31.2002 28.3271 31.3591C28.2082 31.4782 27.9309 31.5576 27.4158 31.5576H24.761V20.3583H22.859V20.3186ZM30.3876 56.776C30.3876 56.8157 30.3479 56.8952 30.3479 56.9349C30.5857 57.0143 30.8234 57.0937 31.0612 57.1732C31.0612 57.2129 31.0612 57.2526 31.0612 57.2526C30.9027 57.2526 30.7442 57.2923 30.5064 57.332C30.5857 57.4512 30.6649 57.61 30.6649 57.61C30.9423 57.4909 31.2197 57.332 31.497 57.1732C31.497 57.0937 31.4574 57.054 31.4574 56.9746C31.1008 56.8952 30.7442 56.8157 30.3876 56.776ZM37.4406 56.6172C37.3614 56.6569 37.1236 56.6966 37.1236 56.7363C37.1236 56.9746 37.1633 57.2129 37.2029 57.4114C37.2029 57.4909 37.401 57.4909 37.5199 57.5306C37.5199 57.4115 37.5595 57.332 37.5199 57.2129C37.5199 57.054 37.4803 56.8952 37.4406 56.6172ZM53.0525 18.9683C52.8544 18.8889 52.6959 18.73 52.6562 18.7697C52.5374 18.8492 52.4185 19.0477 52.4581 19.1272C52.5374 19.2463 52.6959 19.286 52.8544 19.4051C52.894 19.286 52.9732 19.1669 53.0525 18.9683Z" fill="white"/>
<path fill-rule="evenodd" clip-rule="evenodd" d="M37.7972 44.6236V43.0747H38.0746V39.7785H50.7939V43.0747H51.0317V44.6236H37.7972ZM41.6408 41.2876H40.0162V43.0747H41.6408V41.2876ZM45.2862 43.0747V41.2876H43.4635V43.0747H45.2862ZM48.9712 43.0747V41.2876H47.1089V43.0747H48.9712ZM38.035 39.1033V31.1208H43.622V37.2368C43.622 37.4353 43.5823 37.7133 43.5427 38.0311C43.5031 38.3488 43.3446 38.5871 43.1069 38.7856C42.8691 38.9842 42.3936 39.0636 41.6011 39.0636H38.035V39.1033ZM41.7993 34.2979V32.63H39.8577V34.2979H41.7993ZM41.7993 35.8071H39.8577V37.5942H41.0068C41.3238 37.5942 41.5219 37.5545 41.6408 37.4751C41.7596 37.3956 41.7993 37.2368 41.7993 37.0779V35.8071ZM50.8335 31.0811V37.753C50.8335 38.031 50.7939 38.309 50.675 38.5473C50.5958 38.7856 50.4373 38.9842 50.1996 39.143C50.0014 39.3019 49.4071 39.3813 48.4561 39.3813H47.624V37.8325H48.3372C48.575 37.8325 48.7731 37.7928 48.8523 37.7133C48.9316 37.6339 48.9712 37.5148 48.9712 37.3956V37.1573H46.1183V37.8722C46.1183 38.031 46.1183 38.2296 46.0787 38.4679C46.039 38.7062 45.9598 38.9047 45.7617 39.1033C45.6032 39.3019 45.2466 39.421 44.7314 39.421H43.8597V37.9516H44.0182C44.2163 37.9516 44.3352 37.7928 44.3352 37.4353V31.0811H50.8335ZM46.1579 34.9333V35.6879H49.0108V34.9333H46.1579ZM46.2372 32.5505V33.4639H49.0108V32.5505H46.2372Z" fill="white"/>
<path fill-rule="evenodd" clip-rule="evenodd" d="M81.8592 13.6464V35.1714H87.0103C87.9613 35.1714 88.5557 35.0523 88.7538 34.814C88.9519 34.5757 89.0708 34.1785 89.0708 33.6623V19.3255H92.6766V34.3771C92.6766 34.9728 92.5973 35.5685 92.4784 36.204C92.3596 36.7997 92.0426 37.3557 91.6463 37.8322C91.2105 38.3088 90.3784 38.5471 89.0708 38.5471H67.3964V19.3255H70.9626V35.2111H78.293V13.6464H81.8592ZM99.2541 38.9442V36.1245H99.7692V30.1277H124.257V36.1245H124.693V38.9442H99.2541ZM106.624 32.868H103.494V36.1245H106.624V32.868ZM113.598 36.1245V32.868H110.151V36.1245H113.598ZM120.73 36.1245V32.868H117.125V36.1245H120.73ZM99.6504 28.8171V14.2421H110.388V25.4414C110.388 25.8386 110.349 26.3152 110.23 26.9109C110.111 27.5066 109.834 27.9434 109.398 28.3009C108.962 28.6583 107.971 28.8171 106.505 28.8171H99.6504ZM106.902 20.0403V17.0221H103.177V20.0403H106.902ZM106.902 22.7806H103.177V26.0371H105.356C105.951 26.0371 106.347 25.9577 106.545 25.7989C106.783 25.64 106.862 25.4017 106.862 25.084V22.7806H106.902ZM111.934 14.1627H124.297V26.3549C124.297 26.9109 124.217 27.3874 124.019 27.8243C123.821 28.2611 123.544 28.6186 123.108 28.9363C122.712 29.254 121.602 29.3731 119.779 29.3731H118.155V26.5137H119.542C120.017 26.5137 120.374 26.4343 120.532 26.3152C120.691 26.196 120.77 25.9974 120.77 25.7194V25.2826H115.302V26.5931C115.302 26.9108 115.262 27.2683 115.223 27.6654C115.143 28.1023 114.945 28.4994 114.628 28.8569C114.311 29.2143 113.638 29.4128 112.647 29.4128H110.983V26.7123H111.3C111.736 26.7123 111.934 26.3946 111.934 25.7989V14.1627ZM115.341 21.2317V22.6217H120.81V21.2317H115.341ZM115.421 16.8632V18.5312H120.77V16.8632H115.421ZM141.018 16.8632C141.573 16.7043 141.969 16.5058 142.167 16.2278C142.365 15.9498 142.127 15.5924 141.414 15.2349C140.701 14.8378 139.908 14.5598 139.037 14.4009C138.165 14.2024 137.452 14.1229 136.897 14.0832C136.778 14.9966 136.58 16.0689 136.303 17.3C136.025 18.5312 135.51 19.9212 134.757 21.3906C134.004 22.8997 133.172 24.1706 132.301 25.2428C131.429 26.3151 130.597 27.1889 129.883 27.9434C131.35 27.2683 132.895 26.3548 134.48 25.2428C136.065 24.1309 137.372 22.8998 138.442 21.5495C139.473 20.1992 140.146 19.1666 140.423 18.4518C140.661 17.6575 140.859 17.1412 141.018 16.8632ZM145.337 13.8449H142.841L143.514 15.1555H146.248C146.288 15.7909 146.446 16.7043 146.684 17.856C146.922 19.0078 147.516 20.3581 148.388 21.9069C149.26 23.4558 150.29 24.6869 151.399 25.64C152.509 26.5931 153.539 27.2683 154.45 27.7051C154.728 27.8243 154.926 27.8243 155.045 27.7051C155.164 27.586 155.322 27.2683 155.52 26.752C155.679 26.2357 155.996 25.7194 156.471 25.2031C156.947 24.6869 157.501 24.2897 158.096 24.0117C157.462 23.8926 156.59 23.6543 155.481 23.2571C154.371 22.86 153.182 22.1452 151.835 21.1523C150.528 20.1595 149.537 19.1269 148.903 18.0546C148.269 17.0221 147.833 16.1087 147.635 15.3541C148.071 15.1952 148.467 15.0364 148.784 14.7981C149.101 14.5598 149.141 14.2818 148.943 14.0038C148.705 13.6861 148.348 13.4478 147.833 13.2492C147.318 13.0507 146.882 12.8918 146.486 12.7727L145.337 13.8449ZM144.188 25.7194L138.957 35.2508H149.854C149.775 35.0125 149.656 34.6551 149.497 34.258C149.339 33.8608 149.062 33.3843 148.626 32.868C148.229 32.312 147.794 31.8751 147.358 31.478C146.922 31.0808 146.526 30.7631 146.209 30.4851C146.961 30.5646 147.833 30.7234 148.745 30.9617C149.695 31.2 150.607 31.6368 151.439 32.1928C152.311 32.7488 152.905 33.3048 153.301 33.7814C153.698 34.2976 153.975 34.6948 154.133 35.0125C154.371 35.6083 154.371 36.3231 154.213 37.0379C154.054 37.7925 153.579 38.2691 152.865 38.5073C152.152 38.7456 151.558 38.6265 151.082 38.1499C150.607 37.6733 150.329 37.1174 150.25 36.4819L134.361 38.6265C134.123 38.8648 133.886 38.9839 133.569 38.9442C133.252 38.9045 132.974 38.5471 132.697 37.9513C132.419 37.3556 132.221 36.76 132.102 36.204C131.984 35.648 131.904 35.2508 131.865 34.9728L137.531 35.1714L140.265 22.8203C141.137 23.0189 142.048 23.2175 142.999 23.4955C143.95 23.7735 144.663 24.0514 145.059 24.3692C145.495 24.6869 145.535 24.9649 145.218 25.1634C144.98 25.4812 144.584 25.64 144.188 25.7194ZM169.587 31.3588H170.934V37.8322H169.587V31.3588ZM175.015 31.3588H176.362V37.8322H175.015V31.3588ZM180.483 31.3588H181.831V37.8322H180.483V31.3588ZM172.083 15.5527C172.479 15.3541 172.717 15.0761 172.876 14.8378C173.034 14.5598 172.836 14.3215 172.321 14.0435C171.806 13.8052 171.132 13.6066 170.379 13.4875C169.626 13.3684 168.992 13.2493 168.438 13.1698C168.24 13.7655 167.962 14.4804 167.566 15.3541C167.17 16.2278 166.615 17.2206 165.862 18.3724C165.109 19.5241 164.356 20.4772 163.604 21.3112C162.851 22.1452 162.177 22.8203 161.622 23.3763C162.454 23.0983 163.445 22.6614 164.554 22.0657C165.664 21.47 166.813 20.7155 167.962 19.802C169.111 18.8489 169.983 18.0149 170.617 17.3C171.251 16.5455 171.726 15.9895 172.083 15.5527ZM179.096 17.7369C179.334 17.9355 179.612 18.1738 179.968 18.4518C180.325 18.7695 180.642 19.0872 180.919 19.4446C181.197 19.802 181.315 20.0403 181.276 20.1595C181.236 20.2786 181.078 20.3581 180.919 20.3581H170.696L170.023 19.0475H177.274L179.096 17.7369ZM176.6 24.2103H180.444C180.563 24.528 180.761 24.9649 181.078 25.5209C181.395 26.0769 181.949 26.7123 182.702 27.4669C183.455 28.2214 184.248 28.8172 185 29.254C185.793 29.6909 186.467 30.0483 187.021 30.2469C187.259 30.366 187.497 30.366 187.735 30.2071C187.972 30.088 188.25 29.7703 188.487 29.3334C188.765 28.8568 189.002 28.4597 189.24 28.1023C189.478 27.7449 189.716 27.5463 189.953 27.4271C189.518 27.4271 188.884 27.3874 188.131 27.2683C187.378 27.1492 186.506 26.9109 185.476 26.5534C184.485 26.1563 183.653 25.7592 183.019 25.3223C182.385 24.8855 181.87 24.528 181.553 24.1706L182.702 23.7337C182.94 23.6146 183.099 23.4955 183.138 23.2969C183.217 23.0983 183.099 22.8997 182.782 22.6614C182.465 22.4232 182.108 22.1849 181.672 22.026C181.236 21.8275 180.919 21.7083 180.642 21.5892L179.295 22.8998H175.887L176.6 24.2103ZM172.519 24.6471C172.955 24.4486 173.272 24.1706 173.47 23.9323C173.708 23.6543 173.549 23.416 173.074 23.138C172.598 22.8998 171.925 22.7012 171.092 22.582C170.26 22.4629 169.507 22.3438 168.874 22.3041C168.715 22.7012 168.477 23.2175 168.121 23.8926C167.764 24.5678 167.17 25.4017 166.338 26.3946C165.505 27.3874 164.713 28.2612 163.841 29.0554C162.97 29.8497 162.256 30.4851 161.583 30.9617C161.82 30.922 162.098 30.8822 162.454 30.8028C162.811 30.7234 163.207 30.644 163.683 30.4851C164.158 30.366 164.515 30.2468 164.792 30.1277C165.07 30.0086 165.307 29.9291 165.466 29.8497V38.5073H161.622L162.534 39.8179H189.557C189.676 39.8179 189.755 39.7385 189.755 39.5399C189.755 39.3413 189.676 39.0634 189.399 38.5868C189.161 38.1499 188.884 37.7131 188.527 37.3556C188.21 36.9982 187.933 36.7202 187.695 36.5613L185.872 37.6337V31.9942C186.15 31.8354 186.348 31.6766 186.467 31.4383C186.585 31.2 186.506 30.8823 186.15 30.5248C185.793 30.1277 185.357 29.7703 184.802 29.4526C184.248 29.0951 183.772 28.8171 183.336 28.5391L181.751 30.0483H169.706L166.773 29.4128C167.051 29.2143 167.407 28.976 167.883 28.6185C168.358 28.2611 168.913 27.8243 169.626 27.2683C170.3 26.7123 170.894 26.196 171.37 25.7592C171.885 25.3223 172.281 24.9251 172.519 24.6471ZM176.164 15.7909H180.483C180.602 16.1881 180.84 16.7441 181.157 17.4192C181.514 18.0943 182.068 18.8886 182.861 19.802C183.653 20.7155 184.446 21.4303 185.238 21.9466C186.031 22.5026 186.704 22.8998 187.299 23.138C187.536 23.2175 187.735 23.1777 187.933 23.0189C188.131 22.86 188.329 22.5423 188.527 22.0657C188.725 21.5892 189.002 21.1523 189.28 20.7552C189.597 20.3581 189.914 20.08 190.231 19.8815C189.795 19.8417 189.161 19.7623 188.408 19.6035C187.655 19.4446 186.784 19.1666 185.753 18.69C184.763 18.2135 183.931 17.6972 183.297 17.1412C182.663 16.5455 182.148 16.0292 181.831 15.5527L182.742 15.1158C182.94 15.0363 183.059 14.9172 183.099 14.7981C183.138 14.6392 183.019 14.4804 182.742 14.2421C182.425 14.0038 182.068 13.8052 181.672 13.6067C181.276 13.4081 180.959 13.289 180.681 13.1698L179.334 14.4804H175.491L176.164 15.7909ZM196.769 12.9713V20.3183H193.599L194.035 21.6289H196.769V38.9442C196.769 39.1428 196.927 39.3811 197.284 39.5797C197.641 39.7782 198.116 39.8179 198.829 39.7385C199.503 39.659 200.018 39.4208 200.375 39.1031C200.731 38.7456 200.89 38.4279 200.89 38.1102V21.6686H204.733C205.011 21.6686 205.169 21.5892 205.288 21.47C205.367 21.3112 205.248 21.0729 204.931 20.6757C204.575 20.2786 204.218 19.9609 203.782 19.6035C203.346 19.2858 202.99 19.0078 202.712 18.8489L201.365 20.3581H200.929V14.957C201.167 14.7584 201.326 14.4804 201.444 14.2421C201.563 13.9641 201.405 13.7258 200.929 13.5272C200.493 13.3286 199.859 13.1698 199.067 13.1301C198.195 12.9712 197.482 12.9713 196.769 12.9713ZM209.29 12.7329C209.845 12.7726 210.479 12.8124 211.192 12.8918C211.905 12.9712 212.46 13.0904 212.935 13.2492C213.371 13.4081 213.609 13.567 213.53 13.7655C213.49 13.9641 213.332 14.1229 213.173 14.2421C213.133 14.4009 213.094 14.5598 213.015 14.7981C212.975 14.9967 212.896 15.2349 212.817 15.5129C212.737 15.7512 212.658 15.9498 212.618 16.1086C212.579 16.2675 212.5 16.3469 212.46 16.4264H216.105L217.69 14.9172C218.007 15.1158 218.364 15.3144 218.8 15.6321C219.236 15.9101 219.592 16.2278 219.909 16.5852C220.226 16.9426 220.305 17.1809 220.226 17.3795C220.147 17.5781 219.988 17.6972 219.751 17.7766C219.751 18.4518 219.632 19.2858 219.434 20.1992C219.236 21.1126 218.76 21.9863 218.007 22.7806C217.254 23.5749 216.462 24.1309 215.63 24.3692C214.758 24.6074 214.045 24.7266 213.371 24.7266C213.332 24.528 213.292 24.3294 213.213 24.0117C213.134 23.7337 212.975 23.416 212.777 23.0189C212.539 22.6614 212.301 22.3835 211.984 22.1452C211.667 21.9466 211.39 21.748 211.113 21.6686C211.588 21.7083 212.183 21.7083 212.817 21.6686C213.451 21.6289 214.084 21.4303 214.639 21.0332C215.194 20.636 215.59 20.1198 215.788 19.5241C215.986 18.9284 216.105 18.3326 216.145 17.7766H212.064C211.826 18.4915 211.39 19.3255 210.756 20.2786C210.122 21.2317 209.171 22.1055 207.903 22.9395C206.635 23.7735 205.486 24.3294 204.416 24.6074C203.346 24.8854 202.514 25.084 201.841 25.1634C202.316 24.9649 202.95 24.5678 203.703 24.0912C204.456 23.5749 205.248 22.8997 206.12 21.9863C206.992 21.0729 207.626 20.2786 208.022 19.5638C208.458 18.8489 208.735 18.2532 208.894 17.8163H204.139L203.465 16.5058H209.131C209.171 16.3072 209.211 16.1087 209.29 15.7909C209.33 15.5129 209.409 15.1555 209.448 14.7186C209.488 14.3215 209.488 13.9244 209.488 13.6067C209.33 13.2492 209.33 12.9712 209.29 12.7329ZM203.584 25.084C204.06 25.1237 204.614 25.1634 205.209 25.2031C205.803 25.2429 206.279 25.3223 206.596 25.4414C206.952 25.5606 207.071 25.6797 206.952 25.7989C206.873 25.918 206.714 26.0371 206.516 26.1563V28.7377H208.101L209.25 27.4271C209.369 27.4668 209.488 27.5463 209.686 27.6257C209.845 27.7448 210.043 27.864 210.241 28.0626C210.439 28.2612 210.637 28.3803 210.756 28.4994C210.875 28.6186 210.994 28.698 211.073 28.698H213.569V25.0046C214.005 25.0046 214.52 25.0046 215.115 25.0443C215.669 25.0443 216.145 25.1635 216.541 25.2826C216.937 25.4415 217.096 25.6003 217.056 25.8386C217.017 26.0768 216.937 26.3152 216.779 26.5137V28.698H217.928L219.751 27.3874C219.988 27.6257 220.266 27.9434 220.583 28.3009C220.9 28.6583 221.177 29.0554 221.375 29.4526C221.573 29.8497 221.653 30.1674 221.534 30.366C221.455 30.5645 221.296 30.7631 221.098 30.8426C221.098 32.034 221.019 33.3048 220.86 34.6154C220.702 35.9657 220.345 37.0776 219.751 37.9513C219.156 38.825 218.522 39.3413 217.809 39.5002C217.096 39.6591 216.462 39.6988 215.868 39.6988C215.868 39.5002 215.868 39.3017 215.828 38.9839C215.828 38.7059 215.749 38.3882 215.63 37.9911C215.511 37.6337 215.392 37.3556 215.194 37.1174C215.035 36.9188 214.877 36.7202 214.718 36.6408C215.154 36.6805 215.669 36.6408 216.185 36.6011C216.7 36.5217 217.136 36.1642 217.453 35.4891C217.809 34.814 218.007 33.98 218.047 32.9077C218.087 31.8751 218.126 30.8823 218.126 29.9291H216.779C216.779 30.7631 216.66 31.756 216.383 32.9474C216.105 34.1388 215.511 35.2905 214.56 36.4422C213.609 37.5939 212.579 38.3882 211.509 38.8648C210.399 39.3016 209.448 39.5796 208.616 39.6988C209.33 39.1825 210.082 38.5471 210.875 37.7528C211.667 36.9585 212.262 36.0054 212.737 34.8934C213.213 33.7814 213.49 32.8282 213.53 31.9942C213.569 31.1602 213.609 30.4851 213.609 29.9291H210.875C210.875 30.922 210.796 32.1134 210.677 33.424C210.558 34.7345 210.201 35.9657 209.686 37.0777C209.171 38.1896 208.577 38.9045 207.903 39.2222C207.23 39.5399 206.635 39.6988 206.12 39.6988C205.962 39.6591 205.882 39.5399 205.882 39.3413C205.882 39.1428 205.882 38.8251 205.922 38.4279C205.962 38.0308 205.882 37.6336 205.645 37.3556C205.407 37.0379 205.129 36.8394 204.733 36.6805C205.09 36.7202 205.446 36.6805 205.882 36.6011C206.318 36.5217 206.714 36.1245 207.071 35.4494C207.428 34.7742 207.665 33.9005 207.745 32.868C207.824 31.8354 207.903 30.8823 207.903 29.9688H206.556C206.556 30.5248 206.516 31.2397 206.397 32.1928C206.279 33.1459 205.922 34.2183 205.248 35.4494C204.614 36.6805 203.822 37.6337 202.871 38.3882C201.92 39.1031 201.048 39.6194 200.216 39.9768C200.652 39.4605 201.127 38.8251 201.643 38.0705C202.118 37.2762 202.554 36.3628 202.871 35.2508C203.188 34.1388 203.386 33.146 203.465 32.2723C203.544 31.3986 203.584 30.644 203.624 30.0085H201.563L201.127 28.698H203.624V25.084H203.584ZM237.383 26.8314C237.383 26.6726 237.344 26.474 237.304 26.196C237.265 25.918 237.027 25.64 236.67 25.3223C236.314 25.0046 235.838 24.7663 235.323 24.6471C234.768 24.528 234.253 24.4486 233.778 24.4486C234.015 24.6074 234.213 24.7663 234.372 25.0046C234.53 25.2429 234.649 25.5209 234.689 25.7989C234.729 26.1166 234.768 26.3549 234.768 26.5534C234.768 26.752 234.847 26.9108 234.927 27.03C235.006 27.2683 235.164 27.5463 235.363 27.7846C235.6 28.0228 235.878 28.142 236.234 28.142C236.591 28.142 236.868 27.9832 237.066 27.6654C237.265 27.3874 237.383 27.1094 237.383 26.8314ZM233.302 24.2103H237.859V28.3009H233.302V24.2103ZM241.94 24.2103H246.497V28.3009H243.089L246.061 25.2826L243.089 24.4089L242.416 28.3009H241.98V24.2103H241.94ZM234.887 31.9942H244.436V33.9402H234.887V31.9942ZM234.887 35.2508H244.436V37.1968H234.887V35.2508ZM240.791 15.1158C241.584 15.5526 242.535 16.0292 243.684 16.5455C244.833 17.0618 246.101 17.5384 247.567 17.9752C249.033 18.4121 250.301 18.69 251.41 18.8489C252.52 19.0078 253.431 19.1269 254.184 19.2063C253.867 19.4049 253.59 19.6829 253.352 20.0403C253.114 20.4375 252.876 20.8346 252.678 21.3112C252.48 21.7878 252.282 22.1054 252.044 22.2643C251.807 22.4232 251.529 22.5026 251.212 22.4629C250.935 22.3834 250.618 22.2643 250.182 22.1452C249.746 21.9863 249.271 21.7878 248.716 21.5495C248.161 21.3112 247.646 21.0729 247.25 20.8346C246.854 20.636 246.497 20.4375 246.22 20.2786L246.655 21.3509H235.759L234.61 20.0403H242.772L243.921 18.7298C243.684 18.5709 243.406 18.4121 243.089 18.1738C242.772 17.9355 242.416 17.6575 242.019 17.2603C241.623 16.9029 241.267 16.5852 240.989 16.2675C240.712 15.9498 240.474 15.7115 240.276 15.4732C239.721 16.0689 238.968 16.7044 238.097 17.4192C237.225 18.1341 236.195 18.8489 235.046 19.5241C233.857 20.1992 232.866 20.7155 231.995 21.0729C231.123 21.4303 230.41 21.7083 229.855 21.9466L233.698 22.8203H246.18L247.765 21.748C248.161 21.9466 248.597 22.1452 249.191 22.4232C249.746 22.7012 250.261 23.0189 250.657 23.3763C251.093 23.7337 251.212 24.0515 251.093 24.3295C250.974 24.6075 250.776 24.806 250.459 25.0046V28.8966C250.459 29.0951 250.301 29.3731 249.984 29.6511C249.667 29.9291 249.152 30.1277 248.518 30.2866C247.844 30.4057 247.329 30.366 246.972 30.2071C246.616 30.0085 246.418 29.81 246.378 29.5717H233.223V29.7703L235.046 30.644H244.119L245.942 29.7703C246.338 29.9688 246.774 30.1674 247.289 30.4454C247.805 30.7234 248.28 31.0411 248.637 31.3588C248.993 31.7162 249.112 31.9943 248.993 32.2326C248.874 32.4708 248.676 32.6694 248.438 32.7885V37.7528C248.438 38.0705 248.28 38.4279 247.923 38.7854C247.567 39.1428 247.052 39.381 246.378 39.5399C245.704 39.6988 245.189 39.6988 244.833 39.5399C244.476 39.381 244.318 39.2222 244.318 39.0634V38.4279H234.768C234.768 38.6265 234.61 38.8648 234.253 39.1428C233.896 39.381 233.421 39.5796 232.708 39.6591C232.034 39.7385 231.519 39.7385 231.162 39.5797C230.806 39.4208 230.647 39.2619 230.647 39.1031V30.7234C230.489 30.7234 230.33 30.7234 230.132 30.6837C229.934 30.6837 229.776 30.6043 229.617 30.4454C229.459 30.2866 229.379 30.1277 229.34 29.8894C229.3 29.6511 229.3 29.4128 229.3 29.2143V22.0657C229.062 22.1452 228.785 22.2246 228.428 22.3041C228.072 22.3835 227.676 22.4629 227.24 22.5423C226.804 22.6218 226.368 22.6614 226.051 22.6614C225.694 22.6614 225.417 22.7012 225.179 22.7012C225.853 22.4232 226.764 21.9466 227.913 21.3509C229.062 20.7552 230.37 19.8417 231.836 18.69C233.302 17.5383 234.412 16.4264 235.244 15.3938C236.076 14.3612 236.631 13.4478 236.987 12.7329C237.621 12.8124 238.414 12.8918 239.285 13.011C240.197 13.1301 240.91 13.2889 241.425 13.5272C241.98 13.7655 242.099 14.0435 241.821 14.3215C241.742 14.5995 241.346 14.8775 240.791 15.1158Z" fill="white"/>
</g>
<defs>
<filter id="filter0_d_655_323" x="0" y="0" width="262.184" height="66" filterUnits="userSpaceOnUse" color-interpolation-filters="sRGB">
<feFlood flood-opacity="0" result="BackgroundImageFix"/>
<feColorMatrix in="SourceAlpha" type="matrix" values="0 0 0 0 0 0 0 0 0 0 0 0 0 0 0 0 0 0 127 0" result="hardAlpha"/>
<feOffset/>
<feGaussianBlur stdDeviation="4"/>
<feComposite in2="hardAlpha" operator="out"/>
<feColorMatrix type="matrix" values="0 0 0 0 0.25 0 0 0 0 0.25 0 0 0 0 0.25 0 0 0 1 0"/>
<feBlend mode="normal" in2="BackgroundImageFix" result="effect1_dropShadow_655_323"/>
<feBlend mode="normal" in="SourceGraphic" in2="effect1_dropShadow_655_323" result="shape"/>
</filter>
</defs>
</svg>
