<svg width="178" height="36" viewBox="0 0 178 36" fill="none" xmlns="http://www.w3.org/2000/svg">
<path fill-rule="evenodd" clip-rule="evenodd" d="M44.1634 28.5421H45.3045V27.9416H42.309V28.5421H43.4501V32.2879H44.1634V28.5421ZM68.9268 28.9996L68.9553 28.2847C68.5274 27.9988 68.0709 27.8272 67.5574 27.8272C66.9012 27.8272 66.3306 28.056 65.9027 28.4849C65.4747 28.9138 65.2465 29.4857 65.2465 30.1148C65.2465 30.7438 65.4747 31.3443 65.9027 31.7447C66.3306 32.1736 66.9012 32.4023 67.5574 32.4023C68.0709 32.4023 68.5274 32.2593 68.8983 32.002V31.2014C68.4703 31.5731 68.0138 31.7447 67.5003 31.7447C66.6444 31.7447 65.9597 31.087 65.9597 30.1148C65.9597 29.1426 66.6159 28.4563 67.5574 28.4563C68.0709 28.4849 68.5274 28.6565 68.9268 28.9996ZM104.046 30.1434L104.531 32.2879H105.188L104.132 27.7701L102.877 30.5151C102.82 30.6581 102.705 30.8582 102.62 31.1156C102.506 30.801 102.42 30.6009 102.392 30.5151L101.108 27.7701L100.081 32.2879H100.737L101.193 30.1434C101.222 29.9432 101.279 29.7431 101.279 29.5429C101.336 29.7431 101.393 29.9146 101.479 30.0862L102.62 32.4595L103.761 30.1434C103.847 29.9432 103.932 29.7431 103.961 29.5429C104.018 29.8574 104.046 30.0576 104.046 30.1434ZM153.288 32.2879H154.03L151.918 27.7701L149.807 32.2879H150.549L151.063 31.1728H152.774L153.288 32.2879ZM151.348 30.5723L151.804 29.5715C151.861 29.4571 151.918 29.2856 151.976 29.0854C152.033 29.3141 152.09 29.4571 152.147 29.5715L152.603 30.5723H151.348ZM46.6454 30.1148L45.9036 29.9718C45.9892 29.6573 46.1319 29.4285 46.3316 29.2855C46.5313 29.1426 46.8451 29.0568 47.2445 29.0568C47.6154 29.0568 47.9007 29.114 48.0719 29.1998C48.2431 29.2856 48.3857 29.3999 48.4428 29.5429C48.5283 29.6859 48.5569 29.9146 48.5569 30.2863V31.2585C48.5569 31.5445 48.5569 31.7446 48.5854 31.859C48.6139 31.9734 48.671 32.1449 48.7281 32.2879H47.9007C47.8722 32.2307 47.8436 32.145 47.8151 32.0306C47.8151 31.9734 47.7866 31.9448 47.7866 31.9448C47.6439 32.0878 47.5013 32.2021 47.3301 32.2593C47.1589 32.3165 46.9878 32.3737 46.8166 32.3737C46.5028 32.3737 46.246 32.2879 46.0463 32.1164C45.8466 31.9448 45.761 31.7161 45.761 31.4587C45.761 31.2872 45.7895 31.1156 45.8751 30.9726C45.9607 30.8296 46.0748 30.7153 46.246 30.6581C46.3886 30.5723 46.6169 30.5151 46.9022 30.4579C47.3016 30.3721 47.5583 30.3149 47.701 30.2577V30.172C47.701 30.0004 47.6725 29.886 47.5869 29.8288C47.5013 29.7716 47.3586 29.7144 47.1304 29.7144C46.9878 29.7144 46.8736 29.7431 46.7881 29.8002C46.7595 29.8574 46.7025 29.9432 46.6454 30.1148ZM47.7581 30.7725C47.6439 30.801 47.4728 30.8582 47.2445 30.8868C47.0163 30.944 46.8736 30.9726 46.7881 31.0298C46.6739 31.1156 46.6169 31.2014 46.6169 31.3157C46.6169 31.4301 46.6739 31.5445 46.7595 31.6303C46.8451 31.7161 46.9592 31.7447 47.1019 31.7447C47.2445 31.7447 47.3872 31.6875 47.5298 31.6017C47.6439 31.5159 47.701 31.4301 47.7295 31.3157C47.7581 31.2586 47.7581 31.1156 47.7581 30.9154V30.7725ZM49.6125 28.7137V27.9416H50.4398V28.7137H49.6125ZM49.6125 32.2879V29.114H50.4398V32.2879H49.6125ZM52.123 32.2879L51.1245 29.114H51.9233L52.5224 31.1728L53.0645 29.114H53.8633L54.3769 31.1728L54.976 29.114H55.8033L54.7763 32.2879H53.9774L53.4354 30.2577L52.8933 32.2879H52.123ZM57.1157 30.1148L56.3739 29.9718C56.4595 29.6573 56.6021 29.4285 56.8018 29.2855C57.0015 29.1426 57.3154 29.0568 57.7148 29.0568C58.0857 29.0568 58.3709 29.114 58.5421 29.1998C58.7133 29.2856 58.8559 29.3999 58.913 29.5429C58.9986 29.6859 59.0271 29.9146 59.0271 30.2863V31.2585C59.0271 31.5445 59.0271 31.7446 59.0557 31.859C59.0842 31.9734 59.1412 32.1449 59.1983 32.2879H58.371C58.3424 32.2307 58.3139 32.145 58.2854 32.0306C58.2854 31.9734 58.2568 31.9448 58.2568 31.9448C58.1142 32.0878 57.9715 32.2021 57.8004 32.2593C57.6292 32.3165 57.458 32.3737 57.2868 32.3737C56.973 32.3737 56.7162 32.2879 56.5165 32.1164C56.3168 31.9448 56.2313 31.7161 56.2313 31.4587C56.2313 31.2872 56.2598 31.1156 56.3454 30.9726C56.431 30.8296 56.5451 30.7153 56.7163 30.6581C56.8589 30.5723 57.0871 30.5151 57.3724 30.4579C57.7718 30.3721 58.0286 30.3149 58.1712 30.2577V30.172C58.1712 30.0004 58.1427 29.886 58.0571 29.8288C57.9715 29.7716 57.8289 29.7144 57.6007 29.7144C57.458 29.7144 57.3439 29.7431 57.2583 29.8002C57.2298 29.8574 57.1442 29.9432 57.1157 30.1148ZM58.2283 30.7725C58.1142 30.801 57.943 30.8582 57.7148 30.8868C57.4865 30.944 57.3439 30.9726 57.2583 31.0298C57.1442 31.1156 57.0871 31.2014 57.0871 31.3157C57.0871 31.4301 57.1442 31.5445 57.2298 31.6303C57.3154 31.7161 57.4295 31.7447 57.5721 31.7447C57.7148 31.7447 57.8574 31.6875 58.0001 31.6017C58.1142 31.5159 58.1712 31.4301 58.1998 31.3157C58.2283 31.2586 58.2283 31.1156 58.2283 30.9154V30.7725ZM62.1368 32.2879V30.6867C62.1368 30.3435 62.1083 30.1148 62.0798 30.029C62.0512 29.9146 61.9942 29.8574 61.9086 29.8002C61.823 29.7431 61.7374 29.7144 61.6233 29.7144C61.4806 29.7144 61.338 29.743 61.2239 29.8288C61.1098 29.9146 61.0242 30.0004 60.9956 30.1434C60.9386 30.2863 60.9386 30.5151 60.9386 30.8582V32.2879H60.1112V29.114H60.8815V29.5715C61.1668 29.2283 61.5092 29.0282 61.9371 29.0282C62.1083 29.0282 62.2795 29.0568 62.4506 29.114C62.5933 29.1712 62.7074 29.257 62.793 29.3713C62.8786 29.4857 62.9356 29.6001 62.9642 29.7144C62.9927 29.8574 63.0212 30.029 63.0212 30.2863V32.2879H62.1368ZM69.9824 32.2879V27.913H70.8097V32.2879H69.9824ZM71.8938 28.7137V27.9416H72.7212V28.7137H71.8938ZM71.8938 32.2879V29.114H72.7212V32.2879H71.8938ZM73.7482 29.1426H74.5185V29.5715C74.8038 29.2283 75.1176 29.0854 75.4885 29.0854C75.6882 29.0854 75.8594 29.114 76.002 29.1998C76.1447 29.2856 76.2588 29.3999 76.3729 29.5715C76.5156 29.3999 76.6582 29.2856 76.8294 29.1998C77.0006 29.114 77.1718 29.0854 77.3429 29.0854C77.5712 29.0854 77.7709 29.1426 77.942 29.2284C78.1132 29.3141 78.2273 29.4571 78.3129 29.6573C78.37 29.8002 78.3985 30.0004 78.3985 30.315V32.3451H77.5712V30.5437C77.5712 30.2292 77.5426 30.029 77.4856 29.9432C77.4 29.8288 77.2859 29.7717 77.1432 29.7717C77.0291 29.7717 76.915 29.8003 76.8009 29.886C76.6868 29.9718 76.6297 30.0576 76.5726 30.2006C76.5156 30.3435 76.5156 30.5437 76.5156 30.8582V32.3737H75.6882V30.6295C75.6882 30.3149 75.6597 30.1148 75.6312 30.029C75.6026 29.9432 75.5456 29.886 75.4885 29.8288C75.4315 29.7716 75.3459 29.7717 75.2318 29.7717C75.0891 29.7717 74.975 29.8003 74.8894 29.886C74.7753 29.9432 74.7182 30.0576 74.6612 30.2006C74.6041 30.3435 74.6041 30.5437 74.6041 30.8582V32.4023H73.7482V29.1426ZM79.397 32.2879V27.913H80.2244V29.4857C80.4811 29.1998 80.795 29.0568 81.1373 29.0568C81.5082 29.0568 81.8506 29.1998 82.0788 29.4857C82.3356 29.7717 82.4497 30.172 82.4497 30.6867C82.4497 31.2299 82.3356 31.6303 82.0788 31.9448C81.822 32.2307 81.5082 32.3737 81.1373 32.3737C80.9661 32.3737 80.7664 32.3165 80.5953 32.2307C80.4241 32.145 80.2814 32.002 80.1388 31.8304V32.2879H79.397ZM80.1958 30.6581C80.1958 30.9726 80.2529 31.23 80.3385 31.3729C80.4811 31.6017 80.6808 31.716 80.9091 31.716C81.0803 31.716 81.2514 31.6303 81.3941 31.4873C81.5367 31.3157 81.5938 31.087 81.5938 30.7439C81.5938 30.3721 81.5367 30.1148 81.3941 29.9718C81.2514 29.8002 81.1088 29.7431 80.8805 29.7431C80.6808 29.7431 80.5097 29.8288 80.367 29.9718C80.2814 30.0862 80.1958 30.3435 80.1958 30.6581ZM83.3626 28.7137V27.9416H84.1899V28.7137H83.3626ZM83.3626 32.2879V29.114H84.1899V32.2879H83.3626ZM87.2996 32.2879V30.6867C87.2996 30.3435 87.2711 30.1148 87.2426 30.029C87.2141 29.9146 87.157 29.8574 87.0714 29.8002C86.9858 29.7431 86.9002 29.7144 86.7861 29.7144C86.6435 29.7144 86.5008 29.743 86.3867 29.8288C86.2726 29.9146 86.187 30.0004 86.1585 30.1434C86.1014 30.2863 86.1014 30.5151 86.1014 30.8582V32.2879H85.2741V29.114H86.0444V29.5715C86.3297 29.2283 86.672 29.0282 87.0999 29.0282C87.2711 29.0282 87.4423 29.0568 87.6135 29.114C87.7561 29.1712 87.8702 29.257 87.9558 29.3713C88.0414 29.4857 88.0985 29.6001 88.127 29.7144C88.1555 29.8574 88.184 30.029 88.184 30.2863V32.2879H87.2996ZM89.1255 32.4881L90.067 32.6025C90.0955 32.7169 90.124 32.8026 90.1811 32.8312C90.2667 32.8884 90.3808 32.917 90.552 32.917C90.7802 32.917 90.9229 32.8884 91.037 32.8312C91.1226 32.774 91.1796 32.7169 91.2082 32.6311C91.2367 32.5739 91.2367 32.4309 91.2367 32.2593V31.8018C90.9799 32.145 90.6661 32.3165 90.2952 32.3165C89.8673 32.3165 89.5249 32.145 89.2967 31.7732C89.097 31.4873 89.0114 31.1442 89.0114 30.7152C89.0114 30.172 89.1255 29.7717 89.3823 29.5143C89.639 29.2284 89.9529 29.0854 90.3237 29.0854C90.7232 29.0854 91.037 29.257 91.2937 29.6001V29.1426H92.064V31.9734C92.064 32.3451 92.0355 32.6311 91.9784 32.8026C91.9214 32.9742 91.8358 33.1458 91.7217 33.2315C91.6076 33.3459 91.4649 33.4317 91.2652 33.4889C91.094 33.5461 90.8373 33.5747 90.552 33.5747C90.0099 33.5747 89.639 33.4889 89.4108 33.2887C89.1826 33.1171 89.0685 32.8598 89.0685 32.5739C89.1255 32.5739 89.1255 32.5453 89.1255 32.4881ZM89.8673 30.6581C89.8673 31.0012 89.9243 31.2299 90.067 31.4015C90.2096 31.5445 90.3523 31.6303 90.552 31.6303C90.7517 31.6303 90.9229 31.5445 91.0655 31.4015C91.2082 31.2299 91.2652 31.0012 91.2652 30.6867C91.2652 30.3721 91.2082 30.1148 91.0655 29.9718C90.9229 29.8002 90.7517 29.7431 90.552 29.7431C90.3523 29.7431 90.1811 29.8288 90.067 29.9718C89.9243 30.0862 89.8673 30.3435 89.8673 30.6581ZM98.3405 31.7732L97.827 32.4309C97.5702 32.3165 97.3419 32.145 97.1137 31.9448C96.9425 32.1164 96.7428 32.2307 96.5431 32.2879C96.3434 32.3737 96.1152 32.4023 95.8299 32.4023C95.2878 32.4023 94.8884 32.2593 94.6031 31.9448C94.4034 31.7161 94.2893 31.4301 94.2893 31.1156C94.2893 30.8296 94.3749 30.5723 94.5461 30.3721C94.7172 30.1434 94.974 29.9432 95.2878 29.8002C95.1452 29.6287 95.0311 29.4571 94.9455 29.2855C94.8599 29.114 94.8314 28.971 94.8314 28.828C94.8314 28.5707 94.9455 28.3419 95.1452 28.1418C95.3449 27.9702 95.6587 27.8558 96.0581 27.8558C96.429 27.8558 96.7143 27.9416 96.9425 28.1418C97.1422 28.3419 97.2564 28.5707 97.2564 28.8566C97.2564 29.0282 97.1993 29.1998 97.1137 29.3713C96.9996 29.5429 96.7999 29.7145 96.4861 29.9146L97.0852 30.7152C97.1422 30.6009 97.2278 30.4293 97.2564 30.2292L98.0267 30.4007C97.9411 30.6581 97.884 30.8582 97.827 31.0012C97.7699 31.1156 97.7128 31.23 97.6558 31.3157C97.7414 31.4015 97.884 31.4873 98.0267 31.6017C98.1693 31.6589 98.2834 31.7447 98.3405 31.7732ZM96.0581 29.3999L96.2864 29.2284C96.4575 29.0854 96.5431 28.971 96.5431 28.8566C96.5431 28.7423 96.5146 28.6565 96.429 28.5707C96.3434 28.4849 96.2293 28.4563 96.1152 28.4563C95.9725 28.4563 95.8869 28.4849 95.8014 28.5421C95.7158 28.5993 95.6872 28.6851 95.6872 28.7709C95.6872 28.8852 95.7443 28.9996 95.887 29.1426L96.0581 29.3999ZM95.7443 30.2863C95.5446 30.3721 95.402 30.5151 95.3164 30.6295C95.2308 30.7725 95.1737 30.9154 95.1737 31.0584C95.1737 31.23 95.2308 31.4015 95.3449 31.4873C95.459 31.6017 95.6302 31.6589 95.8299 31.6589C95.9725 31.6589 96.0867 31.6303 96.2008 31.5731C96.3149 31.5159 96.4575 31.4301 96.6002 31.3157L95.7443 30.2863ZM105.73 30.6867C105.73 30.4007 105.787 30.1434 105.929 29.886C106.072 29.6287 106.272 29.4285 106.5 29.2855C106.757 29.1426 107.042 29.0854 107.327 29.0854C107.812 29.0854 108.183 29.2284 108.497 29.5429C108.811 29.8574 108.953 30.2577 108.953 30.7152C108.953 31.2013 108.811 31.6017 108.497 31.9162C108.183 32.2308 107.812 32.4023 107.327 32.4023C107.042 32.4023 106.757 32.3451 106.5 32.2022C106.243 32.0592 106.043 31.8876 105.901 31.6303C105.815 31.3443 105.73 31.0298 105.73 30.6867ZM106.614 30.7152C106.614 31.0298 106.7 31.2585 106.842 31.4301C106.985 31.6017 107.185 31.6875 107.384 31.6875C107.612 31.6875 107.784 31.6017 107.926 31.4301C108.069 31.2585 108.155 31.0298 108.155 30.7152C108.155 30.4007 108.069 30.172 107.926 30.0004C107.784 29.8288 107.584 29.7431 107.384 29.7431C107.156 29.7431 106.985 29.8288 106.842 30.0004C106.671 30.172 106.614 30.4007 106.614 30.7152ZM111.949 32.2879V31.8018C111.835 31.9734 111.692 32.1164 111.492 32.2022C111.293 32.2879 111.122 32.3451 110.893 32.3451C110.694 32.3451 110.494 32.2879 110.323 32.2022C110.152 32.1164 110.037 31.9734 109.952 31.8018C109.866 31.6303 109.838 31.4015 109.838 31.087V29.0854H110.665V30.5437C110.665 31.0012 110.694 31.2585 110.722 31.3729C110.751 31.4873 110.808 31.5445 110.893 31.6017C110.979 31.6589 111.065 31.6875 111.207 31.6875C111.35 31.6875 111.464 31.6588 111.578 31.5731C111.692 31.4873 111.778 31.4015 111.806 31.2871C111.835 31.1728 111.863 30.8868 111.863 30.4293V29.0854H112.691V32.2593H111.949V32.2879ZM115.857 32.2879V30.6867C115.857 30.3435 115.829 30.1148 115.8 30.029C115.772 29.9146 115.715 29.8574 115.629 29.8002C115.544 29.7431 115.458 29.7144 115.344 29.7144C115.201 29.7144 115.059 29.743 114.945 29.8288C114.83 29.9146 114.745 30.0004 114.716 30.1434C114.659 30.2863 114.659 30.5151 114.659 30.8582V32.2879H113.832V29.114H114.602V29.5715C114.887 29.2283 115.23 29.0282 115.658 29.0282C115.829 29.0282 116 29.0568 116.171 29.114C116.314 29.1712 116.428 29.257 116.514 29.3713C116.599 29.4857 116.656 29.6001 116.685 29.7144C116.713 29.8574 116.742 30.029 116.742 30.2863V32.2879H115.857ZM119.195 29.1426V29.8002H118.625V31.087C118.625 31.3443 118.625 31.4873 118.653 31.5445C118.653 31.5731 118.682 31.6303 118.739 31.6589C118.767 31.6875 118.825 31.6875 118.882 31.6875C118.967 31.6875 119.081 31.6589 119.224 31.6017L119.281 32.2593C119.081 32.3451 118.882 32.3737 118.625 32.3737C118.482 32.3737 118.339 32.3451 118.225 32.2879C118.111 32.2307 118.026 32.1736 117.969 32.0878C117.912 32.002 117.883 31.8876 117.854 31.7732C117.826 31.6875 117.826 31.4873 117.826 31.1728V29.8002H117.398V29.1426H117.769V28.5135L118.596 28.0274V29.1426H119.195ZM120.593 30.1148L119.852 29.9718C119.937 29.6573 120.08 29.4285 120.279 29.2855C120.479 29.1426 120.793 29.0568 121.192 29.0568C121.563 29.0568 121.849 29.114 122.02 29.1998C122.191 29.2856 122.334 29.3999 122.391 29.5429C122.476 29.6859 122.505 29.9146 122.505 30.2863V31.2585C122.505 31.5445 122.505 31.7446 122.533 31.859C122.562 31.9734 122.619 32.1449 122.676 32.2879H121.849C121.82 32.2307 121.792 32.145 121.763 32.0306C121.763 31.9734 121.734 31.9448 121.734 31.9448C121.592 32.0878 121.449 32.2021 121.278 32.2593C121.107 32.3165 120.936 32.3737 120.764 32.3737C120.451 32.3737 120.194 32.2879 119.994 32.1164C119.794 31.9448 119.709 31.7161 119.709 31.4587C119.709 31.2872 119.737 31.1156 119.823 30.9726C119.909 30.8296 120.023 30.7153 120.194 30.6581C120.337 30.5723 120.565 30.5151 120.85 30.4579C121.249 30.3721 121.506 30.3149 121.649 30.2577V30.172C121.649 30.0004 121.62 29.886 121.535 29.8288C121.449 29.7716 121.307 29.7144 121.078 29.7144C120.936 29.7144 120.822 29.7431 120.736 29.8002C120.736 29.8574 120.65 29.9432 120.593 30.1148ZM121.734 30.7725C121.62 30.801 121.449 30.8582 121.221 30.8868C120.993 30.944 120.85 30.9726 120.764 31.0298C120.65 31.1156 120.593 31.2014 120.593 31.3157C120.593 31.4301 120.65 31.5445 120.736 31.6303C120.822 31.7161 120.936 31.7447 121.078 31.7447C121.221 31.7447 121.364 31.6875 121.506 31.6017C121.62 31.5159 121.677 31.4301 121.706 31.3157C121.734 31.2586 121.734 31.1156 121.734 30.9154V30.7725ZM123.589 28.7137V27.9416H124.416V28.7137H123.589ZM123.589 32.2879V29.114H124.416V32.2879H123.589ZM127.554 32.2879V30.6867C127.554 30.3435 127.526 30.1148 127.497 30.029C127.469 29.9146 127.412 29.8574 127.326 29.8002C127.241 29.7431 127.155 29.7144 127.041 29.7144C126.898 29.7144 126.756 29.743 126.642 29.8288C126.527 29.9146 126.442 30.0004 126.413 30.1434C126.356 30.2863 126.356 30.5151 126.356 30.8582V32.2879H125.529V29.114H126.299V29.5715C126.584 29.2283 126.927 29.0282 127.355 29.0282C127.526 29.0282 127.697 29.0568 127.868 29.114C128.011 29.1712 128.125 29.257 128.211 29.3713C128.296 29.4857 128.353 29.6001 128.382 29.7144C128.41 29.8574 128.439 30.029 128.439 30.2863V32.2879H127.554ZM131.263 31.2871L132.091 31.4301C131.977 31.7446 131.805 31.9734 131.577 32.1164C131.349 32.2879 131.064 32.3451 130.721 32.3451C130.179 32.3451 129.78 32.1736 129.494 31.8018C129.295 31.5159 129.181 31.1442 129.181 30.7152C129.181 30.2006 129.323 29.7717 129.58 29.4857C129.865 29.1998 130.208 29.0282 130.607 29.0282C131.064 29.0282 131.434 29.1712 131.72 29.4857C131.977 29.8003 132.119 30.2864 132.119 30.9154H130.036C130.036 31.1728 130.122 31.3443 130.236 31.4873C130.35 31.6303 130.522 31.6875 130.721 31.6875C130.864 31.6875 130.949 31.6588 131.064 31.5731C131.149 31.5731 131.206 31.4587 131.263 31.2871ZM131.32 30.4579C131.32 30.2292 131.263 30.029 131.121 29.9146C131.006 29.8003 130.864 29.7144 130.693 29.7144C130.521 29.7144 130.35 29.7717 130.236 29.9146C130.122 30.0576 130.065 30.2292 130.065 30.4579H131.32ZM134.858 31.2871L135.685 31.4301C135.571 31.7446 135.4 31.9734 135.172 32.1164C134.944 32.2879 134.658 32.3451 134.316 32.3451C133.774 32.3451 133.374 32.1736 133.089 31.8018C132.889 31.5159 132.775 31.1442 132.775 30.7152C132.775 30.2006 132.918 29.7717 133.175 29.4857C133.46 29.1998 133.802 29.0282 134.202 29.0282C134.658 29.0282 135.029 29.1712 135.314 29.4857C135.571 29.8003 135.714 30.2864 135.714 30.9154H133.66C133.66 31.1728 133.745 31.3443 133.859 31.4873C133.974 31.6303 134.145 31.6875 134.344 31.6875C134.487 31.6875 134.573 31.6588 134.687 31.5731C134.744 31.5731 134.801 31.4587 134.858 31.2871ZM134.915 30.4579C134.915 30.2292 134.858 30.029 134.715 29.9146C134.601 29.8003 134.459 29.7144 134.287 29.7144C134.116 29.7144 133.945 29.7717 133.831 29.9146C133.717 30.0576 133.66 30.2292 133.66 30.4579H134.915ZM136.598 32.2879V29.114H137.369V29.5715C137.511 29.3713 137.625 29.2284 137.739 29.1426C137.854 29.0854 137.968 29.0568 138.11 29.0568C138.31 29.0568 138.481 29.114 138.652 29.2284L138.396 29.9432C138.253 29.8574 138.11 29.8002 137.996 29.8002C137.882 29.8002 137.768 29.8289 137.711 29.886C137.625 29.9432 137.568 30.0576 137.511 30.2292C137.454 30.4007 137.454 30.7438 137.454 31.2871V32.2879H136.598ZM139.223 28.7137V27.9416H140.05V28.7137H139.223ZM139.223 32.2879V29.114H140.05V32.2879H139.223ZM143.189 32.2879V30.6867C143.189 30.3435 143.16 30.1148 143.131 30.029C143.103 29.9146 143.046 29.8574 142.96 29.8002C142.875 29.7431 142.789 29.7144 142.675 29.7144C142.532 29.7144 142.39 29.743 142.276 29.8288C142.161 29.9146 142.076 30.0004 142.047 30.1434C141.99 30.2863 141.99 30.5151 141.99 30.8582V32.2879H141.163V29.114H141.933V29.5715C142.219 29.2283 142.561 29.0282 142.989 29.0282C143.16 29.0282 143.331 29.0568 143.502 29.114C143.645 29.1712 143.759 29.257 143.845 29.3713C143.93 29.4857 143.987 29.6001 144.016 29.7144C144.044 29.8574 144.073 30.029 144.073 30.2863V32.2879H143.189ZM144.986 32.4881L145.927 32.6025C145.956 32.7169 145.984 32.8026 146.041 32.8312C146.127 32.8884 146.241 32.917 146.412 32.917C146.641 32.917 146.783 32.8884 146.897 32.8312C146.983 32.774 147.04 32.7169 147.068 32.6311C147.097 32.5739 147.097 32.4309 147.097 32.2593V31.8018C146.84 32.145 146.526 32.3165 146.156 32.3165C145.728 32.3165 145.385 32.145 145.157 31.7732C144.957 31.4873 144.872 31.1442 144.872 30.7152C144.872 30.172 144.986 29.7717 145.243 29.5143C145.499 29.2284 145.813 29.0854 146.184 29.0854C146.583 29.0854 146.897 29.257 147.154 29.6001V29.1426H147.924V31.9734C147.924 32.3451 147.896 32.6311 147.839 32.8026C147.782 32.9742 147.696 33.1458 147.582 33.2315C147.468 33.3459 147.325 33.4317 147.126 33.4889C146.954 33.5461 146.698 33.5747 146.412 33.5747C145.87 33.5747 145.499 33.4889 145.271 33.2887C145.043 33.1171 144.929 32.8598 144.929 32.5739C144.986 32.5739 144.986 32.5453 144.986 32.4881ZM145.728 30.6581C145.728 31.0012 145.785 31.2299 145.927 31.4015C146.07 31.5445 146.213 31.6303 146.412 31.6303C146.612 31.6303 146.783 31.5445 146.926 31.4015C147.068 31.2299 147.126 31.0012 147.126 30.6867C147.126 30.3721 147.068 30.1148 146.926 29.9718C146.783 29.8002 146.612 29.7431 146.412 29.7431C146.213 29.7431 146.041 29.8288 145.927 29.9718C145.813 30.0862 145.728 30.3435 145.728 30.6581ZM154.629 32.2879V27.913H155.456V32.2879H154.629ZM156.54 32.2879V27.913H157.368V32.2879H156.54ZM158.452 28.7137V27.9416H159.279V28.7137H158.452ZM158.452 32.2879V29.114H159.279V32.2879H158.452ZM160.962 30.1148L160.22 29.9718C160.306 29.6573 160.449 29.4285 160.648 29.2855C160.848 29.1426 161.162 29.0568 161.561 29.0568C161.932 29.0568 162.218 29.114 162.389 29.1998C162.56 29.2856 162.703 29.3999 162.76 29.5429C162.845 29.6859 162.874 29.9146 162.874 30.2863V31.2585C162.874 31.5445 162.874 31.7446 162.902 31.859C162.931 32.002 162.988 32.1449 163.045 32.2879H162.218C162.189 32.2307 162.16 32.145 162.132 32.0306C162.132 31.9734 162.103 31.9448 162.103 31.9448C161.961 32.0878 161.818 32.2021 161.647 32.2593C161.476 32.3165 161.305 32.3737 161.133 32.3737C160.82 32.3737 160.563 32.2879 160.363 32.1164C160.163 31.9448 160.078 31.7161 160.078 31.4587C160.078 31.2872 160.106 31.1156 160.192 30.9726C160.278 30.8296 160.392 30.7153 160.563 30.6581C160.705 30.5723 160.934 30.5151 161.219 30.4579C161.618 30.3721 161.875 30.3149 162.018 30.2577V30.172C162.018 30.0004 161.989 29.886 161.904 29.8288C161.818 29.7716 161.675 29.7144 161.447 29.7144C161.305 29.7144 161.19 29.7431 161.105 29.8002C161.105 29.8574 161.019 29.9432 160.962 30.1148ZM162.103 30.7725C161.989 30.801 161.818 30.8582 161.59 30.8868C161.362 30.944 161.219 30.9726 161.133 31.0298C161.019 31.1156 160.962 31.2014 160.962 31.3157C160.962 31.4301 161.019 31.5445 161.105 31.6303C161.19 31.7161 161.305 31.7447 161.447 31.7447C161.59 31.7447 161.733 31.6875 161.875 31.6017C161.989 31.5159 162.046 31.4301 162.075 31.3157C162.103 31.2586 162.103 31.1156 162.103 30.9154V30.7725ZM165.983 32.2879V30.6867C165.983 30.3435 165.955 30.1148 165.926 30.029C165.898 29.9146 165.841 29.8574 165.755 29.8002C165.67 29.7431 165.584 29.7144 165.47 29.7144C165.327 29.7144 165.185 29.743 165.07 29.8288C164.956 29.9146 164.871 30.0004 164.842 30.1434C164.785 30.2863 164.785 30.5151 164.785 30.8582V32.2879H163.958V29.114H164.728V29.5715C165.013 29.2283 165.356 29.0282 165.784 29.0282C165.955 29.0282 166.126 29.0568 166.297 29.114C166.44 29.1712 166.554 29.257 166.64 29.3713C166.725 29.4857 166.782 29.6001 166.811 29.7144C166.839 29.8574 166.868 30.029 166.868 30.2863V32.2879H165.983ZM170.634 30.0576L169.806 30.2006C169.778 30.029 169.721 29.9146 169.607 29.8288C169.521 29.743 169.378 29.7144 169.236 29.7144C169.036 29.7144 168.865 29.8002 168.751 29.9432C168.637 30.0862 168.551 30.3149 168.551 30.6581C168.551 31.0298 168.608 31.2872 168.751 31.4587C168.865 31.6017 169.036 31.6875 169.264 31.6875C169.435 31.6875 169.55 31.6303 169.664 31.5445C169.778 31.4587 169.835 31.2871 169.892 31.087L170.719 31.23C170.634 31.6017 170.463 31.8876 170.234 32.0878C170.006 32.2879 169.664 32.3737 169.264 32.3737C168.808 32.3737 168.437 32.2307 168.152 31.9448C167.866 31.6589 167.752 31.2586 167.752 30.7439C167.752 30.2292 167.895 29.8288 168.152 29.5143C168.437 29.2284 168.808 29.0854 169.264 29.0854C169.635 29.0854 169.949 29.1712 170.177 29.3427C170.377 29.4857 170.548 29.7431 170.634 30.0576ZM173.315 31.2871L174.143 31.4301C174.029 31.7446 173.857 31.9734 173.629 32.1164C173.401 32.2879 173.116 32.3451 172.773 32.3451C172.231 32.3451 171.832 32.1736 171.547 31.8018C171.347 31.5159 171.233 31.1442 171.233 30.7152C171.233 30.2006 171.375 29.7717 171.632 29.4857C171.917 29.1998 172.26 29.0282 172.659 29.0282C173.116 29.0282 173.487 29.1712 173.772 29.4857C174.029 29.8003 174.171 30.2864 174.171 30.9154H172.089C172.089 31.1728 172.174 31.3443 172.288 31.4873C172.403 31.6303 172.574 31.6875 172.773 31.6875C172.916 31.6875 173.002 31.6588 173.116 31.5731C173.201 31.5731 173.258 31.4587 173.315 31.2871ZM173.372 30.4579C173.372 30.2292 173.315 30.029 173.173 29.9146C173.059 29.8003 172.916 29.7144 172.745 29.7144C172.574 29.7144 172.403 29.7717 172.288 29.9146C172.174 30.0576 172.117 30.2292 172.117 30.4579H173.372Z" fill="#003444"/>
<path fill-rule="evenodd" clip-rule="evenodd" d="M9.21496 2.29273C9.55731 2.17836 9.87113 1.89242 10.2135 1.72085C10.1279 1.9496 9.81407 2.12114 10.0708 2.40708C10.2705 2.29271 10.4702 2.20693 10.6985 2.09255C10.67 2.03537 10.6129 1.97819 10.5844 1.89241C10.7841 1.77803 10.9838 1.63506 11.212 1.49208C11.0979 1.26333 11.212 1.06318 11.4973 1.03459C11.5258 1.03459 11.5544 1.03459 11.6114 1.006V1.09176C11.8397 1.06317 11.5258 1.37772 11.8397 1.006L11.7826 0.920203C11.8111 0.891609 11.8682 0.891623 11.8967 0.863029C12.2676 0.748652 12.667 0.605661 13.0379 0.519878C13.152 0.491284 13.2376 0.462711 13.3517 0.434117C13.4658 0.863028 13.6655 0.863001 13.8652 0.834406C13.8082 0.662842 13.6941 0.577066 13.5229 0.376908C13.7226 0.319719 13.9223 0.291125 14.122 0.233937C14.1791 0.233937 14.2361 0.233937 14.2932 0.233937C14.5214 0.176749 14.7211 0.119561 14.9493 0.0909666C14.9493 0.0909666 14.607 0.376922 14.9493 0.176763C15.0064 0.148169 15.0635 0.0909735 15.0635 0.0623794C15.092 0.0623794 15.1205 0.0623794 15.149 0.0623794C15.4058 0.0337853 15.6626 0.0623794 15.8908 0.0623794H16.0905C16.2046 0.519885 16.4043 0.491291 16.604 0.491291C16.547 0.319726 16.4614 0.233944 16.2617 0.0623794C17.0605 0.0623794 17.8593 0.0623864 18.6296 0.0337923L18.6581 0.291146C18.8864 0.262552 18.5726 0.577073 18.8864 0.20535C18.8293 0.119568 18.8008 0.0623864 18.7723 0.0337923C19.0005 0.0337923 19.2287 0.0337993 19.457 0.00520519C19.9134 -0.0233889 20.2843 0.0623795 20.6267 0.348321C20.7123 0.405509 20.7408 0.519885 20.8264 0.634262C20.9405 0.491291 21.0546 0.31974 21.1687 0.148176C21.1973 0.148176 21.2258 0.176763 21.2543 0.176763C21.2258 0.291139 21.2258 0.376915 21.1973 0.491291C21.2258 0.519885 21.2543 0.519871 21.2828 0.548465C21.3684 0.434089 21.4825 0.291125 21.6252 0.0909666C21.8249 0.205343 22.0817 0.319733 22.3384 0.462704C22.3955 0.491298 22.4525 0.519878 22.4811 0.519878C22.9661 0.291125 23.1658 0.805826 23.5367 0.920203C23.6793 0.977391 23.8505 0.948783 23.9646 0.977377C24.1643 1.03457 24.364 1.12036 24.5637 1.20614C24.6778 1.46349 24.849 1.4635 25.0202 1.4635C25.0202 1.4349 24.9916 1.4063 24.9916 1.3777H25.0202C25.1628 1.43489 25.3055 1.52067 25.4481 1.54926C25.6478 1.60645 25.7619 1.66364 25.8761 1.69223C26.1614 2.03536 26.0187 1.86382 26.1043 1.86382C26.1899 1.9496 26.2469 2.06396 26.3611 2.23552C26.3611 2.09255 26.3611 2.00676 26.3611 1.8352C26.6749 2.03536 27.0743 2.00677 27.1028 2.37849C27.2169 2.40709 27.3881 2.4357 27.3881 2.4357C27.3881 2.63586 27.3881 2.80743 27.3311 3.00759C27.3025 3.12196 27.0743 3.20774 27.1028 3.32211C27.1313 3.60806 27.1028 3.894 26.9887 4.17994C27.0172 4.17994 27.0458 4.20853 27.0743 4.20853C27.2455 4.03696 27.4452 3.86539 27.5878 3.66523C27.7019 3.43648 27.7305 3.17914 27.8446 2.8932C28.0728 2.97899 28.301 3.06475 28.4722 3.12193C28.3296 3.35069 28.1299 3.49367 28.1584 3.63664C28.1584 3.80821 28.3581 3.97977 28.5008 4.20853C28.6434 3.8654 28.9858 3.69383 29.214 3.77961C29.4137 3.8368 29.5278 4.23711 29.4137 4.52305C29.8416 4.43727 29.8131 4.75182 29.7846 5.03776C29.8131 5.03776 29.8416 5.03776 29.8702 5.03776C29.9272 4.92338 29.9843 4.80901 30.0984 4.60885C30.4693 4.98057 30.8402 5.32368 31.211 5.69541C31.5249 6.03853 31.8101 6.38169 32.0954 6.72482C32.4663 7.21092 32.8372 7.7256 33.2081 8.2117C33.3507 8.38327 33.5219 8.55484 33.636 8.755C33.6931 8.86937 33.6646 9.06952 33.7216 9.21249C33.7501 9.32687 33.7787 9.55561 33.8357 9.55561C34.2637 9.5842 34.1781 9.95594 34.2637 10.2133C34.549 10.8995 34.8628 11.6144 35.091 12.3293C35.3763 13.2157 35.576 14.1021 35.7472 15.0171C35.6616 14.9313 35.576 14.8455 35.4619 14.7025C35.2622 15.1886 35.7757 15.6176 35.4619 16.1037C36.1181 16.5898 36.061 17.3046 36.004 18.0481C36.004 18.1911 36.004 18.3054 36.004 18.4198C36.004 18.5628 35.9184 18.7057 35.8613 18.8201C35.8898 18.9631 35.9754 19.106 35.9754 19.249C35.7472 20.5358 35.6045 21.8511 35.2622 23.1092C35.0054 24.0814 34.6916 25.0536 34.064 25.8829C33.8928 26.083 33.9213 26.4261 33.7787 26.6835C33.5219 27.141 33.2081 27.5699 32.8657 27.9702C32.8087 28.0274 32.609 27.9702 32.4663 27.9702C32.5234 28.056 32.5804 28.1132 32.6375 28.199C32.4663 28.3706 32.3237 28.5421 32.1525 28.7137C32.0099 28.8566 31.7246 28.971 31.9813 29.2855C32.0099 29.3141 31.9243 29.4285 31.8672 29.5143C31.4107 30.0004 30.9828 30.4865 30.4978 30.944C29.9843 31.4301 29.4422 31.9448 28.8716 32.3451C28.1584 32.8598 27.3881 33.3459 26.6464 33.8034C25.5337 34.4611 24.3355 34.9186 23.1087 35.2903C22.7093 35.4047 22.2814 35.6906 21.9105 35.0902C21.8534 35.3189 21.8249 35.4333 21.7964 35.6049C21.1402 35.6049 20.4555 36.3197 19.7993 35.5191C19.7423 35.5763 19.6567 35.6906 19.514 35.8622C19.457 35.6334 19.4284 35.5191 19.3999 35.3761C19.4284 35.4047 19.457 35.4333 19.4855 35.4619C19.6852 35.2903 19.999 35.1474 20.0276 34.9472C20.0276 34.9186 20.0276 34.89 20.0276 34.8614C24.6208 34.2609 28.8716 31.7733 31.6675 28.1704C31.639 28.2562 31.6104 28.3419 31.6104 28.4277C32.0954 28.4849 32.0099 27.9988 32.2381 27.8273C32.0954 27.7987 31.9813 27.8272 31.9243 27.8558C32.0954 27.6271 32.2666 27.3697 32.4378 27.141V27.6271C32.609 27.4841 32.7516 27.3698 32.9513 27.2268C32.7516 27.1696 32.6375 27.141 32.4663 27.1124C34.0925 24.5961 35.0625 21.6223 35.034 18.3912C35.0054 14.388 33.9498 11.2999 32.4663 8.92655C31.4963 7.38247 30.7831 6.46747 30.5263 6.43888C29.271 9.15532 27.274 6.98215 26.3611 7.95435C25.3911 8.98373 25.7905 9.18389 24.5637 10.3848C23.337 11.5858 21.4826 10.9282 20.7693 12.3007C20.4555 14.1879 21.2828 14.1307 20.5696 15.7033C20.1417 16.6469 18.6582 17.1903 18.4014 18.3054C18.1732 19.4206 18.7723 21.4794 18.8008 22.0513C18.8293 22.6231 19.1432 23.338 19.2002 23.8241C19.2858 24.5961 18.7152 25.0536 18.002 25.311L17.7452 26.0258C17.7167 26.1116 17.6596 26.226 17.6311 26.3404C17.6596 26.369 17.7167 26.369 17.7452 26.369C17.9164 26.3976 18.1446 26.3976 18.2017 26.369C18.2017 26.369 18.2017 26.369 18.2302 26.369C18.2587 26.369 18.2873 26.369 18.3158 26.3975C18.4584 26.4547 18.544 26.5119 18.5726 26.4833C18.6011 26.4833 18.6296 26.4833 18.6867 26.3118C18.7437 26.1402 18.7437 26.1974 18.7437 26.1116C18.7437 26.0544 18.7152 26.0258 18.7152 25.9972C18.6867 25.9686 18.6581 25.94 18.6581 25.8543C18.6581 25.7685 18.7152 25.7685 18.7437 25.7685C18.7437 25.7685 18.7723 25.7685 18.8008 25.7399C18.8293 25.7113 18.8293 25.7113 18.8579 25.7113C18.8864 25.7113 18.8864 25.7113 18.8864 25.7113C18.8864 25.7113 18.8864 25.6827 18.9149 25.6541C18.9434 25.6255 18.972 25.6255 18.972 25.5969C19.0005 25.5397 19.0005 25.5111 19.0005 25.5111C19.0005 25.4825 19.0005 25.4826 19.029 25.4826C19.029 25.4826 19.029 25.4826 19.0576 25.4826C19.0861 25.4826 19.2573 25.5397 19.2573 25.5397H19.2858C19.2858 25.5397 19.2858 25.5397 19.3143 25.5397V25.5111C19.3143 25.4825 19.3429 25.4826 19.3429 25.4826C19.3429 25.4826 19.3714 25.4826 19.3999 25.4826C19.4284 25.4826 19.4284 25.4826 19.4284 25.4826C19.4284 25.4826 19.4284 25.4253 19.457 25.3968C19.4855 25.3396 19.514 25.311 19.514 25.311H19.5426C19.5426 25.311 19.5996 25.3967 19.6567 25.4253C19.7137 25.4539 19.7708 25.4826 19.8564 25.4826C19.9134 25.5111 19.942 25.5683 19.942 25.5683V25.5969C19.942 25.6255 19.942 25.6255 19.942 25.6255C19.942 25.6255 19.999 25.6255 20.0561 25.7113C20.0846 25.7971 20.1131 25.9972 20.0846 26.083C20.0846 26.1688 20.0846 26.3118 20.0846 26.3975C20.0846 26.4833 20.1131 26.5405 20.1131 26.5691C20.1131 26.5977 20.1417 26.6263 20.1131 26.6263C20.0846 26.6549 20.0561 26.6263 19.8849 26.6835C19.7137 26.7407 19.6281 26.7693 19.5426 26.7693C19.457 26.7693 19.3429 26.7407 19.2858 26.6835C19.2287 26.6263 19.2002 26.5405 19.2002 26.5405C19.2002 26.5405 19.1432 26.5977 19.1146 26.7121C19.1146 26.8265 19.0576 27.3412 18.7152 27.8273C18.3729 28.3134 17.9164 28.6565 17.9164 28.6565C17.9164 28.6565 18.1446 28.6565 18.2587 28.8853C18.3729 29.114 18.3158 29.4285 18.3158 29.4857C18.3158 29.5429 18.2587 29.7431 18.0876 29.7717C17.9164 29.8003 17.8593 29.6573 17.8308 29.6001C17.8308 29.5429 17.8023 29.3999 17.7737 29.2284C17.7452 29.0568 17.7167 28.828 17.7167 28.828C17.7167 28.828 17.6596 28.8281 17.6311 28.9424C17.6026 29.0568 17.574 29.1426 17.2602 29.3142C16.9749 29.4857 16.7467 29.5715 16.4899 29.5715C16.3758 29.5715 16.2046 29.5143 16.062 29.4571C15.9764 29.6001 15.8908 29.7717 15.8908 29.7717C15.8908 29.7717 15.6911 30.1434 15.4914 30.4007C15.3202 30.6581 15.0349 31.2013 14.9493 31.2871C14.8923 31.3729 14.7211 31.7447 14.6355 31.9162C14.5499 32.0878 14.4073 32.3166 14.4073 32.3166L14.3788 32.3451C14.3502 32.3451 14.3502 32.3451 14.3502 32.3166C14.3502 32.3166 14.3502 32.2879 14.4073 32.2022C14.4643 32.1164 14.607 31.859 14.6926 31.6303C14.7782 31.4301 14.9779 31.0298 15.3202 30.4865C15.5485 30.1434 15.8052 29.6859 15.9764 29.3999C15.8338 29.3427 15.7482 29.2855 15.7482 29.2855L15.3488 29.1426C15.3488 29.1426 15.3202 29.2855 15.2061 29.4285C15.1205 29.5715 14.9779 29.6859 14.8352 29.9432C14.6926 30.2006 14.6641 30.2578 14.6641 30.315C14.6641 30.3436 14.4643 30.315 14.3788 30.315C14.2932 30.2864 14.2076 30.2577 14.0649 30.2863C13.9223 30.3435 13.5799 30.7438 13.4088 30.7153C13.2661 31.0298 13.0094 31.3443 12.4388 31.8304C11.8111 32.3451 8.90114 32.4023 8.21643 31.9162C7.84555 31.6303 8.4732 32.2022 9.78554 32.917V32.9456L9.89966 32.9742C10.185 33.1458 10.5273 33.2887 10.8982 33.4603L10.9838 34.5755C10.7841 34.4325 10.67 34.3181 10.5273 34.2609C10.3847 34.1751 10.185 34.1751 10.0994 34.0894C9.95672 33.9464 9.8426 33.7462 9.72849 33.5747C9.75701 33.5461 9.78554 33.5175 9.78554 33.5175C9.69996 33.5175 9.61437 33.4889 9.50025 33.4889C9.52878 33.6033 9.52878 33.7177 9.55731 33.8892C9.1579 33.6605 8.78702 33.4317 8.44467 33.2315C8.4732 33.0886 8.50173 32.9742 8.53026 32.8312C8.15937 33.0314 7.90261 32.8312 7.64585 32.6883C6.67585 32.0592 5.8485 31.2585 5.04968 30.4293C4.56469 29.9432 4.10822 29.4285 3.70881 28.9138L4.02263 28.7709C3.85145 28.5135 3.87998 28.4849 3.76587 28.2562C3.65175 28.6279 3.79439 28.4849 3.56616 28.6851C3.22381 28.2276 2.90999 27.7701 2.65322 27.284C2.56764 27.1696 2.51058 27.0266 2.42499 26.8837C2.45352 26.8837 2.48205 26.8836 2.53911 26.855C2.79587 26.7407 2.68175 26.7693 2.71028 26.6263L2.62469 26.369L2.3394 26.3975L2.22528 26.4261C2.16823 26.2832 2.1397 26.1116 2.16823 25.9115C2.19675 25.7685 2.16823 25.3968 1.79734 25.3682C1.71176 25.3682 1.6547 25.2252 1.56911 25.1394C1.71176 24.9964 1.8544 24.8249 2.08264 24.6247C1.88293 24.6533 1.76882 24.6533 1.68323 24.6533C1.51205 24.4817 1.34088 24.3102 1.22676 24.1386C1.14117 24.0242 0.912937 23.8813 1.22676 23.7383C1.25529 23.7383 1.19823 23.5667 1.19823 23.481C1.14117 23.481 1.05558 23.5095 0.969996 23.5095C0.855878 23.2522 0.770291 23.0235 1.1697 22.8805C1.08411 22.6517 1.28382 22.2514 0.741761 22.3086C0.969996 21.9369 0.884408 21.6795 0.513527 21.508C0.427939 21.4794 0.370881 21.3364 0.370881 21.2506C0.285293 20.8503 0.228234 20.45 0.171176 19.9639C0.342351 20.1926 0.427939 20.3642 0.542056 20.5358C0.884408 20.4214 0.770291 20.1354 0.713232 19.9639C0.627644 19.6207 0.627644 19.1918 0 19.1918C0.342351 18.3054 0.656173 17.4762 0.998525 16.647C0.741761 16.504 0.599115 16.5326 0.228234 16.8471C0.0570585 16.5326 0.256764 14.9885 0.599115 13.5302C0.713232 13.616 0.855878 13.6446 1.02705 13.5874C1.11264 13.5588 1.19823 13.5016 1.25529 13.4444C1.42646 13.2157 1.34088 13.3015 1.28382 13.1585L1.08411 12.9869L0.855878 13.1585L0.627644 13.3586C0.770291 12.8154 0.941466 12.272 1.11264 11.8431C1.19823 11.9289 1.28382 12.0433 1.36941 12.1291C1.36941 12.0719 1.36941 12.0147 1.36941 11.9575C1.45499 11.8717 1.59764 11.8146 1.6547 11.7288C1.74029 11.6144 1.79734 11.4428 1.76882 11.2999C1.71176 11.0711 1.34088 10.8424 1.79734 10.6422C1.8544 10.6136 1.79734 10.3848 1.79734 10.2419C1.8544 10.2419 1.93999 10.2133 2.08264 10.2133C1.99705 10.1275 1.93999 10.0703 1.82587 9.98452C2.25381 9.26967 2.71028 8.58341 3.16675 7.83996C3.25234 8.01153 3.10969 8.35466 3.48057 8.26887C3.62322 8.24028 3.70881 8.09734 3.82292 8.01155C3.73734 7.98296 3.65175 7.92577 3.53763 7.89717C3.28087 7.86858 3.19528 7.61122 3.39498 7.35388C3.53763 7.18231 3.68028 6.98215 3.85145 6.81058C3.85145 6.89636 3.73734 6.98214 3.90851 6.83917C3.9941 6.78198 3.9941 6.72479 3.96557 6.6962C4.30792 6.26729 4.6788 5.80978 5.07821 5.40946C5.24939 5.2379 5.39203 5.06636 5.56321 4.89479C5.8485 5.00917 5.90556 5.00915 6.21938 5.09494C6.30497 4.86618 6.47615 4.43729 6.39056 4.15135C6.59026 3.97979 6.78997 3.83679 6.98967 3.66523C7.24644 3.95117 6.98967 3.8082 7.36055 3.8082C7.44614 3.43648 7.53173 3.69382 7.33203 3.40788C7.67438 3.15053 8.01673 2.92178 8.35908 2.69302C8.41614 3.7796 8.87261 2.40711 9.21496 2.29273ZM17.4314 26.6263C17.4029 26.7121 17.3743 26.7693 17.3173 26.855C17.4314 26.8265 17.5455 26.7979 17.6596 26.6835C17.6882 26.6835 17.6311 26.7121 17.4314 26.6263ZM17.1461 27.2268C17.0035 27.4841 16.8893 27.7415 16.8323 27.8558C16.9179 27.913 16.9464 27.8844 17.032 27.8273C17.089 27.7701 17.1176 27.6271 17.2032 27.5127C17.2887 27.3983 17.4029 27.284 17.4029 27.284C17.4029 27.284 17.3743 27.2268 17.2887 27.2554C17.2602 27.2268 17.2317 27.2268 17.1461 27.2268ZM16.8037 27.7987C16.8608 27.6843 16.9749 27.4555 17.1176 27.1982C17.0035 27.1696 16.8323 27.0838 16.6611 26.9694C16.4043 26.7979 16.2617 26.6263 16.062 26.4548C15.8623 26.2832 15.8623 26.1974 15.7196 26.1116C15.634 26.0544 15.5485 25.9972 15.4343 25.94C15.0349 26.1402 14.4643 26.5405 14.0935 27.3412C14.0935 27.3698 14.1791 27.5127 14.2932 27.6843C14.3502 27.6557 14.4073 27.6843 14.4643 27.7129C14.5499 27.7701 14.6641 27.913 14.7496 27.9988C14.8352 28.1132 14.8638 28.199 14.9208 28.199C14.9493 28.199 15.0064 28.1418 15.0635 28.056C15.092 27.9702 15.3202 27.4555 15.4629 27.1982C15.6055 26.9408 15.7196 26.7121 15.9193 26.5977C16.119 26.4833 16.3188 26.6263 16.4329 26.855C16.547 27.0838 16.6896 27.7415 16.6896 27.7415C16.6896 27.7415 16.7182 27.7701 16.8037 27.7987ZM17.2602 26.855C17.2887 26.7693 17.3458 26.6835 17.3743 26.5977C17.3173 26.5691 17.2317 26.5405 17.1176 26.4833C16.7752 26.2546 16.4329 25.9687 16.2046 25.7399C16.0049 25.7685 15.8623 25.7971 15.7482 25.8257H15.7196C15.8623 25.9114 15.9479 25.9972 16.0049 26.0258C16.062 26.083 16.4329 26.4547 16.5755 26.5691C16.7182 26.6835 16.9179 26.8265 17.1461 26.855C17.2032 26.855 17.2317 26.855 17.2602 26.855ZM17.517 26.3404C17.6311 26.0544 17.7737 25.6827 17.8879 25.3682C17.4314 25.5397 16.9464 25.6255 16.5185 25.7113C16.604 25.7971 16.6611 25.8543 16.7467 25.9115C17.1176 26.1116 17.3458 26.2546 17.517 26.3404ZM14.4929 28.2848C14.4073 28.3705 13.7511 28.8567 13.7226 28.9138C13.5229 29.4571 13.4944 29.8288 13.4373 30.1434C13.6085 30.0862 13.7511 30.0004 13.9508 29.7145C14.1791 29.3713 14.3502 28.9424 14.4358 28.828C14.5499 28.7137 14.5499 28.6851 14.5499 28.6851C14.5499 28.6851 14.5785 28.5421 14.4929 28.3134C14.5214 28.3134 14.5214 28.3133 14.4929 28.2848ZM15.577 28.2848C15.6055 28.3705 15.4629 28.3991 15.577 28.4849C15.634 28.5135 15.7767 28.5707 15.8338 28.5707C15.8908 28.5993 15.9193 28.5993 15.9479 28.5707C15.9479 28.5421 15.9479 28.5421 15.9193 28.5135C15.8908 28.4849 15.8908 28.4563 15.8908 28.3134C15.8908 28.1418 15.8908 27.8844 15.8908 27.7987C15.8908 27.7129 15.8338 27.7701 15.8052 27.8273C15.7767 27.8844 15.6911 27.9988 15.6626 28.056C15.634 28.1132 15.6055 28.0846 15.6055 28.1418C15.5485 28.1704 15.577 28.2276 15.577 28.2848ZM19.1431 35.033C19.0005 35.033 18.8293 35.0616 18.6867 35.0616C18.6867 35.0902 18.6581 35.1187 18.6581 35.1473L18.4584 35.0902C17.517 35.1188 16.5755 35.0902 15.634 34.9758L15.7767 35.3475C15.7482 35.3761 15.7196 35.3761 15.6911 35.4047C15.6055 35.2045 15.3202 35.1474 15.2632 34.9472C15.0635 34.9186 14.8352 34.89 14.6355 34.8328C14.6641 34.8614 14.6641 34.89 14.6926 34.9472C14.8067 35.2045 14.9493 35.4619 15.092 35.7192C15.3488 36.0909 15.634 36.091 15.8623 35.6906C16.119 35.9766 16.4899 36.091 16.6896 35.9194C17.2602 35.5191 17.8879 35.5763 18.5155 35.6049C18.7437 35.6049 18.9434 35.7192 19.1431 35.7764C19.1717 35.7478 19.2002 35.7478 19.2573 35.7192C19.0861 35.4905 19.0861 35.2617 19.1431 35.033ZM13.7511 34.6041C12.667 34.3181 11.6685 33.9464 10.8126 33.5747C10.8982 33.689 10.9552 33.7748 11.0408 33.832C11.3261 34.0608 11.1549 34.4325 11.2976 34.6898C11.3547 34.7756 11.4402 34.8614 11.5258 34.89C11.5829 34.9186 11.6685 34.8042 11.7255 34.747C11.8111 34.6613 11.8682 34.5469 11.9538 34.4325C12.0394 34.4897 12.0964 34.5183 12.182 34.5755C12.2391 34.4611 12.2961 34.3753 12.3532 34.2609C12.8952 34.7756 12.9238 34.8614 12.6385 35.3475C13.0094 35.4047 13.3517 35.4619 13.6941 35.4905C13.6941 35.4619 13.6941 35.4333 13.7226 35.3761C13.637 35.3475 13.5799 35.3189 13.5799 35.3189C13.6085 35.033 13.6655 34.7756 13.7511 34.6041ZM7.56026 21.079H8.10232V20.7931H6.64732V21.079H7.18938V22.8805H7.56026V21.079ZM10.4132 21.3078L10.4417 20.9647C10.242 20.8217 10.0138 20.7359 9.75702 20.7359C9.44319 20.7359 9.18643 20.8503 8.9582 21.0505C8.75849 21.2506 8.64437 21.5365 8.64437 21.8511C8.64437 22.1656 8.75849 22.423 8.9582 22.6517C9.1579 22.8519 9.44319 22.9663 9.75702 22.9663C10.0138 22.9663 10.2135 22.9091 10.4132 22.7661V22.3944C10.2135 22.5659 9.98525 22.6517 9.72849 22.6517C9.30055 22.6517 8.98672 22.3372 8.98672 21.8797C8.98672 21.4222 9.30055 21.079 9.75702 21.079C10.0138 21.0505 10.242 21.1362 10.4132 21.3078ZM13.0379 21.8511L13.2661 22.8805H13.5799L13.0664 20.7073L12.4673 22.0227C12.4388 22.1085 12.3817 22.1942 12.3532 22.3086C12.2961 22.1656 12.2676 22.0513 12.2391 22.0227L11.6114 20.7073L11.1264 22.8805H11.4402L11.6685 21.8511C11.697 21.7653 11.697 21.6509 11.697 21.5651C11.7255 21.6509 11.7541 21.7367 11.8111 21.8225L12.3532 22.9663L12.8952 21.8511C12.9523 21.7653 12.9808 21.6509 12.9808 21.5651C13.0094 21.7081 13.0094 21.8225 13.0379 21.8511ZM15.7196 22.8805H16.0905L15.092 20.7073L14.0935 22.8805H14.4073L14.6641 22.3372H15.4914L15.7196 22.8805ZM14.7782 22.0513H15.3488L15.149 21.5651C15.1205 21.5079 15.092 21.4222 15.0635 21.3364C15.0349 21.4508 15.0064 21.5079 14.9779 21.5651L14.7782 22.0513ZM10.6985 8.86938V16.9329H7.95967V11.0139H6.61879V18.2768H14.7211C15.2061 18.2768 15.5199 18.191 15.6911 17.9909C15.8338 17.7907 15.9479 17.5906 16.0049 17.3618C16.062 17.1331 16.0905 16.8757 16.0905 16.647V11.0425H14.7496V16.361C14.7496 16.5612 14.7211 16.7041 14.6355 16.8185C14.5499 16.9043 14.3502 16.9615 13.9793 16.9615H12.0679V8.89797H10.6985V8.86938ZM16.119 35.1187C16.119 35.1473 16.0905 35.2045 16.0905 35.2331C16.2617 35.2903 16.4329 35.3475 16.604 35.4047C16.604 35.4333 16.604 35.4619 16.604 35.4619C16.4899 35.4619 16.3758 35.4905 16.2046 35.5191C16.2617 35.6049 16.3188 35.7192 16.3188 35.7192C16.5185 35.6334 16.7182 35.5191 16.9179 35.4047C16.9179 35.3475 16.8893 35.3189 16.8893 35.2617C16.6326 35.2045 16.3758 35.1473 16.119 35.1187ZM21.1973 35.0044C21.1402 35.033 20.969 35.0616 20.969 35.0902C20.969 35.2617 20.9976 35.4333 21.0261 35.5762C21.0261 35.6334 21.1687 35.6334 21.2543 35.662C21.2543 35.5763 21.2828 35.5191 21.2543 35.4333C21.2543 35.3189 21.2258 35.2045 21.1973 35.0044ZM32.4378 7.89717C32.2951 7.83998 32.181 7.72561 32.1525 7.7542C32.0669 7.81139 31.9813 7.95437 32.0099 8.01155C32.0669 8.09734 32.181 8.12592 32.2951 8.2117C32.3237 8.12592 32.3807 8.04014 32.4378 7.89717Z" fill="#003444"/>
<path fill-rule="evenodd" clip-rule="evenodd" d="M21.454 26.369V25.2538H21.6537V22.8805H30.8116V25.2538H30.9828V26.369H21.454ZM24.2214 23.9671H23.0517V25.2538H24.2214V23.9671ZM26.846 25.2538V23.9671H25.5337V25.2538H26.846ZM29.4993 25.2538V23.9671H28.1584V25.2538H29.4993ZM21.6252 22.3944V16.647H25.6478V21.0505C25.6478 21.1935 25.6193 21.3936 25.5908 21.6224C25.5622 21.8511 25.4481 22.0227 25.2769 22.1657C25.1058 22.3086 24.7634 22.3658 24.1928 22.3658H21.6252V22.3944ZM24.3355 18.9345V17.7336H22.9375V18.9345H24.3355ZM24.3355 20.0211H22.9375V21.3078H23.7649C23.9931 21.3078 24.1358 21.2792 24.2214 21.222C24.3069 21.1649 24.3355 21.0505 24.3355 20.9361V20.0211ZM30.8401 16.6184V21.4222C30.8401 21.6223 30.8116 21.8225 30.726 21.9941C30.669 22.1656 30.5549 22.3086 30.3837 22.423C30.241 22.5374 29.8131 22.5946 29.1284 22.5946H28.5293V21.4794H29.0428C29.214 21.4794 29.3566 21.4508 29.4137 21.3936C29.4707 21.3364 29.4993 21.2506 29.4993 21.1649V20.9933H27.4452V21.508C27.4452 21.6224 27.4452 21.7653 27.4166 21.9369C27.3881 22.1085 27.331 22.2514 27.1884 22.3944C27.0743 22.5374 26.8175 22.6232 26.4466 22.6232H25.819V21.5652H25.9331C26.0758 21.5652 26.1613 21.4508 26.1613 21.1935V16.6184H30.8401ZM27.4737 19.392V19.9353H29.5278V19.392H27.4737ZM27.5308 17.6764V18.334H29.5278V17.6764H27.5308Z" fill="#003444"/>
<path fill-rule="evenodd" clip-rule="evenodd" d="M53.1786 4.06539V19.5634H56.8874C57.5721 19.5634 58.0001 19.4776 58.1427 19.3061C58.2854 19.1345 58.371 18.8485 58.371 18.4768V8.15436H60.9671V18.9915C60.9671 19.4204 60.9101 19.8493 60.8245 20.3069C60.7389 20.7358 60.5107 21.1361 60.2254 21.4792C59.9115 21.8223 59.3124 21.9939 58.371 21.9939H42.7654V8.15436H45.3331V19.592H50.611V4.06539H53.1786ZM65.703 22.2798V20.2496H66.0739V15.9319H83.705V20.2496H84.0188V22.2798H65.703ZM71.0094 17.9049H68.7556V20.2496H71.0094V17.9049ZM76.0306 20.2496V17.9049H73.5485V20.2496H76.0306ZM81.1659 20.2496V17.9049H78.5697V20.2496H81.1659ZM65.9883 14.9883V4.4943H73.7197V12.5578C73.7197 12.8438 73.6912 13.1869 73.6056 13.6158C73.52 14.0447 73.3203 14.3593 73.0065 14.6166C72.6927 14.874 71.9794 14.9883 70.9239 14.9883H65.9883ZM71.2091 8.66903V6.49589H68.5274V8.66903H71.2091ZM71.2091 10.642H68.5274V12.9867H70.0965C70.5244 12.9867 70.8097 12.9296 70.9524 12.8152C71.1236 12.7008 71.1806 12.5293 71.1806 12.3005V10.642H71.2091ZM74.8324 4.43713H83.7335V13.2155C83.7335 13.6158 83.6764 13.9589 83.5338 14.2735C83.3911 14.588 83.1914 14.8454 82.8776 15.0741C82.5923 15.3029 81.7935 15.3886 80.4812 15.3886H79.3115V13.3299H80.31C80.6523 13.3299 80.9091 13.2727 81.0232 13.1869C81.1373 13.1011 81.1944 12.9582 81.1944 12.758V12.4435H77.2573V13.3871C77.2573 13.6158 77.2288 13.8732 77.2003 14.1591C77.1432 14.4737 77.0006 14.7596 76.7723 15.0169C76.5441 15.2743 76.0591 15.4172 75.3459 15.4172H74.1477V13.4729H74.3759C74.6897 13.4729 74.8324 13.2441 74.8324 12.8152V4.43713ZM77.2859 9.52686V10.5276H81.2229V9.52686H77.2859ZM77.3429 6.3815V7.58248H81.1944V6.3815H77.3429ZM95.7729 6.3815C96.1723 6.26713 96.4576 6.12416 96.6002 5.92401C96.7429 5.72385 96.5717 5.4665 96.0582 5.20915C95.5446 4.92321 94.974 4.72306 94.3464 4.60868C93.7187 4.46571 93.2052 4.40851 92.8058 4.37992C92.7202 5.03758 92.5776 5.80961 92.3779 6.69603C92.1782 7.58245 91.8073 8.58326 91.2652 9.64124C90.7232 10.7278 90.1241 11.6428 89.4964 12.4149C88.8688 13.1869 88.2697 13.816 87.7561 14.3593C88.8117 13.8732 89.9243 13.2155 91.0655 12.4149C92.2067 11.6142 93.1482 10.7278 93.9184 9.75562C94.6602 8.78342 95.1452 8.03996 95.3449 7.52527C95.5161 6.95339 95.6587 6.58166 95.7729 6.3815ZM98.8825 4.20836H97.0852L97.5702 5.15198H99.5387C99.5672 5.60948 99.6814 6.26713 99.8525 7.09636C100.024 7.92559 100.452 8.89781 101.079 10.013C101.707 11.1281 102.449 12.0145 103.248 12.7008C104.046 13.3871 104.788 13.8732 105.444 14.1877C105.644 14.2735 105.787 14.2735 105.872 14.1877C105.958 14.1019 106.072 13.8732 106.215 13.5014C106.329 13.1297 106.557 12.758 106.899 12.3863C107.242 12.0145 107.641 11.7286 108.069 11.5284C107.612 11.4427 106.985 11.2711 106.186 10.9851C105.387 10.6992 104.531 10.1845 103.561 9.46968C102.62 8.75483 101.907 8.01137 101.45 7.23933C100.994 6.49588 100.68 5.83824 100.537 5.29495C100.851 5.18057 101.136 5.06619 101.365 4.89462C101.593 4.72306 101.621 4.5229 101.479 4.32274C101.308 4.09399 101.051 3.92242 100.68 3.77945C100.309 3.63648 99.9952 3.52211 99.7099 3.43633L98.8825 4.20836ZM98.0552 12.758L94.2893 19.6206H102.135C102.078 19.449 101.992 19.1917 101.878 18.9057C101.764 18.6198 101.564 18.2767 101.25 17.9049C100.965 17.5046 100.651 17.1901 100.338 16.9042C100.024 16.6182 99.7384 16.3895 99.5102 16.1893C100.052 16.2465 100.68 16.3608 101.336 16.5324C102.021 16.704 102.677 17.0185 103.276 17.4188C103.904 17.8191 104.332 18.2195 104.617 18.5626C104.902 18.9343 105.102 19.2203 105.216 19.449C105.387 19.8779 105.387 20.3926 105.273 20.9073C105.159 21.4506 104.817 21.7937 104.303 21.9653C103.79 22.1369 103.362 22.0511 103.019 21.7079C102.677 21.3648 102.477 20.9645 102.42 20.507L90.9799 22.0511C90.8088 22.2227 90.6376 22.3084 90.4093 22.2798C90.1811 22.2512 89.9814 21.9939 89.7817 21.565C89.582 21.1361 89.4394 20.7072 89.3538 20.3069C89.2682 19.9065 89.2111 19.6206 89.1826 19.4204L93.2623 19.5634L95.2308 10.6706C95.8584 10.8136 96.5146 10.9566 97.1993 11.1567C97.884 11.3569 98.3975 11.557 98.6828 11.7858C98.9967 12.0145 99.0252 12.2147 98.797 12.3577C98.6258 12.5864 98.3405 12.7008 98.0552 12.758ZM116.342 16.8184H117.312V21.4792H116.342V16.8184ZM120.251 16.8184H121.221V21.4792H120.251V16.8184ZM124.188 16.8184H125.158V21.4792H124.188V16.8184ZM118.14 5.43792C118.425 5.29495 118.596 5.09478 118.71 4.92321C118.825 4.72305 118.682 4.55149 118.311 4.35133C117.94 4.17976 117.455 4.03679 116.913 3.951C116.371 3.86522 115.915 3.77946 115.515 3.72227C115.372 4.15118 115.173 4.66588 114.887 5.29495C114.602 5.92402 114.203 6.63886 113.661 7.46809C113.119 8.29732 112.577 8.98359 112.035 9.58406C111.492 10.1845 111.007 10.6706 110.608 11.0709C111.207 10.8708 111.92 10.5562 112.719 10.1273C113.518 9.69841 114.345 9.15514 115.173 8.49747C116 7.81122 116.628 7.21073 117.084 6.69603C117.541 6.15274 117.883 5.75245 118.14 5.43792ZM123.189 7.0106C123.361 7.15357 123.56 7.32511 123.817 7.52527C124.074 7.75402 124.302 7.98277 124.502 8.24012C124.702 8.49747 124.787 8.66905 124.759 8.75483C124.73 8.84061 124.616 8.8978 124.502 8.8978H117.141L116.656 7.95418H121.877L123.189 7.0106ZM121.392 11.6714H124.159C124.245 11.9002 124.388 12.2147 124.616 12.615C124.844 13.0154 125.244 13.4729 125.786 14.0162C126.328 14.5594 126.898 14.9884 127.44 15.3029C128.011 15.6174 128.496 15.8748 128.895 16.0177C129.067 16.1035 129.238 16.1035 129.409 15.9891C129.58 15.9033 129.78 15.6746 129.951 15.3601C130.151 15.0169 130.322 14.731 130.493 14.4737C130.664 14.2163 130.835 14.0733 131.007 13.9875C130.693 13.9875 130.236 13.959 129.694 13.8732C129.152 13.7874 128.524 13.6158 127.783 13.3585C127.069 13.0725 126.47 12.7866 126.014 12.4721C125.557 12.1575 125.187 11.9002 124.958 11.6428L125.786 11.3283C125.957 11.2425 126.071 11.1567 126.099 11.0138C126.157 10.8708 126.071 10.7278 125.843 10.5562C125.614 10.3847 125.358 10.2131 125.044 10.0987C124.73 9.95577 124.502 9.86999 124.302 9.78421L123.332 10.7278H120.879L121.392 11.6714ZM118.454 11.9859C118.767 11.843 118.996 11.6428 119.138 11.4713C119.31 11.2711 119.195 11.0995 118.853 10.8994C118.511 10.7278 118.026 10.5848 117.427 10.4991C116.827 10.4133 116.285 10.3275 115.829 10.2989C115.715 10.5849 115.544 10.9566 115.287 11.4427C115.03 11.9288 114.602 12.5292 114.003 13.2441C113.404 13.9589 112.833 14.588 112.206 15.1599C111.578 15.7318 111.065 16.1893 110.58 16.5324C110.751 16.5038 110.95 16.4752 111.207 16.418C111.464 16.3608 111.749 16.3037 112.092 16.1893C112.434 16.1035 112.691 16.0177 112.89 15.9319C113.09 15.8462 113.261 15.789 113.375 15.7318V21.9653H110.608L111.264 22.9089H130.721C130.807 22.9089 130.864 22.8517 130.864 22.7087C130.864 22.5658 130.807 22.3656 130.607 22.0225C130.436 21.708 130.236 21.3934 129.979 21.1361C129.751 20.8787 129.552 20.6786 129.38 20.5642L128.068 21.3362V17.2759C128.268 17.1615 128.41 17.0471 128.496 16.8756C128.582 16.704 128.524 16.4752 128.268 16.2179C128.011 15.9319 127.697 15.6746 127.298 15.4459C126.898 15.1885 126.556 14.9883 126.242 14.7882L125.101 15.8748H116.428L114.317 15.4172C114.517 15.2743 114.773 15.1027 115.116 14.8454C115.458 14.588 115.857 14.2735 116.371 13.8732C116.856 13.4729 117.284 13.1011 117.626 12.7866C117.997 12.4721 118.282 12.1861 118.454 11.9859ZM121.078 5.60948H124.188C124.274 5.89542 124.445 6.29573 124.673 6.78183C124.93 7.26793 125.329 7.83981 125.9 8.49747C126.47 9.15514 127.041 9.66984 127.612 10.0416C128.182 10.4419 128.667 10.7278 129.095 10.8994C129.266 10.9566 129.409 10.928 129.552 10.8136C129.694 10.6992 129.837 10.4705 129.979 10.1273C130.122 9.7842 130.322 9.46968 130.522 9.18374C130.75 8.8978 130.978 8.69762 131.206 8.55465C130.892 8.52606 130.436 8.46888 129.894 8.3545C129.352 8.24013 128.724 8.03996 127.982 7.69683C127.269 7.3537 126.67 6.982 126.214 6.58168C125.757 6.15277 125.386 5.78105 125.158 5.43792L125.814 5.12336C125.957 5.06617 126.042 4.98041 126.071 4.89462C126.099 4.78025 126.014 4.66586 125.814 4.4943C125.586 4.32274 125.329 4.17977 125.044 4.0368C124.759 3.89383 124.53 3.80806 124.331 3.72227L123.361 4.66586H120.593L121.078 5.60948ZM135.914 3.5793V8.86921H133.631L133.945 9.8128H135.914V22.2798C135.914 22.4228 136.028 22.5944 136.284 22.7374C136.541 22.8803 136.884 22.9089 137.397 22.8517C137.882 22.7945 138.253 22.623 138.51 22.3942C138.766 22.1369 138.881 21.9081 138.881 21.6794V9.84138H141.648C141.848 9.84138 141.962 9.78419 142.047 9.69841C142.104 9.58404 142.019 9.41247 141.791 9.12653C141.534 8.84059 141.277 8.61185 140.963 8.3545C140.649 8.12575 140.393 7.92559 140.193 7.81121L139.223 8.8978H138.909V5.00901C139.08 4.86604 139.194 4.66586 139.28 4.4943C139.366 4.29414 139.251 4.12256 138.909 3.97959C138.595 3.83662 138.139 3.72225 137.568 3.69365C136.941 3.57927 136.427 3.5793 135.914 3.5793ZM144.929 3.40771C145.328 3.4363 145.785 3.46491 146.298 3.52209C146.812 3.57928 147.211 3.66507 147.553 3.77945C147.867 3.89382 148.038 4.00821 147.981 4.15118C147.953 4.29416 147.839 4.40852 147.725 4.4943C147.696 4.60868 147.668 4.72306 147.611 4.89462C147.582 5.03759 147.525 5.20914 147.468 5.4093C147.411 5.58086 147.354 5.72383 147.325 5.83821C147.297 5.95259 147.24 6.00979 147.211 6.06698H149.836L150.977 4.98039C151.205 5.12336 151.462 5.26634 151.776 5.49509C152.09 5.69525 152.346 5.92401 152.575 6.18136C152.803 6.43871 152.86 6.61027 152.803 6.75324C152.746 6.89621 152.632 6.98199 152.461 7.03918C152.461 7.52528 152.375 8.12575 152.232 8.78342C152.09 9.44108 151.747 10.0702 151.205 10.642C150.663 11.2139 150.093 11.6142 149.493 11.7858C148.866 11.9574 148.352 12.0432 147.867 12.0432C147.839 11.9002 147.81 11.7572 147.753 11.5284C147.696 11.3283 147.582 11.0995 147.439 10.8136C147.268 10.5562 147.097 10.3561 146.869 10.1845C146.641 10.0416 146.441 9.89857 146.241 9.84138C146.583 9.86998 147.011 9.86998 147.468 9.84138C147.924 9.81279 148.381 9.66983 148.78 9.38389C149.18 9.09794 149.465 8.72624 149.608 8.29733C149.75 7.86842 149.836 7.4395 149.864 7.03918H146.926C146.755 7.55388 146.441 8.15433 145.984 8.84059C145.528 9.52685 144.843 10.1559 143.93 10.7564C143.017 11.3569 142.19 11.7572 141.42 11.9574C140.649 12.1575 140.05 12.3005 139.565 12.3577C139.908 12.2147 140.364 11.9288 140.906 11.5857C141.448 11.2139 142.019 10.7278 142.646 10.0702C143.274 9.41249 143.731 8.84061 144.016 8.32592C144.33 7.81122 144.529 7.38231 144.644 7.06777H141.22L140.735 6.12415H144.815C144.843 5.98118 144.872 5.83823 144.929 5.60948C144.957 5.40932 145.014 5.15195 145.043 4.83742C145.071 4.55147 145.071 4.26555 145.071 4.0368C144.957 3.77945 144.957 3.57927 144.929 3.40771ZM140.821 12.3005C141.163 12.3291 141.562 12.3577 141.99 12.3863C142.418 12.4149 142.761 12.472 142.989 12.5578C143.246 12.6436 143.331 12.7294 143.246 12.8152C143.189 12.901 143.074 12.9867 142.932 13.0725V14.9311H144.073L144.9 13.9875C144.986 14.0161 145.071 14.0733 145.214 14.1305C145.328 14.2163 145.471 14.3021 145.614 14.4451C145.756 14.588 145.899 14.6738 145.984 14.7596C146.07 14.8454 146.156 14.9026 146.213 14.9026H148.01V12.2433C148.324 12.2433 148.695 12.2433 149.123 12.2719C149.522 12.2719 149.864 12.3577 150.15 12.4435C150.435 12.5579 150.549 12.6722 150.521 12.8438C150.492 13.0153 150.435 13.1869 150.321 13.3299V14.9026H151.148L152.461 13.9589C152.632 14.1305 152.831 14.3593 153.06 14.6166C153.288 14.874 153.488 15.1599 153.63 15.4459C153.773 15.7318 153.83 15.9605 153.744 16.1035C153.687 16.2465 153.573 16.3895 153.431 16.4467C153.431 17.3045 153.373 18.2195 153.259 19.1631C153.145 20.1353 152.888 20.9359 152.461 21.565C152.033 22.194 151.576 22.5658 151.063 22.6801C150.549 22.7945 150.093 22.8231 149.665 22.8231C149.665 22.6801 149.665 22.5372 149.636 22.3084C149.636 22.1083 149.579 21.8795 149.493 21.5936C149.408 21.3362 149.322 21.1361 149.18 20.9645C149.066 20.8215 148.951 20.6786 148.837 20.6214C149.151 20.65 149.522 20.6214 149.893 20.5928C150.264 20.5356 150.578 20.2782 150.806 19.7921C151.063 19.306 151.205 18.7056 151.234 17.9335C151.262 17.1901 151.291 16.4752 151.291 15.789H150.321C150.321 16.3894 150.235 17.1043 150.036 17.9621C149.836 18.8199 149.408 19.6492 148.723 20.4784C148.038 21.3076 147.297 21.8795 146.526 22.2226C145.728 22.5372 145.043 22.7373 144.444 22.8231C144.957 22.4514 145.499 21.9939 146.07 21.422C146.641 20.8501 147.069 20.1639 147.411 19.3632C147.753 18.5626 147.953 17.8763 147.981 17.2759C148.01 16.6754 148.038 16.1893 148.038 15.789H146.07C146.07 16.5038 146.013 17.3617 145.927 18.3053C145.842 19.2489 145.585 20.1353 145.214 20.9359C144.843 21.7365 144.415 22.2512 143.93 22.48C143.445 22.7088 143.017 22.8231 142.646 22.8231C142.532 22.7945 142.475 22.7087 142.475 22.5658C142.475 22.4228 142.475 22.1941 142.504 21.9081C142.532 21.6222 142.475 21.3362 142.304 21.1361C142.133 20.9073 141.933 20.7643 141.648 20.65C141.905 20.6786 142.161 20.65 142.475 20.5928C142.789 20.5356 143.074 20.2497 143.331 19.7636C143.588 19.2775 143.759 18.6484 143.816 17.9049C143.873 17.1615 143.93 16.4752 143.93 15.8176H142.96C142.96 16.2179 142.932 16.7326 142.846 17.4188C142.761 18.1051 142.504 18.8771 142.019 19.7636C141.562 20.65 140.992 21.3362 140.307 21.8795C139.622 22.3942 138.995 22.7659 138.396 23.0233C138.709 22.6516 139.052 22.1941 139.423 21.6508C139.765 21.0789 140.079 20.4212 140.307 19.6206C140.535 18.82 140.678 18.1051 140.735 17.476C140.792 16.847 140.821 16.3037 140.849 15.8461H139.366L139.052 14.9026H140.849V12.3005H140.821ZM165.156 13.5586C165.156 13.4442 165.128 13.3013 165.099 13.1011C165.07 12.901 164.899 12.7008 164.643 12.4721C164.386 12.2433 164.043 12.0717 163.673 11.9859C163.273 11.9002 162.902 11.843 162.56 11.843C162.731 11.9573 162.874 12.0717 162.988 12.2433C163.102 12.4149 163.188 12.615 163.216 12.8152C163.245 13.0439 163.273 13.2155 163.273 13.3585C163.273 13.5014 163.33 13.6158 163.387 13.7016C163.444 13.8732 163.558 14.0733 163.701 14.2449C163.872 14.4164 164.072 14.5022 164.329 14.5022C164.585 14.5022 164.785 14.3879 164.928 14.1591C165.07 13.959 165.156 13.7588 165.156 13.5586ZM162.218 11.6714H165.498V14.6166H162.218V11.6714ZM168.437 11.6714H171.718V14.6166H169.264L171.404 12.4435L169.264 11.8144L168.779 14.6166H168.465V11.6714H168.437ZM163.359 17.2759H170.234V18.677H163.359V17.2759ZM163.359 19.6206H170.234V21.0217H163.359V19.6206ZM167.61 5.12336C168.18 5.43789 168.865 5.78105 169.692 6.15277C170.52 6.5245 171.432 6.86762 172.488 7.18215C173.544 7.49669 174.457 7.69683 175.255 7.81121C176.054 7.92559 176.71 8.01138 177.252 8.06856C177.024 8.21153 176.825 8.41169 176.653 8.66903C176.482 8.95497 176.311 9.24094 176.168 9.58406C176.026 9.92719 175.883 10.1559 175.712 10.2703C175.541 10.3847 175.341 10.4419 175.113 10.4133C174.913 10.3561 174.685 10.2703 174.371 10.1845C174.057 10.0702 173.715 9.92719 173.315 9.75562C172.916 9.58406 172.545 9.41248 172.26 9.24092C171.975 9.09795 171.718 8.95497 171.518 8.84059L171.832 9.61265H163.986L163.159 8.66903H169.036L169.863 7.72545C169.692 7.61107 169.493 7.49669 169.264 7.32512C169.036 7.15356 168.779 6.95339 168.494 6.66745C168.209 6.4101 167.952 6.18135 167.752 5.95259C167.553 5.72384 167.381 5.55227 167.239 5.38071C166.839 5.80962 166.297 6.26713 165.67 6.78183C165.042 7.29652 164.3 7.81123 163.473 8.29733C162.617 8.78343 161.904 9.15513 161.276 9.41247C160.648 9.66982 160.135 9.87 159.736 10.0416L162.503 10.6706H171.49L172.631 9.89859C172.916 10.0416 173.23 10.1845 173.658 10.3847C174.057 10.5848 174.428 10.8136 174.713 11.0709C175.027 11.3283 175.113 11.5571 175.027 11.7572C174.942 11.9574 174.799 12.1003 174.571 12.2433V15.0455C174.571 15.1885 174.457 15.3887 174.228 15.5888C174 15.789 173.629 15.932 173.173 16.0463C172.688 16.1321 172.317 16.1035 172.06 15.9891C171.803 15.8461 171.661 15.7032 171.632 15.5316H162.16V15.6746L163.473 16.3037H170.006L171.318 15.6746C171.604 15.8176 171.918 15.9606 172.288 16.1607C172.659 16.3609 173.002 16.5896 173.258 16.8184C173.515 17.0757 173.601 17.2759 173.515 17.4474C173.43 17.619 173.287 17.762 173.116 17.8477V21.422C173.116 21.6508 173.002 21.9081 172.745 22.1655C172.488 22.4228 172.117 22.5944 171.632 22.7087C171.147 22.8231 170.776 22.8231 170.52 22.7087C170.263 22.5944 170.149 22.48 170.149 22.3656V21.9081H163.273C163.273 22.0511 163.159 22.2226 162.902 22.4228C162.645 22.5944 162.303 22.7373 161.79 22.7945C161.305 22.8517 160.934 22.8517 160.677 22.7374C160.42 22.623 160.306 22.5086 160.306 22.3942V16.3609C160.192 16.3609 160.078 16.3609 159.935 16.3323C159.793 16.3323 159.678 16.2751 159.564 16.1607C159.45 16.0463 159.393 15.932 159.365 15.7604C159.336 15.5888 159.336 15.4172 159.336 15.2743V10.1273C159.165 10.1845 158.965 10.2417 158.708 10.2989C158.452 10.3561 158.166 10.4133 157.853 10.4705C157.539 10.5277 157.225 10.5562 156.997 10.5562C156.74 10.5562 156.54 10.5849 156.369 10.5849C156.854 10.3847 157.51 10.0416 158.338 9.61265C159.165 9.18374 160.106 8.52606 161.162 7.69683C162.218 6.8676 163.016 6.06698 163.615 5.32354C164.215 4.58009 164.614 3.9224 164.871 3.40771C165.327 3.4649 165.898 3.52211 166.525 3.60789C167.182 3.69367 167.695 3.80803 168.066 3.97959C168.465 4.15116 168.551 4.35132 168.351 4.55147C168.294 4.75163 168.009 4.95179 167.61 5.12336Z" fill="#003444"/>
</svg>
