<svg width="186" height="44" viewBox="0 0 186 44" fill="none" xmlns="http://www.w3.org/2000/svg">
<g filter="url(#filter0_d_3453_372)">
<path fill-rule="evenodd" clip-rule="evenodd" d="M48.1634 32.5421H49.3045V31.9416H46.309V32.5421H47.4501V36.2879H48.1634V32.5421ZM72.9268 32.9996L72.9553 32.2847C72.5274 31.9988 72.0709 31.8272 71.5574 31.8272C70.9012 31.8272 70.3306 32.056 69.9027 32.4849C69.4747 32.9138 69.2465 33.4857 69.2465 34.1148C69.2465 34.7438 69.4747 35.3443 69.9027 35.7447C70.3306 36.1736 70.9012 36.4023 71.5574 36.4023C72.0709 36.4023 72.5274 36.2593 72.8983 36.002V35.2014C72.4703 35.5731 72.0138 35.7447 71.5003 35.7447C70.6444 35.7447 69.9597 35.087 69.9597 34.1148C69.9597 33.1426 70.6159 32.4563 71.5574 32.4563C72.0709 32.4849 72.5274 32.6565 72.9268 32.9996ZM108.046 34.1434L108.531 36.2879H109.188L108.132 31.7701L106.877 34.5151C106.82 34.6581 106.705 34.8582 106.62 35.1156C106.506 34.801 106.42 34.6009 106.392 34.5151L105.108 31.7701L104.081 36.2879H104.737L105.193 34.1434C105.222 33.9432 105.279 33.7431 105.279 33.5429C105.336 33.7431 105.393 33.9146 105.479 34.0862L106.62 36.4595L107.761 34.1434C107.847 33.9432 107.932 33.7431 107.961 33.5429C108.018 33.8574 108.046 34.0576 108.046 34.1434ZM157.288 36.2879H158.03L155.918 31.7701L153.807 36.2879H154.549L155.063 35.1728H156.774L157.288 36.2879ZM155.348 34.5723L155.804 33.5715C155.861 33.4571 155.918 33.2856 155.976 33.0854C156.033 33.3141 156.09 33.4571 156.147 33.5715L156.603 34.5723H155.348ZM50.6454 34.1148L49.9036 33.9718C49.9892 33.6573 50.1319 33.4285 50.3316 33.2855C50.5313 33.1426 50.8451 33.0568 51.2445 33.0568C51.6154 33.0568 51.9007 33.114 52.0719 33.1998C52.2431 33.2856 52.3857 33.3999 52.4428 33.5429C52.5283 33.6859 52.5569 33.9146 52.5569 34.2863V35.2585C52.5569 35.5445 52.5569 35.7446 52.5854 35.859C52.6139 35.9734 52.671 36.1449 52.7281 36.2879H51.9007C51.8722 36.2307 51.8436 36.145 51.8151 36.0306C51.8151 35.9734 51.7866 35.9448 51.7866 35.9448C51.6439 36.0878 51.5013 36.2021 51.3301 36.2593C51.1589 36.3165 50.9878 36.3737 50.8166 36.3737C50.5028 36.3737 50.246 36.2879 50.0463 36.1164C49.8466 35.9448 49.761 35.7161 49.761 35.4587C49.761 35.2872 49.7895 35.1156 49.8751 34.9726C49.9607 34.8296 50.0748 34.7153 50.246 34.6581C50.3886 34.5723 50.6169 34.5151 50.9022 34.4579C51.3016 34.3721 51.5583 34.3149 51.701 34.2577V34.172C51.701 34.0004 51.6725 33.886 51.5869 33.8288C51.5013 33.7716 51.3586 33.7144 51.1304 33.7144C50.9878 33.7144 50.8736 33.7431 50.7881 33.8002C50.7595 33.8574 50.7025 33.9432 50.6454 34.1148ZM51.7581 34.7725C51.6439 34.801 51.4728 34.8582 51.2445 34.8868C51.0163 34.944 50.8736 34.9726 50.7881 35.0298C50.6739 35.1156 50.6169 35.2014 50.6169 35.3157C50.6169 35.4301 50.6739 35.5445 50.7595 35.6303C50.8451 35.7161 50.9592 35.7447 51.1019 35.7447C51.2445 35.7447 51.3872 35.6875 51.5298 35.6017C51.6439 35.5159 51.701 35.4301 51.7295 35.3157C51.7581 35.2586 51.7581 35.1156 51.7581 34.9154V34.7725ZM53.6125 32.7137V31.9416H54.4398V32.7137H53.6125ZM53.6125 36.2879V33.114H54.4398V36.2879H53.6125ZM56.123 36.2879L55.1245 33.114H55.9233L56.5224 35.1728L57.0645 33.114H57.8633L58.3769 35.1728L58.976 33.114H59.8033L58.7763 36.2879H57.9774L57.4354 34.2577L56.8933 36.2879H56.123ZM61.1157 34.1148L60.3739 33.9718C60.4595 33.6573 60.6021 33.4285 60.8018 33.2855C61.0015 33.1426 61.3154 33.0568 61.7148 33.0568C62.0857 33.0568 62.3709 33.114 62.5421 33.1998C62.7133 33.2856 62.8559 33.3999 62.913 33.5429C62.9986 33.6859 63.0271 33.9146 63.0271 34.2863V35.2585C63.0271 35.5445 63.0271 35.7446 63.0557 35.859C63.0842 35.9734 63.1412 36.1449 63.1983 36.2879H62.371C62.3424 36.2307 62.3139 36.145 62.2854 36.0306C62.2854 35.9734 62.2568 35.9448 62.2568 35.9448C62.1142 36.0878 61.9715 36.2021 61.8004 36.2593C61.6292 36.3165 61.458 36.3737 61.2868 36.3737C60.973 36.3737 60.7162 36.2879 60.5165 36.1164C60.3168 35.9448 60.2313 35.7161 60.2313 35.4587C60.2313 35.2872 60.2598 35.1156 60.3454 34.9726C60.431 34.8296 60.5451 34.7153 60.7163 34.6581C60.8589 34.5723 61.0871 34.5151 61.3724 34.4579C61.7718 34.3721 62.0286 34.3149 62.1712 34.2577V34.172C62.1712 34.0004 62.1427 33.886 62.0571 33.8288C61.9715 33.7716 61.8289 33.7144 61.6007 33.7144C61.458 33.7144 61.3439 33.7431 61.2583 33.8002C61.2298 33.8574 61.1442 33.9432 61.1157 34.1148ZM62.2283 34.7725C62.1142 34.801 61.943 34.8582 61.7148 34.8868C61.4865 34.944 61.3439 34.9726 61.2583 35.0298C61.1442 35.1156 61.0871 35.2014 61.0871 35.3157C61.0871 35.4301 61.1442 35.5445 61.2298 35.6303C61.3154 35.7161 61.4295 35.7447 61.5721 35.7447C61.7148 35.7447 61.8574 35.6875 62.0001 35.6017C62.1142 35.5159 62.1712 35.4301 62.1998 35.3157C62.2283 35.2586 62.2283 35.1156 62.2283 34.9154V34.7725ZM66.1368 36.2879V34.6867C66.1368 34.3435 66.1083 34.1148 66.0798 34.029C66.0512 33.9146 65.9942 33.8574 65.9086 33.8002C65.823 33.7431 65.7374 33.7144 65.6233 33.7144C65.4806 33.7144 65.338 33.743 65.2239 33.8288C65.1098 33.9146 65.0242 34.0004 64.9956 34.1434C64.9386 34.2863 64.9386 34.5151 64.9386 34.8582V36.2879H64.1112V33.114H64.8815V33.5715C65.1668 33.2283 65.5092 33.0282 65.9371 33.0282C66.1083 33.0282 66.2795 33.0568 66.4506 33.114C66.5933 33.1712 66.7074 33.257 66.793 33.3713C66.8786 33.4857 66.9356 33.6001 66.9642 33.7144C66.9927 33.8574 67.0212 34.029 67.0212 34.2863V36.2879H66.1368ZM73.9824 36.2879V31.913H74.8097V36.2879H73.9824ZM75.8938 32.7137V31.9416H76.7212V32.7137H75.8938ZM75.8938 36.2879V33.114H76.7212V36.2879H75.8938ZM77.7482 33.1426H78.5185V33.5715C78.8038 33.2283 79.1176 33.0854 79.4885 33.0854C79.6882 33.0854 79.8594 33.114 80.002 33.1998C80.1447 33.2856 80.2588 33.3999 80.3729 33.5715C80.5156 33.3999 80.6582 33.2856 80.8294 33.1998C81.0006 33.114 81.1718 33.0854 81.3429 33.0854C81.5712 33.0854 81.7709 33.1426 81.942 33.2284C82.1132 33.3141 82.2273 33.4571 82.3129 33.6573C82.37 33.8002 82.3985 34.0004 82.3985 34.315V36.3451H81.5712V34.5437C81.5712 34.2292 81.5426 34.029 81.4856 33.9432C81.4 33.8288 81.2859 33.7717 81.1432 33.7717C81.0291 33.7717 80.915 33.8003 80.8009 33.886C80.6868 33.9718 80.6297 34.0576 80.5726 34.2006C80.5156 34.3435 80.5156 34.5437 80.5156 34.8582V36.3737H79.6882V34.6295C79.6882 34.3149 79.6597 34.1148 79.6312 34.029C79.6026 33.9432 79.5456 33.886 79.4885 33.8288C79.4315 33.7716 79.3459 33.7717 79.2318 33.7717C79.0891 33.7717 78.975 33.8003 78.8894 33.886C78.7753 33.9432 78.7182 34.0576 78.6612 34.2006C78.6041 34.3435 78.6041 34.5437 78.6041 34.8582V36.4023H77.7482V33.1426ZM83.397 36.2879V31.913H84.2244V33.4857C84.4811 33.1998 84.795 33.0568 85.1373 33.0568C85.5082 33.0568 85.8506 33.1998 86.0788 33.4857C86.3356 33.7717 86.4497 34.172 86.4497 34.6867C86.4497 35.2299 86.3356 35.6303 86.0788 35.9448C85.822 36.2307 85.5082 36.3737 85.1373 36.3737C84.9661 36.3737 84.7664 36.3165 84.5953 36.2307C84.4241 36.145 84.2814 36.002 84.1388 35.8304V36.2879H83.397ZM84.1958 34.6581C84.1958 34.9726 84.2529 35.23 84.3385 35.3729C84.4811 35.6017 84.6808 35.716 84.9091 35.716C85.0803 35.716 85.2514 35.6303 85.3941 35.4873C85.5367 35.3157 85.5938 35.087 85.5938 34.7439C85.5938 34.3721 85.5367 34.1148 85.3941 33.9718C85.2514 33.8002 85.1088 33.7431 84.8805 33.7431C84.6808 33.7431 84.5097 33.8288 84.367 33.9718C84.2814 34.0862 84.1958 34.3435 84.1958 34.6581ZM87.3626 32.7137V31.9416H88.1899V32.7137H87.3626ZM87.3626 36.2879V33.114H88.1899V36.2879H87.3626ZM91.2996 36.2879V34.6867C91.2996 34.3435 91.2711 34.1148 91.2426 34.029C91.2141 33.9146 91.157 33.8574 91.0714 33.8002C90.9858 33.7431 90.9002 33.7144 90.7861 33.7144C90.6435 33.7144 90.5008 33.743 90.3867 33.8288C90.2726 33.9146 90.187 34.0004 90.1585 34.1434C90.1014 34.2863 90.1014 34.5151 90.1014 34.8582V36.2879H89.2741V33.114H90.0444V33.5715C90.3297 33.2283 90.672 33.0282 91.0999 33.0282C91.2711 33.0282 91.4423 33.0568 91.6135 33.114C91.7561 33.1712 91.8702 33.257 91.9558 33.3713C92.0414 33.4857 92.0985 33.6001 92.127 33.7144C92.1555 33.8574 92.184 34.029 92.184 34.2863V36.2879H91.2996ZM93.1255 36.4881L94.067 36.6025C94.0955 36.7169 94.124 36.8026 94.1811 36.8312C94.2667 36.8884 94.3808 36.917 94.552 36.917C94.7802 36.917 94.9229 36.8884 95.037 36.8312C95.1226 36.774 95.1796 36.7169 95.2082 36.6311C95.2367 36.5739 95.2367 36.4309 95.2367 36.2593V35.8018C94.9799 36.145 94.6661 36.3165 94.2952 36.3165C93.8673 36.3165 93.5249 36.145 93.2967 35.7732C93.097 35.4873 93.0114 35.1442 93.0114 34.7152C93.0114 34.172 93.1255 33.7717 93.3823 33.5143C93.639 33.2284 93.9529 33.0854 94.3237 33.0854C94.7232 33.0854 95.037 33.257 95.2937 33.6001V33.1426H96.064V35.9734C96.064 36.3451 96.0355 36.6311 95.9784 36.8026C95.9214 36.9742 95.8358 37.1458 95.7217 37.2315C95.6076 37.3459 95.4649 37.4317 95.2652 37.4889C95.094 37.5461 94.8373 37.5747 94.552 37.5747C94.0099 37.5747 93.639 37.4889 93.4108 37.2887C93.1826 37.1171 93.0685 36.8598 93.0685 36.5739C93.1255 36.5739 93.1255 36.5453 93.1255 36.4881ZM93.8673 34.6581C93.8673 35.0012 93.9243 35.2299 94.067 35.4015C94.2096 35.5445 94.3523 35.6303 94.552 35.6303C94.7517 35.6303 94.9229 35.5445 95.0655 35.4015C95.2082 35.2299 95.2652 35.0012 95.2652 34.6867C95.2652 34.3721 95.2082 34.1148 95.0655 33.9718C94.9229 33.8002 94.7517 33.7431 94.552 33.7431C94.3523 33.7431 94.1811 33.8288 94.067 33.9718C93.9243 34.0862 93.8673 34.3435 93.8673 34.6581ZM102.34 35.7732L101.827 36.4309C101.57 36.3165 101.342 36.145 101.114 35.9448C100.943 36.1164 100.743 36.2307 100.543 36.2879C100.343 36.3737 100.115 36.4023 99.8299 36.4023C99.2878 36.4023 98.8884 36.2593 98.6031 35.9448C98.4034 35.7161 98.2893 35.4301 98.2893 35.1156C98.2893 34.8296 98.3749 34.5723 98.5461 34.3721C98.7172 34.1434 98.974 33.9432 99.2878 33.8002C99.1452 33.6287 99.0311 33.4571 98.9455 33.2855C98.8599 33.114 98.8314 32.971 98.8314 32.828C98.8314 32.5707 98.9455 32.3419 99.1452 32.1418C99.3449 31.9702 99.6587 31.8558 100.058 31.8558C100.429 31.8558 100.714 31.9416 100.943 32.1418C101.142 32.3419 101.256 32.5707 101.256 32.8566C101.256 33.0282 101.199 33.1998 101.114 33.3713C101 33.5429 100.8 33.7145 100.486 33.9146L101.085 34.7152C101.142 34.6009 101.228 34.4293 101.256 34.2292L102.027 34.4007C101.941 34.6581 101.884 34.8582 101.827 35.0012C101.77 35.1156 101.713 35.23 101.656 35.3157C101.741 35.4015 101.884 35.4873 102.027 35.6017C102.169 35.6589 102.283 35.7447 102.34 35.7732ZM100.058 33.3999L100.286 33.2284C100.458 33.0854 100.543 32.971 100.543 32.8566C100.543 32.7423 100.515 32.6565 100.429 32.5707C100.343 32.4849 100.229 32.4563 100.115 32.4563C99.9725 32.4563 99.8869 32.4849 99.8014 32.5421C99.7158 32.5993 99.6872 32.6851 99.6872 32.7709C99.6872 32.8852 99.7443 32.9996 99.887 33.1426L100.058 33.3999ZM99.7443 34.2863C99.5446 34.3721 99.402 34.5151 99.3164 34.6295C99.2308 34.7725 99.1737 34.9154 99.1737 35.0584C99.1737 35.23 99.2308 35.4015 99.3449 35.4873C99.459 35.6017 99.6302 35.6589 99.8299 35.6589C99.9725 35.6589 100.087 35.6303 100.201 35.5731C100.315 35.5159 100.458 35.4301 100.6 35.3157L99.7443 34.2863ZM109.73 34.6867C109.73 34.4007 109.787 34.1434 109.929 33.886C110.072 33.6287 110.272 33.4285 110.5 33.2855C110.757 33.1426 111.042 33.0854 111.327 33.0854C111.812 33.0854 112.183 33.2284 112.497 33.5429C112.811 33.8574 112.953 34.2577 112.953 34.7152C112.953 35.2013 112.811 35.6017 112.497 35.9162C112.183 36.2308 111.812 36.4023 111.327 36.4023C111.042 36.4023 110.757 36.3451 110.5 36.2022C110.243 36.0592 110.043 35.8876 109.901 35.6303C109.815 35.3443 109.73 35.0298 109.73 34.6867ZM110.614 34.7152C110.614 35.0298 110.7 35.2585 110.842 35.4301C110.985 35.6017 111.185 35.6875 111.384 35.6875C111.612 35.6875 111.784 35.6017 111.926 35.4301C112.069 35.2585 112.155 35.0298 112.155 34.7152C112.155 34.4007 112.069 34.172 111.926 34.0004C111.784 33.8288 111.584 33.7431 111.384 33.7431C111.156 33.7431 110.985 33.8288 110.842 34.0004C110.671 34.172 110.614 34.4007 110.614 34.7152ZM115.949 36.2879V35.8018C115.835 35.9734 115.692 36.1164 115.492 36.2022C115.293 36.2879 115.122 36.3451 114.893 36.3451C114.694 36.3451 114.494 36.2879 114.323 36.2022C114.152 36.1164 114.037 35.9734 113.952 35.8018C113.866 35.6303 113.838 35.4015 113.838 35.087V33.0854H114.665V34.5437C114.665 35.0012 114.694 35.2585 114.722 35.3729C114.751 35.4873 114.808 35.5445 114.893 35.6017C114.979 35.6589 115.065 35.6875 115.207 35.6875C115.35 35.6875 115.464 35.6588 115.578 35.5731C115.692 35.4873 115.778 35.4015 115.806 35.2871C115.835 35.1728 115.863 34.8868 115.863 34.4293V33.0854H116.691V36.2593H115.949V36.2879ZM119.857 36.2879V34.6867C119.857 34.3435 119.829 34.1148 119.8 34.029C119.772 33.9146 119.715 33.8574 119.629 33.8002C119.544 33.7431 119.458 33.7144 119.344 33.7144C119.201 33.7144 119.059 33.743 118.945 33.8288C118.83 33.9146 118.745 34.0004 118.716 34.1434C118.659 34.2863 118.659 34.5151 118.659 34.8582V36.2879H117.832V33.114H118.602V33.5715C118.887 33.2283 119.23 33.0282 119.658 33.0282C119.829 33.0282 120 33.0568 120.171 33.114C120.314 33.1712 120.428 33.257 120.514 33.3713C120.599 33.4857 120.656 33.6001 120.685 33.7144C120.713 33.8574 120.742 34.029 120.742 34.2863V36.2879H119.857ZM123.195 33.1426V33.8002H122.625V35.087C122.625 35.3443 122.625 35.4873 122.653 35.5445C122.653 35.5731 122.682 35.6303 122.739 35.6589C122.767 35.6875 122.825 35.6875 122.882 35.6875C122.967 35.6875 123.081 35.6589 123.224 35.6017L123.281 36.2593C123.081 36.3451 122.882 36.3737 122.625 36.3737C122.482 36.3737 122.339 36.3451 122.225 36.2879C122.111 36.2307 122.026 36.1736 121.969 36.0878C121.912 36.002 121.883 35.8876 121.854 35.7732C121.826 35.6875 121.826 35.4873 121.826 35.1728V33.8002H121.398V33.1426H121.769V32.5135L122.596 32.0274V33.1426H123.195ZM124.593 34.1148L123.852 33.9718C123.937 33.6573 124.08 33.4285 124.279 33.2855C124.479 33.1426 124.793 33.0568 125.192 33.0568C125.563 33.0568 125.849 33.114 126.02 33.1998C126.191 33.2856 126.334 33.3999 126.391 33.5429C126.476 33.6859 126.505 33.9146 126.505 34.2863V35.2585C126.505 35.5445 126.505 35.7446 126.533 35.859C126.562 35.9734 126.619 36.1449 126.676 36.2879H125.849C125.82 36.2307 125.792 36.145 125.763 36.0306C125.763 35.9734 125.734 35.9448 125.734 35.9448C125.592 36.0878 125.449 36.2021 125.278 36.2593C125.107 36.3165 124.936 36.3737 124.764 36.3737C124.451 36.3737 124.194 36.2879 123.994 36.1164C123.794 35.9448 123.709 35.7161 123.709 35.4587C123.709 35.2872 123.737 35.1156 123.823 34.9726C123.909 34.8296 124.023 34.7153 124.194 34.6581C124.337 34.5723 124.565 34.5151 124.85 34.4579C125.249 34.3721 125.506 34.3149 125.649 34.2577V34.172C125.649 34.0004 125.62 33.886 125.535 33.8288C125.449 33.7716 125.307 33.7144 125.078 33.7144C124.936 33.7144 124.822 33.7431 124.736 33.8002C124.736 33.8574 124.65 33.9432 124.593 34.1148ZM125.734 34.7725C125.62 34.801 125.449 34.8582 125.221 34.8868C124.993 34.944 124.85 34.9726 124.764 35.0298C124.65 35.1156 124.593 35.2014 124.593 35.3157C124.593 35.4301 124.65 35.5445 124.736 35.6303C124.822 35.7161 124.936 35.7447 125.078 35.7447C125.221 35.7447 125.364 35.6875 125.506 35.6017C125.62 35.5159 125.677 35.4301 125.706 35.3157C125.734 35.2586 125.734 35.1156 125.734 34.9154V34.7725ZM127.589 32.7137V31.9416H128.416V32.7137H127.589ZM127.589 36.2879V33.114H128.416V36.2879H127.589ZM131.554 36.2879V34.6867C131.554 34.3435 131.526 34.1148 131.497 34.029C131.469 33.9146 131.412 33.8574 131.326 33.8002C131.241 33.7431 131.155 33.7144 131.041 33.7144C130.898 33.7144 130.756 33.743 130.642 33.8288C130.527 33.9146 130.442 34.0004 130.413 34.1434C130.356 34.2863 130.356 34.5151 130.356 34.8582V36.2879H129.529V33.114H130.299V33.5715C130.584 33.2283 130.927 33.0282 131.355 33.0282C131.526 33.0282 131.697 33.0568 131.868 33.114C132.011 33.1712 132.125 33.257 132.211 33.3713C132.296 33.4857 132.353 33.6001 132.382 33.7144C132.41 33.8574 132.439 34.029 132.439 34.2863V36.2879H131.554ZM135.263 35.2871L136.091 35.4301C135.977 35.7446 135.805 35.9734 135.577 36.1164C135.349 36.2879 135.064 36.3451 134.721 36.3451C134.179 36.3451 133.78 36.1736 133.494 35.8018C133.295 35.5159 133.181 35.1442 133.181 34.7152C133.181 34.2006 133.323 33.7717 133.58 33.4857C133.865 33.1998 134.208 33.0282 134.607 33.0282C135.064 33.0282 135.434 33.1712 135.72 33.4857C135.977 33.8003 136.119 34.2864 136.119 34.9154H134.036C134.036 35.1728 134.122 35.3443 134.236 35.4873C134.35 35.6303 134.522 35.6875 134.721 35.6875C134.864 35.6875 134.949 35.6588 135.064 35.5731C135.149 35.5731 135.206 35.4587 135.263 35.2871ZM135.32 34.4579C135.32 34.2292 135.263 34.029 135.121 33.9146C135.006 33.8003 134.864 33.7144 134.693 33.7144C134.521 33.7144 134.35 33.7717 134.236 33.9146C134.122 34.0576 134.065 34.2292 134.065 34.4579H135.32ZM138.858 35.2871L139.685 35.4301C139.571 35.7446 139.4 35.9734 139.172 36.1164C138.944 36.2879 138.658 36.3451 138.316 36.3451C137.774 36.3451 137.374 36.1736 137.089 35.8018C136.889 35.5159 136.775 35.1442 136.775 34.7152C136.775 34.2006 136.918 33.7717 137.175 33.4857C137.46 33.1998 137.802 33.0282 138.202 33.0282C138.658 33.0282 139.029 33.1712 139.314 33.4857C139.571 33.8003 139.714 34.2864 139.714 34.9154H137.66C137.66 35.1728 137.745 35.3443 137.859 35.4873C137.974 35.6303 138.145 35.6875 138.344 35.6875C138.487 35.6875 138.573 35.6588 138.687 35.5731C138.744 35.5731 138.801 35.4587 138.858 35.2871ZM138.915 34.4579C138.915 34.2292 138.858 34.029 138.715 33.9146C138.601 33.8003 138.459 33.7144 138.287 33.7144C138.116 33.7144 137.945 33.7717 137.831 33.9146C137.717 34.0576 137.66 34.2292 137.66 34.4579H138.915ZM140.598 36.2879V33.114H141.369V33.5715C141.511 33.3713 141.625 33.2284 141.739 33.1426C141.854 33.0854 141.968 33.0568 142.11 33.0568C142.31 33.0568 142.481 33.114 142.652 33.2284L142.396 33.9432C142.253 33.8574 142.11 33.8002 141.996 33.8002C141.882 33.8002 141.768 33.8289 141.711 33.886C141.625 33.9432 141.568 34.0576 141.511 34.2292C141.454 34.4007 141.454 34.7438 141.454 35.2871V36.2879H140.598ZM143.223 32.7137V31.9416H144.05V32.7137H143.223ZM143.223 36.2879V33.114H144.05V36.2879H143.223ZM147.189 36.2879V34.6867C147.189 34.3435 147.16 34.1148 147.131 34.029C147.103 33.9146 147.046 33.8574 146.96 33.8002C146.875 33.7431 146.789 33.7144 146.675 33.7144C146.532 33.7144 146.39 33.743 146.276 33.8288C146.161 33.9146 146.076 34.0004 146.047 34.1434C145.99 34.2863 145.99 34.5151 145.99 34.8582V36.2879H145.163V33.114H145.933V33.5715C146.219 33.2283 146.561 33.0282 146.989 33.0282C147.16 33.0282 147.331 33.0568 147.502 33.114C147.645 33.1712 147.759 33.257 147.845 33.3713C147.93 33.4857 147.987 33.6001 148.016 33.7144C148.044 33.8574 148.073 34.029 148.073 34.2863V36.2879H147.189ZM148.986 36.4881L149.927 36.6025C149.956 36.7169 149.984 36.8026 150.041 36.8312C150.127 36.8884 150.241 36.917 150.412 36.917C150.641 36.917 150.783 36.8884 150.897 36.8312C150.983 36.774 151.04 36.7169 151.068 36.6311C151.097 36.5739 151.097 36.4309 151.097 36.2593V35.8018C150.84 36.145 150.526 36.3165 150.156 36.3165C149.728 36.3165 149.385 36.145 149.157 35.7732C148.957 35.4873 148.872 35.1442 148.872 34.7152C148.872 34.172 148.986 33.7717 149.243 33.5143C149.499 33.2284 149.813 33.0854 150.184 33.0854C150.583 33.0854 150.897 33.257 151.154 33.6001V33.1426H151.924V35.9734C151.924 36.3451 151.896 36.6311 151.839 36.8026C151.782 36.9742 151.696 37.1458 151.582 37.2315C151.468 37.3459 151.325 37.4317 151.126 37.4889C150.954 37.5461 150.698 37.5747 150.412 37.5747C149.87 37.5747 149.499 37.4889 149.271 37.2887C149.043 37.1171 148.929 36.8598 148.929 36.5739C148.986 36.5739 148.986 36.5453 148.986 36.4881ZM149.728 34.6581C149.728 35.0012 149.785 35.2299 149.927 35.4015C150.07 35.5445 150.213 35.6303 150.412 35.6303C150.612 35.6303 150.783 35.5445 150.926 35.4015C151.068 35.2299 151.126 35.0012 151.126 34.6867C151.126 34.3721 151.068 34.1148 150.926 33.9718C150.783 33.8002 150.612 33.7431 150.412 33.7431C150.213 33.7431 150.041 33.8288 149.927 33.9718C149.813 34.0862 149.728 34.3435 149.728 34.6581ZM158.629 36.2879V31.913H159.456V36.2879H158.629ZM160.54 36.2879V31.913H161.368V36.2879H160.54ZM162.452 32.7137V31.9416H163.279V32.7137H162.452ZM162.452 36.2879V33.114H163.279V36.2879H162.452ZM164.962 34.1148L164.22 33.9718C164.306 33.6573 164.449 33.4285 164.648 33.2855C164.848 33.1426 165.162 33.0568 165.561 33.0568C165.932 33.0568 166.218 33.114 166.389 33.1998C166.56 33.2856 166.703 33.3999 166.76 33.5429C166.845 33.6859 166.874 33.9146 166.874 34.2863V35.2585C166.874 35.5445 166.874 35.7446 166.902 35.859C166.931 36.002 166.988 36.1449 167.045 36.2879H166.218C166.189 36.2307 166.16 36.145 166.132 36.0306C166.132 35.9734 166.103 35.9448 166.103 35.9448C165.961 36.0878 165.818 36.2021 165.647 36.2593C165.476 36.3165 165.305 36.3737 165.133 36.3737C164.82 36.3737 164.563 36.2879 164.363 36.1164C164.163 35.9448 164.078 35.7161 164.078 35.4587C164.078 35.2872 164.106 35.1156 164.192 34.9726C164.278 34.8296 164.392 34.7153 164.563 34.6581C164.705 34.5723 164.934 34.5151 165.219 34.4579C165.618 34.3721 165.875 34.3149 166.018 34.2577V34.172C166.018 34.0004 165.989 33.886 165.904 33.8288C165.818 33.7716 165.675 33.7144 165.447 33.7144C165.305 33.7144 165.19 33.7431 165.105 33.8002C165.105 33.8574 165.019 33.9432 164.962 34.1148ZM166.103 34.7725C165.989 34.801 165.818 34.8582 165.59 34.8868C165.362 34.944 165.219 34.9726 165.133 35.0298C165.019 35.1156 164.962 35.2014 164.962 35.3157C164.962 35.4301 165.019 35.5445 165.105 35.6303C165.19 35.7161 165.305 35.7447 165.447 35.7447C165.59 35.7447 165.733 35.6875 165.875 35.6017C165.989 35.5159 166.046 35.4301 166.075 35.3157C166.103 35.2586 166.103 35.1156 166.103 34.9154V34.7725ZM169.983 36.2879V34.6867C169.983 34.3435 169.955 34.1148 169.926 34.029C169.898 33.9146 169.841 33.8574 169.755 33.8002C169.67 33.7431 169.584 33.7144 169.47 33.7144C169.327 33.7144 169.185 33.743 169.07 33.8288C168.956 33.9146 168.871 34.0004 168.842 34.1434C168.785 34.2863 168.785 34.5151 168.785 34.8582V36.2879H167.958V33.114H168.728V33.5715C169.013 33.2283 169.356 33.0282 169.784 33.0282C169.955 33.0282 170.126 33.0568 170.297 33.114C170.44 33.1712 170.554 33.257 170.64 33.3713C170.725 33.4857 170.782 33.6001 170.811 33.7144C170.839 33.8574 170.868 34.029 170.868 34.2863V36.2879H169.983ZM174.634 34.0576L173.806 34.2006C173.778 34.029 173.721 33.9146 173.607 33.8288C173.521 33.743 173.378 33.7144 173.236 33.7144C173.036 33.7144 172.865 33.8002 172.751 33.9432C172.637 34.0862 172.551 34.3149 172.551 34.6581C172.551 35.0298 172.608 35.2872 172.751 35.4587C172.865 35.6017 173.036 35.6875 173.264 35.6875C173.435 35.6875 173.55 35.6303 173.664 35.5445C173.778 35.4587 173.835 35.2871 173.892 35.087L174.719 35.23C174.634 35.6017 174.463 35.8876 174.234 36.0878C174.006 36.2879 173.664 36.3737 173.264 36.3737C172.808 36.3737 172.437 36.2307 172.152 35.9448C171.866 35.6589 171.752 35.2586 171.752 34.7439C171.752 34.2292 171.895 33.8288 172.152 33.5143C172.437 33.2284 172.808 33.0854 173.264 33.0854C173.635 33.0854 173.949 33.1712 174.177 33.3427C174.377 33.4857 174.548 33.7431 174.634 34.0576ZM177.315 35.2871L178.143 35.4301C178.029 35.7446 177.857 35.9734 177.629 36.1164C177.401 36.2879 177.116 36.3451 176.773 36.3451C176.231 36.3451 175.832 36.1736 175.547 35.8018C175.347 35.5159 175.233 35.1442 175.233 34.7152C175.233 34.2006 175.375 33.7717 175.632 33.4857C175.917 33.1998 176.26 33.0282 176.659 33.0282C177.116 33.0282 177.487 33.1712 177.772 33.4857C178.029 33.8003 178.171 34.2864 178.171 34.9154H176.089C176.089 35.1728 176.174 35.3443 176.288 35.4873C176.403 35.6303 176.574 35.6875 176.773 35.6875C176.916 35.6875 177.002 35.6588 177.116 35.5731C177.201 35.5731 177.258 35.4587 177.315 35.2871ZM177.372 34.4579C177.372 34.2292 177.315 34.029 177.173 33.9146C177.059 33.8003 176.916 33.7144 176.745 33.7144C176.574 33.7144 176.403 33.7717 176.288 33.9146C176.174 34.0576 176.117 34.2292 176.117 34.4579H177.372Z" fill="white"/>
<path fill-rule="evenodd" clip-rule="evenodd" d="M13.215 6.29273C13.5573 6.17836 13.8711 5.89242 14.2135 5.72085C14.1279 5.9496 13.8141 6.12114 14.0708 6.40708C14.2705 6.29271 14.4702 6.20693 14.6985 6.09255C14.67 6.03537 14.6129 5.97819 14.5844 5.89241C14.7841 5.77803 14.9838 5.63506 15.212 5.49208C15.0979 5.26333 15.212 5.06318 15.4973 5.03459C15.5258 5.03459 15.5544 5.03459 15.6114 5.006V5.09176C15.8397 5.06317 15.5258 5.37772 15.8397 5.006L15.7826 4.9202C15.8111 4.89161 15.8682 4.89162 15.8967 4.86303C16.2676 4.74865 16.667 4.60566 17.0379 4.51988C17.152 4.49128 17.2376 4.46271 17.3517 4.43412C17.4658 4.86303 17.6655 4.863 17.8652 4.83441C17.8082 4.66284 17.6941 4.57707 17.5229 4.37691C17.7226 4.31972 17.9223 4.29113 18.122 4.23394C18.1791 4.23394 18.2361 4.23394 18.2932 4.23394C18.5214 4.17675 18.7211 4.11956 18.9493 4.09097C18.9493 4.09097 18.607 4.37692 18.9493 4.17676C19.0064 4.14817 19.0635 4.09097 19.0635 4.06238C19.092 4.06238 19.1205 4.06238 19.149 4.06238C19.4058 4.03379 19.6626 4.06238 19.8908 4.06238H20.0905C20.2046 4.51989 20.4043 4.49129 20.604 4.49129C20.547 4.31973 20.4614 4.23394 20.2617 4.06238C21.0605 4.06238 21.8593 4.06239 22.6296 4.03379L22.6581 4.29115C22.8864 4.26255 22.5726 4.57707 22.8864 4.20535C22.8293 4.11957 22.8008 4.06239 22.7723 4.03379C23.0005 4.03379 23.2287 4.0338 23.457 4.00521C23.9134 3.97661 24.2843 4.06238 24.6267 4.34832C24.7123 4.40551 24.7408 4.51989 24.8264 4.63426C24.9405 4.49129 25.0546 4.31974 25.1687 4.14818C25.1973 4.14818 25.2258 4.17676 25.2543 4.17676C25.2258 4.29114 25.2258 4.37691 25.1973 4.49129C25.2258 4.51989 25.2543 4.51987 25.2828 4.54847C25.3684 4.43409 25.4825 4.29113 25.6252 4.09097C25.8249 4.20534 26.0817 4.31973 26.3384 4.4627C26.3955 4.4913 26.4525 4.51988 26.4811 4.51988C26.9661 4.29113 27.1658 4.80583 27.5367 4.9202C27.6793 4.97739 27.8505 4.94878 27.9646 4.97738C28.1643 5.03457 28.364 5.12036 28.5637 5.20614C28.6778 5.46349 28.849 5.4635 29.0202 5.4635C29.0202 5.4349 28.9916 5.4063 28.9916 5.3777H29.0202C29.1628 5.43489 29.3055 5.52067 29.4481 5.54926C29.6478 5.60645 29.7619 5.66364 29.8761 5.69223C30.1614 6.03536 30.0187 5.86382 30.1043 5.86382C30.1899 5.9496 30.2469 6.06396 30.3611 6.23552C30.3611 6.09255 30.3611 6.00676 30.3611 5.8352C30.6749 6.03536 31.0743 6.00677 31.1028 6.37849C31.2169 6.40709 31.3881 6.4357 31.3881 6.4357C31.3881 6.63586 31.3881 6.80743 31.3311 7.00759C31.3025 7.12196 31.0743 7.20774 31.1028 7.32211C31.1313 7.60806 31.1028 7.894 30.9887 8.17994C31.0172 8.17994 31.0458 8.20853 31.0743 8.20853C31.2455 8.03696 31.4452 7.86539 31.5878 7.66523C31.7019 7.43648 31.7305 7.17914 31.8446 6.8932C32.0728 6.97899 32.301 7.06475 32.4722 7.12193C32.3296 7.35069 32.1299 7.49367 32.1584 7.63664C32.1584 7.80821 32.3581 7.97977 32.5008 8.20853C32.6434 7.8654 32.9858 7.69383 33.214 7.77961C33.4137 7.8368 33.5278 8.23711 33.4137 8.52305C33.8416 8.43727 33.8131 8.75182 33.7846 9.03776C33.8131 9.03776 33.8416 9.03776 33.8702 9.03776C33.9272 8.92338 33.9843 8.80901 34.0984 8.60885C34.4693 8.98057 34.8402 9.32368 35.211 9.69541C35.5249 10.0385 35.8101 10.3817 36.0954 10.7248C36.4663 11.2109 36.8372 11.7256 37.2081 12.2117C37.3507 12.3833 37.5219 12.5548 37.636 12.755C37.6931 12.8694 37.6646 13.0695 37.7216 13.2125C37.7501 13.3269 37.7787 13.5556 37.8357 13.5556C38.2637 13.5842 38.1781 13.9559 38.2637 14.2133C38.549 14.8995 38.8628 15.6144 39.091 16.3293C39.3763 17.2157 39.576 18.1021 39.7472 19.0171C39.6616 18.9313 39.576 18.8455 39.4619 18.7025C39.2622 19.1886 39.7757 19.6176 39.4619 20.1037C40.1181 20.5898 40.061 21.3046 40.004 22.0481C40.004 22.1911 40.004 22.3054 40.004 22.4198C40.004 22.5628 39.9184 22.7057 39.8613 22.8201C39.8898 22.9631 39.9754 23.106 39.9754 23.249C39.7472 24.5358 39.6045 25.8511 39.2622 27.1092C39.0054 28.0814 38.6916 29.0536 38.064 29.8829C37.8928 30.083 37.9213 30.4261 37.7787 30.6835C37.5219 31.141 37.2081 31.5699 36.8657 31.9702C36.8087 32.0274 36.609 31.9702 36.4663 31.9702C36.5234 32.056 36.5804 32.1132 36.6375 32.199C36.4663 32.3706 36.3237 32.5421 36.1525 32.7137C36.0099 32.8566 35.7246 32.971 35.9813 33.2855C36.0099 33.3141 35.9243 33.4285 35.8672 33.5143C35.4107 34.0004 34.9828 34.4865 34.4978 34.944C33.9843 35.4301 33.4422 35.9448 32.8716 36.3451C32.1584 36.8598 31.3881 37.3459 30.6464 37.8034C29.5337 38.4611 28.3355 38.9186 27.1087 39.2903C26.7093 39.4047 26.2814 39.6906 25.9105 39.0902C25.8534 39.3189 25.8249 39.4333 25.7964 39.6049C25.1402 39.6049 24.4555 40.3197 23.7993 39.5191C23.7423 39.5763 23.6567 39.6906 23.514 39.8622C23.457 39.6334 23.4284 39.5191 23.3999 39.3761C23.4284 39.4047 23.457 39.4333 23.4855 39.4619C23.6852 39.2903 23.999 39.1474 24.0276 38.9472C24.0276 38.9186 24.0276 38.89 24.0276 38.8614C28.6208 38.2609 32.8716 35.7733 35.6675 32.1704C35.639 32.2562 35.6104 32.3419 35.6104 32.4277C36.0954 32.4849 36.0099 31.9988 36.2381 31.8273C36.0954 31.7987 35.9813 31.8272 35.9243 31.8558C36.0954 31.6271 36.2666 31.3697 36.4378 31.141V31.6271C36.609 31.4841 36.7516 31.3698 36.9513 31.2268C36.7516 31.1696 36.6375 31.141 36.4663 31.1124C38.0925 28.5961 39.0625 25.6223 39.034 22.3912C39.0054 18.388 37.9498 15.2999 36.4663 12.9266C35.4963 11.3825 34.7831 10.4675 34.5263 10.4389C33.271 13.1553 31.274 10.9821 30.3611 11.9543C29.3911 12.9837 29.7905 13.1839 28.5637 14.3848C27.337 15.5858 25.4826 14.9282 24.7693 16.3007C24.4555 18.1879 25.2828 18.1307 24.5696 19.7033C24.1417 20.6469 22.6582 21.1903 22.4014 22.3054C22.1732 23.4206 22.7723 25.4794 22.8008 26.0513C22.8293 26.6231 23.1432 27.338 23.2002 27.8241C23.2858 28.5961 22.7152 29.0536 22.002 29.311L21.7452 30.0258C21.7167 30.1116 21.6596 30.226 21.6311 30.3404C21.6596 30.369 21.7167 30.369 21.7452 30.369C21.9164 30.3976 22.1446 30.3976 22.2017 30.369C22.2017 30.369 22.2017 30.369 22.2302 30.369C22.2587 30.369 22.2873 30.369 22.3158 30.3975C22.4584 30.4547 22.544 30.5119 22.5726 30.4833C22.6011 30.4833 22.6296 30.4833 22.6867 30.3118C22.7437 30.1402 22.7437 30.1974 22.7437 30.1116C22.7437 30.0544 22.7152 30.0258 22.7152 29.9972C22.6867 29.9686 22.6581 29.94 22.6581 29.8543C22.6581 29.7685 22.7152 29.7685 22.7437 29.7685C22.7437 29.7685 22.7723 29.7685 22.8008 29.7399C22.8293 29.7113 22.8293 29.7113 22.8579 29.7113C22.8864 29.7113 22.8864 29.7113 22.8864 29.7113C22.8864 29.7113 22.8864 29.6827 22.9149 29.6541C22.9434 29.6255 22.972 29.6255 22.972 29.5969C23.0005 29.5397 23.0005 29.5111 23.0005 29.5111C23.0005 29.4825 23.0005 29.4826 23.029 29.4826C23.029 29.4826 23.029 29.4826 23.0576 29.4826C23.0861 29.4826 23.2573 29.5397 23.2573 29.5397H23.2858C23.2858 29.5397 23.2858 29.5397 23.3143 29.5397V29.5111C23.3143 29.4825 23.3429 29.4826 23.3429 29.4826C23.3429 29.4826 23.3714 29.4826 23.3999 29.4826C23.4284 29.4826 23.4284 29.4826 23.4284 29.4826C23.4284 29.4826 23.4284 29.4253 23.457 29.3968C23.4855 29.3396 23.514 29.311 23.514 29.311H23.5426C23.5426 29.311 23.5996 29.3967 23.6567 29.4253C23.7137 29.4539 23.7708 29.4826 23.8564 29.4826C23.9134 29.5111 23.942 29.5683 23.942 29.5683V29.5969C23.942 29.6255 23.942 29.6255 23.942 29.6255C23.942 29.6255 23.999 29.6255 24.0561 29.7113C24.0846 29.7971 24.1131 29.9972 24.0846 30.083C24.0846 30.1688 24.0846 30.3118 24.0846 30.3975C24.0846 30.4833 24.1131 30.5405 24.1131 30.5691C24.1131 30.5977 24.1417 30.6263 24.1131 30.6263C24.0846 30.6549 24.0561 30.6263 23.8849 30.6835C23.7137 30.7407 23.6281 30.7693 23.5426 30.7693C23.457 30.7693 23.3429 30.7407 23.2858 30.6835C23.2287 30.6263 23.2002 30.5405 23.2002 30.5405C23.2002 30.5405 23.1432 30.5977 23.1146 30.7121C23.1146 30.8265 23.0576 31.3412 22.7152 31.8273C22.3729 32.3134 21.9164 32.6565 21.9164 32.6565C21.9164 32.6565 22.1446 32.6565 22.2587 32.8853C22.3729 33.114 22.3158 33.4285 22.3158 33.4857C22.3158 33.5429 22.2587 33.7431 22.0876 33.7717C21.9164 33.8003 21.8593 33.6573 21.8308 33.6001C21.8308 33.5429 21.8023 33.3999 21.7737 33.2284C21.7452 33.0568 21.7167 32.828 21.7167 32.828C21.7167 32.828 21.6596 32.8281 21.6311 32.9424C21.6026 33.0568 21.574 33.1426 21.2602 33.3142C20.9749 33.4857 20.7467 33.5715 20.4899 33.5715C20.3758 33.5715 20.2046 33.5143 20.062 33.4571C19.9764 33.6001 19.8908 33.7717 19.8908 33.7717C19.8908 33.7717 19.6911 34.1434 19.4914 34.4007C19.3202 34.6581 19.0349 35.2013 18.9493 35.2871C18.8923 35.3729 18.7211 35.7447 18.6355 35.9162C18.5499 36.0878 18.4073 36.3166 18.4073 36.3166L18.3788 36.3451C18.3502 36.3451 18.3502 36.3451 18.3502 36.3166C18.3502 36.3166 18.3502 36.2879 18.4073 36.2022C18.4643 36.1164 18.607 35.859 18.6926 35.6303C18.7782 35.4301 18.9779 35.0298 19.3202 34.4865C19.5485 34.1434 19.8052 33.6859 19.9764 33.3999C19.8338 33.3427 19.7482 33.2855 19.7482 33.2855L19.3488 33.1426C19.3488 33.1426 19.3202 33.2855 19.2061 33.4285C19.1205 33.5715 18.9779 33.6859 18.8352 33.9432C18.6926 34.2006 18.6641 34.2578 18.6641 34.315C18.6641 34.3436 18.4643 34.315 18.3788 34.315C18.2932 34.2864 18.2076 34.2577 18.0649 34.2863C17.9223 34.3435 17.5799 34.7438 17.4088 34.7153C17.2661 35.0298 17.0094 35.3443 16.4388 35.8304C15.8111 36.3451 12.9011 36.4023 12.2164 35.9162C11.8456 35.6303 12.4732 36.2022 13.7855 36.917V36.9456L13.8997 36.9742C14.185 37.1458 14.5273 37.2887 14.8982 37.4603L14.9838 38.5755C14.7841 38.4325 14.67 38.3181 14.5273 38.2609C14.3847 38.1751 14.185 38.1751 14.0994 38.0894C13.9567 37.9464 13.8426 37.7462 13.7285 37.5747C13.757 37.5461 13.7855 37.5175 13.7855 37.5175C13.7 37.5175 13.6144 37.4889 13.5003 37.4889C13.5288 37.6033 13.5288 37.7177 13.5573 37.8892C13.1579 37.6605 12.787 37.4317 12.4447 37.2315C12.4732 37.0886 12.5017 36.9742 12.5303 36.8312C12.1594 37.0314 11.9026 36.8312 11.6458 36.6883C10.6759 36.0592 9.8485 35.2585 9.04968 34.4293C8.56469 33.9432 8.10822 33.4285 7.70881 32.9138L8.02263 32.7709C7.85145 32.5135 7.87998 32.4849 7.76587 32.2562C7.65175 32.6279 7.79439 32.4849 7.56616 32.6851C7.22381 32.2276 6.90999 31.7701 6.65322 31.284C6.56764 31.1696 6.51058 31.0266 6.42499 30.8837C6.45352 30.8837 6.48205 30.8836 6.53911 30.855C6.79587 30.7407 6.68175 30.7693 6.71028 30.6263L6.62469 30.369L6.3394 30.3975L6.22528 30.4261C6.16823 30.2832 6.1397 30.1116 6.16823 29.9115C6.19675 29.7685 6.16823 29.3968 5.79734 29.3682C5.71176 29.3682 5.6547 29.2252 5.56911 29.1394C5.71176 28.9964 5.8544 28.8249 6.08264 28.6247C5.88293 28.6533 5.76882 28.6533 5.68323 28.6533C5.51205 28.4817 5.34088 28.3102 5.22676 28.1386C5.14117 28.0242 4.91294 27.8813 5.22676 27.7383C5.25529 27.7383 5.19823 27.5667 5.19823 27.481C5.14117 27.481 5.05558 27.5095 4.97 27.5095C4.85588 27.2522 4.77029 27.0235 5.1697 26.8805C5.08411 26.6517 5.28382 26.2514 4.74176 26.3086C4.97 25.9369 4.88441 25.6795 4.51353 25.508C4.42794 25.4794 4.37088 25.3364 4.37088 25.2506C4.28529 24.8503 4.22823 24.45 4.17118 23.9639C4.34235 24.1926 4.42794 24.3642 4.54206 24.5358C4.88441 24.4214 4.77029 24.1354 4.71323 23.9639C4.62764 23.6207 4.62764 23.1918 4 23.1918C4.34235 22.3054 4.65617 21.4762 4.99852 20.647C4.74176 20.504 4.59911 20.5326 4.22823 20.8471C4.05706 20.5326 4.25676 18.9885 4.59911 17.5302C4.71323 17.616 4.85588 17.6446 5.02705 17.5874C5.11264 17.5588 5.19823 17.5016 5.25529 17.4444C5.42646 17.2157 5.34088 17.3015 5.28382 17.1585L5.08411 16.9869L4.85588 17.1585L4.62764 17.3586C4.77029 16.8154 4.94147 16.272 5.11264 15.8431C5.19823 15.9289 5.28382 16.0433 5.36941 16.1291C5.36941 16.0719 5.36941 16.0147 5.36941 15.9575C5.45499 15.8717 5.59764 15.8146 5.6547 15.7288C5.74029 15.6144 5.79734 15.4428 5.76882 15.2999C5.71176 15.0711 5.34088 14.8424 5.79734 14.6422C5.8544 14.6136 5.79734 14.3848 5.79734 14.2419C5.8544 14.2419 5.93999 14.2133 6.08264 14.2133C5.99705 14.1275 5.93999 14.0703 5.82587 13.9845C6.25381 13.2697 6.71028 12.5834 7.16675 11.84C7.25234 12.0115 7.10969 12.3547 7.48057 12.2689C7.62322 12.2403 7.70881 12.0973 7.82292 12.0116C7.73734 11.983 7.65175 11.9258 7.53763 11.8972C7.28087 11.8686 7.19528 11.6112 7.39498 11.3539C7.53763 11.1823 7.68028 10.9821 7.85145 10.8106C7.85145 10.8964 7.73734 10.9821 7.90851 10.8392C7.9941 10.782 7.9941 10.7248 7.96557 10.6962C8.30792 10.2673 8.6788 9.80978 9.07821 9.40946C9.24939 9.2379 9.39203 9.06636 9.56321 8.89479C9.8485 9.00917 9.90556 9.00915 10.2194 9.09494C10.305 8.86618 10.4761 8.43729 10.3906 8.15135C10.5903 7.97979 10.79 7.83679 10.9897 7.66523C11.2464 7.95117 10.9897 7.8082 11.3606 7.8082C11.4461 7.43648 11.5317 7.69382 11.332 7.40788C11.6744 7.15053 12.0167 6.92178 12.3591 6.69302C12.4161 7.7796 12.8726 6.40711 13.215 6.29273ZM21.4314 30.6263C21.4029 30.7121 21.3743 30.7693 21.3173 30.855C21.4314 30.8265 21.5455 30.7979 21.6596 30.6835C21.6882 30.6835 21.6311 30.7121 21.4314 30.6263ZM21.1461 31.2268C21.0035 31.4841 20.8893 31.7415 20.8323 31.8558C20.9179 31.913 20.9464 31.8844 21.032 31.8273C21.089 31.7701 21.1176 31.6271 21.2032 31.5127C21.2887 31.3983 21.4029 31.284 21.4029 31.284C21.4029 31.284 21.3743 31.2268 21.2887 31.2554C21.2602 31.2268 21.2317 31.2268 21.1461 31.2268ZM20.8037 31.7987C20.8608 31.6843 20.9749 31.4555 21.1176 31.1982C21.0035 31.1696 20.8323 31.0838 20.6611 30.9694C20.4043 30.7979 20.2617 30.6263 20.062 30.4548C19.8623 30.2832 19.8623 30.1974 19.7196 30.1116C19.634 30.0544 19.5485 29.9972 19.4343 29.94C19.0349 30.1402 18.4643 30.5405 18.0935 31.3412C18.0935 31.3698 18.1791 31.5127 18.2932 31.6843C18.3502 31.6557 18.4073 31.6843 18.4643 31.7129C18.5499 31.7701 18.6641 31.913 18.7496 31.9988C18.8352 32.1132 18.8638 32.199 18.9208 32.199C18.9493 32.199 19.0064 32.1418 19.0635 32.056C19.092 31.9702 19.3202 31.4555 19.4629 31.1982C19.6055 30.9408 19.7196 30.7121 19.9193 30.5977C20.119 30.4833 20.3188 30.6263 20.4329 30.855C20.547 31.0838 20.6896 31.7415 20.6896 31.7415C20.6896 31.7415 20.7182 31.7701 20.8037 31.7987ZM21.2602 30.855C21.2887 30.7693 21.3458 30.6835 21.3743 30.5977C21.3173 30.5691 21.2317 30.5405 21.1176 30.4833C20.7752 30.2546 20.4329 29.9687 20.2046 29.7399C20.0049 29.7685 19.8623 29.7971 19.7482 29.8257H19.7196C19.8623 29.9114 19.9479 29.9972 20.0049 30.0258C20.062 30.083 20.4329 30.4547 20.5755 30.5691C20.7182 30.6835 20.9179 30.8265 21.1461 30.855C21.2032 30.855 21.2317 30.855 21.2602 30.855ZM21.517 30.3404C21.6311 30.0544 21.7737 29.6827 21.8879 29.3682C21.4314 29.5397 20.9464 29.6255 20.5185 29.7113C20.604 29.7971 20.6611 29.8543 20.7467 29.9115C21.1176 30.1116 21.3458 30.2546 21.517 30.3404ZM18.4929 32.2848C18.4073 32.3705 17.7511 32.8567 17.7226 32.9138C17.5229 33.4571 17.4944 33.8288 17.4373 34.1434C17.6085 34.0862 17.7511 34.0004 17.9508 33.7145C18.1791 33.3713 18.3502 32.9424 18.4358 32.828C18.5499 32.7137 18.5499 32.6851 18.5499 32.6851C18.5499 32.6851 18.5785 32.5421 18.4929 32.3134C18.5214 32.3134 18.5214 32.3133 18.4929 32.2848ZM19.577 32.2848C19.6055 32.3705 19.4629 32.3991 19.577 32.4849C19.634 32.5135 19.7767 32.5707 19.8338 32.5707C19.8908 32.5993 19.9193 32.5993 19.9479 32.5707C19.9479 32.5421 19.9479 32.5421 19.9193 32.5135C19.8908 32.4849 19.8908 32.4563 19.8908 32.3134C19.8908 32.1418 19.8908 31.8844 19.8908 31.7987C19.8908 31.7129 19.8338 31.7701 19.8052 31.8273C19.7767 31.8844 19.6911 31.9988 19.6626 32.056C19.634 32.1132 19.6055 32.0846 19.6055 32.1418C19.5485 32.1704 19.577 32.2276 19.577 32.2848ZM23.1431 39.033C23.0005 39.033 22.8293 39.0616 22.6867 39.0616C22.6867 39.0902 22.6581 39.1187 22.6581 39.1473L22.4584 39.0902C21.517 39.1188 20.5755 39.0902 19.634 38.9758L19.7767 39.3475C19.7482 39.3761 19.7196 39.3761 19.6911 39.4047C19.6055 39.2045 19.3202 39.1474 19.2632 38.9472C19.0635 38.9186 18.8352 38.89 18.6355 38.8328C18.6641 38.8614 18.6641 38.89 18.6926 38.9472C18.8067 39.2045 18.9493 39.4619 19.092 39.7192C19.3488 40.0909 19.634 40.091 19.8623 39.6906C20.119 39.9766 20.4899 40.091 20.6896 39.9194C21.2602 39.5191 21.8879 39.5763 22.5155 39.6049C22.7437 39.6049 22.9434 39.7192 23.1431 39.7764C23.1717 39.7478 23.2002 39.7478 23.2573 39.7192C23.0861 39.4905 23.0861 39.2617 23.1431 39.033ZM17.7511 38.6041C16.667 38.3181 15.6685 37.9464 14.8126 37.5747C14.8982 37.689 14.9552 37.7748 15.0408 37.832C15.3261 38.0608 15.1549 38.4325 15.2976 38.6898C15.3547 38.7756 15.4402 38.8614 15.5258 38.89C15.5829 38.9186 15.6685 38.8042 15.7255 38.747C15.8111 38.6613 15.8682 38.5469 15.9538 38.4325C16.0394 38.4897 16.0964 38.5183 16.182 38.5755C16.2391 38.4611 16.2961 38.3753 16.3532 38.2609C16.8952 38.7756 16.9238 38.8614 16.6385 39.3475C17.0094 39.4047 17.3517 39.4619 17.6941 39.4905C17.6941 39.4619 17.6941 39.4333 17.7226 39.3761C17.637 39.3475 17.5799 39.3189 17.5799 39.3189C17.6085 39.033 17.6655 38.7756 17.7511 38.6041ZM11.5603 25.079H12.1023V24.7931H10.6473V25.079H11.1894V26.8805H11.5603V25.079ZM14.4132 25.3078L14.4417 24.9647C14.242 24.8217 14.0138 24.7359 13.757 24.7359C13.4432 24.7359 13.1864 24.8503 12.9582 25.0505C12.7585 25.2506 12.6444 25.5365 12.6444 25.8511C12.6444 26.1656 12.7585 26.423 12.9582 26.6517C13.1579 26.8519 13.4432 26.9663 13.757 26.9663C14.0138 26.9663 14.2135 26.9091 14.4132 26.7661V26.3944C14.2135 26.5659 13.9852 26.6517 13.7285 26.6517C13.3005 26.6517 12.9867 26.3372 12.9867 25.8797C12.9867 25.4222 13.3005 25.079 13.757 25.079C14.0138 25.0505 14.242 25.1362 14.4132 25.3078ZM17.0379 25.8511L17.2661 26.8805H17.5799L17.0664 24.7073L16.4673 26.0227C16.4388 26.1085 16.3817 26.1942 16.3532 26.3086C16.2961 26.1656 16.2676 26.0513 16.2391 26.0227L15.6114 24.7073L15.1264 26.8805H15.4402L15.6685 25.8511C15.697 25.7653 15.697 25.6509 15.697 25.5651C15.7255 25.6509 15.7541 25.7367 15.8111 25.8225L16.3532 26.9663L16.8952 25.8511C16.9523 25.7653 16.9808 25.6509 16.9808 25.5651C17.0094 25.7081 17.0094 25.8225 17.0379 25.8511ZM19.7196 26.8805H20.0905L19.092 24.7073L18.0935 26.8805H18.4073L18.6641 26.3372H19.4914L19.7196 26.8805ZM18.7782 26.0513H19.3488L19.149 25.5651C19.1205 25.5079 19.092 25.4222 19.0635 25.3364C19.0349 25.4508 19.0064 25.5079 18.9779 25.5651L18.7782 26.0513ZM14.6985 12.8694V20.9329H11.9597V15.0139H10.6188V22.2768H18.7211C19.2061 22.2768 19.5199 22.191 19.6911 21.9909C19.8338 21.7907 19.9479 21.5906 20.0049 21.3618C20.062 21.1331 20.0905 20.8757 20.0905 20.647V15.0425H18.7496V20.361C18.7496 20.5612 18.7211 20.7041 18.6355 20.8185C18.5499 20.9043 18.3502 20.9615 17.9793 20.9615H16.0679V12.898H14.6985V12.8694ZM20.119 39.1187C20.119 39.1473 20.0905 39.2045 20.0905 39.2331C20.2617 39.2903 20.4329 39.3475 20.604 39.4047C20.604 39.4333 20.604 39.4619 20.604 39.4619C20.4899 39.4619 20.3758 39.4905 20.2046 39.5191C20.2617 39.6049 20.3188 39.7192 20.3188 39.7192C20.5185 39.6334 20.7182 39.5191 20.9179 39.4047C20.9179 39.3475 20.8893 39.3189 20.8893 39.2617C20.6326 39.2045 20.3758 39.1473 20.119 39.1187ZM25.1973 39.0044C25.1402 39.033 24.969 39.0616 24.969 39.0902C24.969 39.2617 24.9976 39.4333 25.0261 39.5762C25.0261 39.6334 25.1687 39.6334 25.2543 39.662C25.2543 39.5763 25.2828 39.5191 25.2543 39.4333C25.2543 39.3189 25.2258 39.2045 25.1973 39.0044ZM36.4378 11.8972C36.2951 11.84 36.181 11.7256 36.1525 11.7542C36.0669 11.8114 35.9813 11.9544 36.0099 12.0116C36.0669 12.0973 36.181 12.1259 36.2951 12.2117C36.3237 12.1259 36.3807 12.0401 36.4378 11.8972Z" fill="white"/>
<path fill-rule="evenodd" clip-rule="evenodd" d="M25.454 30.369V29.2538H25.6537V26.8805H34.8116V29.2538H34.9828V30.369H25.454ZM28.2214 27.9671H27.0517V29.2538H28.2214V27.9671ZM30.846 29.2538V27.9671H29.5337V29.2538H30.846ZM33.4993 29.2538V27.9671H32.1584V29.2538H33.4993ZM25.6252 26.3944V20.647H29.6478V25.0505C29.6478 25.1935 29.6193 25.3936 29.5908 25.6224C29.5622 25.8511 29.4481 26.0227 29.2769 26.1657C29.1058 26.3086 28.7634 26.3658 28.1928 26.3658H25.6252V26.3944ZM28.3355 22.9345V21.7336H26.9375V22.9345H28.3355ZM28.3355 24.0211H26.9375V25.3078H27.7649C27.9931 25.3078 28.1358 25.2792 28.2214 25.222C28.3069 25.1649 28.3355 25.0505 28.3355 24.9361V24.0211ZM34.8401 20.6184V25.4222C34.8401 25.6223 34.8116 25.8225 34.726 25.9941C34.669 26.1656 34.5549 26.3086 34.3837 26.423C34.241 26.5374 33.8131 26.5946 33.1284 26.5946H32.5293V25.4794H33.0428C33.214 25.4794 33.3566 25.4508 33.4137 25.3936C33.4707 25.3364 33.4993 25.2506 33.4993 25.1649V24.9933H31.4452V25.508C31.4452 25.6224 31.4452 25.7653 31.4166 25.9369C31.3881 26.1085 31.331 26.2514 31.1884 26.3944C31.0743 26.5374 30.8175 26.6232 30.4466 26.6232H29.819V25.5652H29.9331C30.0758 25.5652 30.1613 25.4508 30.1613 25.1935V20.6184H34.8401ZM31.4737 23.392V23.9353H33.5278V23.392H31.4737ZM31.5308 21.6764V22.334H33.5278V21.6764H31.5308Z" fill="white"/>
<path fill-rule="evenodd" clip-rule="evenodd" d="M57.1786 8.06539V23.5634H60.8874C61.5721 23.5634 62.0001 23.4776 62.1427 23.3061C62.2854 23.1345 62.371 22.8485 62.371 22.4768V12.1544H64.9671V22.9915C64.9671 23.4204 64.9101 23.8493 64.8245 24.3069C64.7389 24.7358 64.5107 25.1361 64.2254 25.4792C63.9115 25.8223 63.3124 25.9939 62.371 25.9939H46.7654V12.1544H49.3331V23.592H54.611V8.06539H57.1786ZM69.703 26.2798V24.2496H70.0739V19.9319H87.705V24.2496H88.0188V26.2798H69.703ZM75.0094 21.9049H72.7556V24.2496H75.0094V21.9049ZM80.0306 24.2496V21.9049H77.5485V24.2496H80.0306ZM85.1659 24.2496V21.9049H82.5697V24.2496H85.1659ZM69.9883 18.9883V8.4943H77.7197V16.5578C77.7197 16.8438 77.6912 17.1869 77.6056 17.6158C77.52 18.0447 77.3203 18.3593 77.0065 18.6166C76.6927 18.874 75.9794 18.9883 74.9239 18.9883H69.9883ZM75.2091 12.669V10.4959H72.5274V12.669H75.2091ZM75.2091 14.642H72.5274V16.9867H74.0965C74.5244 16.9867 74.8097 16.9296 74.9524 16.8152C75.1236 16.7008 75.1806 16.5293 75.1806 16.3005V14.642H75.2091ZM78.8324 8.43713H87.7335V17.2155C87.7335 17.6158 87.6764 17.9589 87.5338 18.2735C87.3911 18.588 87.1914 18.8454 86.8776 19.0741C86.5923 19.3029 85.7935 19.3886 84.4812 19.3886H83.3115V17.3299H84.31C84.6523 17.3299 84.9091 17.2727 85.0232 17.1869C85.1373 17.1011 85.1944 16.9582 85.1944 16.758V16.4435H81.2573V17.3871C81.2573 17.6158 81.2288 17.8732 81.2003 18.1591C81.1432 18.4737 81.0006 18.7596 80.7723 19.0169C80.5441 19.2743 80.0591 19.4172 79.3459 19.4172H78.1477V17.4729H78.3759C78.6897 17.4729 78.8324 17.2441 78.8324 16.8152V8.43713ZM81.2859 13.5269V14.5276H85.2229V13.5269H81.2859ZM81.3429 10.3815V11.5825H85.1944V10.3815H81.3429ZM99.7729 10.3815C100.172 10.2671 100.458 10.1242 100.6 9.92401C100.743 9.72385 100.572 9.4665 100.058 9.20915C99.5446 8.92321 98.974 8.72306 98.3464 8.60868C97.7187 8.46571 97.2052 8.40851 96.8058 8.37992C96.7202 9.03758 96.5776 9.80961 96.3779 10.696C96.1782 11.5824 95.8073 12.5833 95.2652 13.6412C94.7232 14.7278 94.1241 15.6428 93.4964 16.4149C92.8688 17.1869 92.2697 17.816 91.7561 18.3593C92.8117 17.8732 93.9243 17.2155 95.0655 16.4149C96.2067 15.6142 97.1482 14.7278 97.9184 13.7556C98.6602 12.7834 99.1452 12.04 99.3449 11.5253C99.5161 10.9534 99.6587 10.5817 99.7729 10.3815ZM102.883 8.20836H101.085L101.57 9.15198H103.539C103.567 9.60948 103.681 10.2671 103.853 11.0964C104.024 11.9256 104.452 12.8978 105.079 14.013C105.707 15.1281 106.449 16.0145 107.248 16.7008C108.046 17.3871 108.788 17.8732 109.444 18.1877C109.644 18.2735 109.787 18.2735 109.872 18.1877C109.958 18.1019 110.072 17.8732 110.215 17.5014C110.329 17.1297 110.557 16.758 110.899 16.3863C111.242 16.0145 111.641 15.7286 112.069 15.5284C111.612 15.4427 110.985 15.2711 110.186 14.9851C109.387 14.6992 108.531 14.1845 107.561 13.4697C106.62 12.7548 105.907 12.0114 105.45 11.2393C104.994 10.4959 104.68 9.83824 104.537 9.29495C104.851 9.18057 105.136 9.06619 105.365 8.89462C105.593 8.72306 105.621 8.5229 105.479 8.32274C105.308 8.09399 105.051 7.92242 104.68 7.77945C104.309 7.63648 103.995 7.52211 103.71 7.43633L102.883 8.20836ZM102.055 16.758L98.2893 23.6206H106.135C106.078 23.449 105.992 23.1917 105.878 22.9057C105.764 22.6198 105.564 22.2767 105.25 21.9049C104.965 21.5046 104.651 21.1901 104.338 20.9042C104.024 20.6182 103.738 20.3895 103.51 20.1893C104.052 20.2465 104.68 20.3608 105.336 20.5324C106.021 20.704 106.677 21.0185 107.276 21.4188C107.904 21.8191 108.332 22.2195 108.617 22.5626C108.902 22.9343 109.102 23.2203 109.216 23.449C109.387 23.8779 109.387 24.3926 109.273 24.9073C109.159 25.4506 108.817 25.7937 108.303 25.9653C107.79 26.1369 107.362 26.0511 107.019 25.7079C106.677 25.3648 106.477 24.9645 106.42 24.507L94.9799 26.0511C94.8088 26.2227 94.6376 26.3084 94.4093 26.2798C94.1811 26.2512 93.9814 25.9939 93.7817 25.565C93.582 25.1361 93.4394 24.7072 93.3538 24.3069C93.2682 23.9065 93.2111 23.6206 93.1826 23.4204L97.2623 23.5634L99.2308 14.6706C99.8584 14.8136 100.515 14.9566 101.199 15.1567C101.884 15.3569 102.398 15.557 102.683 15.7858C102.997 16.0145 103.025 16.2147 102.797 16.3577C102.626 16.5864 102.34 16.7008 102.055 16.758ZM120.342 20.8184H121.312V25.4792H120.342V20.8184ZM124.251 20.8184H125.221V25.4792H124.251V20.8184ZM128.188 20.8184H129.158V25.4792H128.188V20.8184ZM122.14 9.43792C122.425 9.29495 122.596 9.09478 122.71 8.92321C122.825 8.72305 122.682 8.55149 122.311 8.35133C121.94 8.17976 121.455 8.03679 120.913 7.951C120.371 7.86522 119.915 7.77946 119.515 7.72227C119.372 8.15118 119.173 8.66588 118.887 9.29495C118.602 9.92402 118.203 10.6389 117.661 11.4681C117.119 12.2973 116.577 12.9836 116.035 13.5841C115.492 14.1845 115.007 14.6706 114.608 15.0709C115.207 14.8708 115.92 14.5562 116.719 14.1273C117.518 13.6984 118.345 13.1551 119.173 12.4975C120 11.8112 120.628 11.2107 121.084 10.696C121.541 10.1527 121.883 9.75245 122.14 9.43792ZM127.189 11.0106C127.361 11.1536 127.56 11.3251 127.817 11.5253C128.074 11.754 128.302 11.9828 128.502 12.2401C128.702 12.4975 128.787 12.669 128.759 12.7548C128.73 12.8406 128.616 12.8978 128.502 12.8978H121.141L120.656 11.9542H125.877L127.189 11.0106ZM125.392 15.6714H128.159C128.245 15.9002 128.388 16.2147 128.616 16.615C128.844 17.0154 129.244 17.4729 129.786 18.0162C130.328 18.5594 130.898 18.9884 131.44 19.3029C132.011 19.6174 132.496 19.8748 132.895 20.0177C133.067 20.1035 133.238 20.1035 133.409 19.9891C133.58 19.9033 133.78 19.6746 133.951 19.3601C134.151 19.0169 134.322 18.731 134.493 18.4737C134.664 18.2163 134.835 18.0733 135.007 17.9875C134.693 17.9875 134.236 17.959 133.694 17.8732C133.152 17.7874 132.524 17.6158 131.783 17.3585C131.069 17.0725 130.47 16.7866 130.014 16.4721C129.557 16.1575 129.187 15.9002 128.958 15.6428L129.786 15.3283C129.957 15.2425 130.071 15.1567 130.099 15.0138C130.157 14.8708 130.071 14.7278 129.843 14.5562C129.614 14.3847 129.358 14.2131 129.044 14.0987C128.73 13.9558 128.502 13.87 128.302 13.7842L127.332 14.7278H124.879L125.392 15.6714ZM122.454 15.9859C122.767 15.843 122.996 15.6428 123.138 15.4713C123.31 15.2711 123.195 15.0995 122.853 14.8994C122.511 14.7278 122.026 14.5848 121.427 14.4991C120.827 14.4133 120.285 14.3275 119.829 14.2989C119.715 14.5849 119.544 14.9566 119.287 15.4427C119.03 15.9288 118.602 16.5292 118.003 17.2441C117.404 17.9589 116.833 18.588 116.206 19.1599C115.578 19.7318 115.065 20.1893 114.58 20.5324C114.751 20.5038 114.95 20.4752 115.207 20.418C115.464 20.3608 115.749 20.3037 116.092 20.1893C116.434 20.1035 116.691 20.0177 116.89 19.9319C117.09 19.8462 117.261 19.789 117.375 19.7318V25.9653H114.608L115.264 26.9089H134.721C134.807 26.9089 134.864 26.8517 134.864 26.7087C134.864 26.5658 134.807 26.3656 134.607 26.0225C134.436 25.708 134.236 25.3934 133.979 25.1361C133.751 24.8787 133.552 24.6786 133.38 24.5642L132.068 25.3362V21.2759C132.268 21.1615 132.41 21.0471 132.496 20.8756C132.582 20.704 132.524 20.4752 132.268 20.2179C132.011 19.9319 131.697 19.6746 131.298 19.4459C130.898 19.1885 130.556 18.9883 130.242 18.7882L129.101 19.8748H120.428L118.317 19.4172C118.517 19.2743 118.773 19.1027 119.116 18.8454C119.458 18.588 119.857 18.2735 120.371 17.8732C120.856 17.4729 121.284 17.1011 121.626 16.7866C121.997 16.4721 122.282 16.1861 122.454 15.9859ZM125.078 9.60948H128.188C128.274 9.89542 128.445 10.2957 128.673 10.7818C128.93 11.2679 129.329 11.8398 129.9 12.4975C130.47 13.1551 131.041 13.6698 131.612 14.0416C132.182 14.4419 132.667 14.7278 133.095 14.8994C133.266 14.9566 133.409 14.928 133.552 14.8136C133.694 14.6992 133.837 14.4705 133.979 14.1273C134.122 13.7842 134.322 13.4697 134.522 13.1837C134.75 12.8978 134.978 12.6976 135.206 12.5546C134.892 12.5261 134.436 12.4689 133.894 12.3545C133.352 12.2401 132.724 12.04 131.982 11.6968C131.269 11.3537 130.67 10.982 130.214 10.5817C129.757 10.1528 129.386 9.78105 129.158 9.43792L129.814 9.12336C129.957 9.06617 130.042 8.98041 130.071 8.89462C130.099 8.78025 130.014 8.66586 129.814 8.4943C129.586 8.32274 129.329 8.17977 129.044 8.0368C128.759 7.89383 128.53 7.80806 128.331 7.72227L127.361 8.66586H124.593L125.078 9.60948ZM139.914 7.5793V12.8692H137.631L137.945 13.8128H139.914V26.2798C139.914 26.4228 140.028 26.5944 140.284 26.7374C140.541 26.8803 140.884 26.9089 141.397 26.8517C141.882 26.7945 142.253 26.623 142.51 26.3942C142.766 26.1369 142.881 25.9081 142.881 25.6794V13.8414H145.648C145.848 13.8414 145.962 13.7842 146.047 13.6984C146.104 13.584 146.019 13.4125 145.791 13.1265C145.534 12.8406 145.277 12.6119 144.963 12.3545C144.649 12.1258 144.393 11.9256 144.193 11.8112L143.223 12.8978H142.909V9.00901C143.08 8.86604 143.194 8.66586 143.28 8.4943C143.366 8.29414 143.251 8.12256 142.909 7.97959C142.595 7.83662 142.139 7.72225 141.568 7.69365C140.941 7.57927 140.427 7.5793 139.914 7.5793ZM148.929 7.40771C149.328 7.4363 149.785 7.46491 150.298 7.52209C150.812 7.57928 151.211 7.66507 151.553 7.77945C151.867 7.89382 152.038 8.00821 151.981 8.15118C151.953 8.29416 151.839 8.40852 151.725 8.4943C151.696 8.60868 151.668 8.72306 151.611 8.89462C151.582 9.03759 151.525 9.20914 151.468 9.4093C151.411 9.58086 151.354 9.72383 151.325 9.83821C151.297 9.95259 151.24 10.0098 151.211 10.067H153.836L154.977 8.98039C155.205 9.12336 155.462 9.26634 155.776 9.49509C156.09 9.69525 156.346 9.92401 156.575 10.1814C156.803 10.4387 156.86 10.6103 156.803 10.7532C156.746 10.8962 156.632 10.982 156.461 11.0392C156.461 11.5253 156.375 12.1258 156.232 12.7834C156.09 13.4411 155.747 14.0702 155.205 14.642C154.663 15.2139 154.093 15.6142 153.493 15.7858C152.866 15.9574 152.352 16.0432 151.867 16.0432C151.839 15.9002 151.81 15.7572 151.753 15.5284C151.696 15.3283 151.582 15.0995 151.439 14.8136C151.268 14.5562 151.097 14.3561 150.869 14.1845C150.641 14.0416 150.441 13.8986 150.241 13.8414C150.583 13.87 151.011 13.87 151.468 13.8414C151.924 13.8128 152.381 13.6698 152.78 13.3839C153.18 13.0979 153.465 12.7262 153.608 12.2973C153.75 11.8684 153.836 11.4395 153.864 11.0392H150.926C150.755 11.5539 150.441 12.1543 149.984 12.8406C149.528 13.5268 148.843 14.1559 147.93 14.7564C147.017 15.3569 146.19 15.7572 145.42 15.9574C144.649 16.1575 144.05 16.3005 143.565 16.3577C143.908 16.2147 144.364 15.9288 144.906 15.5857C145.448 15.2139 146.019 14.7278 146.646 14.0702C147.274 13.4125 147.731 12.8406 148.016 12.3259C148.33 11.8112 148.529 11.3823 148.644 11.0678H145.22L144.735 10.1242H148.815C148.843 9.98118 148.872 9.83823 148.929 9.60948C148.957 9.40932 149.014 9.15195 149.043 8.83742C149.071 8.55147 149.071 8.26555 149.071 8.0368C148.957 7.77945 148.957 7.57927 148.929 7.40771ZM144.821 16.3005C145.163 16.3291 145.562 16.3577 145.99 16.3863C146.418 16.4149 146.761 16.472 146.989 16.5578C147.246 16.6436 147.331 16.7294 147.246 16.8152C147.189 16.901 147.074 16.9867 146.932 17.0725V18.9311H148.073L148.9 17.9875C148.986 18.0161 149.071 18.0733 149.214 18.1305C149.328 18.2163 149.471 18.3021 149.614 18.4451C149.756 18.588 149.899 18.6738 149.984 18.7596C150.07 18.8454 150.156 18.9026 150.213 18.9026H152.01V16.2433C152.324 16.2433 152.695 16.2433 153.123 16.2719C153.522 16.2719 153.864 16.3577 154.15 16.4435C154.435 16.5579 154.549 16.6722 154.521 16.8438C154.492 17.0153 154.435 17.1869 154.321 17.3299V18.9026H155.148L156.461 17.9589C156.632 18.1305 156.831 18.3593 157.06 18.6166C157.288 18.874 157.488 19.1599 157.63 19.4459C157.773 19.7318 157.83 19.9605 157.744 20.1035C157.687 20.2465 157.573 20.3895 157.431 20.4467C157.431 21.3045 157.373 22.2195 157.259 23.1631C157.145 24.1353 156.888 24.9359 156.461 25.565C156.033 26.194 155.576 26.5658 155.063 26.6801C154.549 26.7945 154.093 26.8231 153.665 26.8231C153.665 26.6801 153.665 26.5372 153.636 26.3084C153.636 26.1083 153.579 25.8795 153.493 25.5936C153.408 25.3362 153.322 25.1361 153.18 24.9645C153.066 24.8215 152.951 24.6786 152.837 24.6214C153.151 24.65 153.522 24.6214 153.893 24.5928C154.264 24.5356 154.578 24.2782 154.806 23.7921C155.063 23.306 155.205 22.7056 155.234 21.9335C155.262 21.1901 155.291 20.4752 155.291 19.789H154.321C154.321 20.3894 154.235 21.1043 154.036 21.9621C153.836 22.8199 153.408 23.6492 152.723 24.4784C152.038 25.3076 151.297 25.8795 150.526 26.2226C149.728 26.5372 149.043 26.7373 148.444 26.8231C148.957 26.4514 149.499 25.9939 150.07 25.422C150.641 24.8501 151.069 24.1639 151.411 23.3632C151.753 22.5626 151.953 21.8763 151.981 21.2759C152.01 20.6754 152.038 20.1893 152.038 19.789H150.07C150.07 20.5038 150.013 21.3617 149.927 22.3053C149.842 23.2489 149.585 24.1353 149.214 24.9359C148.843 25.7365 148.415 26.2512 147.93 26.48C147.445 26.7088 147.017 26.8231 146.646 26.8231C146.532 26.7945 146.475 26.7087 146.475 26.5658C146.475 26.4228 146.475 26.1941 146.504 25.9081C146.532 25.6222 146.475 25.3362 146.304 25.1361C146.133 24.9073 145.933 24.7643 145.648 24.65C145.905 24.6786 146.161 24.65 146.475 24.5928C146.789 24.5356 147.074 24.2497 147.331 23.7636C147.588 23.2775 147.759 22.6484 147.816 21.9049C147.873 21.1615 147.93 20.4752 147.93 19.8176H146.96C146.96 20.2179 146.932 20.7326 146.846 21.4188C146.761 22.1051 146.504 22.8771 146.019 23.7636C145.562 24.65 144.992 25.3362 144.307 25.8795C143.622 26.3942 142.995 26.7659 142.396 27.0233C142.709 26.6516 143.052 26.1941 143.423 25.6508C143.765 25.0789 144.079 24.4212 144.307 23.6206C144.535 22.82 144.678 22.1051 144.735 21.476C144.792 20.847 144.821 20.3037 144.849 19.8461H143.366L143.052 18.9026H144.849V16.3005H144.821ZM169.156 17.5586C169.156 17.4442 169.128 17.3013 169.099 17.1011C169.07 16.901 168.899 16.7008 168.643 16.4721C168.386 16.2433 168.043 16.0717 167.673 15.9859C167.273 15.9002 166.902 15.843 166.56 15.843C166.731 15.9573 166.874 16.0717 166.988 16.2433C167.102 16.4149 167.188 16.615 167.216 16.8152C167.245 17.0439 167.273 17.2155 167.273 17.3585C167.273 17.5014 167.33 17.6158 167.387 17.7016C167.444 17.8732 167.558 18.0733 167.701 18.2449C167.872 18.4164 168.072 18.5022 168.329 18.5022C168.585 18.5022 168.785 18.3879 168.928 18.1591C169.07 17.959 169.156 17.7588 169.156 17.5586ZM166.218 15.6714H169.498V18.6166H166.218V15.6714ZM172.437 15.6714H175.718V18.6166H173.264L175.404 16.4435L173.264 15.8144L172.779 18.6166H172.465V15.6714H172.437ZM167.359 21.2759H174.234V22.677H167.359V21.2759ZM167.359 23.6206H174.234V25.0217H167.359V23.6206ZM171.61 9.12336C172.18 9.43789 172.865 9.78105 173.692 10.1528C174.52 10.5245 175.432 10.8676 176.488 11.1822C177.544 11.4967 178.457 11.6968 179.255 11.8112C180.054 11.9256 180.71 12.0114 181.252 12.0686C181.024 12.2115 180.825 12.4117 180.653 12.669C180.482 12.955 180.311 13.2409 180.168 13.5841C180.026 13.9272 179.883 14.1559 179.712 14.2703C179.541 14.3847 179.341 14.4419 179.113 14.4133C178.913 14.3561 178.685 14.2703 178.371 14.1845C178.057 14.0702 177.715 13.9272 177.315 13.7556C176.916 13.5841 176.545 13.4125 176.26 13.2409C175.975 13.0979 175.718 12.955 175.518 12.8406L175.832 13.6127H167.986L167.159 12.669H173.036L173.863 11.7254C173.692 11.6111 173.493 11.4967 173.264 11.3251C173.036 11.1536 172.779 10.9534 172.494 10.6674C172.209 10.4101 171.952 10.1813 171.752 9.95259C171.553 9.72384 171.381 9.55227 171.239 9.38071C170.839 9.80962 170.297 10.2671 169.67 10.7818C169.042 11.2965 168.3 11.8112 167.473 12.2973C166.617 12.7834 165.904 13.1551 165.276 13.4125C164.648 13.6698 164.135 13.87 163.736 14.0416L166.503 14.6706H175.49L176.631 13.8986C176.916 14.0416 177.23 14.1845 177.658 14.3847C178.057 14.5848 178.428 14.8136 178.713 15.0709C179.027 15.3283 179.113 15.5571 179.027 15.7572C178.942 15.9574 178.799 16.1003 178.571 16.2433V19.0455C178.571 19.1885 178.457 19.3887 178.228 19.5888C178 19.789 177.629 19.932 177.173 20.0463C176.688 20.1321 176.317 20.1035 176.06 19.9891C175.803 19.8461 175.661 19.7032 175.632 19.5316H166.16V19.6746L167.473 20.3037H174.006L175.318 19.6746C175.604 19.8176 175.918 19.9606 176.288 20.1607C176.659 20.3609 177.002 20.5896 177.258 20.8184C177.515 21.0757 177.601 21.2759 177.515 21.4474C177.43 21.619 177.287 21.762 177.116 21.8477V25.422C177.116 25.6508 177.002 25.9081 176.745 26.1655C176.488 26.4228 176.117 26.5944 175.632 26.7087C175.147 26.8231 174.776 26.8231 174.52 26.7087C174.263 26.5944 174.149 26.48 174.149 26.3656V25.9081H167.273C167.273 26.0511 167.159 26.2226 166.902 26.4228C166.645 26.5944 166.303 26.7373 165.79 26.7945C165.305 26.8517 164.934 26.8517 164.677 26.7374C164.42 26.623 164.306 26.5086 164.306 26.3942V20.3609C164.192 20.3609 164.078 20.3609 163.935 20.3323C163.793 20.3323 163.678 20.2751 163.564 20.1607C163.45 20.0463 163.393 19.932 163.365 19.7604C163.336 19.5888 163.336 19.4172 163.336 19.2743V14.1273C163.165 14.1845 162.965 14.2417 162.708 14.2989C162.452 14.3561 162.166 14.4133 161.853 14.4705C161.539 14.5277 161.225 14.5562 160.997 14.5562C160.74 14.5562 160.54 14.5849 160.369 14.5849C160.854 14.3847 161.51 14.0416 162.338 13.6127C163.165 13.1837 164.106 12.5261 165.162 11.6968C166.218 10.8676 167.016 10.067 167.615 9.32354C168.215 8.58009 168.614 7.9224 168.871 7.40771C169.327 7.4649 169.898 7.52211 170.525 7.60789C171.182 7.69367 171.695 7.80803 172.066 7.97959C172.465 8.15116 172.551 8.35132 172.351 8.55147C172.294 8.75163 172.009 8.95179 171.61 9.12336Z" fill="white"/>
</g>
<defs>
<filter id="filter0_d_3453_372" x="0" y="0" width="185.252" height="44" filterUnits="userSpaceOnUse" color-interpolation-filters="sRGB">
<feFlood flood-opacity="0" result="BackgroundImageFix"/>
<feColorMatrix in="SourceAlpha" type="matrix" values="0 0 0 0 0 0 0 0 0 0 0 0 0 0 0 0 0 0 127 0" result="hardAlpha"/>
<feOffset/>
<feGaussianBlur stdDeviation="2"/>
<feComposite in2="hardAlpha" operator="out"/>
<feColorMatrix type="matrix" values="0 0 0 0 0.25 0 0 0 0 0.25 0 0 0 0 0.25 0 0 0 1 0"/>
<feBlend mode="normal" in2="BackgroundImageFix" result="effect1_dropShadow_3453_372"/>
<feBlend mode="normal" in="SourceGraphic" in2="effect1_dropShadow_3453_372" result="shape"/>
</filter>
</defs>
</svg>
