<svg width="24" height="20" viewBox="0 0 24 20" fill="none" xmlns="http://www.w3.org/2000/svg">
<path fill-rule="evenodd" clip-rule="evenodd" d="M1.33193 0.666992C0.978295 0.666992 0.63914 0.807475 0.389079 1.05754C0.139018 1.3076 -0.00146484 1.64675 -0.00146484 2.00039C-0.00146484 2.35403 0.139018 2.69319 0.389079 2.94325C0.63914 3.19331 0.978295 3.33379 1.33193 3.33379H22.6663C23.02 3.33379 23.3591 3.19331 23.6092 2.94325C23.8592 2.69319 23.9997 2.35403 23.9997 2.00039C23.9997 1.64675 23.8592 1.3076 23.6092 1.05754C23.3591 0.807475 23.02 0.666992 22.6663 0.666992H1.33193ZM-0.00146484 10.0008C-0.00146484 9.64715 0.139018 9.30799 0.389079 9.05793C0.63914 8.80787 0.978295 8.66739 1.33193 8.66739H22.6663C23.02 8.66739 23.3591 8.80787 23.6092 9.05793C23.8592 9.30799 23.9997 9.64715 23.9997 10.0008C23.9997 10.3544 23.8592 10.6936 23.6092 10.9436C23.3591 11.1937 23.02 11.3342 22.6663 11.3342H1.33193C0.978295 11.3342 0.63914 11.1937 0.389079 10.9436C0.139018 10.6936 -0.00146484 10.3544 -0.00146484 10.0008ZM-0.00146484 18.0012C-0.00146484 17.6475 0.139018 17.3084 0.389079 17.0583C0.63914 16.8083 0.978295 16.6678 1.33193 16.6678H22.6663C23.02 16.6678 23.3591 16.8083 23.6092 17.0583C23.8592 17.3084 23.9997 17.6475 23.9997 18.0012C23.9997 18.3548 23.8592 18.694 23.6092 18.944C23.3591 19.1941 23.02 19.3346 22.6663 19.3346H1.33193C0.978295 19.3346 0.63914 19.1941 0.389079 18.944C0.139018 18.694 -0.00146484 18.3548 -0.00146484 18.0012Z" fill="#003444"/>
</svg>
