<svg width="14" height="9" viewBox="0 0 14 9" fill="none" xmlns="http://www.w3.org/2000/svg">
<path fill-rule="evenodd" clip-rule="evenodd" d="M6.99993 0.833862C7.22093 0.83391 7.43285 0.921734 7.5891 1.07802L13.4224 6.91106C13.5742 7.06822 13.6582 7.27871 13.6563 7.4972C13.6544 7.71569 13.5668 7.92469 13.4123 8.07918C13.2578 8.23368 13.0488 8.32132 12.8303 8.32322C12.6118 8.32512 12.4013 8.24113 12.2441 8.08933L6.99993 2.84543L1.75577 8.08933C1.5986 8.24113 1.3881 8.32512 1.1696 8.32322C0.951101 8.32132 0.742091 8.23368 0.587584 8.07918C0.433077 7.92469 0.345436 7.71569 0.343537 7.4972C0.341639 7.27871 0.425634 7.06822 0.577433 6.91106L6.41077 1.07802C6.56701 0.921734 6.77894 0.83391 6.99993 0.833862Z" fill="#A96D31"/>
</svg>
